<svg width="482" height="373" viewBox="0 0 482 373" fill="none" xmlns="http://www.w3.org/2000/svg">
<g clip-path="url(#clip0_410_109)">
<path d="M355.343 258.687C355.335 279.902 349.428 300.696 338.281 318.748C327.135 336.8 311.188 351.399 292.221 360.914C291.25 361.402 290.27 361.876 289.279 362.337C263.679 374.214 234.599 376.246 207.594 368.046C204.944 367.237 202.335 366.336 199.769 365.343C176.296 356.266 156.473 339.702 143.372 318.218C130.271 296.734 124.625 271.531 127.306 246.513C129.988 221.495 140.849 198.06 158.206 179.84C175.563 161.619 198.446 149.631 223.311 145.732C229.163 144.827 235.076 144.373 240.998 144.374C304.15 144.374 355.343 195.553 355.343 258.687Z" fill="#132D83"/>
<path opacity="0.2" d="M363.637 274.979C380.683 256.477 389.454 228.776 380.264 205.36C366.723 229.13 345.208 247.346 319.526 256.784C309.609 260.388 298.203 263.364 292.815 272.435C289.463 278.08 289.225 285.145 290.744 291.531C292.264 297.917 295.385 303.789 298.474 309.581L298.494 311.22C322.634 304.127 346.592 293.482 363.637 274.979Z" fill="#E6E6E6"/>
<path opacity="0.2" d="M379.751 205.485C376.857 226.103 367.539 245.287 353.119 260.309C350.01 263.509 346.578 266.484 342.61 268.572C338.727 270.577 334.378 271.506 330.014 271.263C325.941 271.118 321.791 270.498 317.754 271.345C313.498 272.238 310.13 274.985 307.946 278.691C305.273 283.225 304.389 288.449 303.702 293.587C302.94 299.292 302.238 305.23 298.979 310.141C298.584 310.736 299.531 311.313 299.925 310.719C305.595 302.176 303.684 291.267 307.507 282.056C309.29 277.758 312.38 273.972 317.004 272.67C321.047 271.531 325.327 272.167 329.45 272.35C333.779 272.542 337.9 272.01 341.864 270.177C345.919 268.302 349.475 265.455 352.652 262.349C359.803 255.252 365.795 247.074 370.406 238.116C375.725 227.922 379.261 216.893 380.86 205.507C380.958 204.802 379.849 204.785 379.751 205.485Z" fill="white"/>
<path opacity="0.2" d="M358.047 255.745C360.896 257.822 364.391 258.818 367.908 258.556C371.425 258.294 374.733 256.791 377.244 254.315C377.75 253.813 376.992 253.002 376.486 253.506C374.152 255.816 371.07 257.215 367.795 257.453C364.52 257.69 361.268 256.749 358.625 254.799C358.051 254.377 357.475 255.325 358.047 255.745V255.745Z" fill="white"/>
<path opacity="0.2" d="M332.07 271.609C330.89 264.499 332.433 257.207 336.392 251.185C336.785 250.588 335.838 250.01 335.446 250.606C331.338 256.88 329.747 264.473 330.992 271.868C331.111 272.573 332.188 272.31 332.07 271.609Z" fill="white"/>
<path opacity="0.2" d="M374.258 227.816C372.988 227.242 371.881 226.362 371.035 225.255C370.189 224.147 369.632 222.847 369.413 221.471C369.303 220.765 368.226 221.029 368.335 221.731C368.584 223.25 369.201 224.685 370.133 225.911C371.064 227.136 372.282 228.115 373.68 228.762C373.806 228.834 373.955 228.855 374.097 228.821C374.239 228.787 374.362 228.7 374.442 228.578C374.518 228.453 374.541 228.302 374.507 228.159C374.473 228.017 374.383 227.893 374.258 227.816Z" fill="white"/>
<path opacity="0.2" d="M299.319 178.805C299.376 179.248 299.432 179.691 299.481 180.14C300.206 186.097 300.446 192.102 300.198 198.097C300.186 198.561 300.167 199.031 300.142 199.494C299.391 213.932 295.965 228.104 290.038 241.292C287.675 246.537 284.916 251.595 281.785 256.422C277.461 263.088 272.242 269.972 270.427 277.457C270.229 278.235 270.079 279.026 269.979 279.823L296.493 311.117C296.589 311.157 296.678 311.205 296.774 311.246L297.775 312.544C297.954 312.306 298.135 312.056 298.313 311.818C298.418 311.681 298.516 311.536 298.621 311.399C298.688 311.305 298.756 311.211 298.822 311.13C298.845 311.099 298.867 311.067 298.883 311.042C298.949 310.961 299.002 310.879 299.061 310.804C300.074 309.408 301.078 308.002 302.074 306.586C302.081 306.58 302.081 306.58 302.082 306.567C309.645 295.761 316.371 284.228 321.133 272.042C321.276 271.675 321.427 271.303 321.558 270.922C323.673 265.417 325.336 259.749 326.528 253.973C327.17 250.808 327.652 247.613 327.972 244.4C328.781 236.095 328.279 227.715 326.483 219.567C322.901 203.323 314.163 188.406 300.379 179.477C300.026 179.249 299.679 179.027 299.319 178.805Z" fill="#E6E6E6"/>
<path opacity="0.2" d="M298.982 179.212C309.089 197.417 313.201 218.342 310.735 239.016C310.179 243.442 309.231 247.884 307.32 251.939C305.428 255.877 302.515 259.237 298.884 261.669C295.544 264.005 291.858 266.007 289.144 269.114C286.284 272.388 285.249 276.609 285.737 280.883C286.333 286.111 288.773 290.814 291.32 295.33C294.147 300.345 297.163 305.508 297.518 311.391C297.561 312.103 298.664 311.995 298.621 311.283C298.004 301.049 289.908 293.489 287.413 283.834C286.249 279.329 286.435 274.445 289.343 270.623C291.886 267.28 295.686 265.212 299.088 262.876C302.66 260.424 305.63 257.518 307.691 253.669C309.8 249.732 310.924 245.318 311.59 240.926C313.026 230.954 312.885 220.819 311.172 210.891C309.28 199.55 305.461 188.616 299.88 178.562C299.535 177.94 298.638 178.594 298.982 179.212V179.212Z" fill="white"/>
<path opacity="0.2" d="M311.921 232.406C315.447 232.349 318.837 231.04 321.487 228.715C324.137 226.389 325.874 223.197 326.387 219.71C326.489 219.003 325.396 218.813 325.295 219.52C324.822 222.768 323.204 225.741 320.732 227.902C318.26 230.063 315.097 231.269 311.813 231.302C311.1 231.311 311.211 232.414 311.921 232.406Z" fill="white"/>
<path opacity="0.2" d="M300.733 260.707C295.509 255.742 292.35 248.99 291.884 241.799C291.839 241.086 290.735 241.194 290.781 241.906C291.279 249.388 294.581 256.408 300.029 261.564C300.548 262.055 301.25 261.196 300.733 260.707L300.733 260.707Z" fill="white"/>
<path opacity="0.2" d="M308.045 200.348C306.685 200.655 305.271 200.619 303.929 200.243C302.587 199.868 301.359 199.166 300.355 198.199C299.842 197.701 299.141 198.561 299.651 199.055C300.764 200.118 302.121 200.892 303.603 201.31C305.085 201.728 306.647 201.777 308.152 201.452C308.297 201.433 308.429 201.36 308.521 201.248C308.614 201.135 308.66 200.992 308.651 200.846C308.636 200.7 308.564 200.566 308.45 200.473C308.337 200.38 308.191 200.335 308.045 200.348H308.045Z" fill="white"/>
<path d="M481.396 29.2075H0.603598C0.442317 29.2039 0.288848 29.1374 0.176049 29.0221C0.0632504 28.9068 9.15527e-05 28.7519 9.15527e-05 28.5906C9.15527e-05 28.4294 0.0632504 28.2745 0.176049 28.1592C0.288848 28.0439 0.442317 27.9773 0.603598 27.9738H481.396C481.558 27.9773 481.711 28.0439 481.824 28.1592C481.937 28.2745 482 28.4294 482 28.5906C482 28.7519 481.937 28.9068 481.824 29.0221C481.711 29.1374 481.558 29.2039 481.396 29.2075Z" fill="#CACACA"/>
<path d="M14.1893 20.5713C17.8562 20.5713 20.8288 17.5332 20.8288 13.7856C20.8288 10.038 17.8562 7 14.1893 7C10.5223 7 7.54971 10.038 7.54971 13.7856C7.54971 17.5332 10.5223 20.5713 14.1893 20.5713Z" fill="#3F3D56"/>
<path d="M37.126 20.5713C40.7929 20.5713 43.7655 17.5332 43.7655 13.7856C43.7655 10.038 40.7929 7 37.126 7C33.459 7 30.4864 10.038 30.4864 13.7856C30.4864 17.5332 33.459 20.5713 37.126 20.5713Z" fill="#3F3D56"/>
<path d="M60.0627 20.5713C63.7296 20.5713 66.7022 17.5332 66.7022 13.7856C66.7022 10.038 63.7296 7 60.0627 7C56.3957 7 53.4231 10.038 53.4231 13.7856C53.4231 17.5332 56.3957 20.5713 60.0627 20.5713Z" fill="#3F3D56"/>
<path d="M467.654 11.1506H451.357C451.034 11.1435 450.727 11.0104 450.501 10.7798C450.276 10.5492 450.149 10.2394 450.149 9.91685C450.149 9.59426 450.276 9.28448 450.501 9.05388C450.727 8.82328 451.034 8.69019 451.357 8.68311H467.654C467.976 8.69019 468.283 8.82328 468.509 9.05388C468.735 9.28448 468.861 9.59426 468.861 9.91685C468.861 10.2394 468.735 10.5492 468.509 10.7798C468.283 11.0104 467.976 11.1435 467.654 11.1506Z" fill="#3F3D56"/>
<path d="M467.654 15.7771H451.357C451.034 15.77 450.727 15.6368 450.502 15.4063C450.276 15.1757 450.15 14.8659 450.15 14.5433C450.15 14.2208 450.276 13.911 450.502 13.6804C450.727 13.4498 451.034 13.3167 451.357 13.3096H467.654C467.976 13.3167 468.283 13.4498 468.509 13.6804C468.735 13.911 468.861 14.2208 468.861 14.5433C468.861 14.8659 468.735 15.1757 468.509 15.4063C468.283 15.6368 467.976 15.77 467.654 15.7771Z" fill="#3F3D56"/>
<path d="M467.654 20.4037H451.357C451.034 20.3966 450.727 20.2634 450.502 20.0328C450.276 19.8022 450.15 19.4925 450.15 19.1699C450.15 18.8473 450.276 18.5376 450.502 18.307C450.727 18.0764 451.034 17.9433 451.357 17.9362H467.654C467.976 17.9433 468.283 18.0764 468.509 18.307C468.735 18.5376 468.861 18.8473 468.861 19.1699C468.861 19.4925 468.735 19.8022 468.509 20.0328C468.283 20.2634 467.976 20.3966 467.654 20.4037Z" fill="#3F3D56"/>
<path opacity="0.2" d="M130.354 305.198C116.754 290.436 109.756 268.335 117.089 249.653C127.892 268.618 145.057 283.151 165.547 290.681C173.46 293.557 182.56 295.931 186.858 303.168C189.533 307.672 189.722 313.308 188.51 318.403C187.298 323.498 184.808 328.184 182.343 332.805L182.328 334.112C163.068 328.453 143.953 319.96 130.354 305.198Z" fill="#E6E6E6"/>
<path opacity="0.2" d="M117.498 249.753C119.806 266.203 127.241 281.508 138.746 293.494C141.177 296.118 144.006 298.342 147.13 300.086C150.228 301.686 153.698 302.427 157.179 302.233C160.429 302.117 163.74 301.622 166.961 302.298C168.605 302.669 170.152 303.382 171.5 304.393C172.849 305.403 173.969 306.686 174.786 308.159C176.919 311.777 177.624 315.944 178.172 320.044C178.78 324.596 179.34 329.333 181.94 333.251C182.255 333.726 181.5 334.187 181.186 333.713C176.662 326.897 178.186 318.193 175.137 310.844C173.714 307.415 171.248 304.394 167.559 303.355C164.334 302.447 160.919 302.954 157.63 303.1C154.236 303.339 150.836 302.744 147.725 301.367C144.523 299.788 141.612 297.676 139.118 295.121C133.412 289.458 128.632 282.934 124.954 275.788C120.71 267.654 117.889 258.855 116.613 249.771C116.534 249.208 117.42 249.194 117.498 249.753L117.498 249.753Z" fill="white"/>
<path opacity="0.2" d="M134.814 289.852C132.541 291.509 129.752 292.304 126.946 292.095C124.141 291.886 121.501 290.687 119.498 288.711C119.094 288.31 119.699 287.664 120.103 288.066C121.965 289.908 124.424 291.025 127.037 291.214C129.65 291.404 132.244 290.653 134.352 289.098C134.811 288.76 135.27 289.517 134.814 289.852Z" fill="white"/>
<path opacity="0.2" d="M155.539 302.509C156.481 296.837 155.25 291.018 152.091 286.214C151.778 285.738 152.533 285.277 152.846 285.752C156.123 290.758 157.392 296.815 156.399 302.716C156.304 303.278 155.445 303.068 155.539 302.509V302.509Z" fill="white"/>
<path opacity="0.2" d="M121.88 267.57C122.893 267.112 123.777 266.41 124.452 265.526C125.126 264.642 125.571 263.605 125.746 262.507C125.833 261.944 126.693 262.155 126.606 262.714C126.407 263.926 125.915 265.071 125.171 266.049C124.428 267.027 123.457 267.808 122.342 268.324C122.241 268.381 122.122 268.398 122.009 268.371C121.896 268.344 121.797 268.275 121.733 268.178C121.673 268.077 121.654 267.957 121.682 267.843C121.709 267.73 121.78 267.631 121.88 267.57Z" fill="white"/>
<path opacity="0.2" d="M181.669 228.467C181.624 228.82 181.579 229.174 181.54 229.532C180.961 234.284 180.77 239.076 180.968 243.859C180.977 244.229 180.992 244.604 181.012 244.973C181.612 256.492 184.345 267.799 189.074 278.321C190.959 282.506 193.16 286.541 195.658 290.393C199.108 295.711 203.272 301.203 204.72 307.174C204.878 307.796 204.998 308.426 205.078 309.062L183.924 334.029C183.848 334.062 183.776 334.1 183.7 334.133L182.901 335.168C182.758 334.978 182.614 334.779 182.471 334.589C182.388 334.479 182.31 334.364 182.226 334.255C182.172 334.18 182.119 334.104 182.066 334.04C182.047 334.015 182.03 333.99 182.017 333.97C181.964 333.906 181.922 333.84 181.875 333.78C181.067 332.666 180.266 331.544 179.471 330.415C179.465 330.41 179.465 330.41 179.464 330.4C173.431 321.778 168.064 312.577 164.265 302.855C164.151 302.562 164.031 302.265 163.926 301.961C162.238 297.569 160.912 293.046 159.961 288.438C159.448 285.913 159.064 283.364 158.809 280.8C158.163 274.175 158.564 267.489 159.997 260.988C162.854 248.028 169.826 236.127 180.823 229.003C181.105 228.821 181.382 228.644 181.669 228.467Z" fill="#E6E6E6"/>
<path opacity="0.2" d="M181.938 228.792C173.874 243.316 170.593 260.011 172.561 276.505C172.922 280.064 173.841 283.543 175.285 286.815C176.795 289.957 179.119 292.638 182.016 294.578C184.681 296.442 187.622 298.04 189.787 300.518C190.876 301.803 191.682 303.304 192.15 304.923C192.619 306.541 192.74 308.24 192.505 309.908C192.029 314.08 190.083 317.832 188.051 321.435C185.796 325.435 183.39 329.555 183.106 334.248C183.072 334.817 182.191 334.73 182.226 334.162C182.719 325.997 189.177 319.966 191.168 312.262C192.097 308.668 191.948 304.772 189.628 301.722C187.599 299.055 184.568 297.405 181.854 295.542C179 293.69 176.643 291.168 174.989 288.196C173.383 285.008 172.331 281.57 171.879 278.029C170.733 270.073 170.845 261.987 172.212 254.067C173.722 245.018 176.769 236.295 181.221 228.273C181.497 227.777 182.212 228.298 181.938 228.792H181.938Z" fill="white"/>
<path opacity="0.2" d="M171.615 271.231C168.802 271.186 166.097 270.142 163.982 268.286C161.868 266.431 160.483 263.884 160.073 261.102C159.992 260.538 160.864 260.386 160.945 260.95C161.321 263.542 162.612 265.914 164.585 267.638C166.557 269.362 169.081 270.324 171.701 270.351C172.27 270.358 172.181 271.238 171.615 271.231Z" fill="white"/>
<path d="M180.541 293.811C184.708 289.849 187.229 284.463 187.601 278.725C187.637 278.157 188.518 278.243 188.481 278.811C188.084 284.781 185.449 290.381 181.103 294.494C180.688 294.886 180.128 294.201 180.541 293.811Z" fill="white"/>
<path opacity="0.2" d="M174.707 245.655C175.792 245.899 176.92 245.87 177.991 245.571C179.062 245.272 180.042 244.711 180.842 243.94C181.252 243.543 181.811 244.229 181.405 244.623C180.516 245.471 179.433 246.089 178.251 246.422C177.068 246.755 175.822 246.794 174.621 246.535C174.506 246.52 174.401 246.462 174.327 246.372C174.253 246.283 174.216 246.168 174.224 246.052C174.236 245.936 174.293 245.829 174.384 245.754C174.474 245.68 174.59 245.644 174.707 245.655Z" fill="white"/>
<path d="M445.74 72.6927H67.9629C67.4031 72.6934 66.8486 72.5837 66.3311 72.37C65.8137 72.1562 65.3434 71.8426 64.9473 71.4471C64.5512 71.0515 64.2369 70.5818 64.0225 70.0647C63.8081 69.5477 63.6978 68.9935 63.6978 68.4338C63.6978 67.874 63.8081 67.3198 64.0225 66.8028C64.2369 66.2857 64.5512 65.816 64.9473 65.4204C65.3434 65.0249 65.8137 64.7113 66.3311 64.4976C66.8486 64.2838 67.4031 64.1741 67.9629 64.1748H445.74C446.3 64.1741 446.855 64.2838 447.372 64.4976C447.889 64.7113 448.36 65.0249 448.756 65.4204C449.152 65.816 449.466 66.2857 449.681 66.8028C449.895 67.3198 450.005 67.874 450.005 68.4338C450.005 68.9935 449.895 69.5477 449.681 70.0647C449.466 70.5818 449.152 71.0515 448.756 71.4471C448.36 71.8426 447.889 72.1562 447.372 72.37C446.855 72.5837 446.3 72.6934 445.74 72.6927Z" fill="url(#paint0_linear_410_109)"/>
<path d="M445.74 89.522H67.9629C66.833 89.522 65.7494 89.0733 64.9504 88.2745C64.1514 87.4758 63.7026 86.3924 63.7026 85.2628C63.7026 84.1332 64.1514 83.0499 64.9504 82.2511C65.7494 81.4524 66.833 81.0037 67.9629 81.0037H445.74C446.87 81.0037 447.954 81.4524 448.753 82.2511C449.552 83.0499 450.001 84.1332 450.001 85.2628C450.001 86.3924 449.552 87.4758 448.753 88.2745C447.954 89.0733 446.87 89.522 445.74 89.522Z" fill="url(#paint1_linear_410_109)"/>
<path d="M371.737 106.351H67.9629C66.833 106.351 65.7494 105.902 64.9504 105.104C64.1514 104.305 63.7026 103.222 63.7026 102.092C63.7026 100.962 64.1514 99.8791 64.9504 99.0804C65.7494 98.2816 66.833 97.8329 67.9629 97.8329H371.737C372.867 97.8329 373.951 98.2816 374.75 99.0804C375.549 99.8791 375.998 100.962 375.998 102.092C375.998 103.222 375.549 104.305 374.75 105.104C373.951 105.902 372.867 106.351 371.737 106.351Z" fill="url(#paint2_linear_410_109)"/>
<path d="M222.806 182.214C230.48 182.214 236.7 175.995 236.7 168.324C236.7 160.652 230.48 154.433 222.806 154.433C215.132 154.433 208.912 160.652 208.912 168.324C208.912 175.995 215.132 182.214 222.806 182.214Z" fill="#2F2E41"/>
<path d="M245.037 234.998C264.477 234.998 280.236 219.243 280.236 199.808C280.236 180.374 264.477 164.619 245.037 164.619C225.597 164.619 209.838 180.374 209.838 199.808C209.838 219.243 225.597 234.998 245.037 234.998Z" fill="#2F2E41"/>
<path d="M247.95 234.989C263.747 234.989 276.553 222.186 276.553 206.394C276.553 190.601 263.747 177.799 247.95 177.799C232.153 177.799 219.346 190.601 219.346 206.394C219.346 222.186 232.153 234.989 247.95 234.989Z" fill="#9E616A"/>
<path d="M267.374 177.245C262.362 174.19 256.621 172.538 250.751 172.46C244.882 172.383 239.099 173.884 234.008 176.805C228.917 179.727 224.705 183.962 221.811 189.068C218.918 194.174 217.45 199.964 217.561 205.831C232.136 209.49 247.448 212.289 262.991 206.706L266.661 197.725L268.825 206.713C273.559 208.647 278.304 210.284 283.05 206.694C283.243 200.843 281.898 195.044 279.147 189.876C276.396 184.708 272.336 180.353 267.374 177.245Z" fill="#2F2E41"/>
<path d="M193.47 259.283H193.432C191.548 259.301 189.702 258.748 188.139 257.697C186.575 256.646 185.366 255.146 184.672 253.395C183.925 251.622 183.733 249.664 184.122 247.779C184.51 245.894 185.46 244.171 186.847 242.837L187.007 242.678C192.421 237.227 195.471 229.865 195.498 222.184C195.505 211.337 189.431 201.312 183.738 192.767L182.688 191.195C177.014 182.71 171.147 173.935 169.653 163.827C168.067 153.092 172.133 141.76 180.012 134.959C188.19 127.9 200.518 126.003 209.994 130.346C219.814 134.847 226.132 146.062 224.688 156.431L224.673 156.539L221.222 159.642L221.095 159.633C212.923 159.003 204.783 164.386 202.153 172.142C200.382 177.363 201.019 183.085 201.971 188.49C203.988 199.937 207.38 211.098 212.073 221.733C212.311 222.273 212.552 222.815 212.796 223.36C215.532 229.483 218.36 235.814 217.277 242.372C215.565 252.736 204.561 258.801 195.077 259.245C194.54 259.27 194.004 259.283 193.47 259.283Z" fill="#2F2E41"/>
<path d="M317.901 343.291C310.182 350.305 301.543 356.234 292.221 360.914L290.25 354.567L288.66 360.753L289.279 362.337C288.594 362.658 287.903 362.968 287.213 363.271C286.623 363.533 286.033 363.789 285.444 364.04C263.853 373.107 240.006 375.359 217.099 370.493C216.497 370.368 215.902 370.237 215.306 370.1C212.704 369.505 210.131 368.814 207.594 368.046L211.143 354.853L207.987 338.903L199.769 365.343C190.44 361.733 181.625 356.913 173.553 351.007C176.078 334.687 179.038 315.099 180.866 301.543C181.527 296.589 182.039 292.445 182.325 289.552C182.557 286.84 183.088 284.162 183.909 281.568C184.312 280.313 184.829 279.097 185.452 277.936C185.583 277.68 185.726 277.436 185.869 277.197C186.006 276.965 186.148 276.745 186.297 276.531C189.954 271.083 194.647 271.416 194.647 271.416L208.654 268.684L213.031 267.826L214.812 267.481L216.992 267.052C218.657 266.728 220.235 266.058 221.625 265.085C223.015 264.113 224.186 262.86 225.061 261.408L231.011 251.531C232.272 249.443 234.131 247.781 236.347 246.762C236.615 246.643 236.889 246.53 237.163 246.422C238.373 245.969 239.648 245.714 240.939 245.666L249.36 245.339L252.766 245.202L257.417 245.023C258.515 244.98 259.613 245.088 260.681 245.345H260.687C261.062 245.434 261.419 245.535 261.783 245.66C264.596 246.61 266.964 248.559 268.435 251.138L272.592 258.425C273.527 260.064 274.832 261.463 276.402 262.51C277.972 263.557 279.765 264.223 281.638 264.456L283.234 264.653L285.027 264.879L289.559 265.445L297.837 266.481L297.855 266.796C299.439 266.921 303.953 267.85 306.979 274.298C307.181 274.721 307.372 275.173 307.556 275.644C308.616 278.503 309.291 281.49 309.563 284.527C309.581 284.658 309.593 284.789 309.605 284.92C310.618 295.238 314.542 321.547 317.901 343.291Z" fill="url(#paint3_linear_410_109)"/>
<path d="M250.455 370.273L249.89 372.911L248.145 372.536L248.664 370.116C250.301 362.483 251.041 354.685 250.867 346.88L248.675 248.203L248.633 246.428L248.609 245.351L249.515 245.333L250.396 245.315L250.485 249.411L252.654 347.058C252.828 354.855 252.089 362.647 250.455 370.273Z" fill="#2F2E41"/>
<path d="M180.461 304.495L205.581 307.925L207.338 308.163L208.41 308.312L208.285 309.205L208.16 310.08L204.098 309.526L180.217 306.264L180.461 304.495Z" fill="#2F2E41"/>
<path d="M255.428 246.982L252.766 245.202L249.514 245.333L249.36 245.339L248.633 246.428L248.675 248.203L250.485 249.411L252.778 250.941C253.038 251.116 253.33 251.238 253.637 251.3C253.945 251.362 254.261 251.363 254.568 251.302C254.876 251.242 255.168 251.121 255.429 250.947C255.69 250.774 255.914 250.55 256.088 250.29C256.263 250.029 256.384 249.737 256.445 249.43C256.506 249.123 256.506 248.806 256.445 248.499C256.383 248.192 256.262 247.9 256.088 247.639C255.913 247.379 255.689 247.156 255.428 246.982H255.428ZM255.095 249.626C254.963 249.821 254.777 249.973 254.559 250.063C254.341 250.153 254.102 250.176 253.871 250.129C253.64 250.083 253.428 249.969 253.262 249.803C253.095 249.636 252.982 249.424 252.936 249.193C252.891 248.961 252.914 248.722 253.005 248.505C253.095 248.287 253.248 248.101 253.444 247.97C253.64 247.84 253.87 247.77 254.105 247.77C254.341 247.77 254.571 247.84 254.767 247.97C255.03 248.147 255.211 248.42 255.273 248.73C255.334 249.041 255.27 249.362 255.095 249.626Z" fill="#2F2E41"/>
</g>
<rect x="0.5" y="0.5" width="481" height="372" rx="8.5" stroke="#CACACA"/>
<defs>
<linearGradient id="paint0_linear_410_109" x1="388.59" y1="71.2218" x2="388.47" y2="61.3201" gradientUnits="userSpaceOnUse">
<stop stop-color="#3A0CA3"/>
<stop offset="1" stop-color="#4CC9F0"/>
</linearGradient>
<linearGradient id="paint1_linear_410_109" x1="388.586" y1="88.051" x2="388.467" y2="78.1488" gradientUnits="userSpaceOnUse">
<stop stop-color="#3A0CA3"/>
<stop offset="1" stop-color="#4CC9F0"/>
</linearGradient>
<linearGradient id="paint2_linear_410_109" x1="326.349" y1="104.88" x2="326.201" y2="94.9788" gradientUnits="userSpaceOnUse">
<stop stop-color="#3A0CA3"/>
<stop offset="1" stop-color="#4CC9F0"/>
</linearGradient>
<linearGradient id="paint3_linear_410_109" x1="356.044" y1="373.14" x2="187.69" y2="228.585" gradientUnits="userSpaceOnUse">
<stop stop-color="#3A0CA3"/>
<stop offset="1" stop-color="#4CC9F0"/>
</linearGradient>
<clipPath id="clip0_410_109">
<rect width="482" height="373" rx="9" fill="white"/>
</clipPath>
</defs>
</svg>
