<svg width="1366" height="1090" viewBox="0 0 1366 1090" fill="none" xmlns="http://www.w3.org/2000/svg">
<g opacity="0.5">
<path opacity="0.5" d="M1047.41 415.406C1047.41 415.406 1047.41 415.655 1047.41 415.406C1047.41 415.655 1047.41 415.655 1047.41 415.406C1047.16 415.655 1047.41 415.655 1047.41 415.406C1047.41 415.406 1047.16 415.655 1047.41 415.406Z" fill="#2A5C8E"/>
<path opacity="0.5" d="M1075.12 415.406C1075.37 415.406 1075.37 415.656 1075.37 415.656C1075.37 415.905 1075.12 415.905 1075.12 415.905C1074.87 415.905 1074.87 415.656 1074.87 415.656C1074.62 415.406 1074.87 415.406 1075.12 415.406Z" fill="#2A5C8E"/>
<path opacity="0.5" d="M1102.84 414.907C1103.09 414.907 1103.34 415.156 1103.34 415.406C1103.34 415.656 1103.09 415.905 1102.84 415.905C1102.59 415.905 1102.34 415.656 1102.34 415.406C1102.09 415.156 1102.34 414.907 1102.84 414.907Z" fill="#2A5C8E"/>
<path opacity="0.5" d="M1130.55 414.657C1131.05 414.657 1131.3 415.156 1131.3 415.406C1131.3 415.656 1130.8 416.155 1130.55 416.155C1130.05 416.155 1129.8 415.656 1129.8 415.406C1129.8 415.156 1130.05 414.657 1130.55 414.657Z" fill="#2A5C8E"/>
<path opacity="0.5" d="M1158.27 414.657C1158.77 414.657 1159.02 415.156 1159.02 415.406C1159.02 415.656 1158.52 416.155 1158.27 416.155C1157.77 416.155 1157.52 415.656 1157.52 415.406C1157.52 415.156 1157.77 414.657 1158.27 414.657Z" fill="#2A5C8E"/>
<path opacity="0.5" d="M1185.73 414.907C1186.15 414.907 1186.48 415.242 1186.48 415.656C1186.48 416.069 1186.15 416.405 1185.73 416.405C1185.32 416.405 1184.98 416.069 1184.98 415.656C1184.98 415.242 1185.32 414.907 1185.73 414.907Z" fill="#2A5C8E"/>
<path opacity="0.5" d="M1213.45 415.156C1213.7 415.156 1213.95 415.406 1213.95 415.656C1213.95 415.905 1213.7 416.155 1213.45 416.155C1213.2 416.155 1212.95 415.905 1212.95 415.656C1213.2 415.406 1213.45 415.156 1213.45 415.156Z" fill="#2A5C8E"/>
<path opacity="0.5" d="M1241.16 415.406C1241.41 415.406 1241.41 415.655 1241.16 415.406C1241.41 415.655 1241.41 415.655 1241.16 415.406C1241.16 415.655 1241.16 415.655 1241.16 415.406C1241.16 415.406 1241.16 415.655 1241.16 415.406Z" fill="#2A5C8E"/>
<path opacity="0.5" d="M1033.43 387.446C1033.68 387.446 1033.93 387.696 1033.93 387.945C1033.93 388.195 1033.68 388.445 1033.43 388.445C1033.18 388.445 1032.93 388.195 1032.93 387.945C1032.93 387.696 1033.18 387.446 1033.43 387.446Z" fill="#2A5C8E"/>
<path opacity="0.5" d="M1061.14 386.697C1061.89 386.697 1062.39 387.196 1062.39 387.945C1062.39 388.694 1061.89 389.193 1061.14 389.193C1060.39 389.193 1059.89 388.694 1059.89 387.945C1059.89 387.196 1060.39 386.697 1061.14 386.697Z" fill="#2A5C8E"/>
<path opacity="0.5" d="M1088.86 386.198C1089.85 386.198 1090.6 386.947 1090.6 387.945C1090.6 388.944 1089.85 389.693 1088.86 389.693C1087.86 389.693 1087.11 388.944 1087.11 387.945C1087.11 386.947 1087.86 386.198 1088.86 386.198Z" fill="#2A5C8E"/>
<path opacity="0.5" d="M1116.57 385.948C1117.67 385.948 1118.57 386.842 1118.57 387.945C1118.57 389.048 1117.67 389.942 1116.57 389.942C1115.47 389.942 1114.57 389.048 1114.57 387.945C1114.57 386.842 1115.47 385.948 1116.57 385.948Z" fill="#2A5C8E"/>
<path opacity="0.5" d="M1144.28 385.698C1145.53 385.698 1146.53 386.697 1146.53 387.945C1146.53 389.193 1145.53 390.192 1144.28 390.192C1143.04 390.192 1142.04 389.193 1142.04 387.945C1142.04 386.697 1143.04 385.698 1144.28 385.698Z" fill="#2A5C8E"/>
<path opacity="0.5" d="M1172 385.948C1173.1 385.948 1174 386.842 1174 387.945C1174 389.048 1173.1 389.942 1172 389.942C1170.9 389.942 1170 389.048 1170 387.945C1170 386.842 1170.9 385.948 1172 385.948Z" fill="#2A5C8E"/>
<path opacity="0.5" d="M1199.71 386.198C1200.68 386.198 1201.46 386.98 1201.46 387.945C1201.46 388.91 1200.68 389.693 1199.71 389.693C1198.75 389.693 1197.97 388.91 1197.97 387.945C1197.97 386.98 1198.75 386.198 1199.71 386.198Z" fill="#2A5C8E"/>
<path opacity="0.5" d="M1227.43 386.697C1228.18 386.697 1228.68 387.196 1228.68 387.945C1228.68 388.694 1228.18 389.193 1227.43 389.193C1226.68 389.193 1226.18 388.694 1226.18 387.945C1226.18 387.196 1226.68 386.697 1227.43 386.697Z" fill="#2A5C8E"/>
<path opacity="0.5" d="M1255.14 387.196C1255.39 387.196 1255.64 387.446 1255.64 387.696C1255.64 387.945 1255.39 388.195 1255.14 388.195C1254.89 388.195 1254.64 387.945 1254.64 387.696C1254.39 387.446 1254.64 387.196 1255.14 387.196Z" fill="#2A5C8E"/>
<path opacity="0.5" d="M991.981 359.985C992.119 359.985 992.23 360.097 992.23 360.235C992.23 360.373 992.119 360.484 991.981 360.484C991.843 360.484 991.731 360.373 991.731 360.235C991.731 360.097 991.843 359.985 991.981 359.985Z" fill="#2A5C8E"/>
<path opacity="0.5" d="M1019.69 358.987C1020.38 358.987 1020.94 359.546 1020.94 360.235C1020.94 360.924 1020.38 361.483 1019.69 361.483C1019.01 361.483 1018.45 360.924 1018.45 360.235C1018.45 359.546 1019.01 358.987 1019.69 358.987Z" fill="#2A5C8E"/>
<path opacity="0.5" d="M1047.41 358.238C1048.51 358.238 1049.41 359.132 1049.41 360.235C1049.41 361.338 1048.51 362.232 1047.41 362.232C1046.31 362.232 1045.41 361.338 1045.41 360.235C1045.41 359.132 1046.31 358.238 1047.41 358.238Z" fill="#2A5C8E"/>
<path opacity="0.5" d="M1075.12 357.489C1076.62 357.489 1077.87 358.737 1077.87 360.235C1077.87 361.733 1076.62 362.981 1075.12 362.981C1073.63 362.981 1072.38 361.733 1072.38 360.235C1072.38 358.737 1073.63 357.489 1075.12 357.489Z" fill="#2A5C8E"/>
<path opacity="0.5" d="M1102.84 356.99C1104.63 356.99 1106.08 358.443 1106.08 360.235C1106.08 362.027 1104.63 363.48 1102.84 363.48C1101.05 363.48 1099.59 362.027 1099.59 360.235C1099.59 358.443 1101.05 356.99 1102.84 356.99Z" fill="#2A5C8E"/>
<path opacity="0.5" d="M1130.55 356.74C1132.48 356.74 1134.05 358.305 1134.05 360.235C1134.05 362.165 1132.48 363.73 1130.55 363.73C1128.62 363.73 1127.06 362.165 1127.06 360.235C1127.06 358.305 1128.62 356.74 1130.55 356.74Z" fill="#2A5C8E"/>
<path opacity="0.5" d="M1158.27 356.74C1160.2 356.74 1161.76 358.305 1161.76 360.235C1161.76 362.165 1160.2 363.73 1158.27 363.73C1156.34 363.73 1154.77 362.165 1154.77 360.235C1154.77 358.305 1156.34 356.74 1158.27 356.74Z" fill="#2A5C8E"/>
<path opacity="0.5" d="M1185.73 356.99C1187.52 356.99 1188.98 358.443 1188.98 360.235C1188.98 362.027 1187.52 363.48 1185.73 363.48C1183.94 363.48 1182.49 362.027 1182.49 360.235C1182.49 358.443 1183.94 356.99 1185.73 356.99Z" fill="#2A5C8E"/>
<path opacity="0.5" d="M1213.45 357.489C1214.96 357.489 1216.19 358.718 1216.19 360.235C1216.19 361.751 1214.96 362.981 1213.45 362.981C1211.93 362.981 1210.7 361.751 1210.7 360.235C1210.7 358.718 1211.93 357.489 1213.45 357.489Z" fill="#2A5C8E"/>
<path opacity="0.5" d="M1241.16 358.238C1242.41 358.238 1243.16 359.236 1243.16 360.235C1243.16 361.233 1242.16 362.232 1241.16 362.232C1239.91 362.232 1239.16 361.233 1239.16 360.235C1239.16 359.236 1240.16 358.238 1241.16 358.238Z" fill="#2A5C8E"/>
<path opacity="0.5" d="M1268.87 358.987C1269.62 358.987 1270.12 359.486 1270.12 360.235C1270.12 360.984 1269.62 361.483 1268.87 361.483C1268.13 361.483 1267.63 360.984 1267.63 360.235C1267.63 359.486 1268.38 358.987 1268.87 358.987Z" fill="#2A5C8E"/>
<path opacity="0.5" d="M1296.59 359.736C1296.87 359.736 1297.09 359.959 1297.09 360.235C1297.09 360.511 1296.87 360.734 1296.59 360.734C1296.31 360.734 1296.09 360.511 1296.09 360.235C1296.09 359.959 1296.31 359.736 1296.59 359.736Z" fill="#2A5C8E"/>
<path opacity="0.5" d="M977.998 332.025C978.248 332.025 978.498 332.275 978.498 332.524C978.498 332.774 978.248 333.024 977.998 333.024C977.749 333.024 977.499 332.774 977.499 332.524C977.499 332.275 977.749 332.025 977.998 332.025Z" fill="#2A5C8E"/>
<path opacity="0.5" d="M1005.71 331.027C1006.54 331.027 1007.21 331.697 1007.21 332.524C1007.21 333.352 1006.54 334.022 1005.71 334.022C1004.89 334.022 1004.21 333.352 1004.21 332.524C1004.21 331.697 1004.89 331.027 1005.71 331.027Z" fill="#2A5C8E"/>
<path opacity="0.5" d="M1033.43 330.028C1034.81 330.028 1035.92 331.146 1035.92 332.525C1035.92 333.903 1034.81 335.021 1033.43 335.021C1032.05 335.021 1030.93 333.903 1030.93 332.525C1030.93 331.146 1032.05 330.028 1033.43 330.028Z" fill="#2A5C8E"/>
<path opacity="0.5" d="M1061.14 329.03C1063.07 329.03 1064.64 330.594 1064.64 332.525C1064.64 334.455 1063.07 336.02 1061.14 336.02C1059.21 336.02 1057.65 334.455 1057.65 332.525C1057.65 330.594 1059.21 329.03 1061.14 329.03Z" fill="#2A5C8E"/>
<path opacity="0.5" d="M1088.86 328.53C1091.1 328.53 1092.85 330.278 1092.85 332.524C1092.85 334.771 1091.1 336.519 1088.86 336.519C1086.61 336.519 1084.86 334.771 1084.86 332.524C1084.86 330.278 1086.61 328.53 1088.86 328.53Z" fill="#2A5C8E"/>
<path opacity="0.5" d="M1116.57 328.031C1119.05 328.031 1121.06 330.043 1121.06 332.525C1121.06 335.006 1119.05 337.018 1116.57 337.018C1114.09 337.018 1112.08 335.006 1112.08 332.525C1112.08 330.043 1114.09 328.031 1116.57 328.031Z" fill="#2A5C8E"/>
<path opacity="0.5" d="M1144.28 327.781C1146.9 327.781 1149.03 329.905 1149.03 332.524C1149.03 335.144 1146.9 337.268 1144.28 337.268C1141.66 337.268 1139.54 335.144 1139.54 332.524C1139.54 329.905 1141.66 327.781 1144.28 327.781Z" fill="#2A5C8E"/>
<path opacity="0.5" d="M1172 327.781C1174.5 327.781 1176.49 329.778 1176.49 332.275C1176.49 334.771 1174.5 336.768 1172 336.768C1169.5 336.768 1167.51 335.021 1167.51 332.524C1167.51 330.028 1169.5 327.781 1172 327.781Z" fill="#2A5C8E"/>
<path opacity="0.5" d="M1199.71 328.281C1201.96 328.281 1203.96 330.028 1203.96 332.524C1203.96 334.771 1202.21 336.768 1199.71 336.768C1197.47 336.768 1195.47 335.021 1195.47 332.524C1195.47 330.278 1197.47 328.281 1199.71 328.281Z" fill="#2A5C8E"/>
<path opacity="0.5" d="M1227.43 329.03C1229.43 329.03 1230.92 330.527 1230.92 332.525C1230.92 334.522 1229.43 336.02 1227.43 336.02C1225.43 336.02 1223.93 334.522 1223.93 332.525C1223.93 330.527 1225.43 329.03 1227.43 329.03Z" fill="#2A5C8E"/>
<path opacity="0.5" d="M1255.14 329.778C1256.64 329.778 1257.64 331.027 1257.64 332.275C1257.64 333.523 1256.39 334.771 1255.14 334.771C1253.64 334.771 1252.65 333.523 1252.65 332.275C1252.65 331.027 1253.64 329.778 1255.14 329.778Z" fill="#2A5C8E"/>
<path opacity="0.5" d="M1282.86 330.777C1283.86 330.777 1284.6 331.526 1284.6 332.524C1284.6 333.523 1283.86 334.272 1282.86 334.272C1281.86 334.272 1281.11 333.523 1281.11 332.524C1281.11 331.526 1281.86 330.777 1282.86 330.777Z" fill="#2A5C8E"/>
<path opacity="0.5" d="M1310.57 331.776C1310.98 331.776 1311.32 332.111 1311.32 332.525C1311.32 332.938 1310.98 333.273 1310.57 333.273C1310.16 333.273 1309.82 332.938 1309.82 332.525C1309.82 332.111 1310.16 331.776 1310.57 331.776Z" fill="#2A5C8E"/>
<path opacity="0.5" d="M964.266 304.315C964.516 304.315 964.765 304.564 964.765 304.814C964.765 305.064 964.516 305.313 964.266 305.313C964.016 305.313 963.767 305.064 963.767 304.814C963.517 304.564 964.016 304.315 964.266 304.315Z" fill="#2A5C8E"/>
<path opacity="0.5" d="M991.981 303.067C992.979 303.067 993.728 303.815 993.728 304.814C993.728 305.813 992.979 306.562 991.981 306.562C990.982 306.562 990.233 305.813 990.233 304.814C990.233 303.815 990.982 303.067 991.981 303.067Z" fill="#2A5C8E"/>
<path opacity="0.5" d="M1019.69 301.818C1021.19 301.818 1022.69 303.067 1022.69 304.814C1022.69 306.312 1021.44 307.81 1019.69 307.81C1018.2 307.81 1016.7 306.562 1016.7 304.814C1016.7 303.316 1017.95 301.818 1019.69 301.818Z" fill="#2A5C8E"/>
<path opacity="0.5" d="M1047.41 300.82C1049.66 300.82 1051.4 302.567 1051.4 304.814C1051.4 307.061 1049.66 308.808 1047.41 308.808C1045.16 308.808 1043.41 307.061 1043.41 304.814C1043.41 302.567 1045.16 300.82 1047.41 300.82Z" fill="#2A5C8E"/>
<path opacity="0.5" d="M1075.12 300.071C1077.87 300.071 1079.87 302.318 1079.87 304.814C1079.87 307.56 1077.62 309.557 1075.12 309.557C1072.38 309.557 1070.38 307.311 1070.38 304.814C1070.13 302.068 1072.38 300.071 1075.12 300.071Z" fill="#2A5C8E"/>
<path opacity="0.5" d="M1102.84 299.322C1105.83 299.322 1108.33 301.818 1108.33 304.814C1108.33 307.81 1105.83 310.306 1102.84 310.306C1099.84 310.306 1097.35 307.81 1097.35 304.814C1097.1 301.818 1099.59 299.322 1102.84 299.322Z" fill="#2A5C8E"/>
<path opacity="0.5" d="M1130.55 298.823C1133.8 298.823 1136.54 301.569 1136.54 304.814C1136.54 308.059 1133.8 310.805 1130.55 310.805C1127.31 310.805 1124.56 308.059 1124.56 304.814C1124.56 301.569 1127.06 298.823 1130.55 298.823Z" fill="#2A5C8E"/>
<path opacity="0.5" d="M1158.27 298.823C1161.51 298.823 1164.26 301.569 1164.26 304.814C1164.26 308.059 1161.51 310.805 1158.27 310.805C1155.02 310.805 1152.27 308.059 1152.27 304.814C1152.27 301.569 1154.77 298.823 1158.27 298.823Z" fill="#2A5C8E"/>
<path opacity="0.5" d="M1185.73 299.322C1188.73 299.322 1191.22 301.818 1191.22 304.814C1191.22 307.81 1188.73 310.306 1185.73 310.306C1182.74 310.306 1180.24 307.81 1180.24 304.814C1180.24 301.818 1182.74 299.322 1185.73 299.322Z" fill="#2A5C8E"/>
<path opacity="0.5" d="M1213.45 299.821C1216.19 299.821 1218.44 302.068 1218.44 304.814C1218.44 307.56 1216.19 309.807 1213.45 309.807C1210.7 309.807 1208.45 307.56 1208.45 304.814C1208.7 302.068 1210.95 299.821 1213.45 299.821Z" fill="#2A5C8E"/>
<path opacity="0.5" d="M1241.16 300.82C1243.41 300.82 1245.16 302.567 1245.16 304.814C1245.16 307.061 1243.41 308.808 1241.16 308.808C1238.91 308.808 1237.17 307.061 1237.17 304.814C1237.17 302.567 1239.16 300.82 1241.16 300.82Z" fill="#2A5C8E"/>
<path opacity="0.5" d="M1268.87 301.818C1270.62 301.818 1271.87 303.067 1271.87 304.814C1271.87 306.562 1270.62 307.81 1268.87 307.81C1267.13 307.81 1265.88 306.562 1265.88 304.814C1265.88 303.067 1267.38 301.818 1268.87 301.818Z" fill="#2A5C8E"/>
<path opacity="0.5" d="M1296.59 303.067C1297.59 303.067 1298.34 303.815 1298.34 304.814C1298.34 305.813 1297.59 306.562 1296.59 306.562C1295.59 306.562 1294.84 305.813 1294.84 304.814C1294.84 303.815 1295.59 303.067 1296.59 303.067Z" fill="#2A5C8E"/>
<path opacity="0.5" d="M1324.3 304.065C1324.8 304.065 1325.05 304.315 1325.05 304.814C1325.05 305.313 1324.8 305.563 1324.3 305.563C1323.8 305.563 1323.55 305.313 1323.55 304.814C1323.55 304.315 1324.05 304.065 1324.3 304.065Z" fill="#2A5C8E"/>
<path opacity="0.5" d="M950.284 276.604C950.56 276.604 950.783 276.828 950.783 277.104C950.783 277.379 950.56 277.603 950.284 277.603C950.008 277.603 949.785 277.379 949.785 277.104C949.785 276.828 950.008 276.604 950.284 276.604Z" fill="#2A5C8E"/>
<path opacity="0.5" d="M977.999 275.356C978.997 275.356 979.746 276.105 979.746 277.104C979.746 278.102 978.997 278.851 977.999 278.851C977 278.851 976.251 278.102 976.251 277.104C976.5 276.105 977.249 275.356 977.999 275.356Z" fill="#2A5C8E"/>
<path opacity="0.5" d="M1005.71 274.108C1007.37 274.108 1008.71 275.449 1008.71 277.104C1008.71 278.758 1007.37 280.099 1005.71 280.099C1004.06 280.099 1002.72 278.758 1002.72 277.104C1002.72 275.449 1004.06 274.108 1005.71 274.108Z" fill="#2A5C8E"/>
<path opacity="0.5" d="M1033.43 273.109C1035.63 273.109 1037.42 274.898 1037.42 277.104C1037.42 279.31 1035.63 281.098 1033.43 281.098C1031.22 281.098 1029.43 279.31 1029.43 277.104C1029.43 274.898 1031.22 273.109 1033.43 273.109Z" fill="#2A5C8E"/>
<path opacity="0.5" d="M1061.14 271.861C1064.04 271.861 1066.39 274.208 1066.39 277.104C1066.39 279.999 1064.04 282.346 1061.14 282.346C1058.25 282.346 1055.9 279.999 1055.9 277.104C1055.9 274.208 1058.25 271.861 1061.14 271.861Z" fill="#2A5C8E"/>
<path opacity="0.5" d="M1088.86 270.863C1092.35 270.863 1095.1 273.609 1095.1 277.104C1095.1 280.599 1092.35 283.345 1088.86 283.345C1085.36 283.345 1082.61 280.599 1082.61 277.104C1082.61 273.609 1085.36 270.863 1088.86 270.863Z" fill="#2A5C8E"/>
<path opacity="0.5" d="M1116.57 270.114C1120.32 270.114 1123.56 273.359 1123.56 277.104C1123.56 280.848 1120.32 284.094 1116.57 284.094C1112.83 284.094 1109.58 280.848 1109.58 277.104C1109.58 273.359 1112.83 270.114 1116.57 270.114Z" fill="#2A5C8E"/>
<path opacity="0.5" d="M1144.28 269.864C1148.28 269.864 1151.53 273.109 1151.53 277.104C1151.53 281.098 1148.28 284.343 1144.28 284.343C1140.29 284.343 1137.04 281.098 1137.04 277.104C1137.04 273.109 1140.29 269.864 1144.28 269.864Z" fill="#2A5C8E"/>
<path opacity="0.5" d="M1172 270.114C1175.99 270.114 1178.99 273.359 1178.99 277.104C1178.99 281.098 1175.74 284.094 1172 284.094C1168.25 284.094 1165.01 280.848 1165.01 277.104C1165.01 273.109 1168 270.114 1172 270.114Z" fill="#2A5C8E"/>
<path opacity="0.5" d="M1199.71 270.863C1203.21 270.863 1205.96 273.609 1205.96 277.104C1205.96 280.599 1203.21 283.345 1199.71 283.345C1196.22 283.345 1193.47 280.599 1193.47 277.104C1193.47 273.609 1196.22 270.863 1199.71 270.863Z" fill="#2A5C8E"/>
<path opacity="0.5" d="M1227.43 271.861C1230.42 271.861 1232.67 274.358 1232.67 277.104C1232.67 280.099 1230.17 282.346 1227.43 282.346C1224.43 282.346 1222.18 279.85 1222.18 277.104C1222.18 274.108 1224.43 271.861 1227.43 271.861Z" fill="#2A5C8E"/>
<path opacity="0.5" d="M1255.14 272.86C1257.39 272.86 1259.39 274.857 1259.39 277.104C1259.39 279.35 1257.39 281.348 1255.14 281.348C1252.9 281.348 1250.9 279.35 1250.9 277.104C1250.9 274.857 1252.65 272.86 1255.14 272.86Z" fill="#2A5C8E"/>
<path opacity="0.5" d="M1282.86 274.108C1284.6 274.108 1285.85 275.356 1285.85 277.104C1285.85 278.851 1284.6 280.099 1282.86 280.099C1281.11 280.099 1279.86 278.851 1279.86 277.104C1279.86 275.356 1281.11 274.108 1282.86 274.108Z" fill="#2A5C8E"/>
<path opacity="0.5" d="M1310.57 275.356C1311.54 275.356 1312.32 276.139 1312.32 277.104C1312.32 278.069 1311.54 278.851 1310.57 278.851C1309.61 278.851 1308.82 278.069 1308.82 277.104C1308.82 276.139 1309.61 275.356 1310.57 275.356Z" fill="#2A5C8E"/>
<path opacity="0.5" d="M1338.29 276.604C1338.54 276.604 1338.78 276.854 1338.78 277.104C1338.78 277.353 1338.54 277.603 1338.29 277.603C1338.04 277.603 1337.79 277.353 1337.79 277.104C1337.54 276.854 1337.79 276.604 1338.29 276.604Z" fill="#2A5C8E"/>
<path opacity="0.5" d="M936.552 249.144C936.69 249.144 936.802 249.255 936.802 249.393C936.802 249.531 936.69 249.643 936.552 249.643C936.414 249.643 936.302 249.531 936.302 249.393C936.302 249.255 936.414 249.144 936.552 249.144Z" fill="#2A5C8E"/>
<path opacity="0.5" d="M964.266 247.895C965.094 247.895 965.764 248.566 965.764 249.393C965.764 250.221 965.094 250.891 964.266 250.891C963.439 250.891 962.768 250.221 962.768 249.393C962.768 248.566 963.439 247.895 964.266 247.895Z" fill="#2A5C8E"/>
<path opacity="0.5" d="M991.981 246.647C993.497 246.647 994.727 247.877 994.727 249.393C994.727 250.91 993.497 252.139 991.981 252.139C990.464 252.139 989.234 250.91 989.234 249.393C989.234 247.877 990.464 246.647 991.981 246.647Z" fill="#2A5C8E"/>
<path opacity="0.5" d="M1019.7 245.399C1021.9 245.399 1023.69 247.187 1023.69 249.393C1023.69 251.599 1021.9 253.388 1019.7 253.388C1017.49 253.388 1015.7 251.599 1015.7 249.393C1015.7 247.187 1017.49 245.399 1019.7 245.399Z" fill="#2A5C8E"/>
<path opacity="0.5" d="M1047.41 244.151C1050.16 244.151 1052.65 246.398 1052.65 249.393C1052.65 252.139 1050.41 254.636 1047.41 254.636C1044.66 254.636 1042.17 252.389 1042.17 249.393C1042.17 246.647 1044.41 244.151 1047.41 244.151Z" fill="#2A5C8E"/>
<path opacity="0.5" d="M1075.12 243.152C1078.62 243.152 1081.62 245.898 1081.62 249.643C1081.62 253.138 1078.87 256.134 1075.12 256.134C1071.63 256.134 1068.63 253.388 1068.63 249.643C1068.63 245.898 1071.63 243.152 1075.12 243.152Z" fill="#2A5C8E"/>
<path opacity="0.5" d="M1102.84 241.904C1107.08 241.904 1110.33 245.149 1110.33 249.393C1110.33 253.637 1107.08 256.883 1102.84 256.883C1098.59 256.883 1095.35 253.637 1095.35 249.393C1095.1 245.149 1098.59 241.904 1102.84 241.904Z" fill="#2A5C8E"/>
<path opacity="0.5" d="M1130.55 240.905C1135.24 240.905 1139.04 244.706 1139.04 249.393C1139.04 254.081 1135.24 257.881 1130.55 257.881C1125.86 257.881 1122.06 254.081 1122.06 249.393C1122.06 244.706 1125.86 240.905 1130.55 240.905Z" fill="#2A5C8E"/>
<path opacity="0.5" d="M1158.27 240.905C1162.96 240.905 1166.76 244.706 1166.76 249.393C1166.76 254.081 1162.96 257.881 1158.27 257.881C1153.58 257.881 1149.78 254.081 1149.78 249.393C1149.78 244.706 1153.58 240.905 1158.27 240.905Z" fill="#2A5C8E"/>
<path opacity="0.5" d="M1185.73 241.904C1189.98 241.904 1193.22 245.399 1193.22 249.393C1193.22 253.637 1189.73 256.883 1185.73 256.883C1181.49 256.883 1178.24 253.388 1178.24 249.393C1178.24 245.149 1181.74 241.904 1185.73 241.904Z" fill="#2A5C8E"/>
<path opacity="0.5" d="M1213.45 242.903C1216.94 242.903 1219.94 245.898 1219.94 249.393C1219.94 252.888 1216.94 255.884 1213.45 255.884C1209.95 255.884 1206.95 252.888 1206.95 249.393C1206.95 245.898 1209.95 242.903 1213.45 242.903Z" fill="#2A5C8E"/>
<path opacity="0.5" d="M1241.16 244.151C1244.16 244.151 1246.4 246.647 1246.4 249.393C1246.4 252.389 1243.91 254.636 1241.16 254.636C1238.16 254.636 1235.92 252.139 1235.92 249.393C1235.92 246.398 1238.41 244.151 1241.16 244.151Z" fill="#2A5C8E"/>
<path opacity="0.5" d="M1268.87 245.399C1271.08 245.399 1272.87 247.187 1272.87 249.393C1272.87 251.599 1271.08 253.388 1268.87 253.388C1266.67 253.388 1264.88 251.599 1264.88 249.393C1264.88 247.187 1266.67 245.399 1268.87 245.399Z" fill="#2A5C8E"/>
<path opacity="0.5" d="M1296.59 246.647C1298.11 246.647 1299.34 247.877 1299.34 249.393C1299.34 250.91 1298.11 252.139 1296.59 252.139C1295.07 252.139 1293.84 250.91 1293.84 249.393C1293.84 247.877 1295.07 246.647 1296.59 246.647Z" fill="#2A5C8E"/>
<path opacity="0.5" d="M1324.3 247.895C1325.13 247.895 1325.8 248.566 1325.8 249.393C1325.8 250.221 1325.13 250.891 1324.3 250.891C1323.48 250.891 1322.81 250.221 1322.81 249.393C1322.81 248.566 1323.48 247.895 1324.3 247.895Z" fill="#2A5C8E"/>
<path opacity="0.5" d="M1352.02 249.144C1352.27 249.144 1352.27 249.393 1352.27 249.393C1352.27 249.643 1352.02 249.643 1352.02 249.643C1351.77 249.643 1351.77 249.393 1351.77 249.393C1351.77 249.144 1351.77 249.144 1352.02 249.144Z" fill="#2A5C8E"/>
<path opacity="0.5" d="M950.284 220.934C950.784 220.934 951.033 221.433 951.033 221.683C951.033 222.182 950.534 222.432 950.284 222.432C950.034 222.432 949.535 221.933 949.535 221.683C949.535 221.184 950.034 220.934 950.284 220.934Z" fill="#2A5C8E"/>
<path opacity="0.5" d="M977.999 219.686C979.247 219.686 980.246 220.684 980.246 221.933C980.246 223.181 979.247 224.179 977.999 224.179C976.75 224.179 975.751 223.181 975.751 221.933C975.751 220.684 977 219.686 977.999 219.686Z" fill="#2A5C8E"/>
<path opacity="0.5" d="M1005.71 218.188C1007.64 218.188 1009.21 219.753 1009.21 221.683C1009.21 223.613 1007.64 225.178 1005.71 225.178C1003.78 225.178 1002.22 223.613 1002.22 221.683C1002.22 219.753 1003.78 218.188 1005.71 218.188Z" fill="#2A5C8E"/>
<path opacity="0.5" d="M1033.43 216.94C1036.05 216.94 1038.17 219.063 1038.17 221.683C1038.17 224.303 1036.05 226.426 1033.43 226.426C1030.81 226.426 1028.68 224.303 1028.68 221.683C1028.68 219.063 1030.81 216.94 1033.43 216.94Z" fill="#2A5C8E"/>
<path opacity="0.5" d="M1061.14 215.691C1064.39 215.691 1067.13 218.438 1067.13 221.683C1067.13 224.928 1064.39 227.674 1061.14 227.674C1057.9 227.674 1055.15 224.928 1055.15 221.683C1055.15 218.438 1057.9 215.691 1061.14 215.691Z" fill="#2A5C8E"/>
<path opacity="0.5" d="M1088.86 214.443C1092.85 214.443 1096.1 217.689 1096.1 221.683C1096.1 225.677 1092.85 228.923 1088.86 228.923C1084.86 228.923 1081.62 225.677 1081.62 221.683C1081.62 217.689 1084.86 214.443 1088.86 214.443Z" fill="#2A5C8E"/>
<path opacity="0.5" d="M1116.57 213.195C1121.26 213.195 1125.06 216.995 1125.06 221.683C1125.06 226.371 1121.26 230.171 1116.57 230.171C1111.88 230.171 1108.08 226.371 1108.08 221.683C1108.08 216.995 1111.88 213.195 1116.57 213.195Z" fill="#2A5C8E"/>
<path opacity="0.5" d="M1144.28 212.197C1149.52 212.197 1153.77 216.444 1153.77 221.683C1153.77 226.922 1149.52 231.169 1144.28 231.169C1139.04 231.169 1134.8 226.922 1134.8 221.683C1134.8 216.444 1139.04 212.197 1144.28 212.197Z" fill="#2A5C8E"/>
<path opacity="0.5" d="M1172 212.945C1176.83 212.945 1180.74 216.857 1180.74 221.683C1180.74 226.509 1176.83 230.421 1172 230.421C1167.17 230.421 1163.26 226.509 1163.26 221.683C1163.26 216.857 1167.17 212.945 1172 212.945Z" fill="#2A5C8E"/>
<path opacity="0.5" d="M1199.71 214.194C1203.85 214.194 1207.2 217.547 1207.2 221.683C1207.2 225.819 1203.85 229.172 1199.71 229.172C1195.58 229.172 1192.22 225.819 1192.22 221.683C1192.22 217.547 1195.58 214.194 1199.71 214.194Z" fill="#2A5C8E"/>
<path opacity="0.5" d="M1227.43 215.692C1230.92 215.692 1233.67 218.438 1233.67 221.933C1233.67 225.428 1230.92 228.174 1227.43 228.174C1223.93 228.174 1221.19 225.428 1221.19 221.933C1221.19 218.438 1223.93 215.692 1227.43 215.692Z" fill="#2A5C8E"/>
<path opacity="0.5" d="M1255.14 216.94C1257.89 216.94 1259.89 219.187 1259.89 221.683C1259.89 224.429 1257.64 226.426 1255.14 226.426C1252.4 226.426 1250.4 224.18 1250.4 221.683C1250.15 218.937 1252.4 216.94 1255.14 216.94Z" fill="#2A5C8E"/>
<path opacity="0.5" d="M1282.86 218.188C1284.85 218.188 1286.35 219.686 1286.35 221.683C1286.35 223.68 1284.85 225.178 1282.86 225.178C1280.86 225.178 1279.36 223.68 1279.36 221.683C1279.36 219.686 1280.86 218.188 1282.86 218.188Z" fill="#2A5C8E"/>
<path opacity="0.5" d="M1310.57 219.436C1311.81 219.436 1312.82 220.442 1312.82 221.683C1312.82 222.924 1311.81 223.93 1310.57 223.93C1309.33 223.93 1308.32 222.924 1308.32 221.683C1308.32 220.442 1309.33 219.436 1310.57 219.436Z" fill="#2A5C8E"/>
<path opacity="0.5" d="M1338.29 220.685C1338.79 220.685 1339.28 221.184 1339.28 221.683C1339.28 222.182 1338.79 222.682 1338.29 222.682C1337.79 222.682 1337.29 222.182 1337.29 221.683C1337.29 221.184 1337.54 220.685 1338.29 220.685Z" fill="#2A5C8E"/>
<path opacity="0.5" d="M936.552 193.723C936.69 193.723 936.802 193.835 936.802 193.973C936.802 194.11 936.69 194.222 936.552 194.222C936.414 194.222 936.302 194.11 936.302 193.973C936.302 193.835 936.414 193.723 936.552 193.723Z" fill="#2A5C8E"/>
<path opacity="0.5" d="M964.266 192.475C965.094 192.475 965.764 193.145 965.764 193.973C965.764 194.8 965.094 195.47 964.266 195.47C963.439 195.47 962.768 194.8 962.768 193.973C962.768 193.145 963.439 192.475 964.266 192.475Z" fill="#2A5C8E"/>
<path opacity="0.5" d="M991.981 191.227C993.497 191.227 994.727 192.456 994.727 193.973C994.727 195.489 993.497 196.719 991.981 196.719C990.464 196.719 989.234 195.489 989.234 193.973C989.234 192.456 990.464 191.227 991.981 191.227Z" fill="#2A5C8E"/>
<path opacity="0.5" d="M1019.7 189.978C1021.9 189.978 1023.69 191.767 1023.69 193.973C1023.69 196.179 1021.9 197.967 1019.7 197.967C1017.49 197.967 1015.7 196.179 1015.7 193.973C1015.7 191.767 1017.49 189.978 1019.7 189.978Z" fill="#2A5C8E"/>
<path opacity="0.5" d="M1047.41 188.73C1050.3 188.73 1052.65 191.077 1052.65 193.973C1052.65 196.868 1050.3 199.215 1047.41 199.215C1044.51 199.215 1042.17 196.868 1042.17 193.973C1042.17 191.077 1044.51 188.73 1047.41 188.73Z" fill="#2A5C8E"/>
<path opacity="0.5" d="M1075.12 187.482C1078.62 187.482 1081.62 190.478 1081.62 193.973C1081.62 197.468 1078.62 200.463 1075.12 200.463C1071.63 200.463 1068.63 197.468 1068.63 193.973C1068.63 190.478 1071.38 187.482 1075.12 187.482Z" fill="#2A5C8E"/>
<path opacity="0.5" d="M1102.84 186.483C1107.08 186.483 1110.33 189.978 1110.33 193.973C1110.33 198.217 1106.83 201.462 1102.84 201.462C1098.59 201.462 1095.35 197.967 1095.35 193.973C1095.1 189.729 1098.59 186.483 1102.84 186.483Z" fill="#2A5C8E"/>
<path opacity="0.5" d="M1130.55 185.485C1135.3 185.485 1139.04 189.229 1139.04 193.973C1139.04 198.716 1135.3 202.46 1130.55 202.46C1125.81 202.46 1122.06 198.716 1122.06 193.973C1121.81 189.229 1125.81 185.485 1130.55 185.485Z" fill="#2A5C8E"/>
<path opacity="0.5" d="M1158.27 185.485C1162.96 185.485 1166.76 189.285 1166.76 193.973C1166.76 198.66 1162.96 202.46 1158.27 202.46C1153.58 202.46 1149.78 198.66 1149.78 193.973C1149.78 189.285 1153.58 185.485 1158.27 185.485Z" fill="#2A5C8E"/>
<path opacity="0.5" d="M1185.73 186.234C1190.01 186.234 1193.47 189.698 1193.47 193.973C1193.47 198.247 1190.01 201.712 1185.73 201.712C1181.46 201.712 1177.99 198.247 1177.99 193.973C1177.99 189.698 1181.46 186.234 1185.73 186.234Z" fill="#2A5C8E"/>
<path opacity="0.5" d="M1213.45 187.482C1216.94 187.482 1219.94 190.478 1219.94 193.973C1219.94 197.468 1216.94 200.463 1213.45 200.463C1209.95 200.463 1206.95 197.468 1206.95 193.973C1206.95 190.478 1209.95 187.482 1213.45 187.482Z" fill="#2A5C8E"/>
<path opacity="0.5" d="M1241.16 188.73C1244.16 188.73 1246.4 191.227 1246.4 193.973C1246.4 196.968 1243.91 199.215 1241.16 199.215C1238.16 199.215 1235.92 196.719 1235.92 193.973C1235.92 190.977 1238.41 188.73 1241.16 188.73Z" fill="#2A5C8E"/>
<path opacity="0.5" d="M1268.87 189.978C1271.08 189.978 1272.87 191.767 1272.87 193.973C1272.87 196.179 1271.08 197.967 1268.87 197.967C1266.67 197.967 1264.88 196.179 1264.88 193.973C1264.88 191.767 1266.67 189.978 1268.87 189.978Z" fill="#2A5C8E"/>
<path opacity="0.5" d="M1296.59 191.227C1298.11 191.227 1299.34 192.456 1299.34 193.973C1299.34 195.489 1298.11 196.719 1296.59 196.719C1295.07 196.719 1293.84 195.489 1293.84 193.973C1293.84 192.456 1295.07 191.227 1296.59 191.227Z" fill="#2A5C8E"/>
<path opacity="0.5" d="M1324.3 192.475C1325.13 192.475 1325.8 193.145 1325.8 193.973C1325.8 194.8 1325.13 195.47 1324.3 195.47C1323.48 195.47 1322.81 194.8 1322.81 193.973C1322.81 193.145 1323.48 192.475 1324.3 192.475Z" fill="#2A5C8E"/>
<path opacity="0.5" d="M1352.02 193.723C1352.27 193.723 1352.27 193.973 1352.27 193.973C1352.27 194.222 1352.02 194.222 1352.02 194.222C1351.77 194.222 1351.77 193.973 1351.77 193.973C1351.77 193.723 1351.77 193.723 1352.02 193.723Z" fill="#2A5C8E"/>
<path opacity="0.5" d="M950.284 165.763C950.534 165.763 950.783 166.012 950.783 166.262C950.783 166.512 950.534 166.761 950.284 166.761C950.034 166.761 949.785 166.512 949.785 166.262C949.785 166.012 950.034 165.763 950.284 165.763Z" fill="#2A5C8E"/>
<path opacity="0.5" d="M977.999 164.515C978.997 164.515 979.746 165.264 979.746 166.262C979.746 167.261 978.997 168.01 977.999 168.01C977 168.01 976.251 167.261 976.251 166.262C976.251 165.264 977 164.515 977.999 164.515Z" fill="#2A5C8E"/>
<path opacity="0.5" d="M1005.71 163.267C1007.37 163.267 1008.71 164.608 1008.71 166.262C1008.71 167.917 1007.37 169.258 1005.71 169.258C1004.06 169.258 1002.72 167.917 1002.72 166.262C1002.72 164.608 1004.06 163.267 1005.71 163.267Z" fill="#2A5C8E"/>
<path opacity="0.5" d="M1033.43 162.268C1035.67 162.268 1037.67 164.015 1037.67 166.512C1037.67 168.759 1035.92 170.756 1033.43 170.756C1031.18 170.756 1029.18 169.008 1029.18 166.512C1029.43 164.015 1031.18 162.268 1033.43 162.268Z" fill="#2A5C8E"/>
<path opacity="0.5" d="M1061.14 161.02C1064.14 161.02 1066.39 163.516 1066.39 166.262C1066.39 169.258 1063.89 171.505 1061.14 171.505C1058.15 171.505 1055.9 169.008 1055.9 166.262C1055.9 163.266 1058.15 161.02 1061.14 161.02Z" fill="#2A5C8E"/>
<path opacity="0.5" d="M1088.86 160.021C1092.35 160.021 1095.1 162.767 1095.1 166.262C1095.1 169.757 1092.35 172.503 1088.86 172.503C1085.36 172.503 1082.61 169.757 1082.61 166.262C1082.61 162.767 1085.36 160.021 1088.86 160.021Z" fill="#2A5C8E"/>
<path opacity="0.5" d="M1116.57 159.272C1120.57 159.272 1123.56 162.518 1123.56 166.262C1123.56 170.256 1120.32 173.252 1116.57 173.252C1112.58 173.252 1109.58 170.007 1109.58 166.262C1109.58 162.518 1112.58 159.272 1116.57 159.272Z" fill="#2A5C8E"/>
<path opacity="0.5" d="M1144.28 158.773C1148.28 158.773 1151.78 162.018 1151.78 166.262C1151.78 170.256 1148.53 173.751 1144.28 173.751C1140.04 173.751 1136.79 170.506 1136.79 166.262C1136.79 162.268 1140.29 158.773 1144.28 158.773Z" fill="#2A5C8E"/>
<path opacity="0.5" d="M1172 159.272C1175.99 159.272 1179.24 162.518 1179.24 166.512C1179.24 170.506 1175.99 173.751 1172 173.751C1168 173.751 1164.76 170.506 1164.76 166.512C1164.76 162.268 1168 159.272 1172 159.272Z" fill="#2A5C8E"/>
<path opacity="0.5" d="M1199.71 159.771C1203.3 159.771 1206.21 162.677 1206.21 166.262C1206.21 169.847 1203.3 172.753 1199.71 172.753C1196.13 172.753 1193.22 169.847 1193.22 166.262C1193.22 162.677 1196.13 159.771 1199.71 159.771Z" fill="#2A5C8E"/>
<path opacity="0.5" d="M1227.43 161.02C1230.42 161.02 1232.92 163.516 1232.92 166.512C1232.92 169.508 1230.42 172.004 1227.43 172.004C1224.43 172.004 1221.94 169.508 1221.94 166.512C1221.94 163.267 1224.43 161.02 1227.43 161.02Z" fill="#2A5C8E"/>
<path opacity="0.5" d="M1255.14 162.018C1257.39 162.018 1259.39 164.015 1259.39 166.262C1259.39 168.509 1257.39 170.506 1255.14 170.506C1252.9 170.506 1250.9 168.509 1250.9 166.262C1250.9 164.015 1252.65 162.018 1255.14 162.018Z" fill="#2A5C8E"/>
<path opacity="0.5" d="M1282.86 163.267C1284.6 163.267 1285.85 164.764 1285.85 166.262C1285.85 168.01 1284.36 169.258 1282.86 169.258C1281.11 169.258 1279.86 167.76 1279.86 166.262C1279.61 164.515 1281.11 163.267 1282.86 163.267Z" fill="#2A5C8E"/>
<path opacity="0.5" d="M1310.57 164.515C1311.54 164.515 1312.32 165.297 1312.32 166.262C1312.32 167.227 1311.54 168.01 1310.57 168.01C1309.61 168.01 1308.82 167.227 1308.82 166.262C1308.82 165.297 1309.61 164.515 1310.57 164.515Z" fill="#2A5C8E"/>
<path opacity="0.5" d="M1338.29 165.763C1338.54 165.763 1338.78 166.012 1338.78 166.262C1338.78 166.512 1338.54 166.761 1338.29 166.761C1338.04 166.761 1337.79 166.512 1337.79 166.262C1337.54 166.012 1337.79 165.763 1338.29 165.763Z" fill="#2A5C8E"/>
<path opacity="0.5" d="M964.266 138.053C964.766 138.053 965.015 138.302 965.015 138.802C965.015 139.301 964.766 139.551 964.266 139.551C963.767 139.551 963.517 139.301 963.517 138.802C963.517 138.302 963.767 138.053 964.266 138.053Z" fill="#2A5C8E"/>
<path opacity="0.5" d="M991.98 136.804C992.979 136.804 993.728 137.553 993.728 138.552C993.728 139.55 992.979 140.299 991.98 140.299C990.982 140.299 990.233 139.55 990.233 138.552C989.983 137.553 990.982 136.804 991.98 136.804Z" fill="#2A5C8E"/>
<path opacity="0.5" d="M1019.69 135.806C1021.19 135.806 1022.69 137.054 1022.69 138.801C1022.69 140.299 1021.44 141.797 1019.69 141.797C1018.2 141.797 1016.7 140.549 1016.7 138.801C1016.7 137.054 1017.95 135.806 1019.69 135.806Z" fill="#2A5C8E"/>
<path opacity="0.5" d="M1047.41 134.558C1049.66 134.558 1051.4 136.305 1051.4 138.552C1051.4 140.799 1049.66 142.546 1047.41 142.546C1045.16 142.546 1043.41 140.799 1043.41 138.552C1043.41 136.305 1045.16 134.558 1047.41 134.558Z" fill="#2A5C8E"/>
<path opacity="0.5" d="M1075.12 133.809C1077.87 133.809 1080.12 136.056 1080.12 138.802C1080.12 141.548 1077.87 143.794 1075.12 143.794C1072.38 143.794 1070.13 141.548 1070.13 138.802C1070.13 135.806 1072.38 133.809 1075.12 133.809Z" fill="#2A5C8E"/>
<path opacity="0.5" d="M1102.84 133.06C1105.83 133.06 1108.33 135.556 1108.33 138.552C1108.33 141.547 1105.83 144.044 1102.84 144.044C1099.84 144.044 1097.35 141.547 1097.35 138.552C1097.1 135.556 1099.59 133.06 1102.84 133.06Z" fill="#2A5C8E"/>
<path opacity="0.5" d="M1130.55 132.56C1133.8 132.56 1136.54 135.306 1136.54 138.552C1136.54 141.797 1133.8 144.543 1130.55 144.543C1127.31 144.543 1124.56 141.797 1124.56 138.552C1124.31 135.306 1127.06 132.56 1130.55 132.56Z" fill="#2A5C8E"/>
<path opacity="0.5" d="M1158.27 132.56C1161.51 132.56 1164.26 135.306 1164.26 138.552C1164.26 141.797 1161.51 144.543 1158.27 144.543C1155.02 144.543 1152.27 141.797 1152.27 138.552C1152.02 135.306 1154.77 132.56 1158.27 132.56Z" fill="#2A5C8E"/>
<path opacity="0.5" d="M1185.73 133.06C1188.98 133.06 1191.47 135.556 1191.47 138.801C1191.47 142.047 1188.98 144.543 1185.73 144.543C1182.49 144.543 1179.99 142.047 1179.99 138.801C1180.24 135.556 1182.74 133.06 1185.73 133.06Z" fill="#2A5C8E"/>
<path opacity="0.5" d="M1213.45 133.559C1216.2 133.559 1218.44 135.794 1218.44 138.552C1218.44 141.309 1216.2 143.545 1213.45 143.545C1210.69 143.545 1208.45 141.309 1208.45 138.552C1208.45 135.794 1210.69 133.559 1213.45 133.559Z" fill="#2A5C8E"/>
<path opacity="0.5" d="M1241.16 134.558C1243.41 134.558 1245.16 136.305 1245.16 138.552C1245.16 140.799 1243.41 142.546 1241.16 142.546C1238.91 142.546 1237.17 140.799 1237.17 138.552C1237.17 136.305 1238.91 134.558 1241.16 134.558Z" fill="#2A5C8E"/>
<path opacity="0.5" d="M1268.87 135.556C1270.62 135.556 1271.87 137.054 1271.87 138.552C1271.87 140.299 1270.37 141.548 1268.87 141.548C1267.13 141.548 1265.88 140.05 1265.88 138.552C1265.88 136.804 1267.38 135.556 1268.87 135.556Z" fill="#2A5C8E"/>
<path opacity="0.5" d="M1296.59 136.804C1297.59 136.804 1298.59 137.553 1298.59 138.801C1298.59 139.8 1297.84 140.799 1296.59 140.799C1295.34 140.799 1294.59 140.05 1294.59 138.801C1294.84 137.553 1295.59 136.804 1296.59 136.804Z" fill="#2A5C8E"/>
<path opacity="0.5" d="M1324.3 137.803C1324.8 137.803 1325.05 138.053 1325.05 138.552C1325.05 139.051 1324.8 139.301 1324.3 139.301C1323.8 139.301 1323.55 139.051 1323.55 138.552C1323.55 138.302 1324.05 137.803 1324.3 137.803Z" fill="#2A5C8E"/>
<path opacity="0.5" d="M977.998 110.342C978.248 110.342 978.498 110.592 978.498 110.842C978.498 111.091 978.248 111.341 977.998 111.341C977.749 111.341 977.499 111.091 977.499 110.842C977.499 110.592 977.749 110.342 977.998 110.342Z" fill="#2A5C8E"/>
<path opacity="0.5" d="M1005.71 109.344C1006.71 109.344 1007.46 110.093 1007.46 111.091C1007.46 112.09 1006.71 112.839 1005.71 112.839C1004.71 112.839 1003.97 112.09 1003.97 111.091C1004.21 110.093 1004.96 109.344 1005.71 109.344Z" fill="#2A5C8E"/>
<path opacity="0.5" d="M1033.43 108.345C1034.93 108.345 1035.92 109.593 1035.92 110.841C1035.92 112.339 1034.68 113.338 1033.43 113.338C1032.18 113.338 1030.93 112.09 1030.93 110.841C1030.93 109.593 1031.93 108.345 1033.43 108.345Z" fill="#2A5C8E"/>
<path opacity="0.5" d="M1061.14 107.346C1063.14 107.346 1064.64 108.844 1064.64 110.841C1064.64 112.839 1063.14 114.336 1061.14 114.336C1059.14 114.336 1057.65 112.839 1057.65 110.841C1057.65 109.094 1059.14 107.346 1061.14 107.346Z" fill="#2A5C8E"/>
<path opacity="0.5" d="M1088.86 106.598C1091.1 106.598 1093.1 108.595 1093.1 110.842C1093.1 113.088 1091.1 115.085 1088.86 115.085C1086.61 115.085 1084.61 113.088 1084.61 110.842C1084.61 108.595 1086.61 106.598 1088.86 106.598Z" fill="#2A5C8E"/>
<path opacity="0.5" d="M1116.57 106.348C1119.07 106.348 1121.31 108.345 1121.31 111.091C1121.31 113.837 1119.32 115.834 1116.57 115.834C1113.82 115.834 1111.83 113.837 1111.83 111.091C1111.83 108.345 1114.07 106.348 1116.57 106.348Z" fill="#2A5C8E"/>
<path opacity="0.5" d="M1144.28 106.098C1147.03 106.098 1149.03 108.345 1149.03 110.841C1149.03 113.588 1146.78 115.585 1144.28 115.585C1141.79 115.585 1139.54 113.338 1139.54 110.841C1139.54 108.345 1141.54 106.098 1144.28 106.098Z" fill="#2A5C8E"/>
<path opacity="0.5" d="M1172 106.348C1174.5 106.348 1176.74 108.345 1176.74 111.091C1176.74 113.837 1174.75 115.834 1172 115.834C1169.25 115.834 1167.26 113.837 1167.26 111.091C1167.26 108.345 1169.5 106.348 1172 106.348Z" fill="#2A5C8E"/>
<path opacity="0.5" d="M1199.71 106.598C1201.96 106.598 1203.96 108.595 1203.96 110.842C1203.96 113.088 1201.96 115.085 1199.71 115.085C1197.47 115.085 1195.47 113.088 1195.47 110.842C1195.47 108.595 1197.47 106.598 1199.71 106.598Z" fill="#2A5C8E"/>
<path opacity="0.5" d="M1227.43 107.346C1229.43 107.346 1230.92 108.844 1230.92 110.841C1230.92 112.839 1229.43 114.336 1227.43 114.336C1225.43 114.336 1223.93 112.839 1223.93 110.841C1223.68 108.844 1225.43 107.346 1227.43 107.346Z" fill="#2A5C8E"/>
<path opacity="0.5" d="M1255.14 108.345C1256.64 108.345 1257.89 109.593 1257.89 111.091C1257.89 112.589 1256.64 113.837 1255.14 113.837C1253.64 113.837 1252.4 112.589 1252.4 111.091C1252.4 109.343 1253.64 108.345 1255.14 108.345Z" fill="#2A5C8E"/>
<path opacity="0.5" d="M1282.86 109.094C1283.82 109.094 1284.6 109.876 1284.6 110.841C1284.6 111.807 1283.82 112.589 1282.86 112.589C1281.89 112.589 1281.11 111.807 1281.11 110.841C1281.11 109.876 1281.89 109.094 1282.86 109.094Z" fill="#2A5C8E"/>
<path opacity="0.5" d="M1310.57 110.092C1310.98 110.092 1311.32 110.428 1311.32 110.841C1311.32 111.255 1310.98 111.59 1310.57 111.59C1310.16 111.59 1309.82 111.255 1309.82 110.841C1309.82 110.428 1310.16 110.092 1310.57 110.092Z" fill="#2A5C8E"/>
<path opacity="0.5" d="M991.981 82.6318C992.256 82.6318 992.48 82.8554 992.48 83.1311C992.48 83.4069 992.256 83.6304 991.981 83.6304C991.705 83.6304 991.481 83.4069 991.481 83.1311C991.481 82.8554 991.705 82.6318 991.981 82.6318Z" fill="#2A5C8E"/>
<path opacity="0.5" d="M1019.69 81.8831C1020.44 81.8831 1020.94 82.3823 1020.94 83.1312C1020.94 83.8801 1020.44 84.3794 1019.69 84.3794C1018.95 84.3794 1018.45 83.8801 1018.45 83.1312C1018.45 82.632 1018.95 81.8831 1019.69 81.8831Z" fill="#2A5C8E"/>
<path opacity="0.5" d="M1047.41 81.1339C1048.51 81.1339 1049.41 82.0281 1049.41 83.1311C1049.41 84.234 1048.51 85.1282 1047.41 85.1282C1046.31 85.1282 1045.41 84.234 1045.41 83.1311C1045.41 82.0281 1046.31 81.1339 1047.41 81.1339Z" fill="#2A5C8E"/>
<path opacity="0.5" d="M1075.12 80.385C1076.62 80.385 1077.87 81.6332 1077.87 83.1311C1077.87 84.629 1076.62 85.8772 1075.12 85.8772C1073.63 85.8772 1072.38 84.629 1072.38 83.1311C1072.38 81.6332 1073.63 80.385 1075.12 80.385Z" fill="#2A5C8E"/>
<path opacity="0.5" d="M1102.84 79.8858C1104.59 79.8858 1106.08 81.3837 1106.08 83.1312C1106.08 84.8787 1104.59 86.3765 1102.84 86.3765C1101.09 86.3765 1099.59 84.8787 1099.59 83.1312C1099.59 81.3837 1100.84 79.8858 1102.84 79.8858Z" fill="#2A5C8E"/>
<path opacity="0.5" d="M1130.55 79.6362C1132.55 79.6362 1134.05 81.1341 1134.05 83.1312C1134.05 85.1284 1132.55 86.6262 1130.55 86.6262C1128.56 86.6262 1127.06 85.1284 1127.06 83.1312C1126.81 81.3837 1128.56 79.6362 1130.55 79.6362Z" fill="#2A5C8E"/>
<path opacity="0.5" d="M1158.27 79.6362C1160.26 79.6362 1161.76 81.1341 1161.76 83.1312C1161.76 85.1284 1160.26 86.6262 1158.27 86.6262C1156.27 86.6262 1154.77 85.1284 1154.77 83.1312C1154.52 81.3837 1156.27 79.6362 1158.27 79.6362Z" fill="#2A5C8E"/>
<path opacity="0.5" d="M1185.73 79.8858C1187.48 79.8858 1188.98 81.3837 1188.98 83.1312C1188.98 84.8787 1187.48 86.3765 1185.73 86.3765C1183.98 86.3765 1182.49 84.8787 1182.49 83.1312C1182.49 81.3837 1183.98 79.8858 1185.73 79.8858Z" fill="#2A5C8E"/>
<path opacity="0.5" d="M1213.45 80.385C1214.94 80.385 1216.19 81.6332 1216.19 83.1311C1216.19 84.629 1214.94 85.8772 1213.45 85.8772C1211.95 85.8772 1210.7 84.629 1210.7 83.1311C1210.7 81.6332 1211.95 80.385 1213.45 80.385Z" fill="#2A5C8E"/>
<path opacity="0.5" d="M1241.16 81.134C1242.41 81.134 1243.41 82.1327 1243.41 83.3809C1243.41 84.6291 1242.41 85.6277 1241.16 85.6277C1239.91 85.6277 1238.91 84.6291 1238.91 83.3809C1239.16 82.1327 1240.16 81.134 1241.16 81.134Z" fill="#2A5C8E"/>
<path opacity="0.5" d="M1268.87 81.8831C1269.62 81.8831 1270.12 82.3823 1270.12 83.1312C1270.12 83.8801 1269.62 84.3794 1268.87 84.3794C1268.13 84.3794 1267.63 83.8801 1267.63 83.1312C1267.63 82.3823 1268.13 81.8831 1268.87 81.8831Z" fill="#2A5C8E"/>
<path opacity="0.5" d="M1296.59 82.6318C1296.87 82.6318 1297.09 82.8554 1297.09 83.1311C1297.09 83.4069 1296.87 83.6304 1296.59 83.6304C1296.31 83.6304 1296.09 83.4069 1296.09 83.1311C1296.09 82.8554 1296.31 82.6318 1296.59 82.6318Z" fill="#2A5C8E"/>
<path opacity="0.5" d="M1033.43 54.6719C1033.84 54.6719 1034.18 55.0072 1034.18 55.4208C1034.18 55.8344 1033.84 56.1697 1033.43 56.1697C1033.01 56.1697 1032.68 55.8344 1032.68 55.4208C1032.68 55.0072 1033.01 54.6719 1033.43 54.6719Z" fill="#2A5C8E"/>
<path opacity="0.5" d="M1061.14 54.1726C1061.89 54.1726 1062.39 54.6719 1062.39 55.4208C1062.39 56.1697 1061.89 56.6689 1061.14 56.6689C1060.39 56.6689 1059.89 56.1697 1059.89 55.4208C1059.89 54.9215 1060.39 54.1726 1061.14 54.1726Z" fill="#2A5C8E"/>
<path opacity="0.5" d="M1088.86 53.6732C1089.85 53.6732 1090.6 54.4222 1090.6 55.4207C1090.6 56.4193 1089.85 57.1682 1088.86 57.1682C1087.86 57.1682 1087.11 56.4193 1087.11 55.4207C1087.11 54.4222 1087.86 53.6732 1088.86 53.6732Z" fill="#2A5C8E"/>
<path opacity="0.5" d="M1116.57 53.4236C1117.82 53.4236 1118.82 54.4222 1118.82 55.6704C1118.82 56.9187 1117.82 57.9172 1116.57 57.9172C1115.32 57.9172 1114.32 56.9187 1114.32 55.6704C1114.32 54.4222 1115.32 53.4236 1116.57 53.4236Z" fill="#2A5C8E"/>
<path opacity="0.5" d="M1144.28 53.174C1145.53 53.174 1146.53 54.1799 1146.53 55.4207C1146.53 56.6616 1145.53 57.6675 1144.28 57.6675C1143.04 57.6675 1142.04 56.6616 1142.04 55.4207C1142.04 54.1799 1143.04 53.174 1144.28 53.174Z" fill="#2A5C8E"/>
<path opacity="0.5" d="M1172 53.4236C1173.25 53.4236 1174.25 54.4222 1174.25 55.6704C1174.25 56.9187 1173.25 57.9172 1172 57.9172C1170.75 57.9172 1169.75 56.9187 1169.75 55.6704C1169.75 54.4222 1170.75 53.4236 1172 53.4236Z" fill="#2A5C8E"/>
<path opacity="0.5" d="M1199.71 53.6732C1200.68 53.6732 1201.46 54.4556 1201.46 55.4207C1201.46 56.3858 1200.68 57.1682 1199.71 57.1682C1198.75 57.1682 1197.97 56.3858 1197.97 55.4207C1197.97 54.4556 1198.75 53.6732 1199.71 53.6732Z" fill="#2A5C8E"/>
<path opacity="0.5" d="M1227.43 54.1725C1228.18 54.1725 1228.93 54.6718 1228.93 55.6704C1228.93 56.4193 1228.43 57.1682 1227.43 57.1682C1226.68 57.1682 1225.93 56.6689 1225.93 55.6704C1225.93 54.6718 1226.68 54.1725 1227.43 54.1725Z" fill="#2A5C8E"/>
<path opacity="0.5" d="M1255.14 54.6719C1255.56 54.6719 1255.89 55.0072 1255.89 55.4208C1255.89 55.8344 1255.56 56.1697 1255.14 56.1697C1254.73 56.1697 1254.39 55.8344 1254.39 55.4208C1254.39 55.0072 1254.73 54.6719 1255.14 54.6719Z" fill="#2A5C8E"/>
<path opacity="0.5" d="M1282.86 55.4214C1283.11 55.6704 1282.86 55.6704 1282.86 55.6704C1282.86 55.6704 1282.61 55.6704 1282.86 55.4214C1282.61 55.4214 1282.61 55.4214 1282.86 55.4214Z" fill="#2A5C8E"/>
<path opacity="0.5" d="M1047.41 27.7111C1047.41 27.9599 1047.41 27.9599 1047.41 27.7111C1047.41 27.9599 1047.16 27.9599 1047.41 27.7111C1047.41 27.7111 1047.16 27.7111 1047.41 27.7111Z" fill="#2A5C8E"/>
<path opacity="0.5" d="M1075.12 27.4606C1075.37 27.4606 1075.62 27.7103 1075.62 27.9599C1075.62 28.2096 1075.37 28.4592 1075.12 28.4592C1074.87 28.4592 1074.62 28.2096 1074.62 27.9599C1074.62 27.7103 1074.87 27.4606 1075.12 27.4606Z" fill="#2A5C8E"/>
<path opacity="0.5" d="M1102.84 26.9614C1103.34 26.9614 1103.59 27.211 1103.59 27.7103C1103.59 28.2096 1103.34 28.4592 1102.84 28.4592C1102.34 28.4592 1102.09 28.2096 1102.09 27.7103C1102.09 27.4607 1102.34 26.9614 1102.84 26.9614Z" fill="#2A5C8E"/>
<path opacity="0.5" d="M1130.55 26.7119C1131.1 26.7119 1131.55 27.159 1131.55 27.7104C1131.55 28.2619 1131.1 28.709 1130.55 28.709C1130 28.709 1129.55 28.2619 1129.55 27.7104C1129.55 27.159 1130 26.7119 1130.55 26.7119Z" fill="#2A5C8E"/>
<path opacity="0.5" d="M1158.27 26.7119C1158.82 26.7119 1159.27 27.159 1159.27 27.7104C1159.27 28.2619 1158.82 28.709 1158.27 28.709C1157.72 28.709 1157.27 28.2619 1157.27 27.7104C1157.27 27.159 1157.72 26.7119 1158.27 26.7119Z" fill="#2A5C8E"/>
<path opacity="0.5" d="M1185.73 26.9614C1186.23 26.9614 1186.48 27.211 1186.48 27.7103C1186.48 28.2096 1186.23 28.4592 1185.73 28.4592C1185.23 28.4592 1184.98 28.2096 1184.98 27.7103C1184.98 27.4607 1185.48 26.9614 1185.73 26.9614Z" fill="#2A5C8E"/>
<path opacity="0.5" d="M1213.45 27.2111C1213.72 27.2111 1213.95 27.4346 1213.95 27.7104C1213.95 27.9861 1213.72 28.2097 1213.45 28.2097C1213.17 28.2097 1212.95 27.9861 1212.95 27.7104C1212.95 27.4346 1213.17 27.2111 1213.45 27.2111Z" fill="#2A5C8E"/>
<path opacity="0.5" d="M1241.16 27.7111C1241.41 27.7111 1241.41 27.7111 1241.16 27.7111C1241.41 27.9599 1241.16 27.96 1241.16 27.96C1241.16 27.96 1241.16 27.9599 1241.16 27.7111Z" fill="#2A5C8E"/>
</g>
<g opacity="0.5">
<path opacity="0.5" d="M102.107 1088.41C102.107 1088.66 102.107 1088.66 102.107 1088.41C102.107 1088.66 101.858 1088.66 102.107 1088.41C102.107 1088.41 101.858 1088.41 102.107 1088.41Z" fill="#2A5C8E"/>
<path opacity="0.5" d="M129.822 1088.16C130.071 1088.16 130.071 1088.41 130.071 1088.41C130.071 1088.66 129.822 1088.66 129.822 1088.66C129.572 1088.66 129.572 1088.41 129.572 1088.41C129.322 1088.41 129.572 1088.16 129.822 1088.16Z" fill="#2A5C8E"/>
<path opacity="0.5" d="M157.536 1087.91C157.786 1087.91 158.035 1088.16 158.035 1088.41C158.035 1088.66 157.786 1088.9 157.536 1088.9C157.286 1088.9 157.037 1088.66 157.037 1088.41C156.787 1088.16 157.037 1087.91 157.536 1087.91Z" fill="#2A5C8E"/>
<path opacity="0.5" d="M185.25 1087.66C185.75 1087.66 185.999 1088.16 185.999 1088.41C185.999 1088.66 185.5 1089.4 185.25 1089.4C184.751 1089.4 184.501 1088.9 184.501 1088.66C184.501 1088.41 184.751 1087.66 185.25 1087.66Z" fill="#2A5C8E"/>
<path opacity="0.5" d="M212.965 1087.66C213.464 1087.66 213.714 1088.16 213.714 1088.41C213.714 1088.66 213.214 1089.4 212.965 1089.4C212.715 1089.4 212.216 1088.9 212.216 1088.66C212.216 1088.41 212.465 1087.66 212.965 1087.66Z" fill="#2A5C8E"/>
<path opacity="0.5" d="M240.43 1087.91C240.843 1087.91 241.179 1088.24 241.179 1088.66C241.179 1089.07 240.843 1089.4 240.43 1089.4C240.016 1089.4 239.68 1089.07 239.68 1088.66C239.68 1088.24 240.016 1087.91 240.43 1087.91Z" fill="#2A5C8E"/>
<path opacity="0.5" d="M268.144 1088.16C268.394 1088.16 268.643 1088.41 268.643 1088.66C268.643 1088.9 268.394 1089.15 268.144 1089.15C267.894 1089.15 267.645 1088.9 267.645 1088.66C267.894 1088.41 268.144 1088.16 268.144 1088.16Z" fill="#2A5C8E"/>
<path opacity="0.5" d="M295.858 1088.41C296.107 1088.41 296.107 1088.41 295.858 1088.41C296.107 1088.66 296.107 1088.66 295.858 1088.41C295.858 1088.66 295.858 1088.66 295.858 1088.41Z" fill="#2A5C8E"/>
<path opacity="0.5" d="M60.4108 1060.7C60.4108 1060.7 60.6598 1060.7 60.4108 1060.7C60.6598 1060.94 60.4108 1060.94 60.4108 1060.7C60.4108 1060.94 60.4108 1060.94 60.4108 1060.7Z" fill="#2A5C8E"/>
<path opacity="0.5" d="M88.1252 1060.45C88.3749 1060.45 88.6246 1060.7 88.6246 1060.94C88.6246 1061.19 88.3749 1061.44 88.1252 1061.44C87.8755 1061.44 87.6259 1061.19 87.6259 1060.94C87.6259 1060.45 87.8755 1060.45 88.1252 1060.45Z" fill="#2A5C8E"/>
<path opacity="0.5" d="M115.84 1059.7C116.589 1059.7 117.088 1060.2 117.088 1060.94C117.088 1061.69 116.589 1062.19 115.84 1062.19C115.091 1062.19 114.591 1061.69 114.591 1060.94C114.591 1060.2 115.091 1059.7 115.84 1059.7Z" fill="#2A5C8E"/>
<path opacity="0.5" d="M143.554 1059.2C144.553 1059.2 145.302 1059.95 145.302 1060.94C145.302 1061.94 144.553 1062.69 143.554 1062.69C142.555 1062.69 141.806 1061.94 141.806 1060.94C141.806 1059.95 142.555 1059.2 143.554 1059.2Z" fill="#2A5C8E"/>
<path opacity="0.5" d="M171.268 1058.95C172.267 1058.95 173.266 1059.95 173.266 1060.94C173.266 1061.94 172.267 1062.94 171.268 1062.94C170.27 1062.94 169.271 1061.94 169.271 1060.94C169.271 1059.95 170.27 1058.95 171.268 1058.95Z" fill="#2A5C8E"/>
<path opacity="0.5" d="M198.983 1058.7C200.231 1058.7 201.23 1059.7 201.23 1060.94C201.23 1062.19 200.231 1063.19 198.983 1063.19C197.734 1063.19 196.736 1062.19 196.736 1060.94C196.736 1059.7 197.734 1058.7 198.983 1058.7Z" fill="#2A5C8E"/>
<path opacity="0.5" d="M226.697 1058.95C227.8 1058.95 228.695 1059.84 228.695 1060.94C228.695 1062.05 227.8 1062.94 226.697 1062.94C225.594 1062.94 224.7 1062.05 224.7 1060.94C224.7 1059.84 225.594 1058.95 226.697 1058.95Z" fill="#2A5C8E"/>
<path opacity="0.5" d="M254.412 1059.2C255.377 1059.2 256.159 1059.98 256.159 1060.94C256.159 1061.91 255.377 1062.69 254.412 1062.69C253.446 1062.69 252.664 1061.91 252.664 1060.94C252.664 1059.98 253.446 1059.2 254.412 1059.2Z" fill="#2A5C8E"/>
<path opacity="0.5" d="M282.126 1059.7C282.875 1059.7 283.374 1060.2 283.374 1060.94C283.374 1061.69 282.875 1062.19 282.126 1062.19C281.377 1062.19 280.878 1061.69 280.878 1060.94C280.878 1060.2 281.377 1059.7 282.126 1059.7Z" fill="#2A5C8E"/>
<path opacity="0.5" d="M309.84 1060.2C310.09 1060.2 310.34 1060.45 310.34 1060.7C310.34 1060.94 310.09 1061.19 309.84 1061.19C309.591 1061.19 309.341 1060.94 309.341 1060.7C309.091 1060.45 309.341 1060.2 309.84 1060.2Z" fill="#2A5C8E"/>
<path opacity="0.5" d="M337.554 1060.7C337.554 1060.94 337.554 1060.94 337.554 1060.7C337.554 1060.94 337.305 1060.94 337.554 1060.7C337.554 1060.7 337.305 1060.7 337.554 1060.7Z" fill="#2A5C8E"/>
<path opacity="0.5" d="M46.6784 1032.74C46.9281 1032.74 46.9281 1032.98 46.9281 1032.98C46.9281 1033.23 46.6784 1033.23 46.6784 1033.23C46.4288 1033.23 46.4288 1032.98 46.4288 1032.98C46.4288 1032.98 46.4288 1032.74 46.6784 1032.74Z" fill="#2A5C8E"/>
<path opacity="0.5" d="M74.3929 1031.99C75.0823 1031.99 75.6413 1032.55 75.6413 1033.23C75.6413 1033.92 75.0823 1034.48 74.3929 1034.48C73.7034 1034.48 73.1445 1033.92 73.1445 1033.23C73.1445 1032.55 73.7034 1031.99 74.3929 1031.99Z" fill="#2A5C8E"/>
<path opacity="0.5" d="M102.107 1031.24C103.21 1031.24 104.105 1032.13 104.105 1033.23C104.105 1034.34 103.21 1035.23 102.107 1035.23C101.004 1035.23 100.11 1034.34 100.11 1033.23C100.11 1032.13 101.004 1031.24 102.107 1031.24Z" fill="#2A5C8E"/>
<path opacity="0.5" d="M129.822 1030.49C131.338 1030.49 132.568 1031.72 132.568 1033.23C132.568 1034.75 131.338 1035.98 129.822 1035.98C128.305 1035.98 127.075 1034.75 127.075 1033.23C127.075 1031.72 128.305 1030.49 129.822 1030.49Z" fill="#2A5C8E"/>
<path opacity="0.5" d="M157.536 1029.99C159.329 1029.99 160.782 1031.44 160.782 1033.23C160.782 1035.03 159.329 1036.48 157.536 1036.48C155.743 1036.48 154.29 1035.03 154.29 1033.23C154.29 1031.44 155.743 1029.99 157.536 1029.99Z" fill="#2A5C8E"/>
<path opacity="0.5" d="M185.25 1029.74C186.998 1029.74 188.746 1031.24 188.746 1033.23C188.746 1035.23 187.248 1036.73 185.25 1036.73C183.503 1036.73 181.755 1035.23 181.755 1033.23C181.755 1031.24 183.253 1029.74 185.25 1029.74Z" fill="#2A5C8E"/>
<path opacity="0.5" d="M212.965 1029.74C214.895 1029.74 216.46 1031.3 216.46 1033.23C216.46 1035.16 214.895 1036.73 212.965 1036.73C211.034 1036.73 209.469 1035.16 209.469 1033.23C209.469 1031.3 211.034 1029.74 212.965 1029.74Z" fill="#2A5C8E"/>
<path opacity="0.5" d="M240.43 1029.99C242.222 1029.99 243.675 1031.44 243.675 1033.23C243.675 1035.03 242.222 1036.48 240.43 1036.48C238.637 1036.48 237.184 1035.03 237.184 1033.23C237.184 1031.44 238.637 1029.99 240.43 1029.99Z" fill="#2A5C8E"/>
<path opacity="0.5" d="M268.144 1030.49C269.661 1030.49 270.89 1031.72 270.89 1033.23C270.89 1034.75 269.661 1035.98 268.144 1035.98C266.627 1035.98 265.397 1034.75 265.397 1033.23C265.397 1031.72 266.627 1030.49 268.144 1030.49Z" fill="#2A5C8E"/>
<path opacity="0.5" d="M295.858 1031.24C296.961 1031.24 297.856 1032.13 297.856 1033.23C297.856 1034.34 296.961 1035.23 295.858 1035.23C294.755 1035.23 293.861 1034.34 293.861 1033.23C293.861 1032.13 294.755 1031.24 295.858 1031.24Z" fill="#2A5C8E"/>
<path opacity="0.5" d="M323.573 1031.99C324.322 1031.99 324.821 1032.49 324.821 1033.23C324.821 1033.98 324.322 1034.48 323.573 1034.48C322.824 1034.48 322.324 1033.98 322.324 1033.23C322.324 1032.49 323.073 1031.99 323.573 1031.99Z" fill="#2A5C8E"/>
<path opacity="0.5" d="M351.287 1032.74C351.537 1032.74 351.786 1032.98 351.786 1033.23C351.786 1033.48 351.537 1033.73 351.287 1033.73C351.037 1033.73 350.788 1033.48 350.788 1033.23C351.037 1032.98 351.037 1032.74 351.287 1032.74Z" fill="#2A5C8E"/>
<path opacity="0.5" d="M32.6964 1005.02C32.9461 1005.02 33.1958 1005.27 33.1958 1005.52C33.1958 1005.77 32.9461 1006.02 32.6964 1006.02C32.4468 1006.02 32.1971 1005.77 32.1971 1005.52C32.1971 1005.27 32.4468 1005.02 32.6964 1005.02Z" fill="#2A5C8E"/>
<path opacity="0.5" d="M60.4108 1004.03C61.2382 1004.03 61.9089 1004.7 61.9089 1005.52C61.9089 1006.35 61.2382 1007.02 60.4108 1007.02C59.5835 1007.02 58.9128 1006.35 58.9128 1005.52C58.9128 1004.7 59.5835 1004.03 60.4108 1004.03Z" fill="#2A5C8E"/>
<path opacity="0.5" d="M88.1252 1003.03C89.5042 1003.03 90.622 1004.15 90.622 1005.52C90.622 1006.9 89.5042 1008.02 88.1252 1008.02C86.7463 1008.02 85.6284 1006.9 85.6284 1005.52C85.6284 1004.15 86.7463 1003.03 88.1252 1003.03Z" fill="#2A5C8E"/>
<path opacity="0.5" d="M115.84 1002.03C117.77 1002.03 119.335 1003.59 119.335 1005.52C119.335 1007.45 117.77 1009.02 115.84 1009.02C113.909 1009.02 112.344 1007.45 112.344 1005.52C112.344 1003.59 113.909 1002.03 115.84 1002.03Z" fill="#2A5C8E"/>
<path opacity="0.5" d="M143.554 1001.53C145.76 1001.53 147.549 1003.32 147.549 1005.52C147.549 1007.73 145.76 1009.52 143.554 1009.52C141.348 1009.52 139.559 1007.73 139.559 1005.52C139.559 1003.32 141.348 1001.53 143.554 1001.53Z" fill="#2A5C8E"/>
<path opacity="0.5" d="M171.268 1001.03C173.75 1001.03 175.763 1003.04 175.763 1005.52C175.763 1008.01 173.75 1010.02 171.268 1010.02C168.786 1010.02 166.774 1008.01 166.774 1005.52C166.774 1003.04 168.786 1001.03 171.268 1001.03Z" fill="#2A5C8E"/>
<path opacity="0.5" d="M198.983 1000.78C201.603 1000.78 203.727 1002.9 203.727 1005.52C203.727 1008.14 201.603 1010.27 198.983 1010.27C196.363 1010.27 194.239 1008.14 194.239 1005.52C194.239 1002.9 196.363 1000.78 198.983 1000.78Z" fill="#2A5C8E"/>
<path opacity="0.5" d="M226.697 1000.78C229.194 1000.78 231.191 1002.78 231.191 1005.27C231.191 1007.77 229.194 1009.77 226.697 1009.77C224.2 1009.77 222.203 1007.77 222.203 1005.27C222.203 1002.78 224.2 1000.78 226.697 1000.78Z" fill="#2A5C8E"/>
<path opacity="0.5" d="M254.412 1001.28C256.756 1001.28 258.656 1003.18 258.656 1005.52C258.656 1007.87 256.756 1009.77 254.412 1009.77C252.067 1009.77 250.167 1007.87 250.167 1005.52C250.167 1003.18 252.067 1001.28 254.412 1001.28Z" fill="#2A5C8E"/>
<path opacity="0.5" d="M282.126 1002.03C284.056 1002.03 285.621 1003.59 285.621 1005.52C285.621 1007.45 284.056 1009.02 282.126 1009.02C280.195 1009.02 278.63 1007.45 278.63 1005.52C278.63 1003.59 280.195 1002.03 282.126 1002.03Z" fill="#2A5C8E"/>
<path opacity="0.5" d="M309.84 1002.78C311.338 1002.78 312.337 1004.03 312.337 1005.27C312.337 1006.77 311.089 1007.77 309.84 1007.77C308.342 1007.77 307.344 1006.52 307.344 1005.27C307.094 1004.03 308.342 1002.78 309.84 1002.78Z" fill="#2A5C8E"/>
<path opacity="0.5" d="M337.555 1003.78C338.553 1003.78 339.302 1004.53 339.302 1005.52C339.302 1006.52 338.553 1007.27 337.555 1007.27C336.556 1007.27 335.807 1006.52 335.807 1005.52C335.807 1004.53 336.556 1003.78 337.555 1003.78Z" fill="#2A5C8E"/>
<path opacity="0.5" d="M365.269 1004.78C365.683 1004.78 366.018 1005.11 366.018 1005.52C366.018 1005.94 365.683 1006.27 365.269 1006.27C364.855 1006.27 364.52 1005.94 364.52 1005.52C364.52 1005.11 364.855 1004.78 365.269 1004.78Z" fill="#2A5C8E"/>
<path opacity="0.5" d="M18.9641 977.065C19.2138 977.065 19.4634 977.314 19.4634 977.564C19.4634 977.814 19.2138 978.063 18.9641 978.063C18.7144 978.063 18.4647 977.814 18.4647 977.564C18.215 977.314 18.7144 977.065 18.9641 977.065Z" fill="#2A5C8E"/>
<path opacity="0.5" d="M46.6785 976.066C47.6772 976.066 48.4262 976.815 48.4262 977.814C48.4262 978.812 47.6772 979.561 46.6785 979.561C45.6798 979.561 44.9307 978.812 44.9307 977.814C44.9307 976.815 45.6798 976.066 46.6785 976.066Z" fill="#2A5C8E"/>
<path opacity="0.5" d="M74.3928 974.818C76.0476 974.818 77.389 976.159 77.389 977.814C77.389 979.468 76.0476 980.809 74.3928 980.809C72.7381 980.809 71.3967 979.468 71.3967 977.814C71.3967 976.159 72.7381 974.818 74.3928 974.818Z" fill="#2A5C8E"/>
<path opacity="0.5" d="M102.107 973.819C104.354 973.819 106.102 975.567 106.102 977.814C106.102 980.06 104.354 981.808 102.107 981.808C99.8601 981.808 98.1124 980.06 98.1124 977.814C98.1124 975.567 99.8601 973.819 102.107 973.819Z" fill="#2A5C8E"/>
<path opacity="0.5" d="M129.822 972.821C132.568 972.821 134.566 975.068 134.566 977.564C134.566 980.31 132.318 982.307 129.822 982.307C127.075 982.307 125.078 980.06 125.078 977.564C124.828 975.068 127.075 972.821 129.822 972.821Z" fill="#2A5C8E"/>
<path opacity="0.5" d="M157.536 972.321C160.532 972.321 163.029 974.818 163.029 977.814C163.029 980.809 160.532 983.306 157.536 983.306C154.54 983.306 152.043 980.809 152.043 977.814C152.043 974.818 154.29 972.321 157.536 972.321Z" fill="#2A5C8E"/>
<path opacity="0.5" d="M185.25 971.822C188.496 971.822 191.243 974.568 191.243 977.814C191.243 981.059 188.496 983.805 185.25 983.805C182.005 983.805 179.258 981.059 179.258 977.814C179.258 974.568 181.755 971.822 185.25 971.822Z" fill="#2A5C8E"/>
<path opacity="0.5" d="M212.965 971.822C216.211 971.822 218.957 974.568 218.957 977.814C218.957 981.059 216.211 983.805 212.965 983.805C209.719 983.805 206.973 981.059 206.973 977.814C206.973 974.568 209.469 971.822 212.965 971.822Z" fill="#2A5C8E"/>
<path opacity="0.5" d="M240.43 972.072C243.426 972.072 245.922 974.568 245.922 977.564C245.922 980.56 243.426 983.056 240.43 983.056C237.433 983.056 234.937 980.56 234.937 977.564C234.937 974.568 237.433 972.072 240.43 972.072Z" fill="#2A5C8E"/>
<path opacity="0.5" d="M268.144 972.821C270.89 972.821 273.137 975.068 273.137 977.814C273.137 980.56 270.89 982.807 268.144 982.807C265.397 982.807 263.15 980.56 263.15 977.814C263.4 975.068 265.647 972.821 268.144 972.821Z" fill="#2A5C8E"/>
<path opacity="0.5" d="M295.858 973.819C298.105 973.819 299.853 975.567 299.853 977.814C299.853 980.06 298.105 981.808 295.858 981.808C293.611 981.808 291.863 980.06 291.863 977.814C291.863 975.567 293.861 973.819 295.858 973.819Z" fill="#2A5C8E"/>
<path opacity="0.5" d="M323.573 974.818C325.32 974.818 326.569 976.066 326.569 977.814C326.569 979.561 325.32 980.809 323.573 980.809C321.825 980.809 320.577 979.561 320.577 977.814C320.577 976.066 322.075 974.818 323.573 974.818Z" fill="#2A5C8E"/>
<path opacity="0.5" d="M351.287 976.066C352.252 976.066 353.035 976.849 353.035 977.814C353.035 978.779 352.252 979.561 351.287 979.561C350.322 979.561 349.539 978.779 349.539 977.814C349.539 976.849 350.322 976.066 351.287 976.066Z" fill="#2A5C8E"/>
<path opacity="0.5" d="M379.001 977.065C379.501 977.065 379.75 977.314 379.75 977.814C379.75 978.313 379.501 978.562 379.001 978.562C378.502 978.562 378.252 978.313 378.252 977.814C378.252 977.314 378.752 977.065 379.001 977.065Z" fill="#2A5C8E"/>
<path opacity="0.5" d="M4.98202 949.604C5.2317 949.604 5.48138 949.854 5.48138 950.103C5.48138 950.353 5.2317 950.603 4.98202 950.603C4.73234 950.603 4.48267 950.353 4.48267 950.103C4.73235 949.854 4.73234 949.604 4.98202 949.604Z" fill="#2A5C8E"/>
<path opacity="0.5" d="M32.6964 948.356C33.6951 948.356 34.4442 949.105 34.4442 950.103C34.4442 951.102 33.6951 951.851 32.6964 951.851C31.6977 951.851 30.9487 951.102 30.9487 950.103C31.1983 949.105 31.9474 948.356 32.6964 948.356Z" fill="#2A5C8E"/>
<path opacity="0.5" d="M60.4108 947.108C61.9089 947.108 63.407 948.356 63.407 950.103C63.407 951.601 62.1586 953.099 60.4108 953.099C58.9127 953.099 57.4147 951.851 57.4147 950.103C57.6644 948.356 58.9127 947.108 60.4108 947.108Z" fill="#2A5C8E"/>
<path opacity="0.5" d="M88.1252 946.109C90.3723 946.109 92.1201 947.856 92.1201 950.103C92.1201 952.35 90.3723 954.097 88.1252 954.097C85.8781 954.097 84.1303 952.35 84.1303 950.103C84.1303 947.856 85.8781 946.109 88.1252 946.109Z" fill="#2A5C8E"/>
<path opacity="0.5" d="M115.84 944.861C118.836 944.861 121.083 947.107 121.083 950.103C121.083 953.099 118.836 955.346 115.84 955.346C112.843 955.346 110.596 953.099 110.596 950.103C110.596 947.107 113.093 944.861 115.84 944.861Z" fill="#2A5C8E"/>
<path opacity="0.5" d="M143.554 943.862C147.05 943.862 149.796 946.608 149.796 950.103C149.796 953.598 147.05 956.344 143.554 956.344C140.058 956.344 137.312 953.598 137.312 950.103C137.312 946.608 140.058 943.862 143.554 943.862Z" fill="#2A5C8E"/>
<path opacity="0.5" d="M171.268 943.113C175.014 943.113 178.259 946.359 178.259 950.103C178.259 953.848 175.014 957.093 171.268 957.093C167.523 957.093 164.277 953.848 164.277 950.103C164.277 946.109 167.523 943.113 171.268 943.113Z" fill="#2A5C8E"/>
<path opacity="0.5" d="M198.983 942.864C202.978 942.864 206.223 946.109 206.223 950.103C206.223 954.098 202.978 957.343 198.983 957.343C194.988 957.343 191.742 954.098 191.742 950.103C191.742 946.109 194.988 942.864 198.983 942.864Z" fill="#2A5C8E"/>
<path opacity="0.5" d="M226.697 943.113C230.692 943.113 233.688 946.359 233.688 950.103C233.688 954.098 230.442 957.093 226.697 957.093C222.702 957.093 219.706 953.848 219.706 950.103C219.706 946.109 222.702 943.113 226.697 943.113Z" fill="#2A5C8E"/>
<path opacity="0.5" d="M254.412 943.862C257.907 943.862 260.654 946.608 260.654 950.103C260.654 953.598 257.907 956.344 254.412 956.344C250.916 956.344 248.17 953.598 248.17 950.103C248.17 946.608 250.916 943.862 254.412 943.862Z" fill="#2A5C8E"/>
<path opacity="0.5" d="M282.126 944.861C285.122 944.861 287.369 947.357 287.369 950.103C287.369 953.099 284.872 955.346 282.126 955.346C279.13 955.346 276.883 952.849 276.883 950.103C276.883 947.107 279.13 944.861 282.126 944.861Z" fill="#2A5C8E"/>
<path opacity="0.5" d="M309.84 945.859C312.087 945.859 314.085 947.856 314.085 950.103C314.085 952.35 312.087 954.347 309.84 954.347C307.593 954.347 305.596 952.35 305.596 950.103C305.596 947.856 307.593 945.859 309.84 945.859Z" fill="#2A5C8E"/>
<path opacity="0.5" d="M337.555 947.108C339.302 947.108 340.551 948.356 340.551 950.103C340.551 951.851 339.302 953.099 337.555 953.099C335.807 953.099 334.559 951.851 334.559 950.103C334.559 948.356 335.807 947.108 337.555 947.108Z" fill="#2A5C8E"/>
<path opacity="0.5" d="M365.269 948.106C366.268 948.106 367.017 948.855 367.017 949.854C367.017 950.852 366.268 951.601 365.269 951.601C364.27 951.601 363.521 950.852 363.521 949.854C363.521 948.855 364.27 948.106 365.269 948.106Z" fill="#2A5C8E"/>
<path opacity="0.5" d="M392.984 949.354C393.233 949.354 393.483 949.604 393.483 949.853C393.483 950.103 393.233 950.353 392.984 950.353C392.734 950.353 392.484 950.103 392.484 949.853C392.234 949.853 392.484 949.354 392.984 949.354Z" fill="#2A5C8E"/>
<path opacity="0.5" d="M18.9641 920.895C19.7131 920.895 20.4622 921.394 20.4622 922.393C20.4622 923.142 19.9628 923.891 18.9641 923.891C18.215 923.891 17.466 923.391 17.466 922.393C17.466 921.644 18.215 920.895 18.9641 920.895Z" fill="#2A5C8E"/>
<path opacity="0.5" d="M46.6784 919.647C48.1953 919.647 49.4249 920.876 49.4249 922.393C49.4249 923.909 48.1953 925.139 46.6784 925.139C45.1616 925.139 43.932 923.909 43.932 922.393C43.932 920.876 45.1616 919.647 46.6784 919.647Z" fill="#2A5C8E"/>
<path opacity="0.5" d="M74.3929 918.399C76.64 918.399 78.3877 920.146 78.3877 922.393C78.3877 924.64 76.64 926.387 74.3929 926.387C72.1457 926.387 70.398 924.64 70.398 922.393C70.398 920.146 72.1457 918.399 74.3929 918.399Z" fill="#2A5C8E"/>
<path opacity="0.5" d="M102.107 917.15C104.854 917.15 107.351 919.397 107.351 922.393C107.351 925.139 105.103 927.635 102.107 927.635C99.1111 927.635 96.864 925.389 96.864 922.393C96.864 919.647 99.1111 917.15 102.107 917.15Z" fill="#2A5C8E"/>
<path opacity="0.5" d="M129.822 915.902C133.407 915.902 136.313 918.808 136.313 922.393C136.313 925.978 133.407 928.884 129.822 928.884C126.236 928.884 123.33 925.978 123.33 922.393C123.33 918.808 126.236 915.902 129.822 915.902Z" fill="#2A5C8E"/>
<path opacity="0.5" d="M157.536 914.904C161.781 914.904 165.026 918.149 165.026 922.393C165.026 926.637 161.781 929.882 157.536 929.882C153.291 929.882 150.046 926.637 150.046 922.393C150.046 918.149 153.291 914.904 157.536 914.904Z" fill="#2A5C8E"/>
<path opacity="0.5" d="M185.25 913.905C189.994 913.905 193.74 917.65 193.74 922.393C193.74 927.136 189.994 930.881 185.25 930.881C180.507 930.881 176.761 927.136 176.761 922.393C176.761 917.65 180.507 913.905 185.25 913.905Z" fill="#2A5C8E"/>
<path opacity="0.5" d="M212.965 913.905C217.709 913.905 221.454 917.65 221.454 922.393C221.454 927.136 217.709 930.881 212.965 930.881C208.221 930.881 204.476 927.136 204.476 922.393C204.476 917.65 208.221 913.905 212.965 913.905Z" fill="#2A5C8E"/>
<path opacity="0.5" d="M240.43 914.654C244.674 914.654 247.92 918.149 247.92 922.143C247.92 926.387 244.424 929.633 240.43 929.633C236.185 929.633 232.939 926.138 232.939 922.143C232.939 918.149 236.435 914.654 240.43 914.654Z" fill="#2A5C8E"/>
<path opacity="0.5" d="M268.144 915.902C271.639 915.902 274.636 918.898 274.636 922.393C274.636 925.888 271.639 928.884 268.144 928.884C264.648 928.884 261.652 925.888 261.652 922.393C261.652 918.898 264.648 915.902 268.144 915.902Z" fill="#2A5C8E"/>
<path opacity="0.5" d="M295.858 917.15C298.854 917.15 301.102 919.647 301.102 922.393C301.102 925.389 298.605 927.635 295.858 927.635C292.862 927.635 290.615 925.139 290.615 922.393C290.615 919.397 293.112 917.15 295.858 917.15Z" fill="#2A5C8E"/>
<path opacity="0.5" d="M323.573 918.399C325.779 918.399 327.568 920.187 327.568 922.393C327.568 924.599 325.779 926.387 323.573 926.387C321.366 926.387 319.578 924.599 319.578 922.393C319.578 920.187 321.366 918.399 323.573 918.399Z" fill="#2A5C8E"/>
<path opacity="0.5" d="M351.287 919.647C352.785 919.647 354.034 920.895 354.034 922.393C354.034 923.891 352.785 925.139 351.287 925.139C349.789 925.139 348.541 923.891 348.541 922.393C348.541 920.895 349.789 919.647 351.287 919.647Z" fill="#2A5C8E"/>
<path opacity="0.5" d="M379.001 920.895C379.75 920.895 380.5 921.644 380.5 922.393C380.5 923.142 379.75 923.891 379.001 923.891C378.252 923.891 377.503 923.142 377.503 922.393C377.503 921.644 378.252 920.895 379.001 920.895Z" fill="#2A5C8E"/>
<path opacity="0.5" d="M406.716 922.143C406.966 922.143 406.966 922.393 406.966 922.393C406.966 922.642 406.716 922.642 406.716 922.642C406.466 922.642 406.466 922.393 406.466 922.393C406.466 922.143 406.466 922.143 406.716 922.143Z" fill="#2A5C8E"/>
<path opacity="0.5" d="M4.98204 893.934C5.4814 893.934 5.98076 894.183 5.98076 894.682C5.98076 895.182 5.4814 895.431 5.23172 895.431C4.98204 895.431 4.233 895.182 4.233 894.682C4.233 894.183 4.73236 893.934 4.98204 893.934Z" fill="#2A5C8E"/>
<path opacity="0.5" d="M32.6964 892.436C33.9448 892.436 34.9435 893.434 34.9435 894.683C34.9435 895.931 33.9448 896.929 32.6964 896.929C31.448 896.929 30.4493 895.931 30.4493 894.683C30.4493 893.434 31.6977 892.436 32.6964 892.436Z" fill="#2A5C8E"/>
<path opacity="0.5" d="M60.4108 891.187C62.4083 891.187 63.9063 892.685 63.9063 894.682C63.9063 896.68 62.4083 898.177 60.4108 898.177C58.4134 898.177 56.9153 896.68 56.9153 894.682C56.9153 892.685 58.6631 891.187 60.4108 891.187Z" fill="#2A5C8E"/>
<path opacity="0.5" d="M88.1252 889.939C90.7452 889.939 92.8691 892.063 92.8691 894.683C92.8691 897.302 90.7452 899.426 88.1252 899.426C85.5052 899.426 83.3813 897.302 83.3813 894.683C83.3813 892.063 85.5052 889.939 88.1252 889.939Z" fill="#2A5C8E"/>
<path opacity="0.5" d="M115.84 888.691C119.085 888.691 121.832 891.437 121.832 894.683C121.832 897.928 119.085 900.674 115.84 900.674C112.594 900.674 109.847 897.928 109.847 894.683C109.847 891.437 112.594 888.691 115.84 888.691Z" fill="#2A5C8E"/>
<path opacity="0.5" d="M143.554 887.443C147.553 887.443 150.795 890.684 150.795 894.682C150.795 898.681 147.553 901.922 143.554 901.922C139.555 901.922 136.313 898.681 136.313 894.682C136.313 890.684 139.555 887.443 143.554 887.443Z" fill="#2A5C8E"/>
<path opacity="0.5" d="M171.268 886.195C176.012 886.195 179.757 889.939 179.757 894.683C179.757 899.426 176.012 903.17 171.268 903.17C166.524 903.17 162.779 899.426 162.779 894.683C162.779 889.939 166.524 886.195 171.268 886.195Z" fill="#2A5C8E"/>
<path opacity="0.5" d="M198.983 885.196C204.226 885.196 208.471 889.44 208.471 894.683C208.471 899.925 204.226 904.169 198.983 904.169C193.74 904.169 189.495 899.925 189.495 894.683C189.495 889.44 193.74 885.196 198.983 885.196Z" fill="#2A5C8E"/>
<path opacity="0.5" d="M226.697 885.945C231.523 885.945 235.436 889.857 235.436 894.683C235.436 899.508 231.523 903.42 226.697 903.42C221.871 903.42 217.958 899.508 217.958 894.683C217.958 889.857 221.871 885.945 226.697 885.945Z" fill="#2A5C8E"/>
<path opacity="0.5" d="M254.412 887.193C258.548 887.193 261.902 890.546 261.902 894.682C261.902 898.819 258.548 902.172 254.412 902.172C250.275 902.172 246.921 898.819 246.921 894.682C246.921 890.546 250.275 887.193 254.412 887.193Z" fill="#2A5C8E"/>
<path opacity="0.5" d="M282.126 888.441C285.573 888.441 288.368 891.236 288.368 894.683C288.368 898.129 285.573 900.924 282.126 900.924C278.679 900.924 275.884 898.129 275.884 894.683C275.884 891.236 278.679 888.441 282.126 888.441Z" fill="#2A5C8E"/>
<path opacity="0.5" d="M309.84 889.939C312.587 889.939 314.584 892.186 314.584 894.683C314.584 897.429 312.337 899.426 309.84 899.426C307.094 899.426 305.096 897.179 305.096 894.683C304.847 891.936 307.094 889.939 309.84 889.939Z" fill="#2A5C8E"/>
<path opacity="0.5" d="M337.555 891.187C339.552 891.187 341.05 892.685 341.05 894.682C341.05 896.68 339.552 898.177 337.555 898.177C335.557 898.177 334.059 896.68 334.059 894.682C334.059 892.685 335.557 891.187 337.555 891.187Z" fill="#2A5C8E"/>
<path opacity="0.5" d="M365.269 892.436C366.51 892.436 367.516 893.442 367.516 894.683C367.516 895.923 366.51 896.929 365.269 896.929C364.028 896.929 363.022 895.923 363.022 894.683C363.022 893.442 364.028 892.436 365.269 892.436Z" fill="#2A5C8E"/>
<path opacity="0.5" d="M392.983 893.684C393.483 893.684 393.982 894.183 393.982 894.682C393.982 895.182 393.483 895.681 392.983 895.681C392.484 895.681 391.985 895.182 391.985 894.682C391.985 894.183 392.234 893.684 392.983 893.684Z" fill="#2A5C8E"/>
<path opacity="0.5" d="M18.9641 865.474C19.7131 865.474 20.4622 865.974 20.4622 866.972C20.4622 867.721 19.9628 868.47 18.9641 868.47C18.215 868.47 17.466 867.971 17.466 866.972C17.466 866.223 18.215 865.474 18.9641 865.474Z" fill="#2A5C8E"/>
<path opacity="0.5" d="M46.6784 864.226C48.1953 864.226 49.4249 865.456 49.4249 866.972C49.4249 868.489 48.1953 869.718 46.6784 869.718C45.1616 869.718 43.932 868.489 43.932 866.972C43.932 865.456 45.1616 864.226 46.6784 864.226Z" fill="#2A5C8E"/>
<path opacity="0.5" d="M74.3929 862.978C76.5992 862.978 78.3877 864.766 78.3877 866.972C78.3877 869.178 76.5992 870.966 74.3929 870.966C72.1865 870.966 70.398 869.178 70.398 866.972C70.398 864.766 72.1865 862.978 74.3929 862.978Z" fill="#2A5C8E"/>
<path opacity="0.5" d="M102.107 861.73C105.003 861.73 107.351 864.077 107.351 866.972C107.351 869.867 105.003 872.215 102.107 872.215C99.2115 872.215 96.864 869.867 96.864 866.972C96.864 864.077 99.2115 861.73 102.107 861.73Z" fill="#2A5C8E"/>
<path opacity="0.5" d="M129.822 860.481C133.317 860.481 136.313 863.477 136.313 866.972C136.313 870.467 133.317 873.463 129.822 873.463C126.326 873.463 123.33 870.467 123.33 866.972C123.33 863.477 126.076 860.481 129.822 860.481Z" fill="#2A5C8E"/>
<path opacity="0.5" d="M157.536 859.483C161.781 859.483 165.026 862.978 165.026 866.972C165.026 871.216 161.531 874.461 157.536 874.461C153.291 874.461 150.046 870.966 150.046 866.972C149.796 862.728 153.291 859.483 157.536 859.483Z" fill="#2A5C8E"/>
<path opacity="0.5" d="M185.25 858.484C189.994 858.484 193.74 862.229 193.74 866.972C193.74 871.715 189.994 875.46 185.25 875.46C180.507 875.46 176.761 871.715 176.761 866.972C176.761 862.229 180.507 858.484 185.25 858.484Z" fill="#2A5C8E"/>
<path opacity="0.5" d="M212.965 858.484C217.653 858.484 221.454 862.284 221.454 866.972C221.454 871.66 217.653 875.46 212.965 875.46C208.276 875.46 204.476 871.66 204.476 866.972C204.476 862.284 208.276 858.484 212.965 858.484Z" fill="#2A5C8E"/>
<path opacity="0.5" d="M240.43 859.233C244.704 859.233 248.17 862.698 248.17 866.972C248.17 871.246 244.704 874.711 240.43 874.711C236.155 874.711 232.689 871.246 232.689 866.972C232.689 862.698 236.155 859.233 240.43 859.233Z" fill="#2A5C8E"/>
<path opacity="0.5" d="M268.144 860.481C271.729 860.481 274.636 863.387 274.636 866.972C274.636 870.557 271.729 873.463 268.144 873.463C264.559 873.463 261.652 870.557 261.652 866.972C261.652 863.387 264.559 860.481 268.144 860.481Z" fill="#2A5C8E"/>
<path opacity="0.5" d="M295.858 861.73C298.854 861.73 301.102 864.226 301.102 866.972C301.102 869.718 298.605 872.215 295.858 872.215C292.862 872.215 290.615 869.718 290.615 866.972C290.615 864.226 293.112 861.73 295.858 861.73Z" fill="#2A5C8E"/>
<path opacity="0.5" d="M323.573 862.978C325.779 862.978 327.568 864.766 327.568 866.972C327.568 869.178 325.779 870.966 323.573 870.966C321.366 870.966 319.578 869.178 319.578 866.972C319.578 864.766 321.366 862.978 323.573 862.978Z" fill="#2A5C8E"/>
<path opacity="0.5" d="M351.287 864.226C352.785 864.226 354.034 865.474 354.034 866.972C354.034 868.47 352.785 869.718 351.287 869.718C349.789 869.718 348.541 868.47 348.541 866.972C348.541 865.474 349.789 864.226 351.287 864.226Z" fill="#2A5C8E"/>
<path opacity="0.5" d="M379.001 865.474C379.829 865.474 380.5 866.145 380.5 866.972C380.5 867.799 379.829 868.47 379.001 868.47C378.174 868.47 377.503 867.799 377.503 866.972C377.503 866.145 378.174 865.474 379.001 865.474Z" fill="#2A5C8E"/>
<path opacity="0.5" d="M406.716 866.723C406.854 866.723 406.966 866.834 406.966 866.972C406.966 867.11 406.854 867.222 406.716 867.222C406.578 867.222 406.466 867.11 406.466 866.972C406.466 866.834 406.578 866.723 406.716 866.723Z" fill="#2A5C8E"/>
<path opacity="0.5" d="M4.98202 838.762C5.2317 838.762 5.48138 839.012 5.48138 839.262C5.48138 839.511 5.2317 839.761 4.98202 839.761C4.73234 839.761 4.48267 839.511 4.48267 839.262C4.48267 839.012 4.73234 838.762 4.98202 838.762Z" fill="#2A5C8E"/>
<path opacity="0.5" d="M32.6964 837.514C33.6951 837.514 34.4442 838.263 34.4442 839.262C34.4442 840.26 33.6951 841.009 32.6964 841.009C31.6977 841.009 30.9487 840.26 30.9487 839.262C30.9487 838.263 31.6977 837.514 32.6964 837.514Z" fill="#2A5C8E"/>
<path opacity="0.5" d="M60.4108 836.266C62.0656 836.266 63.407 837.607 63.407 839.262C63.407 840.916 62.0656 842.257 60.4108 842.257C58.7561 842.257 57.4147 840.916 57.4147 839.262C57.4147 837.607 58.7561 836.266 60.4108 836.266Z" fill="#2A5C8E"/>
<path opacity="0.5" d="M88.1252 835.018C90.3723 835.018 92.3698 836.765 92.3698 839.262C92.3698 841.508 90.622 843.506 88.1252 843.506C85.8781 843.506 83.8807 841.758 83.8807 839.262C84.1304 837.015 85.8781 835.018 88.1252 835.018Z" fill="#2A5C8E"/>
<path opacity="0.5" d="M115.84 834.019C118.836 834.019 121.083 836.516 121.083 839.262C121.083 842.257 118.586 844.504 115.84 844.504C112.843 844.504 110.596 842.008 110.596 839.262C110.596 836.266 112.843 834.019 115.84 834.019Z" fill="#2A5C8E"/>
<path opacity="0.5" d="M143.554 833.021C147.05 833.021 149.796 835.767 149.796 839.262C149.796 842.757 147.05 845.503 143.554 845.503C140.058 845.503 137.312 842.757 137.312 839.262C137.312 835.767 140.058 833.021 143.554 833.021Z" fill="#2A5C8E"/>
<path opacity="0.5" d="M171.268 832.272C175.263 832.272 178.259 835.517 178.259 839.262C178.259 843.256 175.014 846.252 171.268 846.252C167.273 846.252 164.277 843.006 164.277 839.262C164.277 835.267 167.273 832.272 171.268 832.272Z" fill="#2A5C8E"/>
<path opacity="0.5" d="M198.983 831.773C202.978 831.773 206.473 835.018 206.473 839.262C206.473 843.256 203.227 846.751 198.983 846.751C194.738 846.751 191.492 843.506 191.492 839.262C191.492 835.268 194.988 831.773 198.983 831.773Z" fill="#2A5C8E"/>
<path opacity="0.5" d="M226.697 832.022C230.692 832.022 233.938 835.267 233.938 839.262C233.938 843.256 230.692 846.501 226.697 846.501C222.702 846.501 219.456 843.256 219.456 839.262C219.456 835.267 222.702 832.022 226.697 832.022Z" fill="#2A5C8E"/>
<path opacity="0.5" d="M254.412 832.771C257.997 832.771 260.903 835.677 260.903 839.262C260.903 842.846 257.997 845.752 254.412 845.752C250.826 845.752 247.92 842.846 247.92 839.262C247.92 835.677 250.826 832.771 254.412 832.771Z" fill="#2A5C8E"/>
<path opacity="0.5" d="M282.126 834.019C285.122 834.019 287.619 836.516 287.619 839.511C287.619 842.507 285.122 845.004 282.126 845.004C279.13 845.004 276.633 842.507 276.633 839.511C276.633 836.516 279.13 834.019 282.126 834.019Z" fill="#2A5C8E"/>
<path opacity="0.5" d="M309.84 835.018C312.087 835.018 314.085 837.015 314.085 839.262C314.085 841.508 312.087 843.506 309.84 843.506C307.593 843.506 305.596 841.508 305.596 839.262C305.596 837.015 307.593 835.018 309.84 835.018Z" fill="#2A5C8E"/>
<path opacity="0.5" d="M337.555 836.266C339.302 836.266 340.551 837.764 340.551 839.262C340.551 841.009 339.053 842.257 337.555 842.257C335.807 842.257 334.559 840.76 334.559 839.262C334.309 837.514 335.807 836.266 337.555 836.266Z" fill="#2A5C8E"/>
<path opacity="0.5" d="M365.269 837.514C366.234 837.514 367.017 838.297 367.017 839.262C367.017 840.227 366.234 841.009 365.269 841.009C364.304 841.009 363.521 840.227 363.521 839.262C363.521 838.297 364.304 837.514 365.269 837.514Z" fill="#2A5C8E"/>
<path opacity="0.5" d="M392.984 838.762C393.233 838.762 393.483 839.012 393.483 839.262C393.483 839.511 393.233 839.761 392.984 839.761C392.734 839.761 392.484 839.511 392.484 839.262C392.234 839.012 392.484 838.762 392.984 838.762Z" fill="#2A5C8E"/>
<path opacity="0.5" d="M18.9641 810.802C19.4634 810.802 19.7131 811.052 19.7131 811.551C19.7131 812.051 19.4634 812.3 18.9641 812.3C18.4647 812.3 18.215 812.051 18.215 811.551C18.215 811.302 18.4647 810.802 18.9641 810.802Z" fill="#2A5C8E"/>
<path opacity="0.5" d="M46.6785 809.804C47.6772 809.804 48.4262 810.553 48.4262 811.551C48.4262 812.55 47.6772 813.299 46.6785 813.299C45.6797 813.299 44.9307 812.55 44.9307 811.551C44.681 810.553 45.6797 809.804 46.6785 809.804Z" fill="#2A5C8E"/>
<path opacity="0.5" d="M74.3928 808.556C75.8909 808.556 77.389 809.804 77.389 811.551C77.389 813.049 76.1406 814.547 74.3928 814.547C72.8948 814.547 71.3967 813.299 71.3967 811.551C71.3967 810.054 72.6451 808.556 74.3928 808.556Z" fill="#2A5C8E"/>
<path opacity="0.5" d="M102.107 807.557C104.354 807.557 106.102 809.305 106.102 811.551C106.102 813.798 104.354 815.546 102.107 815.546C99.8601 815.546 98.1124 813.798 98.1124 811.551C98.1124 809.305 99.8601 807.557 102.107 807.557Z" fill="#2A5C8E"/>
<path opacity="0.5" d="M129.822 806.558C132.568 806.558 134.815 808.805 134.815 811.551C134.815 814.297 132.568 816.544 129.822 816.544C127.075 816.544 124.828 814.297 124.828 811.551C124.828 808.805 127.075 806.558 129.822 806.558Z" fill="#2A5C8E"/>
<path opacity="0.5" d="M157.536 806.059C160.532 806.059 163.029 808.556 163.029 811.551C163.029 814.547 160.532 817.043 157.536 817.043C154.54 817.043 152.043 814.547 152.043 811.551C151.793 808.556 154.29 806.059 157.536 806.059Z" fill="#2A5C8E"/>
<path opacity="0.5" d="M185.25 805.56C188.496 805.56 191.243 808.306 191.243 811.551C191.243 814.797 188.496 817.543 185.25 817.543C182.005 817.543 179.258 814.797 179.258 811.551C179.008 808.306 181.755 805.56 185.25 805.56Z" fill="#2A5C8E"/>
<path opacity="0.5" d="M212.965 805.56C216.211 805.56 218.957 808.306 218.957 811.551C218.957 814.797 216.211 817.543 212.965 817.543C209.719 817.543 206.972 814.797 206.972 811.551C206.723 808.306 209.469 805.56 212.965 805.56Z" fill="#2A5C8E"/>
<path opacity="0.5" d="M240.43 805.81C243.601 805.81 246.172 808.38 246.172 811.551C246.172 814.723 243.601 817.293 240.43 817.293C237.258 817.293 234.687 814.723 234.687 811.551C234.687 808.38 237.258 805.81 240.43 805.81Z" fill="#2A5C8E"/>
<path opacity="0.5" d="M268.144 806.558C270.902 806.558 273.137 808.794 273.137 811.551C273.137 814.309 270.902 816.544 268.144 816.544C265.386 816.544 263.15 814.309 263.15 811.551C263.15 808.794 265.386 806.558 268.144 806.558Z" fill="#2A5C8E"/>
<path opacity="0.5" d="M295.858 807.557C298.065 807.557 299.853 809.345 299.853 811.551C299.853 813.757 298.065 815.546 295.858 815.546C293.652 815.546 291.863 813.757 291.863 811.551C291.863 809.345 293.652 807.557 295.858 807.557Z" fill="#2A5C8E"/>
<path opacity="0.5" d="M323.573 808.556C325.32 808.556 326.569 810.054 326.569 811.551C326.569 813.299 325.071 814.547 323.573 814.547C321.825 814.547 320.577 813.049 320.577 811.551C320.577 809.804 322.075 808.556 323.573 808.556Z" fill="#2A5C8E"/>
<path opacity="0.5" d="M351.287 809.554C352.286 809.554 353.285 810.303 353.285 811.551C353.285 812.55 352.535 813.549 351.287 813.549C350.288 813.549 349.29 812.8 349.29 811.551C349.539 810.553 350.288 809.554 351.287 809.554Z" fill="#2A5C8E"/>
<path opacity="0.5" d="M379.001 810.802C379.501 810.802 379.75 811.052 379.75 811.551C379.75 812.051 379.501 812.3 379.001 812.3C378.502 812.3 378.252 812.051 378.252 811.551C378.252 811.052 378.752 810.802 379.001 810.802Z" fill="#2A5C8E"/>
<path opacity="0.5" d="M32.6964 783.342C32.9461 783.342 33.1958 783.591 33.1958 783.841C33.1958 784.091 32.9461 784.34 32.6964 784.34C32.4468 784.34 32.1971 784.091 32.1971 783.841C32.1971 783.591 32.4468 783.342 32.6964 783.342Z" fill="#2A5C8E"/>
<path opacity="0.5" d="M60.4108 782.094C61.4095 782.094 62.1586 782.842 62.1586 783.841C62.1586 784.84 61.4095 785.589 60.4108 785.589C59.4121 785.589 58.6631 784.84 58.6631 783.841C58.9127 782.842 59.6618 782.094 60.4108 782.094Z" fill="#2A5C8E"/>
<path opacity="0.5" d="M88.1252 781.345C89.6233 781.345 90.622 782.593 90.622 783.841C90.622 785.339 89.3736 786.337 88.1252 786.337C86.8768 786.337 85.6284 785.089 85.6284 783.841C85.6284 782.343 86.6271 781.345 88.1252 781.345Z" fill="#2A5C8E"/>
<path opacity="0.5" d="M115.84 780.346C117.837 780.346 119.335 781.844 119.335 783.841C119.335 785.838 117.837 787.336 115.84 787.336C113.842 787.336 112.344 785.838 112.344 783.841C112.344 781.844 113.842 780.346 115.84 780.346Z" fill="#2A5C8E"/>
<path opacity="0.5" d="M143.554 779.597C145.801 779.597 147.799 781.594 147.799 783.841C147.799 786.088 145.801 788.085 143.554 788.085C141.307 788.085 139.309 786.088 139.309 783.841C139.309 781.594 141.307 779.597 143.554 779.597Z" fill="#2A5C8E"/>
<path opacity="0.5" d="M171.268 779.098C173.765 779.098 176.012 781.095 176.012 783.841C176.012 786.337 174.015 788.584 171.268 788.584C168.772 788.584 166.524 786.587 166.524 783.841C166.524 781.345 168.772 779.098 171.268 779.098Z" fill="#2A5C8E"/>
<path opacity="0.5" d="M198.983 779.098C201.729 779.098 203.727 781.345 203.727 783.841C203.727 786.587 201.48 788.584 198.983 788.584C196.236 788.584 194.239 786.337 194.239 783.841C194.239 781.095 196.236 779.098 198.983 779.098Z" fill="#2A5C8E"/>
<path opacity="0.5" d="M226.697 779.098C229.194 779.098 231.441 781.095 231.441 783.841C231.441 786.337 229.444 788.584 226.697 788.584C223.951 788.584 221.953 786.587 221.953 783.841C221.953 781.345 224.2 779.098 226.697 779.098Z" fill="#2A5C8E"/>
<path opacity="0.5" d="M254.412 779.597C256.659 779.597 258.656 781.594 258.656 783.841C258.656 786.088 256.659 788.085 254.412 788.085C252.164 788.085 250.167 786.088 250.167 783.841C250.167 781.594 252.164 779.597 254.412 779.597Z" fill="#2A5C8E"/>
<path opacity="0.5" d="M282.126 780.346C284.056 780.346 285.621 781.911 285.621 783.841C285.621 785.771 284.056 787.336 282.126 787.336C280.195 787.336 278.63 785.771 278.63 783.841C278.63 781.911 280.195 780.346 282.126 780.346Z" fill="#2A5C8E"/>
<path opacity="0.5" d="M309.84 781.095C311.338 781.095 312.587 782.343 312.587 783.841C312.587 785.339 311.338 786.587 309.84 786.587C308.342 786.587 307.094 785.339 307.094 783.841C307.094 782.343 308.342 781.095 309.84 781.095Z" fill="#2A5C8E"/>
<path opacity="0.5" d="M337.555 782.094C338.553 782.094 339.302 782.842 339.302 783.841C339.302 784.84 338.553 785.589 337.555 785.589C336.556 785.589 335.807 784.84 335.807 783.841C335.807 782.842 336.556 782.094 337.555 782.094Z" fill="#2A5C8E"/>
<path opacity="0.5" d="M365.269 783.092C365.683 783.092 366.018 783.427 366.018 783.841C366.018 784.255 365.683 784.59 365.269 784.59C364.855 784.59 364.52 784.255 364.52 783.841C364.52 783.427 364.855 783.092 365.269 783.092Z" fill="#2A5C8E"/>
<path opacity="0.5" d="M46.6785 755.881C46.9281 755.881 47.1778 756.131 47.1778 756.38C47.1778 756.63 46.9281 756.88 46.6785 756.88C46.4288 756.88 46.1791 756.63 46.1791 756.38C46.1791 755.881 46.4288 755.881 46.6785 755.881Z" fill="#2A5C8E"/>
<path opacity="0.5" d="M74.3929 754.882C75.1419 754.882 75.6413 755.382 75.6413 756.131C75.6413 756.88 75.1419 757.379 74.3929 757.379C73.6438 757.379 73.1445 756.88 73.1445 756.131C73.1445 755.382 73.6438 754.882 74.3929 754.882Z" fill="#2A5C8E"/>
<path opacity="0.5" d="M102.107 754.134C103.21 754.134 104.105 755.028 104.105 756.131C104.105 757.234 103.21 758.128 102.107 758.128C101.004 758.128 100.11 757.234 100.11 756.131C100.11 755.028 101.004 754.134 102.107 754.134Z" fill="#2A5C8E"/>
<path opacity="0.5" d="M129.822 753.385C131.338 753.385 132.568 754.614 132.568 756.131C132.568 757.647 131.338 758.877 129.822 758.877C128.305 758.877 127.075 757.647 127.075 756.131C127.075 754.614 128.305 753.385 129.822 753.385Z" fill="#2A5C8E"/>
<path opacity="0.5" d="M157.536 752.885C159.284 752.885 160.782 754.383 160.782 756.131C160.782 757.878 159.284 759.376 157.536 759.376C155.788 759.376 154.29 757.878 154.29 756.131C154.29 754.383 155.539 752.885 157.536 752.885Z" fill="#2A5C8E"/>
<path opacity="0.5" d="M185.25 752.636C187.248 752.636 188.746 754.133 188.746 756.131C188.746 758.128 187.248 759.626 185.25 759.626C183.253 759.626 181.755 758.128 181.755 756.131C181.755 754.133 183.253 752.636 185.25 752.636Z" fill="#2A5C8E"/>
<path opacity="0.5" d="M212.965 752.636C214.962 752.636 216.46 754.133 216.46 756.131C216.46 758.128 214.962 759.626 212.965 759.626C210.967 759.626 209.469 758.128 209.469 756.131C209.469 754.133 210.967 752.636 212.965 752.636Z" fill="#2A5C8E"/>
<path opacity="0.5" d="M240.43 752.885C242.177 752.885 243.675 754.383 243.675 756.131C243.675 757.878 242.177 759.376 240.43 759.376C238.682 759.376 237.184 757.878 237.184 756.131C237.184 754.383 238.682 752.885 240.43 752.885Z" fill="#2A5C8E"/>
<path opacity="0.5" d="M268.144 753.385C269.642 753.385 270.89 754.633 270.89 756.131C270.89 757.628 269.642 758.877 268.144 758.877C266.646 758.877 265.397 757.628 265.397 756.131C265.397 754.633 266.646 753.385 268.144 753.385Z" fill="#2A5C8E"/>
<path opacity="0.5" d="M295.858 754.134C297.107 754.134 298.105 755.132 298.105 756.38C298.105 757.629 297.107 758.627 295.858 758.627C294.61 758.627 293.611 757.629 293.611 756.38C293.861 754.882 294.86 754.134 295.858 754.134Z" fill="#2A5C8E"/>
<path opacity="0.5" d="M323.573 754.882C324.322 754.882 324.821 755.382 324.821 756.131C324.821 756.88 324.322 757.379 323.573 757.379C322.824 757.379 322.324 756.88 322.324 756.131C322.324 755.382 322.824 754.882 323.573 754.882Z" fill="#2A5C8E"/>
<path opacity="0.5" d="M351.287 755.631C351.563 755.631 351.786 755.855 351.786 756.131C351.786 756.406 351.563 756.63 351.287 756.63C351.011 756.63 350.788 756.406 350.788 756.131C350.788 755.855 351.011 755.631 351.287 755.631Z" fill="#2A5C8E"/>
<path opacity="0.5" d="M60.4108 728.42C60.4108 728.42 60.6605 728.42 60.4108 728.42C60.6605 728.42 60.4108 728.67 60.4108 728.42C60.4108 728.42 60.4108 728.67 60.4108 728.42Z" fill="#2A5C8E"/>
<path opacity="0.5" d="M88.1252 727.671C88.5389 727.671 88.8742 728.007 88.8742 728.42C88.8742 728.834 88.5389 729.169 88.1252 729.169C87.7115 729.169 87.3762 728.834 87.3762 728.42C87.3762 728.007 87.7115 727.671 88.1252 727.671Z" fill="#2A5C8E"/>
<path opacity="0.5" d="M115.84 727.172C116.529 727.172 117.088 727.731 117.088 728.42C117.088 729.11 116.529 729.668 115.84 729.668C115.15 729.668 114.591 729.11 114.591 728.42C114.591 727.731 115.15 727.172 115.84 727.172Z" fill="#2A5C8E"/>
<path opacity="0.5" d="M143.554 726.673C144.519 726.673 145.302 727.455 145.302 728.42C145.302 729.385 144.519 730.168 143.554 730.168C142.589 730.168 141.806 729.385 141.806 728.42C141.806 727.455 142.589 726.673 143.554 726.673Z" fill="#2A5C8E"/>
<path opacity="0.5" d="M171.268 726.423C172.517 726.423 173.515 727.422 173.515 728.67C173.515 729.918 172.517 730.917 171.268 730.917C170.02 730.917 169.021 729.918 169.021 728.67C169.021 727.422 170.02 726.423 171.268 726.423Z" fill="#2A5C8E"/>
<path opacity="0.5" d="M198.983 726.173C200.231 726.173 201.23 727.172 201.23 728.42C201.23 729.668 200.231 730.667 198.983 730.667C197.734 730.667 196.736 729.668 196.736 728.42C196.736 727.172 197.734 726.173 198.983 726.173Z" fill="#2A5C8E"/>
<path opacity="0.5" d="M226.697 726.423C227.946 726.423 228.944 727.422 228.944 728.67C228.944 729.918 227.946 730.917 226.697 730.917C225.449 730.917 224.45 729.918 224.45 728.67C224.45 727.422 225.449 726.423 226.697 726.423Z" fill="#2A5C8E"/>
<path opacity="0.5" d="M254.412 726.673C255.377 726.673 256.159 727.455 256.159 728.42C256.159 729.385 255.377 730.168 254.412 730.168C253.446 730.168 252.664 729.385 252.664 728.42C252.664 727.455 253.446 726.673 254.412 726.673Z" fill="#2A5C8E"/>
<path opacity="0.5" d="M282.126 726.922C282.953 726.922 283.624 727.593 283.624 728.42C283.624 729.247 282.953 729.918 282.126 729.918C281.299 729.918 280.628 729.247 280.628 728.42C280.628 727.593 281.299 726.922 282.126 726.922Z" fill="#2A5C8E"/>
<path opacity="0.5" d="M309.84 727.671C310.254 727.671 310.589 728.007 310.589 728.42C310.589 728.834 310.254 729.169 309.84 729.169C309.427 729.169 309.091 728.834 309.091 728.42C309.091 728.007 309.427 727.671 309.84 727.671Z" fill="#2A5C8E"/>
<path opacity="0.5" d="M337.554 728.421C337.803 728.67 337.554 728.67 337.554 728.67C337.305 728.67 337.305 728.67 337.554 728.421C337.305 728.421 337.305 728.421 337.554 728.421Z" fill="#2A5C8E"/>
<path opacity="0.5" d="M129.822 700.211C130.097 700.211 130.321 700.434 130.321 700.71C130.321 700.986 130.097 701.209 129.822 701.209C129.546 701.209 129.322 700.986 129.322 700.71C129.322 700.434 129.546 700.211 129.822 700.211Z" fill="#2A5C8E"/>
<path opacity="0.5" d="M157.536 699.961C158.035 699.961 158.285 700.211 158.285 700.71C158.285 701.209 158.035 701.459 157.536 701.459C157.037 701.459 156.787 701.209 156.787 700.71C156.787 700.46 157.037 699.961 157.536 699.961Z" fill="#2A5C8E"/>
<path opacity="0.5" d="M185.25 699.961C185.75 699.961 186.249 700.46 186.249 700.96C186.249 701.459 185.75 701.958 185.25 701.958C184.751 701.958 184.252 701.459 184.252 700.96C184.252 700.46 184.751 699.961 185.25 699.961Z" fill="#2A5C8E"/>
<path opacity="0.5" d="M212.965 699.711C213.516 699.711 213.964 700.158 213.964 700.71C213.964 701.261 213.516 701.708 212.965 701.708C212.413 701.708 211.966 701.261 211.966 700.71C211.966 700.158 212.413 699.711 212.965 699.711Z" fill="#2A5C8E"/>
<path opacity="0.5" d="M240.43 699.961C240.929 699.961 241.179 700.211 241.179 700.71C241.179 701.209 240.929 701.459 240.43 701.459C239.93 701.459 239.68 701.209 239.68 700.71C239.68 700.46 240.18 699.961 240.43 699.961Z" fill="#2A5C8E"/>
<path opacity="0.5" d="M268.144 700.211C268.42 700.211 268.643 700.434 268.643 700.71C268.643 700.986 268.42 701.209 268.144 701.209C267.868 701.209 267.645 700.986 267.645 700.71C267.645 700.434 267.868 700.211 268.144 700.211Z" fill="#2A5C8E"/>
<path opacity="0.5" d="M295.858 700.711C296.107 700.711 296.107 700.711 295.858 700.711C296.107 700.959 295.858 700.959 295.858 700.959C295.858 700.959 295.858 700.959 295.858 700.711Z" fill="#2A5C8E"/>
</g>
</svg>
