<svg width="360" height="4443" viewBox="0 0 360 4443" fill="none" xmlns="http://www.w3.org/2000/svg">
<g filter="url(#filter0_f_517_2)">
<circle cx="11" cy="-45" r="219" fill="#3B0FA4"/>
</g>
<g filter="url(#filter1_f_517_2)">
<circle cx="548" cy="768" r="231" fill="#3B13A6"/>
</g>
<g filter="url(#filter2_f_517_2)">
<circle cx="455" cy="4277" r="231" fill="#3B13A6"/>
</g>
<g filter="url(#filter3_f_517_2)">
<circle cx="-62" cy="1453" r="217" fill="#3B13A6"/>
</g>
<g filter="url(#filter4_f_517_2)">
<circle cx="370.5" cy="2719.5" r="197.5" fill="#3B0FA4"/>
</g>
<g opacity="0.65">
<path d="M129.919 1.86073C130.384 1.86073 130.849 1.51184 130.849 0.930366C130.849 0.465183 130.5 -6.60987e-08 129.919 -4.06762e-08C129.453 -2.03382e-08 128.988 0.348887 128.988 0.930366C129.104 1.39555 129.453 1.86073 129.919 1.86073Z" fill="white"/>
<path d="M230.07 89.7803C230.07 90.2941 229.654 90.7106 229.14 90.7106C228.626 90.7106 228.209 90.2941 228.209 89.7803C228.209 89.2664 228.626 88.8499 229.14 88.8499C229.654 88.8499 230.07 89.2664 230.07 89.7803Z" fill="white"/>
<path d="M224.022 114.435C224.487 114.435 224.952 114.086 224.952 113.505C224.952 113.039 224.603 112.574 224.022 112.574C223.44 112.574 223.091 112.923 223.091 113.505C223.091 114.086 223.44 114.435 224.022 114.435Z" fill="white"/>
<path d="M268.34 136.066C268.34 136.58 267.923 136.996 267.409 136.996C266.895 136.996 266.479 136.58 266.479 136.066C266.479 135.552 266.895 135.136 267.409 135.136C267.923 135.136 268.34 135.552 268.34 136.066Z" fill="white"/>
<path d="M321.498 81.5233C321.963 81.5233 322.428 81.1744 322.428 80.5929C322.428 80.1277 322.08 79.6626 321.498 79.6626C321.033 79.6626 320.567 80.0114 320.567 80.5929C320.567 81.0581 321.033 81.5233 321.498 81.5233Z" fill="white"/>
<path d="M224.487 40.122C224.487 40.6359 224.07 41.0524 223.556 41.0524C223.042 41.0524 222.626 40.6359 222.626 40.122C222.626 39.6082 223.042 39.1917 223.556 39.1917C224.07 39.1917 224.487 39.6082 224.487 40.122Z" fill="white"/>
<path d="M210.994 10.5829C211.459 10.5829 211.924 10.234 211.924 9.65253C211.924 9.18735 211.575 8.72217 210.994 8.72217C210.529 8.72217 210.063 9.07106 210.063 9.65253C210.063 10.234 210.412 10.5829 210.994 10.5829Z" fill="white"/>
<path d="M249.147 91.8736C249.612 91.8736 250.077 91.5247 250.077 90.9432C250.077 90.478 249.728 90.0128 249.147 90.0128C248.681 90.0128 248.216 90.3617 248.216 90.9432C248.216 91.4084 248.565 91.8736 249.147 91.8736Z" fill="white"/>
<path d="M262.756 217.822C262.756 218.336 262.34 218.752 261.826 218.752C261.312 218.752 260.895 218.336 260.895 217.822C260.895 217.308 261.312 216.892 261.826 216.892C262.34 216.892 262.756 217.308 262.756 217.822Z" fill="white"/>
<path d="M338.364 220.729C338.364 221.243 337.948 221.66 337.434 221.66C336.92 221.66 336.503 221.243 336.503 220.729C336.503 220.215 336.92 219.799 337.434 219.799C337.948 219.799 338.364 220.215 338.364 220.729Z" fill="white"/>
<path d="M359.069 222.706C359.535 222.706 360 222.357 360 221.776C360 221.311 359.651 220.846 359.069 220.846C358.604 220.846 358.139 221.194 358.139 221.776C358.139 222.241 358.604 222.706 359.069 222.706Z" fill="white"/>
<path d="M340.807 324.232C341.272 324.232 341.738 323.884 341.738 323.302C341.738 322.721 341.389 322.372 340.807 322.372C340.342 322.372 339.877 322.721 339.877 323.302C339.877 323.884 340.342 324.232 340.807 324.232Z" fill="white"/>
<path d="M248.798 569.616C248.798 570.13 248.381 570.547 247.867 570.547C247.353 570.547 246.937 570.13 246.937 569.616C246.937 569.103 247.353 568.686 247.867 568.686C248.381 568.686 248.798 569.103 248.798 569.616Z" fill="white"/>
<path d="M183.659 484.139C184.124 484.139 184.589 483.79 184.589 483.209C184.589 482.744 184.24 482.278 183.659 482.278C183.193 482.278 182.728 482.627 182.728 483.209C182.844 483.674 183.193 484.139 183.659 484.139Z" fill="white"/>
<path d="M95.1389 546.822C95.6042 546.822 96.0695 546.474 96.0695 545.892C96.0695 545.427 95.7205 544.962 95.1389 544.962C94.6737 544.962 94.2084 545.311 94.2084 545.892C94.2084 546.474 94.6737 546.822 95.1389 546.822Z" fill="white"/>
<path d="M58.3817 549.962C58.847 549.962 59.3123 549.614 59.3123 549.032C59.3123 548.567 58.9633 548.102 58.3817 548.102C57.9165 548.102 57.4512 548.451 57.4512 549.032C57.4512 549.497 57.9165 549.962 58.3817 549.962Z" fill="white"/>
<path d="M55.241 453.437C55.7063 453.437 56.1716 453.088 56.1716 452.507C56.1716 452.041 55.8226 451.576 55.241 451.576C54.7757 451.576 54.3104 451.925 54.3104 452.507C54.3104 453.088 54.6594 453.437 55.241 453.437Z" fill="white"/>
<path d="M90.0208 442.97C90.4861 442.97 90.9513 442.622 90.9513 442.04C90.9513 441.459 90.6024 441.11 90.0208 441.11C89.5555 441.11 89.0902 441.459 89.0902 442.04C89.0902 442.622 89.5555 442.97 90.0208 442.97Z" fill="white"/>
<path d="M89.9044 357.609C90.3697 357.609 90.835 357.261 90.835 356.679C90.835 356.214 90.486 355.749 89.9044 355.749C89.4392 355.749 88.9739 356.098 88.9739 356.679C88.9739 357.261 89.4392 357.609 89.9044 357.609Z" fill="white"/>
<path d="M-0.360087 291.67C0.105193 291.67 0.570474 291.321 0.570474 290.739C0.570474 290.274 0.221514 289.809 -0.360088 289.809C-0.825368 289.809 -1.29065 290.158 -1.29065 290.739C-1.29065 291.204 -0.941689 291.67 -0.360087 291.67Z" fill="white"/>
<path d="M88.7412 401.453C88.7412 401.967 88.3246 402.383 87.8107 402.383C87.2967 402.383 86.8801 401.967 86.8801 401.453C86.8801 400.939 87.2967 400.522 87.8107 400.522C88.3246 400.522 88.7412 400.939 88.7412 401.453Z" fill="white"/>
<path d="M161.558 515.539C162.023 515.539 162.488 515.19 162.488 514.609C162.488 514.143 162.139 513.678 161.558 513.678C161.092 513.678 160.627 514.027 160.627 514.609C160.627 515.074 161.092 515.539 161.558 515.539Z" fill="white"/>
<path d="M166.792 548.334C166.792 548.848 166.375 549.265 165.861 549.265C165.348 549.265 164.931 548.848 164.931 548.334C164.931 547.821 165.348 547.404 165.861 547.404C166.375 547.404 166.792 547.821 166.792 548.334Z" fill="white"/>
</g>
<g opacity="0.65">
<path d="M228.791 666.861C228.325 666.861 227.86 666.512 227.86 665.93C227.86 665.465 228.209 665 228.791 665C229.256 665 229.721 665.349 229.721 665.93C229.605 666.396 229.256 666.861 228.791 666.861Z" fill="white"/>
<path d="M128.639 754.78C128.639 755.294 129.056 755.711 129.57 755.711C130.083 755.711 130.5 755.294 130.5 754.78C130.5 754.266 130.083 753.85 129.57 753.85C129.056 753.85 128.639 754.266 128.639 754.78Z" fill="white"/>
<path d="M134.688 779.435C134.222 779.435 133.757 779.086 133.757 778.505C133.757 778.039 134.106 777.574 134.688 777.574C135.269 777.574 135.618 777.923 135.618 778.505C135.618 779.086 135.269 779.435 134.688 779.435Z" fill="white"/>
<path d="M90.3698 801.066C90.3698 801.58 90.7864 801.996 91.3003 801.996C91.8142 801.996 92.2308 801.58 92.2308 801.066C92.2308 800.552 91.8142 800.136 91.3003 800.136C90.7864 800.136 90.3698 800.552 90.3698 801.066Z" fill="white"/>
<path d="M37.2114 746.523C36.7461 746.523 36.2809 746.174 36.2809 745.593C36.2809 745.128 36.6298 744.663 37.2114 744.663C37.6767 744.663 38.142 745.011 38.142 745.593C38.142 746.058 37.6767 746.523 37.2114 746.523Z" fill="white"/>
<path d="M134.222 705.122C134.222 705.636 134.639 706.052 135.153 706.052C135.667 706.052 136.083 705.636 136.083 705.122C136.083 704.608 135.667 704.192 135.153 704.192C134.639 704.192 134.222 704.608 134.222 705.122Z" fill="white"/>
<path d="M147.716 675.583C147.25 675.583 146.785 675.234 146.785 674.653C146.785 674.187 147.134 673.722 147.716 673.722C148.181 673.722 148.646 674.071 148.646 674.653C148.646 675.234 148.297 675.583 147.716 675.583Z" fill="white"/>
<path d="M109.563 756.874C109.097 756.874 108.632 756.525 108.632 755.943C108.632 755.478 108.981 755.013 109.563 755.013C110.028 755.013 110.493 755.362 110.493 755.943C110.493 756.408 110.144 756.874 109.563 756.874Z" fill="white"/>
<path d="M95.953 882.822C95.953 883.336 96.3697 883.752 96.8836 883.752C97.3976 883.752 97.8142 883.336 97.8142 882.822C97.8142 882.308 97.3976 881.892 96.8836 881.892C96.3697 881.892 95.953 882.308 95.953 882.822Z" fill="white"/>
<path d="M20.3449 885.729C20.3449 886.243 20.7615 886.66 21.2755 886.66C21.7894 886.66 22.2061 886.243 22.2061 885.729C22.2061 885.215 21.7894 884.799 21.2755 884.799C20.7615 884.799 20.3449 885.215 20.3449 885.729Z" fill="white"/>
<path d="M-0.360105 887.706C-0.825382 887.706 -1.29068 887.357 -1.29068 886.776C-1.29068 886.311 -0.941702 885.846 -0.360105 885.846C0.105172 885.846 0.570435 886.194 0.570435 886.776C0.570435 887.241 0.105172 887.706 -0.360105 887.706Z" fill="white"/>
<path d="M17.9022 989.233C17.4369 989.233 16.9716 988.884 16.9716 988.302C16.9716 987.721 17.3206 987.372 17.9022 987.372C18.3675 987.372 18.8328 987.721 18.8328 988.302C18.8328 988.884 18.3675 989.233 17.9022 989.233Z" fill="white"/>
<path d="M109.911 1234.62C109.911 1235.13 110.328 1235.55 110.842 1235.55C111.356 1235.55 111.773 1235.13 111.773 1234.62C111.773 1234.1 111.356 1233.69 110.842 1233.69C110.328 1233.69 109.911 1234.1 109.911 1234.62Z" fill="white"/>
<path d="M175.051 1149.14C174.585 1149.14 174.12 1148.79 174.12 1148.21C174.12 1147.74 174.469 1147.28 175.051 1147.28C175.516 1147.28 175.981 1147.63 175.981 1148.21C175.865 1148.67 175.516 1149.14 175.051 1149.14Z" fill="white"/>
<path d="M263.57 1211.82C263.105 1211.82 262.64 1211.47 262.64 1210.89C262.64 1210.43 262.989 1209.96 263.57 1209.96C264.036 1209.96 264.501 1210.31 264.501 1210.89C264.501 1211.47 264.036 1211.82 263.57 1211.82Z" fill="white"/>
<path d="M300.328 1214.96C299.862 1214.96 299.397 1214.61 299.397 1214.03C299.397 1213.57 299.746 1213.1 300.328 1213.1C300.793 1213.1 301.258 1213.45 301.258 1214.03C301.258 1214.5 300.793 1214.96 300.328 1214.96Z" fill="white"/>
<path d="M303.468 1118.44C303.003 1118.44 302.538 1118.09 302.538 1117.51C302.538 1117.04 302.887 1116.58 303.468 1116.58C303.934 1116.58 304.399 1116.93 304.399 1117.51C304.399 1118.09 304.05 1118.44 303.468 1118.44Z" fill="white"/>
<path d="M268.689 1107.97C268.223 1107.97 267.758 1107.62 267.758 1107.04C267.758 1106.46 268.107 1106.11 268.689 1106.11C269.154 1106.11 269.619 1106.46 269.619 1107.04C269.619 1107.62 269.154 1107.97 268.689 1107.97Z" fill="white"/>
<path d="M268.805 1022.61C268.34 1022.61 267.874 1022.26 267.874 1021.68C267.874 1021.21 268.223 1020.75 268.805 1020.75C269.27 1020.75 269.735 1021.1 269.735 1021.68C269.735 1022.26 269.27 1022.61 268.805 1022.61Z" fill="white"/>
<path d="M359.069 956.67C358.604 956.67 358.139 956.321 358.139 955.739C358.139 955.274 358.488 954.809 359.069 954.809C359.535 954.809 360 955.158 360 955.739C360 956.205 359.651 956.67 359.069 956.67Z" fill="white"/>
<path d="M269.968 1066.45C269.968 1066.97 270.385 1067.38 270.899 1067.38C271.413 1067.38 271.829 1066.97 271.829 1066.45C271.829 1065.94 271.413 1065.52 270.899 1065.52C270.385 1065.52 269.968 1065.94 269.968 1066.45Z" fill="white"/>
<path d="M197.152 1180.54C196.686 1180.54 196.221 1180.19 196.221 1179.61C196.221 1179.14 196.57 1178.68 197.152 1178.68C197.617 1178.68 198.082 1179.03 198.082 1179.61C198.082 1180.07 197.617 1180.54 197.152 1180.54Z" fill="white"/>
<path d="M191.917 1213.33C191.917 1213.85 192.334 1214.26 192.848 1214.26C193.362 1214.26 193.778 1213.85 193.778 1213.33C193.778 1212.82 193.362 1212.4 192.848 1212.4C192.334 1212.4 191.917 1212.82 191.917 1213.33Z" fill="white"/>
</g>
<g opacity="0.65">
<path d="M129.919 1386.86C130.384 1386.86 130.849 1386.51 130.849 1385.93C130.849 1385.47 130.5 1385 129.919 1385C129.453 1385 128.988 1385.35 128.988 1385.93C129.104 1386.4 129.453 1386.86 129.919 1386.86Z" fill="white"/>
<path d="M230.07 1474.78C230.07 1475.29 229.654 1475.71 229.14 1475.71C228.626 1475.71 228.209 1475.29 228.209 1474.78C228.209 1474.27 228.626 1473.85 229.14 1473.85C229.654 1473.85 230.07 1474.27 230.07 1474.78Z" fill="white"/>
<path d="M224.022 1499.43C224.487 1499.43 224.952 1499.09 224.952 1498.5C224.952 1498.04 224.603 1497.57 224.022 1497.57C223.44 1497.57 223.091 1497.92 223.091 1498.5C223.091 1499.09 223.44 1499.43 224.022 1499.43Z" fill="white"/>
<path d="M268.34 1521.07C268.34 1521.58 267.923 1522 267.409 1522C266.895 1522 266.479 1521.58 266.479 1521.07C266.479 1520.55 266.895 1520.14 267.409 1520.14C267.923 1520.14 268.34 1520.55 268.34 1521.07Z" fill="white"/>
<path d="M321.498 1466.52C321.963 1466.52 322.428 1466.17 322.428 1465.59C322.428 1465.13 322.08 1464.66 321.498 1464.66C321.033 1464.66 320.567 1465.01 320.567 1465.59C320.567 1466.06 321.033 1466.52 321.498 1466.52Z" fill="white"/>
<path d="M224.487 1425.12C224.487 1425.64 224.07 1426.05 223.556 1426.05C223.042 1426.05 222.626 1425.64 222.626 1425.12C222.626 1424.61 223.042 1424.19 223.556 1424.19C224.07 1424.19 224.487 1424.61 224.487 1425.12Z" fill="white"/>
<path d="M210.994 1395.58C211.459 1395.58 211.924 1395.23 211.924 1394.65C211.924 1394.19 211.575 1393.72 210.994 1393.72C210.529 1393.72 210.063 1394.07 210.063 1394.65C210.063 1395.23 210.412 1395.58 210.994 1395.58Z" fill="white"/>
<path d="M249.147 1476.87C249.612 1476.87 250.077 1476.52 250.077 1475.94C250.077 1475.48 249.728 1475.01 249.147 1475.01C248.681 1475.01 248.216 1475.36 248.216 1475.94C248.216 1476.41 248.565 1476.87 249.147 1476.87Z" fill="white"/>
<path d="M262.756 1602.82C262.756 1603.34 262.34 1603.75 261.826 1603.75C261.312 1603.75 260.895 1603.34 260.895 1602.82C260.895 1602.31 261.312 1601.89 261.826 1601.89C262.34 1601.89 262.756 1602.31 262.756 1602.82Z" fill="white"/>
<path d="M338.364 1605.73C338.364 1606.24 337.948 1606.66 337.434 1606.66C336.92 1606.66 336.503 1606.24 336.503 1605.73C336.503 1605.22 336.92 1604.8 337.434 1604.8C337.948 1604.8 338.364 1605.22 338.364 1605.73Z" fill="white"/>
<path d="M359.069 1607.71C359.535 1607.71 360 1607.36 360 1606.78C360 1606.31 359.651 1605.85 359.069 1605.85C358.604 1605.85 358.139 1606.19 358.139 1606.78C358.139 1607.24 358.604 1607.71 359.069 1607.71Z" fill="white"/>
<path d="M340.807 1709.23C341.272 1709.23 341.738 1708.88 341.738 1708.3C341.738 1707.72 341.389 1707.37 340.807 1707.37C340.342 1707.37 339.877 1707.72 339.877 1708.3C339.877 1708.88 340.342 1709.23 340.807 1709.23Z" fill="white"/>
<path d="M248.798 1954.62C248.798 1955.13 248.381 1955.55 247.867 1955.55C247.353 1955.55 246.937 1955.13 246.937 1954.62C246.937 1954.1 247.353 1953.69 247.867 1953.69C248.381 1953.69 248.798 1954.1 248.798 1954.62Z" fill="white"/>
<path d="M183.659 1869.14C184.124 1869.14 184.589 1868.79 184.589 1868.21C184.589 1867.74 184.24 1867.28 183.659 1867.28C183.193 1867.28 182.728 1867.63 182.728 1868.21C182.844 1868.67 183.193 1869.14 183.659 1869.14Z" fill="white"/>
<path d="M95.1389 1931.82C95.6042 1931.82 96.0695 1931.47 96.0695 1930.89C96.0695 1930.43 95.7205 1929.96 95.1389 1929.96C94.6737 1929.96 94.2084 1930.31 94.2084 1930.89C94.2084 1931.47 94.6737 1931.82 95.1389 1931.82Z" fill="white"/>
<path d="M58.3817 1934.96C58.847 1934.96 59.3123 1934.61 59.3123 1934.03C59.3123 1933.57 58.9633 1933.1 58.3817 1933.1C57.9165 1933.1 57.4512 1933.45 57.4512 1934.03C57.4512 1934.5 57.9165 1934.96 58.3817 1934.96Z" fill="white"/>
<path d="M55.241 1838.44C55.7063 1838.44 56.1716 1838.09 56.1716 1837.51C56.1716 1837.04 55.8226 1836.58 55.241 1836.58C54.7757 1836.58 54.3104 1836.93 54.3104 1837.51C54.3104 1838.09 54.6594 1838.44 55.241 1838.44Z" fill="white"/>
<path d="M90.0208 1827.97C90.4861 1827.97 90.9513 1827.62 90.9513 1827.04C90.9513 1826.46 90.6024 1826.11 90.0208 1826.11C89.5555 1826.11 89.0902 1826.46 89.0902 1827.04C89.0902 1827.62 89.5555 1827.97 90.0208 1827.97Z" fill="white"/>
<path d="M89.9044 1742.61C90.3697 1742.61 90.835 1742.26 90.835 1741.68C90.835 1741.21 90.486 1740.75 89.9044 1740.75C89.4392 1740.75 88.9739 1741.1 88.9739 1741.68C88.9739 1742.26 89.4392 1742.61 89.9044 1742.61Z" fill="white"/>
<path d="M-0.360087 1676.67C0.105193 1676.67 0.570474 1676.32 0.570474 1675.74C0.570474 1675.27 0.221514 1674.81 -0.360088 1674.81C-0.825368 1674.81 -1.29065 1675.16 -1.29065 1675.74C-1.29065 1676.2 -0.941689 1676.67 -0.360087 1676.67Z" fill="white"/>
<path d="M88.7412 1786.45C88.7412 1786.97 88.3246 1787.38 87.8107 1787.38C87.2967 1787.38 86.8801 1786.97 86.8801 1786.45C86.8801 1785.94 87.2967 1785.52 87.8107 1785.52C88.3246 1785.52 88.7412 1785.94 88.7412 1786.45Z" fill="white"/>
<path d="M161.558 1900.54C162.023 1900.54 162.488 1900.19 162.488 1899.61C162.488 1899.14 162.139 1898.68 161.558 1898.68C161.092 1898.68 160.627 1899.03 160.627 1899.61C160.627 1900.07 161.092 1900.54 161.558 1900.54Z" fill="white"/>
<path d="M166.792 1933.33C166.792 1933.85 166.375 1934.26 165.861 1934.26C165.348 1934.26 164.931 1933.85 164.931 1933.33C164.931 1932.82 165.348 1932.4 165.861 1932.4C166.375 1932.4 166.792 1932.82 166.792 1933.33Z" fill="white"/>
</g>
<g opacity="0.65">
<path d="M129.919 3249.86C130.384 3249.86 130.849 3249.51 130.849 3248.93C130.849 3248.47 130.5 3248 129.919 3248C129.453 3248 128.988 3248.35 128.988 3248.93C129.104 3249.4 129.453 3249.86 129.919 3249.86Z" fill="white"/>
<path d="M230.07 3337.78C230.07 3338.29 229.654 3338.71 229.14 3338.71C228.626 3338.71 228.209 3338.29 228.209 3337.78C228.209 3337.27 228.626 3336.85 229.14 3336.85C229.654 3336.85 230.07 3337.27 230.07 3337.78Z" fill="white"/>
<path d="M224.022 3362.43C224.487 3362.43 224.952 3362.09 224.952 3361.5C224.952 3361.04 224.603 3360.57 224.022 3360.57C223.44 3360.57 223.091 3360.92 223.091 3361.5C223.091 3362.09 223.44 3362.43 224.022 3362.43Z" fill="white"/>
<path d="M268.34 3384.07C268.34 3384.58 267.923 3385 267.409 3385C266.895 3385 266.479 3384.58 266.479 3384.07C266.479 3383.55 266.895 3383.14 267.409 3383.14C267.923 3383.14 268.34 3383.55 268.34 3384.07Z" fill="white"/>
<path d="M321.498 3329.52C321.963 3329.52 322.428 3329.17 322.428 3328.59C322.428 3328.13 322.08 3327.66 321.498 3327.66C321.033 3327.66 320.567 3328.01 320.567 3328.59C320.567 3329.06 321.033 3329.52 321.498 3329.52Z" fill="white"/>
<path d="M224.487 3288.12C224.487 3288.64 224.07 3289.05 223.556 3289.05C223.042 3289.05 222.626 3288.64 222.626 3288.12C222.626 3287.61 223.042 3287.19 223.556 3287.19C224.07 3287.19 224.487 3287.61 224.487 3288.12Z" fill="white"/>
<path d="M210.994 3258.58C211.459 3258.58 211.924 3258.23 211.924 3257.65C211.924 3257.19 211.575 3256.72 210.994 3256.72C210.529 3256.72 210.063 3257.07 210.063 3257.65C210.063 3258.23 210.412 3258.58 210.994 3258.58Z" fill="white"/>
<path d="M249.147 3339.87C249.612 3339.87 250.077 3339.52 250.077 3338.94C250.077 3338.48 249.728 3338.01 249.147 3338.01C248.681 3338.01 248.216 3338.36 248.216 3338.94C248.216 3339.41 248.565 3339.87 249.147 3339.87Z" fill="white"/>
<path d="M262.756 3465.82C262.756 3466.34 262.34 3466.75 261.826 3466.75C261.312 3466.75 260.895 3466.34 260.895 3465.82C260.895 3465.31 261.312 3464.89 261.826 3464.89C262.34 3464.89 262.756 3465.31 262.756 3465.82Z" fill="white"/>
<path d="M338.364 3468.73C338.364 3469.24 337.948 3469.66 337.434 3469.66C336.92 3469.66 336.503 3469.24 336.503 3468.73C336.503 3468.22 336.92 3467.8 337.434 3467.8C337.948 3467.8 338.364 3468.22 338.364 3468.73Z" fill="white"/>
<path d="M359.069 3470.71C359.535 3470.71 360 3470.36 360 3469.78C360 3469.31 359.651 3468.85 359.069 3468.85C358.604 3468.85 358.139 3469.19 358.139 3469.78C358.139 3470.24 358.604 3470.71 359.069 3470.71Z" fill="white"/>
<path d="M340.807 3572.23C341.272 3572.23 341.738 3571.88 341.738 3571.3C341.738 3570.72 341.389 3570.37 340.807 3570.37C340.342 3570.37 339.877 3570.72 339.877 3571.3C339.877 3571.88 340.342 3572.23 340.807 3572.23Z" fill="white"/>
<path d="M248.798 3817.62C248.798 3818.13 248.381 3818.55 247.867 3818.55C247.353 3818.55 246.937 3818.13 246.937 3817.62C246.937 3817.1 247.353 3816.69 247.867 3816.69C248.381 3816.69 248.798 3817.1 248.798 3817.62Z" fill="white"/>
<path d="M183.659 3732.14C184.124 3732.14 184.589 3731.79 184.589 3731.21C184.589 3730.74 184.24 3730.28 183.659 3730.28C183.193 3730.28 182.728 3730.63 182.728 3731.21C182.844 3731.67 183.193 3732.14 183.659 3732.14Z" fill="white"/>
<path d="M95.1389 3794.82C95.6042 3794.82 96.0695 3794.47 96.0695 3793.89C96.0695 3793.43 95.7205 3792.96 95.1389 3792.96C94.6737 3792.96 94.2084 3793.31 94.2084 3793.89C94.2084 3794.47 94.6737 3794.82 95.1389 3794.82Z" fill="white"/>
<path d="M58.3817 3797.96C58.847 3797.96 59.3123 3797.61 59.3123 3797.03C59.3123 3796.57 58.9633 3796.1 58.3817 3796.1C57.9165 3796.1 57.4512 3796.45 57.4512 3797.03C57.4512 3797.5 57.9165 3797.96 58.3817 3797.96Z" fill="white"/>
<path d="M55.241 3701.44C55.7063 3701.44 56.1716 3701.09 56.1716 3700.51C56.1716 3700.04 55.8226 3699.58 55.241 3699.58C54.7757 3699.58 54.3104 3699.93 54.3104 3700.51C54.3104 3701.09 54.6594 3701.44 55.241 3701.44Z" fill="white"/>
<path d="M90.0208 3690.97C90.4861 3690.97 90.9513 3690.62 90.9513 3690.04C90.9513 3689.46 90.6024 3689.11 90.0208 3689.11C89.5555 3689.11 89.0902 3689.46 89.0902 3690.04C89.0902 3690.62 89.5555 3690.97 90.0208 3690.97Z" fill="white"/>
<path d="M89.9044 3605.61C90.3697 3605.61 90.835 3605.26 90.835 3604.68C90.835 3604.21 90.486 3603.75 89.9044 3603.75C89.4392 3603.75 88.9739 3604.1 88.9739 3604.68C88.9739 3605.26 89.4392 3605.61 89.9044 3605.61Z" fill="white"/>
<path d="M-0.360087 3539.67C0.105193 3539.67 0.570474 3539.32 0.570474 3538.74C0.570474 3538.27 0.221514 3537.81 -0.360088 3537.81C-0.825368 3537.81 -1.29065 3538.16 -1.29065 3538.74C-1.29065 3539.2 -0.941689 3539.67 -0.360087 3539.67Z" fill="white"/>
<path d="M88.7412 3649.45C88.7412 3649.97 88.3246 3650.38 87.8107 3650.38C87.2967 3650.38 86.8801 3649.97 86.8801 3649.45C86.8801 3648.94 87.2967 3648.52 87.8107 3648.52C88.3246 3648.52 88.7412 3648.94 88.7412 3649.45Z" fill="white"/>
<path d="M161.558 3763.54C162.023 3763.54 162.488 3763.19 162.488 3762.61C162.488 3762.14 162.139 3761.68 161.558 3761.68C161.092 3761.68 160.627 3762.03 160.627 3762.61C160.627 3763.07 161.092 3763.54 161.558 3763.54Z" fill="white"/>
<path d="M166.792 3796.33C166.792 3796.85 166.375 3797.26 165.861 3797.26C165.348 3797.26 164.931 3796.85 164.931 3796.33C164.931 3795.82 165.348 3795.4 165.861 3795.4C166.375 3795.4 166.792 3795.82 166.792 3796.33Z" fill="white"/>
</g>
<g opacity="0.65">
<path d="M228.791 2106.86C228.325 2106.86 227.86 2106.51 227.86 2105.93C227.86 2105.47 228.209 2105 228.791 2105C229.256 2105 229.721 2105.35 229.721 2105.93C229.605 2106.4 229.256 2106.86 228.791 2106.86Z" fill="white"/>
<path d="M128.639 2194.78C128.639 2195.29 129.056 2195.71 129.57 2195.71C130.083 2195.71 130.5 2195.29 130.5 2194.78C130.5 2194.27 130.083 2193.85 129.57 2193.85C129.056 2193.85 128.639 2194.27 128.639 2194.78Z" fill="white"/>
<path d="M134.688 2219.43C134.222 2219.43 133.757 2219.09 133.757 2218.5C133.757 2218.04 134.106 2217.57 134.688 2217.57C135.269 2217.57 135.618 2217.92 135.618 2218.5C135.618 2219.09 135.269 2219.43 134.688 2219.43Z" fill="white"/>
<path d="M90.3698 2241.07C90.3698 2241.58 90.7864 2242 91.3003 2242C91.8142 2242 92.2308 2241.58 92.2308 2241.07C92.2308 2240.55 91.8142 2240.14 91.3003 2240.14C90.7864 2240.14 90.3698 2240.55 90.3698 2241.07Z" fill="white"/>
<path d="M37.2114 2186.52C36.7461 2186.52 36.2809 2186.17 36.2809 2185.59C36.2809 2185.13 36.6298 2184.66 37.2114 2184.66C37.6767 2184.66 38.142 2185.01 38.142 2185.59C38.142 2186.06 37.6767 2186.52 37.2114 2186.52Z" fill="white"/>
<path d="M134.222 2145.12C134.222 2145.64 134.639 2146.05 135.153 2146.05C135.667 2146.05 136.083 2145.64 136.083 2145.12C136.083 2144.61 135.667 2144.19 135.153 2144.19C134.639 2144.19 134.222 2144.61 134.222 2145.12Z" fill="white"/>
<path d="M147.716 2115.58C147.25 2115.58 146.785 2115.23 146.785 2114.65C146.785 2114.19 147.134 2113.72 147.716 2113.72C148.181 2113.72 148.646 2114.07 148.646 2114.65C148.646 2115.23 148.297 2115.58 147.716 2115.58Z" fill="white"/>
<path d="M109.563 2196.87C109.097 2196.87 108.632 2196.52 108.632 2195.94C108.632 2195.48 108.981 2195.01 109.563 2195.01C110.028 2195.01 110.493 2195.36 110.493 2195.94C110.493 2196.41 110.144 2196.87 109.563 2196.87Z" fill="white"/>
<path d="M95.953 2322.82C95.953 2323.34 96.3697 2323.75 96.8836 2323.75C97.3976 2323.75 97.8142 2323.34 97.8142 2322.82C97.8142 2322.31 97.3976 2321.89 96.8836 2321.89C96.3697 2321.89 95.953 2322.31 95.953 2322.82Z" fill="white"/>
<path d="M20.3449 2325.73C20.3449 2326.24 20.7615 2326.66 21.2755 2326.66C21.7894 2326.66 22.2061 2326.24 22.2061 2325.73C22.2061 2325.22 21.7894 2324.8 21.2755 2324.8C20.7615 2324.8 20.3449 2325.22 20.3449 2325.73Z" fill="white"/>
<path d="M-0.360105 2327.71C-0.825382 2327.71 -1.29068 2327.36 -1.29068 2326.78C-1.29068 2326.31 -0.941702 2325.85 -0.360105 2325.85C0.105172 2325.85 0.570435 2326.19 0.570435 2326.78C0.570435 2327.24 0.105172 2327.71 -0.360105 2327.71Z" fill="white"/>
<path d="M17.9022 2429.23C17.4369 2429.23 16.9716 2428.88 16.9716 2428.3C16.9716 2427.72 17.3206 2427.37 17.9022 2427.37C18.3675 2427.37 18.8328 2427.72 18.8328 2428.3C18.8328 2428.88 18.3675 2429.23 17.9022 2429.23Z" fill="white"/>
<path d="M109.911 2674.62C109.911 2675.13 110.328 2675.55 110.842 2675.55C111.356 2675.55 111.773 2675.13 111.773 2674.62C111.773 2674.1 111.356 2673.69 110.842 2673.69C110.328 2673.69 109.911 2674.1 109.911 2674.62Z" fill="white"/>
<path d="M175.051 2589.14C174.585 2589.14 174.12 2588.79 174.12 2588.21C174.12 2587.74 174.469 2587.28 175.051 2587.28C175.516 2587.28 175.981 2587.63 175.981 2588.21C175.865 2588.67 175.516 2589.14 175.051 2589.14Z" fill="white"/>
<path d="M263.57 2651.82C263.105 2651.82 262.64 2651.47 262.64 2650.89C262.64 2650.43 262.989 2649.96 263.57 2649.96C264.036 2649.96 264.501 2650.31 264.501 2650.89C264.501 2651.47 264.036 2651.82 263.57 2651.82Z" fill="white"/>
<path d="M300.328 2654.96C299.862 2654.96 299.397 2654.61 299.397 2654.03C299.397 2653.57 299.746 2653.1 300.328 2653.1C300.793 2653.1 301.258 2653.45 301.258 2654.03C301.258 2654.5 300.793 2654.96 300.328 2654.96Z" fill="white"/>
<path d="M303.468 2558.44C303.003 2558.44 302.538 2558.09 302.538 2557.51C302.538 2557.04 302.887 2556.58 303.468 2556.58C303.934 2556.58 304.399 2556.93 304.399 2557.51C304.399 2558.09 304.05 2558.44 303.468 2558.44Z" fill="white"/>
<path d="M268.689 2547.97C268.223 2547.97 267.758 2547.62 267.758 2547.04C267.758 2546.46 268.107 2546.11 268.689 2546.11C269.154 2546.11 269.619 2546.46 269.619 2547.04C269.619 2547.62 269.154 2547.97 268.689 2547.97Z" fill="white"/>
<path d="M268.805 2462.61C268.34 2462.61 267.874 2462.26 267.874 2461.68C267.874 2461.21 268.223 2460.75 268.805 2460.75C269.27 2460.75 269.735 2461.1 269.735 2461.68C269.735 2462.26 269.27 2462.61 268.805 2462.61Z" fill="white"/>
<path d="M359.069 2396.67C358.604 2396.67 358.139 2396.32 358.139 2395.74C358.139 2395.27 358.488 2394.81 359.069 2394.81C359.535 2394.81 360 2395.16 360 2395.74C360 2396.2 359.651 2396.67 359.069 2396.67Z" fill="white"/>
<path d="M269.968 2506.45C269.968 2506.97 270.385 2507.38 270.899 2507.38C271.413 2507.38 271.829 2506.97 271.829 2506.45C271.829 2505.94 271.413 2505.52 270.899 2505.52C270.385 2505.52 269.968 2505.94 269.968 2506.45Z" fill="white"/>
<path d="M197.152 2620.54C196.686 2620.54 196.221 2620.19 196.221 2619.61C196.221 2619.14 196.57 2618.68 197.152 2618.68C197.617 2618.68 198.082 2619.03 198.082 2619.61C198.082 2620.07 197.617 2620.54 197.152 2620.54Z" fill="white"/>
<path d="M191.917 2653.33C191.917 2653.85 192.334 2654.26 192.848 2654.26C193.362 2654.26 193.778 2653.85 193.778 2653.33C193.778 2652.82 193.362 2652.4 192.848 2652.4C192.334 2652.4 191.917 2652.82 191.917 2653.33Z" fill="white"/>
</g>
<defs>
<filter id="filter0_f_517_2" x="-908" y="-964" width="1838" height="1838" filterUnits="userSpaceOnUse" color-interpolation-filters="sRGB">
<feFlood flood-opacity="0" result="BackgroundImageFix"/>
<feBlend mode="normal" in="SourceGraphic" in2="BackgroundImageFix" result="shape"/>
<feGaussianBlur stdDeviation="350" result="effect1_foregroundBlur_517_2"/>
</filter>
<filter id="filter1_f_517_2" x="-483" y="-263" width="2062" height="2062" filterUnits="userSpaceOnUse" color-interpolation-filters="sRGB">
<feFlood flood-opacity="0" result="BackgroundImageFix"/>
<feBlend mode="normal" in="SourceGraphic" in2="BackgroundImageFix" result="shape"/>
<feGaussianBlur stdDeviation="400" result="effect1_foregroundBlur_517_2"/>
</filter>
<filter id="filter2_f_517_2" x="-576" y="3246" width="2062" height="2062" filterUnits="userSpaceOnUse" color-interpolation-filters="sRGB">
<feFlood flood-opacity="0" result="BackgroundImageFix"/>
<feBlend mode="normal" in="SourceGraphic" in2="BackgroundImageFix" result="shape"/>
<feGaussianBlur stdDeviation="400" result="effect1_foregroundBlur_517_2"/>
</filter>
<filter id="filter3_f_517_2" x="-1079" y="436" width="2034" height="2034" filterUnits="userSpaceOnUse" color-interpolation-filters="sRGB">
<feFlood flood-opacity="0" result="BackgroundImageFix"/>
<feBlend mode="normal" in="SourceGraphic" in2="BackgroundImageFix" result="shape"/>
<feGaussianBlur stdDeviation="400" result="effect1_foregroundBlur_517_2"/>
</filter>
<filter id="filter4_f_517_2" x="-527" y="1822" width="1795" height="1795" filterUnits="userSpaceOnUse" color-interpolation-filters="sRGB">
<feFlood flood-opacity="0" result="BackgroundImageFix"/>
<feBlend mode="normal" in="SourceGraphic" in2="BackgroundImageFix" result="shape"/>
<feGaussianBlur stdDeviation="350" result="effect1_foregroundBlur_517_2"/>
</filter>
</defs>
</svg>
