<svg width="1366" height="4085" viewBox="0 0 1366 4085" fill="none" xmlns="http://www.w3.org/2000/svg">
<g filter="url(#filter0_f_531_2)">
<circle cx="1365" cy="3121" r="264" fill="#3B0FA4"/>
</g>
<g filter="url(#filter1_f_531_2)">
<circle cx="1477.5" cy="788.5" r="414.5" fill="#3B13A6"/>
</g>
<g filter="url(#filter2_f_531_2)">
<circle cx="85" cy="264" r="264" fill="#3B0FA4"/>
</g>
<g opacity="0.65">
<path d="M4.45495 314.14C4.45495 315.254 3.61965 316.368 2.22748 316.368C1.11374 316.368 0 315.533 0 314.14C0 313.026 0.835304 311.912 2.22748 311.912C3.34121 312.191 4.45495 313.026 4.45495 314.14Z" fill="white"/>
<path d="M214.951 553.923C216.182 553.923 217.179 552.926 217.179 551.695C217.179 550.465 216.182 549.467 214.951 549.467C213.721 549.467 212.724 550.465 212.724 551.695C212.724 552.926 213.721 553.923 214.951 553.923Z" fill="white"/>
<path d="M273.98 539.441C273.98 540.555 273.144 541.669 271.752 541.669C270.638 541.669 269.525 540.834 269.525 539.441C269.525 538.049 270.36 537.213 271.752 537.213C273.144 537.213 273.98 538.049 273.98 539.441Z" fill="white"/>
<path d="M325.768 645.547C326.999 645.547 327.996 644.55 327.996 643.319C327.996 642.089 326.999 641.091 325.768 641.091C324.538 641.091 323.541 642.089 323.541 643.319C323.541 644.55 324.538 645.547 325.768 645.547Z" fill="white"/>
<path d="M195.183 772.819C195.183 773.933 194.347 775.047 192.955 775.047C191.841 775.047 190.728 774.211 190.728 772.819C190.728 771.705 191.563 770.591 192.955 770.591C194.069 770.591 195.183 771.705 195.183 772.819Z" fill="white"/>
<path d="M96.0599 540.555C97.2901 540.555 98.2874 539.558 98.2874 538.327C98.2874 537.097 97.2901 536.099 96.0599 536.099C94.8297 536.099 93.8325 537.097 93.8325 538.327C93.8325 539.558 94.8297 540.555 96.0599 540.555Z" fill="white"/>
<path d="M25.3376 508.25C25.3376 509.364 24.5022 510.478 23.1101 510.478C21.9963 510.478 20.8826 509.643 20.8826 508.25C20.8826 507.136 21.7179 506.022 23.1101 506.022C24.5022 506.022 25.3376 506.858 25.3376 508.25Z" fill="white"/>
<path d="M219.963 599.596C219.963 600.71 219.128 601.824 217.736 601.824C216.622 601.824 215.508 600.988 215.508 599.596C215.508 598.482 216.344 597.368 217.736 597.368C218.85 597.368 219.963 598.203 219.963 599.596Z" fill="white"/>
<path d="M521.508 632.18C522.738 632.18 523.735 631.182 523.735 629.952C523.735 628.721 522.738 627.724 521.508 627.724C520.278 627.724 519.28 628.721 519.28 629.952C519.28 631.182 520.278 632.18 521.508 632.18Z" fill="white"/>
<path d="M528.469 813.2C529.699 813.2 530.696 812.203 530.696 810.972C530.696 809.742 529.699 808.744 528.469 808.744C527.239 808.744 526.241 809.742 526.241 810.972C526.241 812.203 527.239 813.2 528.469 813.2Z" fill="white"/>
<path d="M533.202 862.772C533.202 863.886 532.367 865 530.975 865C529.861 865 528.747 864.164 528.747 862.772C528.747 861.658 529.583 860.544 530.975 860.544C532.088 860.544 533.202 861.658 533.202 862.772Z" fill="white"/>
<path d="M776.276 819.049C776.276 820.163 775.44 821.277 774.048 821.277C772.656 821.277 771.821 820.441 771.821 819.049C771.821 817.935 772.656 816.821 774.048 816.821C775.44 816.821 776.276 817.935 776.276 819.049Z" fill="white"/>
<path d="M1363.77 598.76C1365 598.76 1366 597.763 1366 596.533C1366 595.302 1365 594.305 1363.77 594.305C1362.54 594.305 1361.55 595.302 1361.55 596.533C1361.55 597.763 1362.54 598.76 1363.77 598.76Z" fill="white"/>
<path d="M1159.12 442.804C1159.12 443.918 1158.29 445.032 1156.9 445.032C1155.78 445.032 1154.67 444.197 1154.67 442.804C1154.67 441.69 1155.5 440.576 1156.9 440.576C1158.01 440.855 1159.12 441.69 1159.12 442.804Z" fill="white"/>
<path d="M1309.2 230.871C1309.2 231.985 1308.36 233.099 1306.97 233.099C1305.86 233.099 1304.74 232.263 1304.74 230.871C1304.74 229.757 1305.58 228.643 1306.97 228.643C1308.36 228.643 1309.2 229.757 1309.2 230.871Z" fill="white"/>
<path d="M1316.72 142.867C1316.72 143.981 1315.88 145.095 1314.49 145.095C1313.38 145.095 1312.26 144.259 1312.26 142.867C1312.26 141.753 1313.1 140.639 1314.49 140.639C1315.6 140.639 1316.72 141.753 1316.72 142.867Z" fill="white"/>
<path d="M1085.62 135.348C1085.62 136.462 1084.78 137.576 1083.39 137.576C1082.28 137.576 1081.16 136.74 1081.16 135.348C1081.16 134.234 1082 133.12 1083.39 133.12C1084.78 133.12 1085.62 133.955 1085.62 135.348Z" fill="white"/>
<path d="M1060.56 218.617C1060.56 219.731 1059.72 220.845 1058.33 220.845C1056.94 220.845 1056.1 220.01 1056.1 218.617C1056.1 217.503 1056.94 216.389 1058.33 216.389C1059.72 216.389 1060.56 217.503 1060.56 218.617Z" fill="white"/>
<path d="M856.186 218.339C856.186 219.453 855.351 220.567 853.959 220.567C852.845 220.567 851.731 219.731 851.731 218.339C851.731 217.225 852.567 216.111 853.959 216.111C855.351 216.111 856.186 217.225 856.186 218.339Z" fill="white"/>
<path d="M698.314 2.22795C698.314 3.34192 697.479 4.45589 696.086 4.45589C694.973 4.45589 693.859 3.62041 693.859 2.22795C693.859 1.11397 694.694 0 696.086 0C697.2 0 698.314 0.83548 698.314 2.22795Z" fill="white"/>
<path d="M961.156 215.554C962.386 215.554 963.384 214.556 963.384 213.326C963.384 212.095 962.386 211.098 961.156 211.098C959.926 211.098 958.929 212.095 958.929 213.326C958.929 214.556 959.926 215.554 961.156 215.554Z" fill="white"/>
<path d="M1234.3 389.891C1234.3 391.005 1233.47 392.118 1232.07 392.118C1230.96 392.118 1229.85 391.283 1229.85 389.891C1229.85 388.777 1230.68 387.663 1232.07 387.663C1233.19 387.663 1234.3 388.777 1234.3 389.891Z" fill="white"/>
<path d="M1312.82 402.423C1314.05 402.423 1315.05 401.425 1315.05 400.195C1315.05 398.964 1314.05 397.967 1312.82 397.967C1311.59 397.967 1310.59 398.964 1310.59 400.195C1310.59 401.425 1311.59 402.423 1312.82 402.423Z" fill="white"/>
</g>
<g opacity="0.5">
<path d="M1361.55 1583.86C1361.55 1582.75 1362.38 1581.63 1363.77 1581.63C1364.89 1581.63 1366 1582.47 1366 1583.86C1366 1584.97 1365.16 1586.09 1363.77 1586.09C1362.66 1585.81 1361.55 1584.97 1361.55 1583.86Z" fill="white"/>
<path d="M1151.05 1344.08C1149.82 1344.08 1148.82 1345.07 1148.82 1346.3C1148.82 1347.54 1149.82 1348.53 1151.05 1348.53C1152.28 1348.53 1153.28 1347.54 1153.28 1346.3C1153.28 1345.07 1152.28 1344.08 1151.05 1344.08Z" fill="white"/>
<path d="M1092.02 1358.56C1092.02 1357.44 1092.86 1356.33 1094.25 1356.33C1095.36 1356.33 1096.48 1357.17 1096.48 1358.56C1096.48 1359.95 1095.64 1360.79 1094.25 1360.79C1092.86 1360.79 1092.02 1359.95 1092.02 1358.56Z" fill="white"/>
<path d="M1040.23 1252.45C1039 1252.45 1038 1253.45 1038 1254.68C1038 1255.91 1039 1256.91 1040.23 1256.91C1041.46 1256.91 1042.46 1255.91 1042.46 1254.68C1042.46 1253.45 1041.46 1252.45 1040.23 1252.45Z" fill="white"/>
<path d="M1170.82 1125.18C1170.82 1124.07 1171.65 1122.95 1173.04 1122.95C1174.16 1122.95 1175.27 1123.79 1175.27 1125.18C1175.27 1126.3 1174.44 1127.41 1173.04 1127.41C1171.93 1127.41 1170.82 1126.3 1170.82 1125.18Z" fill="white"/>
<path d="M1269.94 1357.44C1268.71 1357.44 1267.71 1358.44 1267.71 1359.67C1267.71 1360.9 1268.71 1361.9 1269.94 1361.9C1271.17 1361.9 1272.17 1360.9 1272.17 1359.67C1272.17 1358.44 1271.17 1357.44 1269.94 1357.44Z" fill="white"/>
<path d="M1340.66 1389.75C1340.66 1388.64 1341.5 1387.52 1342.89 1387.52C1344 1387.52 1345.12 1388.36 1345.12 1389.75C1345.12 1390.86 1344.28 1391.98 1342.89 1391.98C1341.5 1391.98 1340.66 1391.14 1340.66 1389.75Z" fill="white"/>
<path d="M1146.04 1298.4C1146.04 1297.29 1146.87 1296.18 1148.26 1296.18C1149.38 1296.18 1150.49 1297.01 1150.49 1298.4C1150.49 1299.52 1149.66 1300.63 1148.26 1300.63C1147.15 1300.63 1146.04 1299.8 1146.04 1298.4Z" fill="white"/>
<path d="M844.492 1265.82C843.262 1265.82 842.265 1266.82 842.265 1268.05C842.265 1269.28 843.262 1270.28 844.492 1270.28C845.722 1270.28 846.719 1269.28 846.719 1268.05C846.719 1266.82 845.722 1265.82 844.492 1265.82Z" fill="white"/>
<path d="M837.531 1084.8C836.301 1084.8 835.304 1085.8 835.304 1087.03C835.304 1088.26 836.301 1089.26 837.531 1089.26C838.761 1089.26 839.759 1088.26 839.759 1087.03C839.759 1085.8 838.761 1084.8 837.531 1084.8Z" fill="white"/>
<path d="M832.798 1035.23C832.798 1034.11 833.633 1033 835.025 1033C836.139 1033 837.253 1033.84 837.253 1035.23C837.253 1036.34 836.417 1037.46 835.025 1037.46C833.911 1037.46 832.798 1036.34 832.798 1035.23Z" fill="white"/>
<path d="M589.724 1078.95C589.724 1077.84 590.56 1076.72 591.952 1076.72C593.344 1076.72 594.179 1077.56 594.179 1078.95C594.179 1080.07 593.344 1081.18 591.952 1081.18C590.56 1081.18 589.724 1080.07 589.724 1078.95Z" fill="white"/>
<path d="M2.22746 1299.24C0.997262 1299.24 -6.13375e-05 1300.24 -6.12299e-05 1301.47C-6.11224e-05 1302.7 0.997262 1303.7 2.22746 1303.7C3.45766 1303.7 4.45489 1302.7 4.45489 1301.47C4.45489 1300.24 3.45766 1299.24 2.22746 1299.24Z" fill="white"/>
<path d="M206.877 1455.2C206.877 1454.08 207.712 1452.97 209.104 1452.97C210.218 1452.97 211.332 1453.8 211.332 1455.2C211.332 1456.31 210.496 1457.42 209.104 1457.42C207.991 1457.15 206.877 1456.31 206.877 1455.2Z" fill="white"/>
<path d="M56.8006 1667.13C56.8006 1666.02 57.636 1664.9 59.0281 1664.9C60.1419 1664.9 61.2556 1665.74 61.2556 1667.13C61.2556 1668.24 60.4203 1669.36 59.0281 1669.36C57.636 1669.36 56.8006 1668.24 56.8006 1667.13Z" fill="white"/>
<path d="M49.283 1755.13C49.283 1754.02 50.1182 1752.91 51.5105 1752.91C52.6242 1752.91 53.738 1753.74 53.738 1755.13C53.738 1756.25 52.9027 1757.36 51.5105 1757.36C50.3967 1757.36 49.283 1756.25 49.283 1755.13Z" fill="white"/>
<path d="M280.384 1762.65C280.384 1761.54 281.219 1760.42 282.611 1760.42C283.725 1760.42 284.839 1761.26 284.839 1762.65C284.839 1763.77 284.003 1764.88 282.611 1764.88C281.219 1764.88 280.384 1764.04 280.384 1762.65Z" fill="white"/>
<path d="M305.443 1679.38C305.443 1678.27 306.278 1677.15 307.67 1677.15C309.062 1677.15 309.898 1677.99 309.898 1679.38C309.898 1680.5 309.062 1681.61 307.67 1681.61C306.278 1681.61 305.443 1680.5 305.443 1679.38Z" fill="white"/>
<path d="M509.814 1679.66C509.814 1678.55 510.649 1677.43 512.041 1677.43C513.155 1677.43 514.269 1678.27 514.269 1679.66C514.269 1680.78 513.433 1681.89 512.041 1681.89C510.649 1681.89 509.814 1680.78 509.814 1679.66Z" fill="white"/>
<path d="M667.686 1895.77C667.686 1894.66 668.521 1893.54 669.914 1893.54C671.027 1893.54 672.141 1894.38 672.141 1895.77C672.141 1896.89 671.306 1898 669.914 1898C668.8 1898 667.686 1897.16 667.686 1895.77Z" fill="white"/>
<path d="M404.844 1682.45C403.614 1682.45 402.616 1683.44 402.616 1684.67C402.616 1685.9 403.614 1686.9 404.844 1686.9C406.074 1686.9 407.071 1685.9 407.071 1684.67C407.071 1683.44 406.074 1682.45 404.844 1682.45Z" fill="white"/>
<path d="M131.7 1508.11C131.7 1507 132.535 1505.88 133.927 1505.88C135.041 1505.88 136.154 1506.72 136.154 1508.11C136.154 1509.22 135.319 1510.34 133.927 1510.34C132.813 1510.34 131.7 1509.22 131.7 1508.11Z" fill="white"/>
<path d="M53.181 1495.58C51.9508 1495.58 50.9536 1496.57 50.9536 1497.81C50.9536 1499.04 51.9508 1500.03 53.181 1500.03C54.4112 1500.03 55.4084 1499.04 55.4084 1497.81C55.4084 1496.57 54.4112 1495.58 53.181 1495.58Z" fill="white"/>
</g>
<g opacity="0.5">
<path d="M1361.55 3617.86C1361.55 3616.75 1362.38 3615.63 1363.77 3615.63C1364.89 3615.63 1366 3616.47 1366 3617.86C1366 3618.97 1365.16 3620.09 1363.77 3620.09C1362.66 3619.81 1361.55 3618.97 1361.55 3617.86Z" fill="white"/>
<path d="M1151.05 3378.08C1149.82 3378.08 1148.82 3379.07 1148.82 3380.31C1148.82 3381.54 1149.82 3382.53 1151.05 3382.53C1152.28 3382.53 1153.28 3381.54 1153.28 3380.31C1153.28 3379.07 1152.28 3378.08 1151.05 3378.08Z" fill="white"/>
<path d="M1092.02 3392.56C1092.02 3391.44 1092.86 3390.33 1094.25 3390.33C1095.36 3390.33 1096.48 3391.17 1096.48 3392.56C1096.48 3393.95 1095.64 3394.79 1094.25 3394.79C1092.86 3394.79 1092.02 3393.95 1092.02 3392.56Z" fill="white"/>
<path d="M1040.23 3286.45C1039 3286.45 1038 3287.45 1038 3288.68C1038 3289.91 1039 3290.91 1040.23 3290.91C1041.46 3290.91 1042.46 3289.91 1042.46 3288.68C1042.46 3287.45 1041.46 3286.45 1040.23 3286.45Z" fill="white"/>
<path d="M1170.82 3159.18C1170.82 3158.07 1171.65 3156.95 1173.04 3156.95C1174.16 3156.95 1175.27 3157.79 1175.27 3159.18C1175.27 3160.3 1174.44 3161.41 1173.04 3161.41C1171.93 3161.41 1170.82 3160.3 1170.82 3159.18Z" fill="white"/>
<path d="M1269.94 3391.44C1268.71 3391.44 1267.71 3392.44 1267.71 3393.67C1267.71 3394.9 1268.71 3395.9 1269.94 3395.9C1271.17 3395.9 1272.17 3394.9 1272.17 3393.67C1272.17 3392.44 1271.17 3391.44 1269.94 3391.44Z" fill="white"/>
<path d="M1340.66 3423.75C1340.66 3422.64 1341.5 3421.52 1342.89 3421.52C1344 3421.52 1345.12 3422.36 1345.12 3423.75C1345.12 3424.86 1344.28 3425.98 1342.89 3425.98C1341.5 3425.98 1340.66 3425.14 1340.66 3423.75Z" fill="white"/>
<path d="M1146.04 3332.4C1146.04 3331.29 1146.87 3330.18 1148.26 3330.18C1149.38 3330.18 1150.49 3331.01 1150.49 3332.4C1150.49 3333.52 1149.66 3334.63 1148.26 3334.63C1147.15 3334.63 1146.04 3333.8 1146.04 3332.4Z" fill="white"/>
<path d="M844.492 3299.82C843.262 3299.82 842.265 3300.82 842.265 3302.05C842.265 3303.28 843.262 3304.28 844.492 3304.28C845.722 3304.28 846.719 3303.28 846.719 3302.05C846.719 3300.82 845.722 3299.82 844.492 3299.82Z" fill="white"/>
<path d="M837.531 3118.8C836.301 3118.8 835.304 3119.8 835.304 3121.03C835.304 3122.26 836.301 3123.26 837.531 3123.26C838.761 3123.26 839.759 3122.26 839.759 3121.03C839.759 3119.8 838.761 3118.8 837.531 3118.8Z" fill="white"/>
<path d="M832.798 3069.23C832.798 3068.11 833.633 3067 835.025 3067C836.139 3067 837.253 3067.84 837.253 3069.23C837.253 3070.34 836.417 3071.46 835.025 3071.46C833.911 3071.46 832.798 3070.34 832.798 3069.23Z" fill="white"/>
<path d="M589.724 3112.95C589.724 3111.84 590.56 3110.72 591.952 3110.72C593.344 3110.72 594.179 3111.56 594.179 3112.95C594.179 3114.07 593.344 3115.18 591.952 3115.18C590.56 3115.18 589.724 3114.07 589.724 3112.95Z" fill="white"/>
<path d="M2.22746 3333.24C0.997262 3333.24 -6.13375e-05 3334.24 -6.12299e-05 3335.47C-6.11224e-05 3336.7 0.997262 3337.7 2.22746 3337.7C3.45766 3337.7 4.45489 3336.7 4.45489 3335.47C4.45489 3334.24 3.45766 3333.24 2.22746 3333.24Z" fill="white"/>
<path d="M206.877 3489.2C206.877 3488.08 207.712 3486.97 209.104 3486.97C210.218 3486.97 211.332 3487.8 211.332 3489.2C211.332 3490.31 210.496 3491.42 209.104 3491.42C207.991 3491.15 206.877 3490.31 206.877 3489.2Z" fill="white"/>
<path d="M56.8006 3701.13C56.8006 3700.02 57.636 3698.9 59.0281 3698.9C60.1419 3698.9 61.2556 3699.74 61.2556 3701.13C61.2556 3702.24 60.4203 3703.36 59.0281 3703.36C57.636 3703.36 56.8006 3702.24 56.8006 3701.13Z" fill="white"/>
<path d="M49.283 3789.13C49.283 3788.02 50.1182 3786.91 51.5105 3786.91C52.6242 3786.91 53.738 3787.74 53.738 3789.13C53.738 3790.25 52.9027 3791.36 51.5105 3791.36C50.3967 3791.36 49.283 3790.25 49.283 3789.13Z" fill="white"/>
<path d="M280.384 3796.65C280.384 3795.54 281.219 3794.42 282.611 3794.42C283.725 3794.42 284.839 3795.26 284.839 3796.65C284.839 3797.77 284.003 3798.88 282.611 3798.88C281.219 3798.88 280.384 3798.04 280.384 3796.65Z" fill="white"/>
<path d="M305.443 3713.38C305.443 3712.27 306.278 3711.15 307.67 3711.15C309.062 3711.15 309.898 3711.99 309.898 3713.38C309.898 3714.5 309.062 3715.61 307.67 3715.61C306.278 3715.61 305.443 3714.5 305.443 3713.38Z" fill="white"/>
<path d="M509.814 3713.66C509.814 3712.55 510.649 3711.43 512.041 3711.43C513.155 3711.43 514.269 3712.27 514.269 3713.66C514.269 3714.78 513.433 3715.89 512.041 3715.89C510.649 3715.89 509.814 3714.78 509.814 3713.66Z" fill="white"/>
<path d="M667.686 3929.77C667.686 3928.66 668.521 3927.54 669.914 3927.54C671.027 3927.54 672.141 3928.38 672.141 3929.77C672.141 3930.89 671.306 3932 669.914 3932C668.8 3932 667.686 3931.16 667.686 3929.77Z" fill="white"/>
<path d="M404.844 3716.45C403.614 3716.45 402.616 3717.44 402.616 3718.67C402.616 3719.9 403.614 3720.9 404.844 3720.9C406.074 3720.9 407.071 3719.9 407.071 3718.67C407.071 3717.44 406.074 3716.45 404.844 3716.45Z" fill="white"/>
<path d="M131.7 3542.11C131.7 3541 132.535 3539.88 133.927 3539.88C135.041 3539.88 136.154 3540.72 136.154 3542.11C136.154 3543.22 135.319 3544.34 133.927 3544.34C132.813 3544.34 131.7 3543.22 131.7 3542.11Z" fill="white"/>
<path d="M53.181 3529.58C51.9508 3529.58 50.9536 3530.57 50.9536 3531.81C50.9536 3533.04 51.9508 3534.03 53.181 3534.03C54.4112 3534.03 55.4084 3533.04 55.4084 3531.81C55.4084 3530.57 54.4112 3529.58 53.181 3529.58Z" fill="white"/>
</g>
<g opacity="0.5">
<path d="M1361.54 2775.86C1361.54 2774.75 1362.38 2773.63 1363.77 2773.63C1364.89 2773.63 1366 2774.47 1366 2775.86C1366 2776.97 1365.16 2778.09 1363.77 2778.09C1362.66 2777.81 1361.54 2776.97 1361.54 2775.86Z" fill="white"/>
<path d="M1151.05 2536.08C1149.82 2536.08 1148.82 2537.07 1148.82 2538.31C1148.82 2539.54 1149.82 2540.53 1151.05 2540.53C1152.28 2540.53 1153.28 2539.54 1153.28 2538.31C1153.28 2537.07 1152.28 2536.08 1151.05 2536.08Z" fill="white"/>
<path d="M1092.02 2550.56C1092.02 2549.44 1092.86 2548.33 1094.25 2548.33C1095.36 2548.33 1096.48 2549.17 1096.48 2550.56C1096.48 2551.95 1095.64 2552.79 1094.25 2552.79C1092.86 2552.79 1092.02 2551.95 1092.02 2550.56Z" fill="white"/>
<path d="M1040.23 2444.45C1039 2444.45 1038 2445.45 1038 2446.68C1038 2447.91 1039 2448.91 1040.23 2448.91C1041.46 2448.91 1042.46 2447.91 1042.46 2446.68C1042.46 2445.45 1041.46 2444.45 1040.23 2444.45Z" fill="white"/>
<path d="M1170.82 2317.18C1170.82 2316.07 1171.65 2314.95 1173.04 2314.95C1174.16 2314.95 1175.27 2315.79 1175.27 2317.18C1175.27 2318.3 1174.44 2319.41 1173.04 2319.41C1171.93 2319.41 1170.82 2318.3 1170.82 2317.18Z" fill="white"/>
<path d="M1269.94 2549.44C1268.71 2549.44 1267.71 2550.44 1267.71 2551.67C1267.71 2552.9 1268.71 2553.9 1269.94 2553.9C1271.17 2553.9 1272.17 2552.9 1272.17 2551.67C1272.17 2550.44 1271.17 2549.44 1269.94 2549.44Z" fill="white"/>
<path d="M1340.66 2581.75C1340.66 2580.64 1341.5 2579.52 1342.89 2579.52C1344 2579.52 1345.12 2580.36 1345.12 2581.75C1345.12 2582.86 1344.28 2583.98 1342.89 2583.98C1341.5 2583.98 1340.66 2583.14 1340.66 2581.75Z" fill="white"/>
<path d="M1146.04 2490.4C1146.04 2489.29 1146.87 2488.18 1148.26 2488.18C1149.38 2488.18 1150.49 2489.01 1150.49 2490.4C1150.49 2491.52 1149.66 2492.63 1148.26 2492.63C1147.15 2492.63 1146.04 2491.8 1146.04 2490.4Z" fill="white"/>
<path d="M844.492 2457.82C843.262 2457.82 842.264 2458.82 842.264 2460.05C842.264 2461.28 843.262 2462.28 844.492 2462.28C845.722 2462.28 846.719 2461.28 846.719 2460.05C846.719 2458.82 845.722 2457.82 844.492 2457.82Z" fill="white"/>
<path d="M837.531 2276.8C836.301 2276.8 835.304 2277.8 835.304 2279.03C835.304 2280.26 836.301 2281.26 837.531 2281.26C838.761 2281.26 839.758 2280.26 839.758 2279.03C839.758 2277.8 838.761 2276.8 837.531 2276.8Z" fill="white"/>
<path d="M832.798 2227.23C832.798 2226.11 833.633 2225 835.025 2225C836.139 2225 837.253 2225.84 837.253 2227.23C837.253 2228.34 836.417 2229.46 835.025 2229.46C833.911 2229.46 832.798 2228.34 832.798 2227.23Z" fill="white"/>
<path d="M589.724 2270.95C589.724 2269.84 590.56 2268.72 591.952 2268.72C593.344 2268.72 594.179 2269.56 594.179 2270.95C594.179 2272.07 593.344 2273.18 591.952 2273.18C590.56 2273.18 589.724 2272.07 589.724 2270.95Z" fill="white"/>
<path d="M2.22734 2491.24C0.99714 2491.24 -0.000183408 2492.24 -0.0001833 2493.47C-0.000183193 2494.7 0.99714 2495.7 2.22734 2495.7C3.45753 2495.7 4.45477 2494.7 4.45477 2493.47C4.45477 2492.24 3.45753 2491.24 2.22734 2491.24Z" fill="white"/>
<path d="M206.877 2647.2C206.877 2646.08 207.712 2644.97 209.104 2644.97C210.218 2644.97 211.332 2645.8 211.332 2647.2C211.332 2648.31 210.496 2649.42 209.104 2649.42C207.99 2649.15 206.877 2648.31 206.877 2647.2Z" fill="white"/>
<path d="M56.8005 2859.13C56.8005 2858.02 57.6359 2856.9 59.028 2856.9C60.1418 2856.9 61.2555 2857.74 61.2555 2859.13C61.2555 2860.24 60.4202 2861.36 59.028 2861.36C57.6359 2861.36 56.8005 2860.24 56.8005 2859.13Z" fill="white"/>
<path d="M49.2828 2947.13C49.2828 2946.02 50.1181 2944.91 51.5103 2944.91C52.6241 2944.91 53.7379 2945.74 53.7379 2947.13C53.7379 2948.25 52.9025 2949.36 51.5103 2949.36C50.3966 2949.36 49.2828 2948.25 49.2828 2947.13Z" fill="white"/>
<path d="M280.384 2954.65C280.384 2953.54 281.219 2952.42 282.611 2952.42C283.725 2952.42 284.838 2953.26 284.838 2954.65C284.838 2955.77 284.003 2956.88 282.611 2956.88C281.219 2956.88 280.384 2956.04 280.384 2954.65Z" fill="white"/>
<path d="M305.443 2871.38C305.443 2870.27 306.278 2869.15 307.67 2869.15C309.062 2869.15 309.898 2869.99 309.898 2871.38C309.898 2872.5 309.062 2873.61 307.67 2873.61C306.278 2873.61 305.443 2872.5 305.443 2871.38Z" fill="white"/>
<path d="M509.814 2871.66C509.814 2870.55 510.649 2869.43 512.041 2869.43C513.155 2869.43 514.268 2870.27 514.268 2871.66C514.268 2872.78 513.433 2873.89 512.041 2873.89C510.649 2873.89 509.814 2872.78 509.814 2871.66Z" fill="white"/>
<path d="M667.686 3087.77C667.686 3086.66 668.521 3085.54 669.914 3085.54C671.027 3085.54 672.141 3086.38 672.141 3087.77C672.141 3088.89 671.306 3090 669.914 3090C668.8 3090 667.686 3089.16 667.686 3087.77Z" fill="white"/>
<path d="M404.844 2874.45C403.614 2874.45 402.616 2875.44 402.616 2876.67C402.616 2877.9 403.614 2878.9 404.844 2878.9C406.074 2878.9 407.071 2877.9 407.071 2876.67C407.071 2875.44 406.074 2874.45 404.844 2874.45Z" fill="white"/>
<path d="M131.699 2700.11C131.699 2699 132.535 2697.88 133.927 2697.88C135.041 2697.88 136.154 2698.72 136.154 2700.11C136.154 2701.22 135.319 2702.34 133.927 2702.34C132.813 2702.34 131.699 2701.22 131.699 2700.11Z" fill="white"/>
<path d="M53.1809 2687.58C51.9507 2687.58 50.9535 2688.57 50.9535 2689.81C50.9535 2691.04 51.9507 2692.03 53.1809 2692.03C54.4111 2692.03 55.4083 2691.04 55.4083 2689.81C55.4083 2688.57 54.4111 2687.58 53.1809 2687.58Z" fill="white"/>
</g>
<g filter="url(#filter3_f_531_2)">
<circle cx="7.5" cy="1982.5" r="414.5" fill="#3B13A6"/>
</g>
<defs>
<filter id="filter0_f_531_2" x="401" y="2157" width="1928" height="1928" filterUnits="userSpaceOnUse" color-interpolation-filters="sRGB">
<feFlood flood-opacity="0" result="BackgroundImageFix"/>
<feBlend mode="normal" in="SourceGraphic" in2="BackgroundImageFix" result="shape"/>
<feGaussianBlur stdDeviation="350" result="effect1_foregroundBlur_531_2"/>
</filter>
<filter id="filter1_f_531_2" x="263" y="-426" width="2429" height="2429" filterUnits="userSpaceOnUse" color-interpolation-filters="sRGB">
<feFlood flood-opacity="0" result="BackgroundImageFix"/>
<feBlend mode="normal" in="SourceGraphic" in2="BackgroundImageFix" result="shape"/>
<feGaussianBlur stdDeviation="400" result="effect1_foregroundBlur_531_2"/>
</filter>
<filter id="filter2_f_531_2" x="-879" y="-700" width="1928" height="1928" filterUnits="userSpaceOnUse" color-interpolation-filters="sRGB">
<feFlood flood-opacity="0" result="BackgroundImageFix"/>
<feBlend mode="normal" in="SourceGraphic" in2="BackgroundImageFix" result="shape"/>
<feGaussianBlur stdDeviation="350" result="effect1_foregroundBlur_531_2"/>
</filter>
<filter id="filter3_f_531_2" x="-1207" y="768" width="2429" height="2429" filterUnits="userSpaceOnUse" color-interpolation-filters="sRGB">
<feFlood flood-opacity="0" result="BackgroundImageFix"/>
<feBlend mode="normal" in="SourceGraphic" in2="BackgroundImageFix" result="shape"/>
<feGaussianBlur stdDeviation="400" result="effect1_foregroundBlur_531_2"/>
</filter>
</defs>
</svg>
