<svg width="392" height="165" viewBox="0 0 392 165" fill="none" xmlns="http://www.w3.org/2000/svg">
<path d="M24.93 65.328C20.666 65.328 16.8393 64.344 13.45 62.376C10.0607 60.3533 7.382 57.62 5.414 54.176C3.446 50.732 2.43467 46.8507 2.38 42.532V5.14C2.38 3.88266 2.76267 2.87133 3.528 2.106C4.348 1.34067 5.35933 0.957999 6.562 0.957999C7.81933 0.957999 8.83067 1.34067 9.596 2.106C10.3613 2.87133 10.744 3.88266 10.744 5.14V27.28C12.6573 24.984 14.9533 23.18 17.632 21.868C20.3653 20.5013 23.3447 19.818 26.57 19.818C30.5607 19.818 34.1413 20.8293 37.312 22.852C40.4827 24.82 42.97 27.526 44.774 30.97C46.6327 34.3593 47.562 38.2133 47.562 42.532C47.562 46.8507 46.5507 50.732 44.528 54.176C42.56 57.62 39.8813 60.3533 36.492 62.376C33.1027 64.344 29.2487 65.328 24.93 65.328ZM24.93 57.948C27.718 57.948 30.2053 57.292 32.392 55.98C34.5787 54.6133 36.3007 52.7547 37.558 50.404C38.87 48.0533 39.526 45.4293 39.526 42.532C39.526 39.58 38.87 36.956 37.558 34.66C36.3007 32.364 34.5787 30.56 32.392 29.248C30.2053 27.8813 27.718 27.198 24.93 27.198C22.1967 27.198 19.7093 27.8813 17.468 29.248C15.2813 30.56 13.5593 32.364 12.302 34.66C11.0447 36.956 10.416 39.58 10.416 42.532C10.416 45.4293 11.0447 48.0533 12.302 50.404C13.5593 52.7547 15.2813 54.6133 17.468 55.98C19.7093 57.292 22.1967 57.948 24.93 57.948ZM67.3342 36.956C67.3342 33.676 68.1269 30.7513 69.7122 28.182C71.3522 25.558 73.5389 23.4807 76.2722 21.95C79.0056 20.4193 82.0122 19.654 85.2922 19.654C88.5722 19.654 91.0049 20.2007 92.5903 21.294C94.2303 22.3327 94.8589 23.59 94.4763 25.066C94.3122 25.8313 93.9843 26.4327 93.4923 26.87C93.0549 27.2527 92.5356 27.4987 91.9342 27.608C91.3329 27.7173 90.6769 27.69 89.9663 27.526C86.4676 26.8153 83.3242 26.7607 80.5362 27.362C77.7482 27.9633 75.5342 29.084 73.8942 30.724C72.3089 32.364 71.5162 34.4413 71.5162 36.956H67.3342ZM67.4162 65C66.1042 65 65.0929 64.672 64.3822 64.016C63.6716 63.3053 63.3162 62.2667 63.3162 60.9V24.246C63.3162 22.934 63.6716 21.9227 64.3822 21.212C65.0929 20.5013 66.1042 20.146 67.4162 20.146C68.7829 20.146 69.7942 20.5013 70.4502 21.212C71.1609 21.868 71.5162 22.8793 71.5162 24.246V60.9C71.5162 62.212 71.1609 63.2233 70.4502 63.934C69.7942 64.6447 68.7829 65 67.4162 65ZM111.477 65C110.274 65 109.263 64.6173 108.443 63.852C107.678 63.032 107.295 62.0207 107.295 60.818V24.328C107.295 23.0707 107.678 22.0593 108.443 21.294C109.263 20.5287 110.274 20.146 111.477 20.146C112.734 20.146 113.746 20.5287 114.511 21.294C115.276 22.0593 115.659 23.0707 115.659 24.328V60.818C115.659 62.0207 115.276 63.032 114.511 63.852C113.746 64.6173 112.734 65 111.477 65ZM111.477 12.848C110.001 12.848 108.716 12.3287 107.623 11.29C106.584 10.1967 106.065 8.912 106.065 7.436C106.065 5.96 106.584 4.70266 107.623 3.664C108.716 2.57067 110.001 2.024 111.477 2.024C112.953 2.024 114.21 2.57067 115.249 3.664C116.342 4.70266 116.889 5.96 116.889 7.436C116.889 8.912 116.342 10.1967 115.249 11.29C114.21 12.3287 112.953 12.848 111.477 12.848ZM150.817 65C148.084 65 145.624 64.3167 143.437 62.95C141.251 61.5287 139.529 59.6153 138.271 57.21C137.014 54.8047 136.385 52.0987 136.385 49.092V9.978C136.385 8.77533 136.768 7.79133 137.533 7.026C138.299 6.26067 139.283 5.878 140.485 5.878C141.688 5.878 142.672 6.26067 143.437 7.026C144.203 7.79133 144.585 8.77533 144.585 9.978V49.092C144.585 51.2787 145.187 53.11 146.389 54.586C147.592 56.062 149.068 56.8 150.817 56.8H153.605C154.589 56.8 155.409 57.1827 156.065 57.948C156.776 58.7133 157.131 59.6973 157.131 60.9C157.131 62.1027 156.667 63.0867 155.737 63.852C154.863 64.6173 153.715 65 152.293 65H150.817ZM132.613 28.838C131.465 28.838 130.536 28.51 129.825 27.854C129.115 27.198 128.759 26.378 128.759 25.394C128.759 24.3007 129.115 23.426 129.825 22.77C130.536 22.114 131.465 21.786 132.613 21.786H151.555C152.703 21.786 153.633 22.114 154.343 22.77C155.054 23.426 155.409 24.3007 155.409 25.394C155.409 26.378 155.054 27.198 154.343 27.854C153.633 28.51 152.703 28.838 151.555 28.838H132.613ZM175.693 65C174.491 65 173.479 64.6173 172.659 63.852C171.894 63.032 171.511 62.0207 171.511 60.818V24.328C171.511 23.0707 171.894 22.0593 172.659 21.294C173.479 20.5287 174.491 20.146 175.693 20.146C176.951 20.146 177.962 20.5287 178.727 21.294C179.493 22.0593 179.875 23.0707 179.875 24.328V60.818C179.875 62.0207 179.493 63.032 178.727 63.852C177.962 64.6173 176.951 65 175.693 65ZM175.693 12.848C174.217 12.848 172.933 12.3287 171.839 11.29C170.801 10.1967 170.281 8.912 170.281 7.436C170.281 5.96 170.801 4.70266 171.839 3.664C172.933 2.57067 174.217 2.024 175.693 2.024C177.169 2.024 178.427 2.57067 179.465 3.664C180.559 4.70266 181.105 5.96 181.105 7.436C181.105 8.912 180.559 10.1967 179.465 11.29C178.427 12.3287 177.169 12.848 175.693 12.848ZM215.034 65.328C211.207 65.328 207.654 64.754 204.374 63.606C201.148 62.4033 198.634 60.9 196.83 59.096C196.01 58.2213 195.654 57.2373 195.764 56.144C195.928 54.996 196.474 54.0667 197.404 53.356C198.497 52.4813 199.563 52.126 200.602 52.29C201.695 52.3993 202.624 52.864 203.39 53.684C204.319 54.7227 205.795 55.7067 207.818 56.636C209.895 57.5107 212.191 57.948 214.706 57.948C217.876 57.948 220.282 57.4287 221.922 56.39C223.616 55.3513 224.491 54.012 224.546 52.372C224.6 50.732 223.808 49.3107 222.168 48.108C220.582 46.9053 217.658 45.9213 213.394 45.156C207.872 44.0627 203.854 42.4227 201.34 40.236C198.88 38.0493 197.65 35.3707 197.65 32.2C197.65 29.412 198.47 27.116 200.11 25.312C201.75 23.4533 203.854 22.0867 206.424 21.212C208.993 20.2827 211.672 19.818 214.46 19.818C218.068 19.818 221.266 20.392 224.054 21.54C226.842 22.688 229.056 24.2733 230.696 26.296C231.461 27.1707 231.816 28.1 231.762 29.084C231.707 30.0133 231.242 30.806 230.368 31.462C229.493 32.0633 228.454 32.2547 227.252 32.036C226.049 31.8173 225.038 31.3253 224.218 30.56C222.851 29.248 221.375 28.346 219.79 27.854C218.204 27.362 216.373 27.116 214.296 27.116C211.89 27.116 209.84 27.526 208.146 28.346C206.506 29.166 205.686 30.3687 205.686 31.954C205.686 32.938 205.932 33.84 206.424 34.66C206.97 35.4253 208.009 36.136 209.54 36.792C211.07 37.3933 213.312 37.9947 216.264 38.596C220.364 39.416 223.589 40.4547 225.94 41.712C228.345 42.9693 230.067 44.4453 231.106 46.14C232.144 47.78 232.664 49.6933 232.664 51.88C232.664 54.3947 231.98 56.6633 230.614 58.686C229.302 60.7087 227.334 62.3213 224.71 63.524C222.14 64.7267 218.915 65.328 215.034 65.328ZM284.403 65.082C283.2 65.082 282.189 64.6993 281.369 63.934C280.604 63.114 280.221 62.1027 280.221 60.9V40.728C280.221 37.612 279.647 35.07 278.499 33.102C277.351 31.134 275.793 29.6853 273.825 28.756C271.912 27.772 269.698 27.28 267.183 27.28C264.887 27.28 262.81 27.7447 260.951 28.674C259.092 29.6033 257.616 30.8607 256.523 32.446C255.43 33.9767 254.883 35.7533 254.883 37.776H249.717C249.717 34.332 250.537 31.2707 252.177 28.592C253.872 25.8587 256.168 23.6993 259.065 22.114C261.962 20.5287 265.215 19.736 268.823 19.736C272.595 19.736 275.957 20.556 278.909 22.196C281.916 23.7813 284.266 26.132 285.961 29.248C287.71 32.364 288.585 36.1907 288.585 40.728V60.9C288.585 62.1027 288.175 63.114 287.355 63.934C286.59 64.6993 285.606 65.082 284.403 65.082ZM250.701 65.082C249.498 65.082 248.487 64.6993 247.667 63.934C246.902 63.114 246.519 62.1027 246.519 60.9V24.328C246.519 23.0707 246.902 22.0593 247.667 21.294C248.487 20.5287 249.498 20.146 250.701 20.146C251.958 20.146 252.97 20.5287 253.735 21.294C254.5 22.0593 254.883 23.0707 254.883 24.328V60.9C254.883 62.1027 254.5 63.114 253.735 63.934C252.97 64.6993 251.958 65.082 250.701 65.082ZM250.701 48.682C249.498 48.682 248.487 48.2993 247.667 47.534C246.902 46.714 246.519 45.7027 246.519 44.5V5.14C246.519 3.88266 246.902 2.87133 247.667 2.106C248.487 1.34067 249.498 0.957999 250.701 0.957999C251.958 0.957999 252.97 1.34067 253.735 2.106C254.5 2.87133 254.883 3.88266 254.883 5.14V44.5C254.883 45.7027 254.5 46.714 253.735 47.534C252.97 48.2993 251.958 48.682 250.701 48.682ZM326.848 65.328C322.31 65.328 318.265 64.3713 314.712 62.458C311.213 60.49 308.452 57.8113 306.43 54.422C304.462 50.978 303.478 47.042 303.478 42.614C303.478 38.1313 304.407 34.1953 306.266 30.806C308.179 27.362 310.803 24.6833 314.138 22.77C317.472 20.802 321.299 19.818 325.618 19.818C329.882 19.818 333.544 20.7747 336.606 22.688C339.667 24.5467 341.99 27.1433 343.576 30.478C345.216 33.758 346.036 37.5573 346.036 41.876C346.036 42.9147 345.68 43.7893 344.97 44.5C344.259 45.156 343.357 45.484 342.264 45.484H309.218V38.924H342.018L338.656 41.22C338.601 38.4867 338.054 36.054 337.016 33.922C335.977 31.7353 334.501 30.0133 332.588 28.756C330.674 27.4987 328.351 26.87 325.618 26.87C322.502 26.87 319.823 27.5533 317.582 28.92C315.395 30.2867 313.728 32.1727 312.58 34.578C311.432 36.9287 310.858 39.6073 310.858 42.614C310.858 45.6207 311.541 48.2993 312.908 50.65C314.274 53.0007 316.16 54.8593 318.566 56.226C320.971 57.5927 323.732 58.276 326.848 58.276C328.542 58.276 330.264 57.9753 332.014 57.374C333.818 56.718 335.266 55.98 336.36 55.16C337.18 54.5587 338.054 54.258 338.984 54.258C339.968 54.2033 340.815 54.4767 341.526 55.078C342.455 55.898 342.947 56.8 343.002 57.784C343.056 58.768 342.619 59.6153 341.69 60.326C339.831 61.802 337.508 63.0047 334.72 63.934C331.986 64.8633 329.362 65.328 326.848 65.328ZM364.001 36.956C364.001 33.676 364.794 30.7513 366.379 28.182C368.019 25.558 370.206 23.4807 372.939 21.95C375.673 20.4193 378.679 19.654 381.959 19.654C385.239 19.654 387.672 20.2007 389.257 21.294C390.897 22.3327 391.526 23.59 391.143 25.066C390.979 25.8313 390.651 26.4327 390.159 26.87C389.722 27.2527 389.203 27.4987 388.601 27.608C388 27.7173 387.344 27.69 386.633 27.526C383.135 26.8153 379.991 26.7607 377.203 27.362C374.415 27.9633 372.201 29.084 370.561 30.724C368.976 32.364 368.183 34.4413 368.183 36.956H364.001ZM364.083 65C362.771 65 361.76 64.672 361.049 64.016C360.339 63.3053 359.983 62.2667 359.983 60.9V24.246C359.983 22.934 360.339 21.9227 361.049 21.212C361.76 20.5013 362.771 20.146 364.083 20.146C365.45 20.146 366.461 20.5013 367.117 21.212C367.828 21.868 368.183 22.8793 368.183 24.246V60.9C368.183 62.212 367.828 63.2233 367.117 63.934C366.461 64.6447 365.45 65 364.083 65ZM21.076 145.328C17.0853 145.328 13.5047 144.344 10.334 142.376C7.16333 140.353 4.64867 137.647 2.79 134.258C0.986 130.814 0.0840002 126.933 0.0840002 122.614C0.0840002 118.295 1.068 114.414 3.036 110.97C5.05867 107.526 7.76467 104.82 11.154 102.852C14.598 100.829 18.452 99.818 22.716 99.818C26.98 99.818 30.8067 100.829 34.196 102.852C37.5853 104.82 40.264 107.526 42.232 110.97C44.2547 114.414 45.266 118.295 45.266 122.614H42.068C42.068 126.933 41.1387 130.814 39.28 134.258C37.476 137.647 34.9887 140.353 31.818 142.376C28.6473 144.344 25.0667 145.328 21.076 145.328ZM22.716 137.948C25.504 137.948 27.9913 137.292 30.178 135.98C32.3647 134.613 34.0867 132.782 35.344 130.486C36.6013 128.135 37.23 125.511 37.23 122.614C37.23 119.662 36.6013 117.038 35.344 114.742C34.0867 112.391 32.3647 110.56 30.178 109.248C27.9913 107.881 25.504 107.198 22.716 107.198C19.9827 107.198 17.4953 107.881 15.254 109.248C13.0673 110.56 11.318 112.391 10.006 114.742C8.74867 117.038 8.12 119.662 8.12 122.614C8.12 125.511 8.74867 128.135 10.006 130.486C11.318 132.782 13.0673 134.613 15.254 135.98C17.4953 137.292 19.9827 137.948 22.716 137.948ZM41.084 145.082C39.8813 145.082 38.87 144.699 38.05 143.934C37.2847 143.114 36.902 142.103 36.902 140.9V128.354L38.46 119.662L45.266 122.614V140.9C45.266 142.103 44.856 143.114 44.036 143.934C43.2707 144.699 42.2867 145.082 41.084 145.082ZM78.05 145.328C73.6767 145.328 69.768 144.344 66.324 142.376C62.9347 140.353 60.256 137.647 58.288 134.258C56.3747 130.814 55.418 126.933 55.418 122.614C55.418 118.186 56.3747 114.25 58.288 110.806C60.2013 107.362 62.8253 104.683 66.16 102.77C69.4947 100.802 73.3213 99.818 77.64 99.818C80.8653 99.818 83.8173 100.447 86.496 101.704C89.1747 102.907 91.58 104.738 93.712 107.198C94.4773 108.073 94.7507 108.975 94.532 109.904C94.3133 110.833 93.712 111.653 92.728 112.364C91.9627 112.911 91.1153 113.102 90.186 112.938C89.2567 112.719 88.4093 112.227 87.644 111.462C84.9653 108.619 81.6307 107.198 77.64 107.198C74.852 107.198 72.392 107.854 70.26 109.166C68.128 110.423 66.4607 112.2 65.258 114.496C64.0553 116.792 63.454 119.498 63.454 122.614C63.454 125.566 64.0553 128.19 65.258 130.486C66.5153 132.782 68.2373 134.613 70.424 135.98C72.6107 137.292 75.1527 137.948 78.05 137.948C79.9633 137.948 81.6307 137.729 83.052 137.292C84.528 136.8 85.8673 136.062 87.07 135.078C87.9447 134.367 88.8467 133.985 89.776 133.93C90.7053 133.821 91.5253 134.067 92.236 134.668C93.1653 135.433 93.6847 136.308 93.794 137.292C93.9033 138.221 93.5753 139.069 92.81 139.834C88.874 143.497 83.954 145.328 78.05 145.328ZM125.658 145.328C121.667 145.328 118.087 144.344 114.916 142.376C111.745 140.353 109.231 137.647 107.372 134.258C105.568 130.814 104.666 126.933 104.666 122.614C104.666 118.295 105.65 114.414 107.618 110.97C109.641 107.526 112.347 104.82 115.736 102.852C119.18 100.829 123.034 99.818 127.298 99.818C131.562 99.818 135.389 100.829 138.778 102.852C142.167 104.82 144.846 107.526 146.814 110.97C148.837 114.414 149.848 118.295 149.848 122.614H146.65C146.65 126.933 145.721 130.814 143.862 134.258C142.058 137.647 139.571 140.353 136.4 142.376C133.229 144.344 129.649 145.328 125.658 145.328ZM127.298 137.948C130.086 137.948 132.573 137.292 134.76 135.98C136.947 134.613 138.669 132.782 139.926 130.486C141.183 128.135 141.812 125.511 141.812 122.614C141.812 119.662 141.183 117.038 139.926 114.742C138.669 112.391 136.947 110.56 134.76 109.248C132.573 107.881 130.086 107.198 127.298 107.198C124.565 107.198 122.077 107.881 119.836 109.248C117.649 110.56 115.9 112.391 114.588 114.742C113.331 117.038 112.702 119.662 112.702 122.614C112.702 125.511 113.331 128.135 114.588 130.486C115.9 132.782 117.649 134.613 119.836 135.98C122.077 137.292 124.565 137.948 127.298 137.948ZM145.666 145.082C144.463 145.082 143.452 144.699 142.632 143.934C141.867 143.114 141.484 142.103 141.484 140.9V128.354L143.042 119.662L149.848 122.614V140.9C149.848 142.103 149.438 143.114 148.618 143.934C147.853 144.699 146.869 145.082 145.666 145.082ZM182.632 145.328C178.368 145.328 174.514 144.344 171.07 142.376C167.681 140.353 164.975 137.62 162.952 134.176C160.984 130.732 160 126.851 160 122.532C160 118.213 160.902 114.359 162.706 110.97C164.565 107.526 167.079 104.82 170.25 102.852C173.421 100.829 177.001 99.818 180.992 99.818C184.217 99.818 187.197 100.501 189.93 101.868C192.663 103.18 194.959 104.984 196.818 107.28V85.14C196.818 83.8827 197.201 82.8713 197.966 82.106C198.786 81.3407 199.797 80.958 201 80.958C202.257 80.958 203.269 81.3407 204.034 82.106C204.799 82.8713 205.182 83.8827 205.182 85.14V122.532C205.182 126.851 204.171 130.732 202.148 134.176C200.18 137.62 197.501 140.353 194.112 142.376C190.723 144.344 186.896 145.328 182.632 145.328ZM182.632 137.948C185.42 137.948 187.907 137.292 190.094 135.98C192.281 134.613 194.003 132.755 195.26 130.404C196.517 128.053 197.146 125.429 197.146 122.532C197.146 119.58 196.517 116.956 195.26 114.66C194.003 112.364 192.281 110.56 190.094 109.248C187.907 107.881 185.42 107.198 182.632 107.198C179.899 107.198 177.411 107.881 175.17 109.248C172.983 110.56 171.234 112.364 169.922 114.66C168.665 116.956 168.036 119.58 168.036 122.532C168.036 125.429 168.665 128.053 169.922 130.404C171.234 132.755 172.983 134.613 175.17 135.98C177.411 137.292 179.899 137.948 182.632 137.948ZM241.026 145.328C236.489 145.328 232.444 144.371 228.89 142.458C225.392 140.49 222.631 137.811 220.608 134.422C218.64 130.978 217.656 127.042 217.656 122.614C217.656 118.131 218.586 114.195 220.444 110.806C222.358 107.362 224.982 104.683 228.316 102.77C231.651 100.802 235.478 99.818 239.796 99.818C244.06 99.818 247.723 100.775 250.784 102.688C253.846 104.547 256.169 107.143 257.754 110.478C259.394 113.758 260.214 117.557 260.214 121.876C260.214 122.915 259.859 123.789 259.148 124.5C258.438 125.156 257.536 125.484 256.442 125.484H223.396V118.924H256.196L252.834 121.22C252.78 118.487 252.233 116.054 251.194 113.922C250.156 111.735 248.68 110.013 246.766 108.756C244.853 107.499 242.53 106.87 239.796 106.87C236.68 106.87 234.002 107.553 231.76 108.92C229.574 110.287 227.906 112.173 226.758 114.578C225.61 116.929 225.036 119.607 225.036 122.614C225.036 125.621 225.72 128.299 227.086 130.65C228.453 133.001 230.339 134.859 232.744 136.226C235.15 137.593 237.91 138.276 241.026 138.276C242.721 138.276 244.443 137.975 246.192 137.374C247.996 136.718 249.445 135.98 250.538 135.16C251.358 134.559 252.233 134.258 253.162 134.258C254.146 134.203 254.994 134.477 255.704 135.078C256.634 135.898 257.126 136.8 257.18 137.784C257.235 138.768 256.798 139.615 255.868 140.326C254.01 141.802 251.686 143.005 248.898 143.934C246.165 144.863 243.541 145.328 241.026 145.328ZM329.758 145.082C328.555 145.082 327.544 144.699 326.724 143.934C325.959 143.114 325.576 142.103 325.576 140.9V117.448C325.576 114.004 324.729 111.462 323.034 109.822C321.339 108.127 319.125 107.28 316.392 107.28C313.549 107.28 311.199 108.264 309.34 110.232C307.536 112.2 306.634 114.715 306.634 117.776H299.828C299.828 114.223 300.593 111.107 302.124 108.428C303.655 105.695 305.787 103.563 308.52 102.032C311.308 100.501 314.479 99.736 318.032 99.736C321.148 99.736 323.909 100.419 326.314 101.786C328.719 103.153 330.578 105.175 331.89 107.854C333.257 110.478 333.94 113.676 333.94 117.448V140.9C333.94 142.103 333.557 143.114 332.792 143.934C332.027 144.699 331.015 145.082 329.758 145.082ZM275.064 145.082C273.861 145.082 272.85 144.699 272.03 143.934C271.265 143.114 270.882 142.103 270.882 140.9V104.41C270.882 103.153 271.265 102.141 272.03 101.376C272.85 100.611 273.861 100.228 275.064 100.228C276.321 100.228 277.333 100.611 278.098 101.376C278.863 102.141 279.246 103.153 279.246 104.41V140.9C279.246 142.103 278.863 143.114 278.098 143.934C277.333 144.699 276.321 145.082 275.064 145.082ZM302.452 145.082C301.249 145.082 300.238 144.699 299.418 143.934C298.653 143.114 298.27 142.103 298.27 140.9V117.448C298.27 114.004 297.423 111.462 295.728 109.822C294.033 108.127 291.819 107.28 289.086 107.28C286.243 107.28 283.893 108.264 282.034 110.232C280.175 112.2 279.246 114.715 279.246 117.776H274.08C274.08 114.223 274.791 111.107 276.212 108.428C277.633 105.695 279.601 103.563 282.116 102.032C284.631 100.501 287.501 99.736 290.726 99.736C293.842 99.736 296.603 100.419 299.008 101.786C301.413 103.153 303.272 105.175 304.584 107.854C305.951 110.478 306.634 113.676 306.634 117.448V140.9C306.634 142.103 306.251 143.114 305.486 143.934C304.721 144.699 303.709 145.082 302.452 145.082ZM355.873 164.68C355.326 164.68 354.67 164.516 353.905 164.188C351.5 163.095 350.844 161.373 351.937 159.022L376.947 102.524C378.04 100.228 379.762 99.572 382.113 100.556C384.573 101.595 385.256 103.317 384.163 105.722L359.071 162.138C358.415 163.833 357.349 164.68 355.873 164.68ZM365.549 143.196C364.51 143.633 363.526 143.688 362.597 143.36C361.722 142.977 361.012 142.267 360.465 141.228L341.687 105.558C341.14 104.519 341.058 103.535 341.441 102.606C341.878 101.622 342.616 100.911 343.655 100.474C344.694 100.037 345.678 100.009 346.607 100.392C347.536 100.72 348.247 101.403 348.739 102.442L366.697 138.112C367.244 139.151 367.435 140.162 367.271 141.146C367.162 142.075 366.588 142.759 365.549 143.196Z" fill="#FAFAFA"/>
</svg>
