<svg id="Layer_1" data-name="Layer 1" xmlns="http://www.w3.org/2000/svg" xmlns:xlink="http://www.w3.org/1999/xlink" viewBox="0 0 169.55 66"><defs><style>.cls-1{fill:url(#linear-gradient);}.cls-2{fill:#fafafa;}</style><linearGradient id="linear-gradient" x1="87.91" y1="13.43" x2="54.65" y2="70.92" gradientTransform="matrix(1, 0, 0, -1, 0, 68)" gradientUnits="userSpaceOnUse"><stop offset="0" stop-color="#3a0ca3"/><stop offset="1" stop-color="#4cc9f0"/></linearGradient></defs><path class="cls-1" d="M94.45,6.22a65.06,65.06,0,0,0-55.69.08,5.78,5.78,0,0,0-3.25,5.9A83.53,83.53,0,0,0,62.76,64.53a5.76,5.76,0,0,0,7.69,0A83.56,83.56,0,0,0,97.72,12.12,5.78,5.78,0,0,0,97,8.64,5.7,5.7,0,0,0,94.45,6.22Zm-1,5.38A79.2,79.2,0,0,1,67.58,61.31a1.46,1.46,0,0,1-1,.38,1.48,1.48,0,0,1-1-.38A79.21,79.21,0,0,1,39.78,11.69a1.48,1.48,0,0,1,.18-.88,1.5,1.5,0,0,1,.65-.62,59.89,59.89,0,0,1,11.45-4.1,1.18,1.18,0,0,1,.56,0,1.22,1.22,0,0,1,.5.24,1.13,1.13,0,0,1,.35.43,1.16,1.16,0,0,1,.13.54V29.68A13.67,13.67,0,1,0,61,17.51a2.16,2.16,0,0,1-1.06.23,2.12,2.12,0,0,1-1-.33,2.05,2.05,0,0,1-.74-.78,2.13,2.13,0,0,1-.27-1V6.84a2.11,2.11,0,0,1,.52-1.4,2.13,2.13,0,0,1,1.3-.73h.13A61,61,0,0,1,92.6,10.12a1.37,1.37,0,0,1,.66.6A1.51,1.51,0,0,1,93.44,11.6ZM57.89,29.19a9.4,9.4,0,0,1,6-8.28,9.4,9.4,0,1,1,0,17.53,9.22,9.22,0,0,1-3.26-2.13A9.35,9.35,0,0,1,58.51,33,9.56,9.56,0,0,1,57.89,29.19Z" transform="translate(-35.47)"/><path class="cls-2" d="M107,30.24a6,6,0,0,1-3.07-.78,5.81,5.81,0,0,1-2.15-2.17,6.24,6.24,0,0,1-.82-3.08v-9.9a1.09,1.09,0,0,1,.31-.8,1.12,1.12,0,0,1,.81-.31,1.1,1.1,0,0,1,.82.31,1.09,1.09,0,0,1,.3.8v5.86A5.39,5.39,0,0,1,105,18.74a5.32,5.32,0,0,1,2.39-.55,5.22,5.22,0,0,1,2.87.81,5.46,5.46,0,0,1,2,2.15,6.14,6.14,0,0,1,.75,3.06,5.94,5.94,0,0,1-.82,3.08,5.81,5.81,0,0,1-2.15,2.17A6.09,6.09,0,0,1,107,30.24Zm0-1.95a3.85,3.85,0,0,0,2-.52,3.93,3.93,0,0,0,1.38-1.48,4.44,4.44,0,0,0,0-4.17A3.87,3.87,0,0,0,109,20.69a3.77,3.77,0,0,0-2-.54,3.82,3.82,0,0,0-2,.54,3.87,3.87,0,0,0-1.38,1.43,4.52,4.52,0,0,0,0,4.17,3.66,3.66,0,0,0,3.38,2Z" transform="translate(-35.47)"/><path class="cls-2" d="M118.34,22.73a4.32,4.32,0,0,1,.63-2.32,4.73,4.73,0,0,1,1.76-1.65,4.82,4.82,0,0,1,2.41-.61,3.53,3.53,0,0,1,2,.44.87.87,0,0,1,.5,1,.8.8,0,0,1-.26.48.91.91,0,0,1-.42.2,1.37,1.37,0,0,1-.53,0,6.16,6.16,0,0,0-2.52,0,3.53,3.53,0,0,0-1.78.89,2.3,2.3,0,0,0-.63,1.65Zm0,7.43a1.18,1.18,0,0,1-.81-.26,1.13,1.13,0,0,1-.29-.83v-9.7a1.1,1.1,0,0,1,.29-.81,1.14,1.14,0,0,1,.81-.28,1.1,1.1,0,0,1,.81.28,1.07,1.07,0,0,1,.29.81v9.7a1,1,0,0,1-1.1,1.09Z" transform="translate(-35.47)"/><path class="cls-2" d="M130.15,30.16a1.12,1.12,0,0,1-.81-.31,1.09,1.09,0,0,1-.31-.8V19.39a1.05,1.05,0,0,1,.31-.8,1.12,1.12,0,0,1,.81-.31,1.06,1.06,0,0,1,1.12,1.11v9.66a1.09,1.09,0,0,1-.31.8A1.06,1.06,0,0,1,130.15,30.16Zm0-13.81a1.46,1.46,0,0,1-1-.41,1.42,1.42,0,0,1-.42-1,1.34,1.34,0,0,1,.42-1,1.41,1.41,0,0,1,1-.44,1.36,1.36,0,0,1,1,.44,1.33,1.33,0,0,1,.44,1,1.45,1.45,0,0,1-1.45,1.43Z" transform="translate(-35.47)"/><path class="cls-2" d="M140.68,30.16a3.65,3.65,0,0,1-2-.55,4,4,0,0,1-1.38-1.52,4.46,4.46,0,0,1-.5-2.15V15.59a1.06,1.06,0,0,1,.3-.78,1.1,1.1,0,0,1,.79-.31,1.09,1.09,0,0,1,.79.31,1,1,0,0,1,.31.78V25.94a2.23,2.23,0,0,0,.48,1.46,1.49,1.49,0,0,0,1.19.59h.74a.83.83,0,0,1,.66.3,1.09,1.09,0,0,1,.29.78,1,1,0,0,1-.38.78,1.31,1.31,0,0,1-.92.31Zm-4.87-9.58a1,1,0,0,1-.75-.26.84.84,0,0,1-.29-.65.88.88,0,0,1,.29-.69,1,1,0,0,1,.75-.26h5.07a1,1,0,0,1,.74.26.88.88,0,0,1,.29.69.84.84,0,0,1-.29.65,1,1,0,0,1-.74.26Z" transform="translate(-35.47)"/><path class="cls-2" d="M147.33,30.16a1,1,0,0,1-1.11-1.11V19.39a1.09,1.09,0,0,1,.3-.8,1.12,1.12,0,0,1,.81-.31,1.1,1.1,0,0,1,.82.31,1.09,1.09,0,0,1,.3.8v9.66a1.12,1.12,0,0,1-.3.8A1.1,1.1,0,0,1,147.33,30.16Zm0-13.81a1.49,1.49,0,0,1-1-.41,1.45,1.45,0,0,1-.41-1,1.37,1.37,0,0,1,.41-1,1.44,1.44,0,0,1,1-.44,1.33,1.33,0,0,1,1,.44,1.29,1.29,0,0,1,.44,1,1.36,1.36,0,0,1-.44,1A1.38,1.38,0,0,1,147.33,16.35Z" transform="translate(-35.47)"/><path class="cls-2" d="M157.86,30.24a8.78,8.78,0,0,1-2.85-.45,5.58,5.58,0,0,1-2-1.2.94.94,0,0,1-.28-.78,1.11,1.11,0,0,1,.43-.74,1.13,1.13,0,0,1,.86-.28,1.17,1.17,0,0,1,.75.37,3.44,3.44,0,0,0,1.18.78,4.79,4.79,0,0,0,1.84.35,3.76,3.76,0,0,0,1.94-.41,1.3,1.3,0,0,0,.7-1.07,1.34,1.34,0,0,0-.64-1.13,6.17,6.17,0,0,0-2.35-.78,7,7,0,0,1-3.22-1.3,2.73,2.73,0,0,1-1-2.13,2.58,2.58,0,0,1,.66-1.82,4,4,0,0,1,1.69-1.09,6.48,6.48,0,0,1,2.15-.37,6.89,6.89,0,0,1,2.57.46,4.26,4.26,0,0,1,1.77,1.26,1,1,0,0,1,.29.74.88.88,0,0,1-.37.63,1.09,1.09,0,0,1-.84.15,1.62,1.62,0,0,1-.81-.39,3,3,0,0,0-1.18-.72,5.09,5.09,0,0,0-1.47-.19,3.88,3.88,0,0,0-1.65.32,1,1,0,0,0-.66,1,1.33,1.33,0,0,0,.2.71,1.89,1.89,0,0,0,.83.57,11.58,11.58,0,0,0,1.8.48,9.53,9.53,0,0,1,2.59.82,3.34,3.34,0,0,1,1.38,1.17,2.75,2.75,0,0,1,.42,1.52,3.06,3.06,0,0,1-.55,1.8,3.61,3.61,0,0,1-1.58,1.29A6.31,6.31,0,0,1,157.86,30.24Z" transform="translate(-35.47)"/><path class="cls-2" d="M176.43,30.18a1.13,1.13,0,0,1-.82-.31,1.12,1.12,0,0,1-.3-.8V23.73a4,4,0,0,0-.46-2,2.88,2.88,0,0,0-1.25-1.15,3.92,3.92,0,0,0-1.78-.39,3.66,3.66,0,0,0-1.67.37,3.05,3.05,0,0,0-1.18,1,2.28,2.28,0,0,0-.44,1.41h-1.39a4.52,4.52,0,0,1,.66-2.43,4.86,4.86,0,0,1,1.85-1.72,5.36,5.36,0,0,1,2.61-.63,5.56,5.56,0,0,1,2.7.65,4.52,4.52,0,0,1,1.88,1.87,6.08,6.08,0,0,1,.71,3v5.34a1.09,1.09,0,0,1-1.12,1.11Zm-9,0a1.12,1.12,0,0,1-.81-.31,1.09,1.09,0,0,1-.31-.8V19.39a1.05,1.05,0,0,1,.31-.8,1.12,1.12,0,0,1,.81-.31,1.06,1.06,0,0,1,1.12,1.11v9.68a1.13,1.13,0,0,1-.31.8A1.09,1.09,0,0,1,167.41,30.18Zm0-4.34a1.12,1.12,0,0,1-.81-.31,1.09,1.09,0,0,1-.31-.8V14.31a1.05,1.05,0,0,1,.31-.8,1.12,1.12,0,0,1,.81-.31,1.06,1.06,0,0,1,1.12,1.11V24.73a1.13,1.13,0,0,1-.31.8A1.09,1.09,0,0,1,167.41,25.84Z" transform="translate(-35.47)"/><path class="cls-2" d="M187.79,30.24a6.75,6.75,0,0,1-3.25-.76,5.88,5.88,0,0,1-2.22-2.12,6.14,6.14,0,0,1-.79-3.13,6.33,6.33,0,0,1,.75-3.13,5.42,5.42,0,0,1,2.1-2.12,6,6,0,0,1,3.08-.79,5.54,5.54,0,0,1,2.94.76A4.73,4.73,0,0,1,192.26,21a6.57,6.57,0,0,1,.66,3,.91.91,0,0,1-.29.7,1,1,0,0,1-.72.26h-8.84V23.25h8.77l-.89.61a4.72,4.72,0,0,0-.44-1.93,3.31,3.31,0,0,0-1.19-1.37,3.35,3.35,0,0,0-1.86-.5,4.09,4.09,0,0,0-2.15.54A3.54,3.54,0,0,0,184,22.1a4.7,4.7,0,0,0-.46,2.13,4.16,4.16,0,0,0,.54,2.13,4,4,0,0,0,1.52,1.47,4.35,4.35,0,0,0,2.22.55,4.27,4.27,0,0,0,1.38-.24,4.62,4.62,0,0,0,1.16-.59,1.16,1.16,0,0,1,.7-.24,1,1,0,0,1,.68.22,1.06,1.06,0,0,1,.4.72.77.77,0,0,1-.35.67,6,6,0,0,1-1.87.95A6.46,6.46,0,0,1,187.79,30.24Z" transform="translate(-35.47)"/><path class="cls-2" d="M197.73,22.73a4.32,4.32,0,0,1,.63-2.32,4.73,4.73,0,0,1,1.76-1.65,4.85,4.85,0,0,1,2.41-.61,3.53,3.53,0,0,1,2,.44.86.86,0,0,1,.5,1,.8.8,0,0,1-.26.48.91.91,0,0,1-.42.2,1.37,1.37,0,0,1-.53,0,6.16,6.16,0,0,0-2.52,0,3.57,3.57,0,0,0-1.78.89,2.3,2.3,0,0,0-.63,1.65Zm0,7.43a1.18,1.18,0,0,1-.81-.26,1.13,1.13,0,0,1-.29-.83v-9.7a1.1,1.1,0,0,1,.29-.81,1.14,1.14,0,0,1,.81-.28,1,1,0,0,1,1.1,1.09v9.7a1.06,1.06,0,0,1-.29.8A1,1,0,0,1,197.75,30.16Z" transform="translate(-35.47)"/><path class="cls-2" d="M106,51.42a5.41,5.41,0,0,1-2.88-.78,5.8,5.8,0,0,1-2-2.15,6.51,6.51,0,0,1-.72-3.08,6,6,0,0,1,.79-3.08,5.89,5.89,0,0,1,2.17-2.15,6,6,0,0,1,3.1-.81,5.89,5.89,0,0,1,3.07.81,5.69,5.69,0,0,1,2.15,2.15,5.93,5.93,0,0,1,.81,3.08h-.85a6.3,6.3,0,0,1-.75,3.08,5.59,5.59,0,0,1-2,2.15A5.37,5.37,0,0,1,106,51.42Zm.44-2a3.79,3.79,0,0,0,2-.52,3.9,3.9,0,0,0,1.39-1.46,4.35,4.35,0,0,0,.5-2.08,4.27,4.27,0,0,0-.5-2.08,3.79,3.79,0,0,0-3.38-2,3.8,3.8,0,0,0-2,.54A3.88,3.88,0,0,0,103,43.33a4.27,4.27,0,0,0-.5,2.08,4.35,4.35,0,0,0,.5,2.08A4.11,4.11,0,0,0,104.4,49,3.88,3.88,0,0,0,106.4,49.47Zm4.91,1.89a1.12,1.12,0,0,1-.81-.31,1.09,1.09,0,0,1-.31-.8V46.93l.42-2.3,1.82.78v4.84a1.06,1.06,0,0,1-.33.8A1,1,0,0,1,111.31,51.36Z" transform="translate(-35.47)"/><path class="cls-2" d="M121.2,51.42a6.24,6.24,0,0,1-3.13-.78,5.84,5.84,0,0,1-2.15-2.15,6.1,6.1,0,0,1-.77-3.08,6.23,6.23,0,0,1,.77-3.13,5.42,5.42,0,0,1,2.1-2.12,5.9,5.9,0,0,1,3.07-.79,5.56,5.56,0,0,1,2.37.5,5.62,5.62,0,0,1,1.94,1.46.8.8,0,0,1,.22.71,1.14,1.14,0,0,1-.49.66.9.9,0,0,1-.68.15,1.47,1.47,0,0,1-.68-.39,3.53,3.53,0,0,0-2.68-1.13,3.69,3.69,0,0,0-2,.52,3.44,3.44,0,0,0-1.34,1.41,4.55,4.55,0,0,0-.48,2.15,4.37,4.37,0,0,0,.48,2.08,3.7,3.7,0,0,0,3.42,2,4.8,4.8,0,0,0,1.34-.17,3.34,3.34,0,0,0,1.08-.59,1.2,1.2,0,0,1,.72-.3.83.83,0,0,1,.66.19,1,1,0,0,1,.42.7.77.77,0,0,1-.27.67A5.6,5.6,0,0,1,121.2,51.42Z" transform="translate(-35.47)"/><path class="cls-2" d="M133.94,51.42a5.4,5.4,0,0,1-2.87-.78,5.8,5.8,0,0,1-2-2.15,6.51,6.51,0,0,1-.72-3.08,6,6,0,0,1,.79-3.08,5.81,5.81,0,0,1,2.17-2.15,6,6,0,0,1,3.09-.81,5.93,5.93,0,0,1,3.08.81,5.76,5.76,0,0,1,2.15,2.15,5.93,5.93,0,0,1,.81,3.08h-.86a6.4,6.4,0,0,1-.74,3.08,5.67,5.67,0,0,1-2,2.15A5.41,5.41,0,0,1,133.94,51.42Zm.44-2a3.69,3.69,0,0,0,3.38-2,4.24,4.24,0,0,0,.51-2.08,4.16,4.16,0,0,0-.51-2.08,3.6,3.6,0,0,0-1.38-1.46,3.72,3.72,0,0,0-2-.54,3.85,3.85,0,0,0-3.4,2,4.27,4.27,0,0,0-.5,2.08,4.35,4.35,0,0,0,.5,2.08A4,4,0,0,0,132.39,49,3.86,3.86,0,0,0,134.38,49.47Zm4.92,1.89a1.12,1.12,0,0,1-.81-.31,1.09,1.09,0,0,1-.31-.8V46.93l.42-2.3,1.82.78v4.84a1.09,1.09,0,0,1-1.12,1.11Z" transform="translate(-35.47)"/><path class="cls-2" d="M149.19,51.42a5.91,5.91,0,0,1-5.27-3,6.11,6.11,0,0,1-.78-3.08,6.34,6.34,0,0,1,.72-3.06,5.58,5.58,0,0,1,2-2.15,5.22,5.22,0,0,1,2.87-.81,5.32,5.32,0,0,1,2.39.55A5.12,5.12,0,0,1,153,41.35V35.49a1.05,1.05,0,0,1,.31-.8,1.11,1.11,0,0,1,.81-.31,1.06,1.06,0,0,1,1.12,1.11v9.9a6.06,6.06,0,0,1-3,5.25A6,6,0,0,1,149.19,51.42Zm0-2a3.82,3.82,0,0,0,2-.52,3.93,3.93,0,0,0,1.38-1.48,4.27,4.27,0,0,0,.51-2.08,4.23,4.23,0,0,0-.51-2.09,3.87,3.87,0,0,0-1.38-1.43,3.75,3.75,0,0,0-2-.54,3.82,3.82,0,0,0-2,.54,4,4,0,0,0-1.4,1.43,4.6,4.6,0,0,0,0,4.17,4.07,4.07,0,0,0,1.4,1.48A3.9,3.9,0,0,0,149.19,49.47Z" transform="translate(-35.47)"/><path class="cls-2" d="M164.82,51.42a6.75,6.75,0,0,1-3.25-.76,6,6,0,0,1-2.22-2.12,6.25,6.25,0,0,1-.79-3.13,6.33,6.33,0,0,1,.75-3.13,5.38,5.38,0,0,1,2.11-2.12,5.87,5.87,0,0,1,3.07-.79,5.54,5.54,0,0,1,2.94.76,4.81,4.81,0,0,1,1.87,2.07,6.67,6.67,0,0,1,.65,3,.94.94,0,0,1-.28.7,1.05,1.05,0,0,1-.73.26H160.1V44.43h8.78L168,45a4.57,4.57,0,0,0-.44-1.93,3.24,3.24,0,0,0-1.19-1.37,3.35,3.35,0,0,0-1.86-.5,4.11,4.11,0,0,0-2.15.54,3.6,3.6,0,0,0-1.34,1.5,4.7,4.7,0,0,0-.46,2.13,4.1,4.1,0,0,0,.55,2.13A4,4,0,0,0,162.6,49a4.48,4.48,0,0,0,2.22.55,4.27,4.27,0,0,0,1.38-.24,4.62,4.62,0,0,0,1.16-.59,1.19,1.19,0,0,1,.71-.24,1,1,0,0,1,.68.22,1,1,0,0,1,.39.72.75.75,0,0,1-.35.67,6,6,0,0,1-1.86.95A6.57,6.57,0,0,1,164.82,51.42Z" transform="translate(-35.47)"/><path class="cls-2" d="M188.56,51.36a1.06,1.06,0,0,1-1.12-1.11V44a2.67,2.67,0,0,0-.68-2,2.39,2.39,0,0,0-1.77-.67,2.51,2.51,0,0,0-1.89.78,2.84,2.84,0,0,0-.72,2h-1.83a4.88,4.88,0,0,1,.62-2.48A4.41,4.41,0,0,1,182.88,40a5.34,5.34,0,0,1,2.55-.61,4.34,4.34,0,0,1,2.21.55,3.56,3.56,0,0,1,1.49,1.6,5.36,5.36,0,0,1,.55,2.54v6.21a1.12,1.12,0,0,1-.3.8A1.1,1.1,0,0,1,188.56,51.36Zm-14.63,0a1.11,1.11,0,0,1-.81-.31,1.09,1.09,0,0,1-.31-.8V40.59a1.05,1.05,0,0,1,.31-.8,1.11,1.11,0,0,1,.81-.31,1.06,1.06,0,0,1,1.12,1.11v9.66a1.13,1.13,0,0,1-.31.8A1.09,1.09,0,0,1,173.93,51.36Zm7.33,0a1.13,1.13,0,0,1-.82-.31,1.12,1.12,0,0,1-.3-.8V44a2.71,2.71,0,0,0-.68-2,2.43,2.43,0,0,0-1.78-.67,2.51,2.51,0,0,0-1.89.78,2.81,2.81,0,0,0-.74,2h-1.39a5.19,5.19,0,0,1,.57-2.48A4.29,4.29,0,0,1,175.81,40a4.48,4.48,0,0,1,2.31-.61,4.4,4.4,0,0,1,2.22.55,3.62,3.62,0,0,1,1.49,1.6,5.48,5.48,0,0,1,.55,2.54v6.21a1.13,1.13,0,0,1-.31.8A1.09,1.09,0,0,1,181.26,51.36Z" transform="translate(-35.47)"/><path class="cls-2" d="M195.55,56.55a1.51,1.51,0,0,1-.52-.13.91.91,0,0,1-.53-1.37l6.69-15a1,1,0,0,1,1.39-.52.9.9,0,0,1,.54,1.37l-6.71,14.93A.91.91,0,0,1,195.55,56.55Zm2.59-5.69a1.09,1.09,0,0,1-.79,0,1.23,1.23,0,0,1-.57-.56l-5-9.45a.87.87,0,0,1-.07-.78,1,1,0,0,1,.59-.56,1,1,0,0,1,1.36.52l4.81,9.44a1.21,1.21,0,0,1,.15.81A.67.67,0,0,1,198.14,50.86Z" transform="translate(-35.47)"/></svg>