<svg width="84" height="89" viewBox="0 0 84 89" fill="none" xmlns="http://www.w3.org/2000/svg">
<path d="M79.5366 8.38242C67.8379 2.83068 55.0499 -0.033042 42.1059 0.000287624C29.076 -0.0319148 16.2054 2.86939 4.44432 8.48996C2.97329 9.18894 1.75829 10.333 0.970634 11.7608C0.182978 13.1887 -0.137599 14.8283 0.0541033 16.4484C3.32136 43.6714 16.3904 68.7636 36.8084 87.0154C38.2345 88.2934 40.0805 89 41.9937 89C43.9069 89 45.7529 88.2934 47.179 87.0154C67.6239 68.7394 80.6997 43.6061 83.9463 16.3441C84.1376 14.7212 83.8147 13.0791 83.0233 11.6502C82.2319 10.2214 81.0121 9.07815 79.5366 8.38242ZM78.1772 15.6435C75.1022 41.503 62.7001 65.3439 43.3059 82.6777C42.9468 83.0047 42.4789 83.1859 41.9937 83.1859C41.5085 83.1859 41.0406 83.0047 40.6815 82.6777C21.3168 65.3698 8.92073 41.5744 5.81992 15.7575C5.77347 15.3469 5.85674 14.9319 6.05802 14.5712C6.25929 14.2105 6.56843 13.9221 6.94187 13.7467C11.8867 11.3824 17.0578 9.52617 22.3759 8.20643C22.6226 8.14639 22.8797 8.14312 23.1279 8.19687C23.376 8.25062 23.6088 8.36 23.8088 8.51679C24.0087 8.67358 24.1706 8.87372 24.2824 9.10218C24.3941 9.33064 24.4528 9.5815 24.454 9.83593V40.0207C24.455 44.0479 25.7699 47.9643 28.1983 51.1729C30.6267 54.3816 34.0355 56.7065 37.9049 57.7933C41.7743 58.8801 45.8923 58.6692 49.631 57.1927C53.3697 55.7162 56.5241 53.0552 58.6135 49.6151C60.7028 46.1751 61.6125 42.1447 61.2038 38.1384C60.795 34.1322 59.0904 30.3697 56.3497 27.4245C53.6089 24.4793 49.9824 22.513 46.0229 21.8252C42.0634 21.1374 37.9881 21.7659 34.4181 23.615C33.9765 23.8362 33.4855 23.9402 32.9923 23.9172C32.4991 23.8941 32.02 23.7446 31.6008 23.4831C31.1816 23.2216 30.8363 22.8567 30.598 22.4233C30.3596 21.99 30.2361 21.5026 30.2393 21.0078V9.21998C30.2397 8.52784 30.4871 7.85866 30.9368 7.33332C31.3865 6.80797 32.0088 6.46109 32.6913 6.35532L32.8734 6.33251C35.9357 5.98954 39.0148 5.81872 42.0961 5.82085C54.1806 5.7887 66.1198 8.4609 77.0423 13.6424C77.4183 13.8128 77.7307 14.0983 77.9347 14.4579C78.1386 14.8174 78.2235 15.2325 78.1772 15.6435ZM30.2425 39.3591C30.3703 36.9126 31.2031 34.5555 32.6401 32.5735C34.0771 30.5915 36.0566 29.0694 38.339 28.1917C40.6214 27.3139 43.1088 27.118 45.5 27.6278C47.8911 28.1376 50.0836 29.3311 51.8118 31.0639C53.5401 32.7967 54.73 34.9944 55.2375 37.391C55.745 39.7876 55.5483 42.2802 54.6713 44.567C53.7943 46.8539 52.2745 48.8369 50.296 50.276C48.3176 51.7151 45.9652 52.5485 43.5238 52.6754C41.7564 52.7612 39.9907 52.4754 38.3402 51.8365C36.6897 51.1975 35.1908 50.2195 33.9399 48.9654C32.6891 47.7112 31.7139 46.2087 31.0772 44.5543C30.4404 42.8999 30.1561 41.1302 30.2425 39.3591Z" fill="url(#paint0_linear_431_425)"/>
<defs>
<linearGradient id="paint0_linear_431_425" x1="70.6456" y1="73.6307" x2="25.793" y2="-3.89241" gradientUnits="userSpaceOnUse">
<stop stop-color="#3A0CA3"/>
<stop offset="1" stop-color="#4CC9F0"/>
</linearGradient>
</defs>
</svg>
