<svg width="50" height="53" viewBox="0 0 50 53" fill="none" xmlns="http://www.w3.org/2000/svg">
<path d="M47.3432 4.97885C40.3797 1.68132 32.7678 -0.0196257 25.063 0.000170838C17.3072 -0.0189562 9.64606 1.70431 2.64543 5.04273C1.76982 5.4579 1.0466 6.13743 0.577759 6.98551C0.108915 7.8336 -0.0819044 8.80745 0.0322043 9.76976C1.977 25.9392 9.7562 40.8431 21.9097 51.684C22.7586 52.4431 23.8575 52.8627 24.9962 52.8627C26.135 52.8627 27.2339 52.4431 28.0828 51.684C40.2523 40.8287 48.0355 25.9004 49.968 9.70782C50.0819 8.74386 49.8897 7.7685 49.4187 6.91981C48.9476 6.07112 48.2215 5.39209 47.3432 4.97885V4.97885ZM46.5341 9.29164C44.7037 24.6513 37.3215 38.8119 25.7773 49.1075C25.5636 49.3018 25.2851 49.4094 24.9962 49.4094C24.7074 49.4094 24.4289 49.3018 24.2152 49.1075C12.6885 38.8273 5.30996 24.6937 3.46424 9.35939C3.43659 9.11547 3.48616 8.86902 3.60596 8.65476C3.72577 8.44049 3.90978 8.26921 4.13206 8.16505C7.0754 6.76073 10.1534 5.65819 13.319 4.87432C13.4659 4.83866 13.6189 4.83672 13.7666 4.86864C13.9143 4.90057 14.0529 4.96553 14.1719 5.05866C14.2909 5.15179 14.3873 5.27066 14.4538 5.40636C14.5203 5.54206 14.5552 5.69106 14.5559 5.84218V23.7708C14.5565 26.1628 15.3392 28.489 16.7847 30.3949C18.2302 32.3007 20.2592 33.6816 22.5624 34.3271C24.8657 34.9727 27.3168 34.8474 29.5422 33.9704C31.7677 33.0934 33.6453 31.5128 34.889 29.4696C36.1326 27.4263 36.6741 25.0324 36.4308 22.6528C36.1875 20.2733 35.1729 18.0385 33.5415 16.2891C31.9101 14.5398 29.7514 13.3719 27.3946 12.9634C25.0377 12.5549 22.6119 12.9282 20.487 14.0264C20.2241 14.1578 19.9319 14.2196 19.6383 14.2059C19.3447 14.1922 19.0595 14.1034 18.81 13.9481C18.5605 13.7928 18.355 13.576 18.2131 13.3186C18.0712 13.0612 17.9977 12.7717 17.9996 12.4778V5.47633C17.9998 5.06522 18.1471 4.66776 18.4148 4.35572C18.6824 4.04369 19.0528 3.83765 19.4591 3.77483L19.5675 3.76128C21.3903 3.55757 23.2231 3.4561 25.0572 3.45737C32.2504 3.43828 39.357 5.02547 45.8585 8.10311C46.0823 8.20432 46.2683 8.37389 46.3897 8.58744C46.5111 8.801 46.5616 9.04755 46.5341 9.29164V9.29164ZM18.0015 23.3779C18.0776 21.9247 18.5733 20.5247 19.4286 19.3475C20.284 18.1702 21.4623 17.2662 22.8208 16.7448C24.1794 16.2234 25.66 16.1071 27.0833 16.4099C28.5066 16.7127 29.8117 17.4216 30.8404 18.4508C31.8691 19.48 32.5774 20.7854 32.8795 22.2089C33.1815 23.6324 33.0645 25.1129 32.5424 26.4712C32.0204 27.8295 31.1158 29.0074 29.9381 29.8621C28.7604 30.7169 27.3602 31.2119 25.907 31.2873C24.855 31.3382 23.804 31.1685 22.8215 30.789C21.8391 30.4095 20.9469 29.8286 20.2023 29.0836C19.4578 28.3387 18.8773 27.4463 18.4983 26.4636C18.1193 25.4809 17.9501 24.4299 18.0015 23.3779V23.3779Z" fill="url(#paint0_linear_739_2)"/>
<defs>
<linearGradient id="paint0_linear_739_2" x1="42.0509" y1="43.734" x2="15.4386" y2="-2.36141" gradientUnits="userSpaceOnUse">
<stop stop-color="#3A0CA3"/>
<stop offset="1" stop-color="#4CC9F0"/>
</linearGradient>
</defs>
</svg>
