<svg width="1176" height="626" viewBox="0 0 1176 626" fill="none" xmlns="http://www.w3.org/2000/svg">
<rect width="1176" height="626" fill="#07001A"/>
<path d="M569.93 300.328C565.666 300.328 561.839 299.344 558.45 297.376C555.061 295.353 552.382 292.62 550.414 289.176C548.446 285.732 547.435 281.851 547.38 277.532V240.14C547.38 238.883 547.763 237.871 548.528 237.106C549.348 236.341 550.359 235.958 551.562 235.958C552.819 235.958 553.831 236.341 554.596 237.106C555.361 237.871 555.744 238.883 555.744 240.14V262.28C557.657 259.984 559.953 258.18 562.632 256.868C565.365 255.501 568.345 254.818 571.57 254.818C575.561 254.818 579.141 255.829 582.312 257.852C585.483 259.82 587.97 262.526 589.774 265.97C591.633 269.359 592.562 273.213 592.562 277.532C592.562 281.851 591.551 285.732 589.528 289.176C587.56 292.62 584.881 295.353 581.492 297.376C578.103 299.344 574.249 300.328 569.93 300.328ZM569.93 292.948C572.718 292.948 575.205 292.292 577.392 290.98C579.579 289.613 581.301 287.755 582.558 285.404C583.87 283.053 584.526 280.429 584.526 277.532C584.526 274.58 583.87 271.956 582.558 269.66C581.301 267.364 579.579 265.56 577.392 264.248C575.205 262.881 572.718 262.198 569.93 262.198C567.197 262.198 564.709 262.881 562.468 264.248C560.281 265.56 558.559 267.364 557.302 269.66C556.045 271.956 555.416 274.58 555.416 277.532C555.416 280.429 556.045 283.053 557.302 285.404C558.559 287.755 560.281 289.613 562.468 290.98C564.709 292.292 567.197 292.948 569.93 292.948ZM612.334 271.956C612.334 268.676 613.127 265.751 614.712 263.182C616.352 260.558 618.539 258.481 621.272 256.95C624.006 255.419 627.012 254.654 630.292 254.654C633.572 254.654 636.005 255.201 637.59 256.294C639.23 257.333 639.859 258.59 639.476 260.066C639.312 260.831 638.984 261.433 638.492 261.87C638.055 262.253 637.536 262.499 636.934 262.608C636.333 262.717 635.677 262.69 634.966 262.526C631.468 261.815 628.324 261.761 625.536 262.362C622.748 262.963 620.534 264.084 618.894 265.724C617.309 267.364 616.516 269.441 616.516 271.956H612.334ZM612.416 300C611.104 300 610.093 299.672 609.382 299.016C608.672 298.305 608.316 297.267 608.316 295.9V259.246C608.316 257.934 608.672 256.923 609.382 256.212C610.093 255.501 611.104 255.146 612.416 255.146C613.783 255.146 614.794 255.501 615.45 256.212C616.161 256.868 616.516 257.879 616.516 259.246V295.9C616.516 297.212 616.161 298.223 615.45 298.934C614.794 299.645 613.783 300 612.416 300ZM656.477 300C655.274 300 654.263 299.617 653.443 298.852C652.678 298.032 652.295 297.021 652.295 295.818V259.328C652.295 258.071 652.678 257.059 653.443 256.294C654.263 255.529 655.274 255.146 656.477 255.146C657.734 255.146 658.746 255.529 659.511 256.294C660.276 257.059 660.659 258.071 660.659 259.328V295.818C660.659 297.021 660.276 298.032 659.511 298.852C658.746 299.617 657.734 300 656.477 300ZM656.477 247.848C655.001 247.848 653.716 247.329 652.623 246.29C651.584 245.197 651.065 243.912 651.065 242.436C651.065 240.96 651.584 239.703 652.623 238.664C653.716 237.571 655.001 237.024 656.477 237.024C657.953 237.024 659.21 237.571 660.249 238.664C661.342 239.703 661.889 240.96 661.889 242.436C661.889 243.912 661.342 245.197 660.249 246.29C659.21 247.329 657.953 247.848 656.477 247.848ZM695.817 300C693.084 300 690.624 299.317 688.437 297.95C686.251 296.529 684.529 294.615 683.271 292.21C682.014 289.805 681.385 287.099 681.385 284.092V244.978C681.385 243.775 681.768 242.791 682.533 242.026C683.299 241.261 684.283 240.878 685.485 240.878C686.688 240.878 687.672 241.261 688.437 242.026C689.203 242.791 689.585 243.775 689.585 244.978V284.092C689.585 286.279 690.187 288.11 691.389 289.586C692.592 291.062 694.068 291.8 695.817 291.8H698.605C699.589 291.8 700.409 292.183 701.065 292.948C701.776 293.713 702.131 294.697 702.131 295.9C702.131 297.103 701.667 298.087 700.737 298.852C699.863 299.617 698.715 300 697.293 300H695.817ZM677.613 263.838C676.465 263.838 675.536 263.51 674.825 262.854C674.115 262.198 673.759 261.378 673.759 260.394C673.759 259.301 674.115 258.426 674.825 257.77C675.536 257.114 676.465 256.786 677.613 256.786H696.555C697.703 256.786 698.633 257.114 699.343 257.77C700.054 258.426 700.409 259.301 700.409 260.394C700.409 261.378 700.054 262.198 699.343 262.854C698.633 263.51 697.703 263.838 696.555 263.838H677.613ZM720.693 300C719.491 300 718.479 299.617 717.659 298.852C716.894 298.032 716.511 297.021 716.511 295.818V259.328C716.511 258.071 716.894 257.059 717.659 256.294C718.479 255.529 719.491 255.146 720.693 255.146C721.951 255.146 722.962 255.529 723.727 256.294C724.493 257.059 724.875 258.071 724.875 259.328V295.818C724.875 297.021 724.493 298.032 723.727 298.852C722.962 299.617 721.951 300 720.693 300ZM720.693 247.848C719.217 247.848 717.933 247.329 716.839 246.29C715.801 245.197 715.281 243.912 715.281 242.436C715.281 240.96 715.801 239.703 716.839 238.664C717.933 237.571 719.217 237.024 720.693 237.024C722.169 237.024 723.427 237.571 724.465 238.664C725.559 239.703 726.105 240.96 726.105 242.436C726.105 243.912 725.559 245.197 724.465 246.29C723.427 247.329 722.169 247.848 720.693 247.848ZM760.034 300.328C756.207 300.328 752.654 299.754 749.374 298.606C746.148 297.403 743.634 295.9 741.83 294.096C741.01 293.221 740.654 292.237 740.764 291.144C740.928 289.996 741.474 289.067 742.404 288.356C743.497 287.481 744.563 287.126 745.602 287.29C746.695 287.399 747.624 287.864 748.39 288.684C749.319 289.723 750.795 290.707 752.818 291.636C754.895 292.511 757.191 292.948 759.706 292.948C762.876 292.948 765.282 292.429 766.922 291.39C768.616 290.351 769.491 289.012 769.546 287.372C769.6 285.732 768.808 284.311 767.168 283.108C765.582 281.905 762.658 280.921 758.394 280.156C752.872 279.063 748.854 277.423 746.34 275.236C743.88 273.049 742.65 270.371 742.65 267.2C742.65 264.412 743.47 262.116 745.11 260.312C746.75 258.453 748.854 257.087 751.424 256.212C753.993 255.283 756.672 254.818 759.46 254.818C763.068 254.818 766.266 255.392 769.054 256.54C771.842 257.688 774.056 259.273 775.696 261.296C776.461 262.171 776.816 263.1 776.762 264.084C776.707 265.013 776.242 265.806 775.368 266.462C774.493 267.063 773.454 267.255 772.252 267.036C771.049 266.817 770.038 266.325 769.218 265.56C767.851 264.248 766.375 263.346 764.79 262.854C763.204 262.362 761.373 262.116 759.296 262.116C756.89 262.116 754.84 262.526 753.146 263.346C751.506 264.166 750.686 265.369 750.686 266.954C750.686 267.938 750.932 268.84 751.424 269.66C751.97 270.425 753.009 271.136 754.54 271.792C756.07 272.393 758.312 272.995 761.264 273.596C765.364 274.416 768.589 275.455 770.94 276.712C773.345 277.969 775.067 279.445 776.106 281.14C777.144 282.78 777.664 284.693 777.664 286.88C777.664 289.395 776.98 291.663 775.614 293.686C774.302 295.709 772.334 297.321 769.71 298.524C767.14 299.727 763.915 300.328 760.034 300.328ZM829.403 300.082C828.2 300.082 827.189 299.699 826.369 298.934C825.604 298.114 825.221 297.103 825.221 295.9V275.728C825.221 272.612 824.647 270.07 823.499 268.102C822.351 266.134 820.793 264.685 818.825 263.756C816.912 262.772 814.698 262.28 812.183 262.28C809.887 262.28 807.81 262.745 805.951 263.674C804.092 264.603 802.616 265.861 801.523 267.446C800.43 268.977 799.883 270.753 799.883 272.776H794.717C794.717 269.332 795.537 266.271 797.177 263.592C798.872 260.859 801.168 258.699 804.065 257.114C806.962 255.529 810.215 254.736 813.823 254.736C817.595 254.736 820.957 255.556 823.909 257.196C826.916 258.781 829.266 261.132 830.961 264.248C832.71 267.364 833.585 271.191 833.585 275.728V295.9C833.585 297.103 833.175 298.114 832.355 298.934C831.59 299.699 830.606 300.082 829.403 300.082ZM795.701 300.082C794.498 300.082 793.487 299.699 792.667 298.934C791.902 298.114 791.519 297.103 791.519 295.9V259.328C791.519 258.071 791.902 257.059 792.667 256.294C793.487 255.529 794.498 255.146 795.701 255.146C796.958 255.146 797.97 255.529 798.735 256.294C799.5 257.059 799.883 258.071 799.883 259.328V295.9C799.883 297.103 799.5 298.114 798.735 298.934C797.97 299.699 796.958 300.082 795.701 300.082ZM795.701 283.682C794.498 283.682 793.487 283.299 792.667 282.534C791.902 281.714 791.519 280.703 791.519 279.5V240.14C791.519 238.883 791.902 237.871 792.667 237.106C793.487 236.341 794.498 235.958 795.701 235.958C796.958 235.958 797.97 236.341 798.735 237.106C799.5 237.871 799.883 238.883 799.883 240.14V279.5C799.883 280.703 799.5 281.714 798.735 282.534C797.97 283.299 796.958 283.682 795.701 283.682ZM871.848 300.328C867.31 300.328 863.265 299.371 859.712 297.458C856.213 295.49 853.452 292.811 851.43 289.422C849.462 285.978 848.478 282.042 848.478 277.614C848.478 273.131 849.407 269.195 851.266 265.806C853.179 262.362 855.803 259.683 859.138 257.77C862.472 255.802 866.299 254.818 870.618 254.818C874.882 254.818 878.544 255.775 881.606 257.688C884.667 259.547 886.99 262.143 888.576 265.478C890.216 268.758 891.036 272.557 891.036 276.876C891.036 277.915 890.68 278.789 889.97 279.5C889.259 280.156 888.357 280.484 887.264 280.484H854.218V273.924H887.018L883.656 276.22C883.601 273.487 883.054 271.054 882.016 268.922C880.977 266.735 879.501 265.013 877.588 263.756C875.674 262.499 873.351 261.87 870.618 261.87C867.502 261.87 864.823 262.553 862.582 263.92C860.395 265.287 858.728 267.173 857.58 269.578C856.432 271.929 855.858 274.607 855.858 277.614C855.858 280.621 856.541 283.299 857.908 285.65C859.274 288.001 861.16 289.859 863.566 291.226C865.971 292.593 868.732 293.276 871.848 293.276C873.542 293.276 875.264 292.975 877.014 292.374C878.818 291.718 880.266 290.98 881.36 290.16C882.18 289.559 883.054 289.258 883.984 289.258C884.968 289.203 885.815 289.477 886.526 290.078C887.455 290.898 887.947 291.8 888.002 292.784C888.056 293.768 887.619 294.615 886.69 295.326C884.831 296.802 882.508 298.005 879.72 298.934C876.986 299.863 874.362 300.328 871.848 300.328ZM909.001 271.956C909.001 268.676 909.794 265.751 911.379 263.182C913.019 260.558 915.206 258.481 917.939 256.95C920.673 255.419 923.679 254.654 926.959 254.654C930.239 254.654 932.672 255.201 934.257 256.294C935.897 257.333 936.526 258.59 936.143 260.066C935.979 260.831 935.651 261.433 935.159 261.87C934.722 262.253 934.203 262.499 933.601 262.608C933 262.717 932.344 262.69 931.633 262.526C928.135 261.815 924.991 261.761 922.203 262.362C919.415 262.963 917.201 264.084 915.561 265.724C913.976 267.364 913.183 269.441 913.183 271.956H909.001ZM909.083 300C907.771 300 906.76 299.672 906.049 299.016C905.339 298.305 904.983 297.267 904.983 295.9V259.246C904.983 257.934 905.339 256.923 906.049 256.212C906.76 255.501 907.771 255.146 909.083 255.146C910.45 255.146 911.461 255.501 912.117 256.212C912.828 256.868 913.183 257.879 913.183 259.246V295.9C913.183 297.212 912.828 298.223 912.117 298.934C911.461 299.645 910.45 300 909.083 300ZM566.076 380.328C562.085 380.328 558.505 379.344 555.334 377.376C552.163 375.353 549.649 372.647 547.79 369.258C545.986 365.814 545.084 361.933 545.084 357.614C545.084 353.295 546.068 349.414 548.036 345.97C550.059 342.526 552.765 339.82 556.154 337.852C559.598 335.829 563.452 334.818 567.716 334.818C571.98 334.818 575.807 335.829 579.196 337.852C582.585 339.82 585.264 342.526 587.232 345.97C589.255 349.414 590.266 353.295 590.266 357.614H587.068C587.068 361.933 586.139 365.814 584.28 369.258C582.476 372.647 579.989 375.353 576.818 377.376C573.647 379.344 570.067 380.328 566.076 380.328ZM567.716 372.948C570.504 372.948 572.991 372.292 575.178 370.98C577.365 369.613 579.087 367.782 580.344 365.486C581.601 363.135 582.23 360.511 582.23 357.614C582.23 354.662 581.601 352.038 580.344 349.742C579.087 347.391 577.365 345.56 575.178 344.248C572.991 342.881 570.504 342.198 567.716 342.198C564.983 342.198 562.495 342.881 560.254 344.248C558.067 345.56 556.318 347.391 555.006 349.742C553.749 352.038 553.12 354.662 553.12 357.614C553.12 360.511 553.749 363.135 555.006 365.486C556.318 367.782 558.067 369.613 560.254 370.98C562.495 372.292 564.983 372.948 567.716 372.948ZM586.084 380.082C584.881 380.082 583.87 379.699 583.05 378.934C582.285 378.114 581.902 377.103 581.902 375.9V363.354L583.46 354.662L590.266 357.614V375.9C590.266 377.103 589.856 378.114 589.036 378.934C588.271 379.699 587.287 380.082 586.084 380.082ZM623.05 380.328C618.677 380.328 614.768 379.344 611.324 377.376C607.935 375.353 605.256 372.647 603.288 369.258C601.375 365.814 600.418 361.933 600.418 357.614C600.418 353.186 601.375 349.25 603.288 345.806C605.201 342.362 607.825 339.683 611.16 337.77C614.495 335.802 618.321 334.818 622.64 334.818C625.865 334.818 628.817 335.447 631.496 336.704C634.175 337.907 636.58 339.738 638.712 342.198C639.477 343.073 639.751 343.975 639.532 344.904C639.313 345.833 638.712 346.653 637.728 347.364C636.963 347.911 636.115 348.102 635.186 347.938C634.257 347.719 633.409 347.227 632.644 346.462C629.965 343.619 626.631 342.198 622.64 342.198C619.852 342.198 617.392 342.854 615.26 344.166C613.128 345.423 611.461 347.2 610.258 349.496C609.055 351.792 608.454 354.498 608.454 357.614C608.454 360.566 609.055 363.19 610.258 365.486C611.515 367.782 613.237 369.613 615.424 370.98C617.611 372.292 620.153 372.948 623.05 372.948C624.963 372.948 626.631 372.729 628.052 372.292C629.528 371.8 630.867 371.062 632.07 370.078C632.945 369.367 633.847 368.985 634.776 368.93C635.705 368.821 636.525 369.067 637.236 369.668C638.165 370.433 638.685 371.308 638.794 372.292C638.903 373.221 638.575 374.069 637.81 374.834C633.874 378.497 628.954 380.328 623.05 380.328ZM670.658 380.328C666.667 380.328 663.087 379.344 659.916 377.376C656.745 375.353 654.231 372.647 652.372 369.258C650.568 365.814 649.666 361.933 649.666 357.614C649.666 353.295 650.65 349.414 652.618 345.97C654.641 342.526 657.347 339.82 660.736 337.852C664.18 335.829 668.034 334.818 672.298 334.818C676.562 334.818 680.389 335.829 683.778 337.852C687.167 339.82 689.846 342.526 691.814 345.97C693.837 349.414 694.848 353.295 694.848 357.614H691.65C691.65 361.933 690.721 365.814 688.862 369.258C687.058 372.647 684.571 375.353 681.4 377.376C678.229 379.344 674.649 380.328 670.658 380.328ZM672.298 372.948C675.086 372.948 677.573 372.292 679.76 370.98C681.947 369.613 683.669 367.782 684.926 365.486C686.183 363.135 686.812 360.511 686.812 357.614C686.812 354.662 686.183 352.038 684.926 349.742C683.669 347.391 681.947 345.56 679.76 344.248C677.573 342.881 675.086 342.198 672.298 342.198C669.565 342.198 667.077 342.881 664.836 344.248C662.649 345.56 660.9 347.391 659.588 349.742C658.331 352.038 657.702 354.662 657.702 357.614C657.702 360.511 658.331 363.135 659.588 365.486C660.9 367.782 662.649 369.613 664.836 370.98C667.077 372.292 669.565 372.948 672.298 372.948ZM690.666 380.082C689.463 380.082 688.452 379.699 687.632 378.934C686.867 378.114 686.484 377.103 686.484 375.9V363.354L688.042 354.662L694.848 357.614V375.9C694.848 377.103 694.438 378.114 693.618 378.934C692.853 379.699 691.869 380.082 690.666 380.082ZM727.632 380.328C723.368 380.328 719.514 379.344 716.07 377.376C712.681 375.353 709.975 372.62 707.952 369.176C705.984 365.732 705 361.851 705 357.532C705 353.213 705.902 349.359 707.706 345.97C709.565 342.526 712.079 339.82 715.25 337.852C718.421 335.829 722.001 334.818 725.992 334.818C729.217 334.818 732.197 335.501 734.93 336.868C737.663 338.18 739.959 339.984 741.818 342.28V320.14C741.818 318.883 742.201 317.871 742.966 317.106C743.786 316.341 744.797 315.958 746 315.958C747.257 315.958 748.269 316.341 749.034 317.106C749.799 317.871 750.182 318.883 750.182 320.14V357.532C750.182 361.851 749.171 365.732 747.148 369.176C745.18 372.62 742.501 375.353 739.112 377.376C735.723 379.344 731.896 380.328 727.632 380.328ZM727.632 372.948C730.42 372.948 732.907 372.292 735.094 370.98C737.281 369.613 739.003 367.755 740.26 365.404C741.517 363.053 742.146 360.429 742.146 357.532C742.146 354.58 741.517 351.956 740.26 349.66C739.003 347.364 737.281 345.56 735.094 344.248C732.907 342.881 730.42 342.198 727.632 342.198C724.899 342.198 722.411 342.881 720.17 344.248C717.983 345.56 716.234 347.364 714.922 349.66C713.665 351.956 713.036 354.58 713.036 357.532C713.036 360.429 713.665 363.053 714.922 365.404C716.234 367.755 717.983 369.613 720.17 370.98C722.411 372.292 724.899 372.948 727.632 372.948ZM786.026 380.328C781.489 380.328 777.444 379.371 773.89 377.458C770.392 375.49 767.631 372.811 765.608 369.422C763.64 365.978 762.656 362.042 762.656 357.614C762.656 353.131 763.586 349.195 765.444 345.806C767.358 342.362 769.982 339.683 773.316 337.77C776.651 335.802 780.478 334.818 784.796 334.818C789.06 334.818 792.723 335.775 795.784 337.688C798.846 339.547 801.169 342.143 802.754 345.478C804.394 348.758 805.214 352.557 805.214 356.876C805.214 357.915 804.859 358.789 804.148 359.5C803.438 360.156 802.536 360.484 801.442 360.484H768.396V353.924H801.196L797.834 356.22C797.78 353.487 797.233 351.054 796.194 348.922C795.156 346.735 793.68 345.013 791.766 343.756C789.853 342.499 787.53 341.87 784.796 341.87C781.68 341.87 779.002 342.553 776.76 343.92C774.574 345.287 772.906 347.173 771.758 349.578C770.61 351.929 770.036 354.607 770.036 357.614C770.036 360.621 770.72 363.299 772.086 365.65C773.453 368.001 775.339 369.859 777.744 371.226C780.15 372.593 782.91 373.276 786.026 373.276C787.721 373.276 789.443 372.975 791.192 372.374C792.996 371.718 794.445 370.98 795.538 370.16C796.358 369.559 797.233 369.258 798.162 369.258C799.146 369.203 799.994 369.477 800.704 370.078C801.634 370.898 802.126 371.8 802.18 372.784C802.235 373.768 801.798 374.615 800.868 375.326C799.01 376.802 796.686 378.005 793.898 378.934C791.165 379.863 788.541 380.328 786.026 380.328ZM874.758 380.082C873.555 380.082 872.544 379.699 871.724 378.934C870.959 378.114 870.576 377.103 870.576 375.9V352.448C870.576 349.004 869.729 346.462 868.034 344.822C866.339 343.127 864.125 342.28 861.392 342.28C858.549 342.28 856.199 343.264 854.34 345.232C852.536 347.2 851.634 349.715 851.634 352.776H844.828C844.828 349.223 845.593 346.107 847.124 343.428C848.655 340.695 850.787 338.563 853.52 337.032C856.308 335.501 859.479 334.736 863.032 334.736C866.148 334.736 868.909 335.419 871.314 336.786C873.719 338.153 875.578 340.175 876.89 342.854C878.257 345.478 878.94 348.676 878.94 352.448V375.9C878.94 377.103 878.557 378.114 877.792 378.934C877.027 379.699 876.015 380.082 874.758 380.082ZM820.064 380.082C818.861 380.082 817.85 379.699 817.03 378.934C816.265 378.114 815.882 377.103 815.882 375.9V339.41C815.882 338.153 816.265 337.141 817.03 336.376C817.85 335.611 818.861 335.228 820.064 335.228C821.321 335.228 822.333 335.611 823.098 336.376C823.863 337.141 824.246 338.153 824.246 339.41V375.9C824.246 377.103 823.863 378.114 823.098 378.934C822.333 379.699 821.321 380.082 820.064 380.082ZM847.452 380.082C846.249 380.082 845.238 379.699 844.418 378.934C843.653 378.114 843.27 377.103 843.27 375.9V352.448C843.27 349.004 842.423 346.462 840.728 344.822C839.033 343.127 836.819 342.28 834.086 342.28C831.243 342.28 828.893 343.264 827.034 345.232C825.175 347.2 824.246 349.715 824.246 352.776H819.08C819.08 349.223 819.791 346.107 821.212 343.428C822.633 340.695 824.601 338.563 827.116 337.032C829.631 335.501 832.501 334.736 835.726 334.736C838.842 334.736 841.603 335.419 844.008 336.786C846.413 338.153 848.272 340.175 849.584 342.854C850.951 345.478 851.634 348.676 851.634 352.448V375.9C851.634 377.103 851.251 378.114 850.486 378.934C849.721 379.699 848.709 380.082 847.452 380.082ZM900.873 399.68C900.326 399.68 899.67 399.516 898.905 399.188C896.5 398.095 895.844 396.373 896.937 394.022L921.947 337.524C923.04 335.228 924.762 334.572 927.113 335.556C929.573 336.595 930.256 338.317 929.163 340.722L904.071 397.138C903.415 398.833 902.349 399.68 900.873 399.68ZM910.549 378.196C909.51 378.633 908.526 378.688 907.597 378.36C906.722 377.977 906.012 377.267 905.465 376.228L886.687 340.558C886.14 339.519 886.058 338.535 886.441 337.606C886.878 336.622 887.616 335.911 888.655 335.474C889.694 335.037 890.678 335.009 891.607 335.392C892.536 335.72 893.247 336.403 893.739 337.442L911.697 373.112C912.244 374.151 912.435 375.162 912.271 376.146C912.162 377.075 911.588 377.759 910.549 378.196Z" fill="#FAFAFA"/>
<path d="M482.576 201.721C446.603 184.686 407.279 175.899 367.476 176.001C327.409 175.902 287.832 184.805 251.666 202.051C247.143 204.196 243.407 207.706 240.985 212.087C238.563 216.469 237.577 221.5 238.166 226.471C248.213 310.003 288.401 386.996 351.186 443.001C355.572 446.922 361.248 449.09 367.131 449.09C373.014 449.09 378.691 446.922 383.076 443.001C445.945 386.922 486.153 309.802 496.136 226.151C496.725 221.171 495.732 216.132 493.298 211.748C490.865 207.364 487.114 203.856 482.576 201.721V201.721ZM478.396 224.001C468.941 303.349 430.804 376.503 371.166 429.691C370.062 430.694 368.623 431.25 367.131 431.25C365.639 431.25 364.201 430.694 363.096 429.691C303.549 376.583 265.431 303.568 255.896 224.351C255.754 223.091 256.01 221.818 256.629 220.711C257.247 219.604 258.198 218.719 259.346 218.181C274.552 210.926 290.453 205.23 306.806 201.181C307.565 200.997 308.356 200.987 309.119 201.152C309.882 201.316 310.598 201.652 311.212 202.133C311.827 202.614 312.325 203.228 312.669 203.929C313.012 204.63 313.193 205.4 313.196 206.181V298.801C313.199 311.158 317.243 323.175 324.71 333.021C332.178 342.866 342.66 350 354.558 353.335C366.457 356.67 379.12 356.023 390.616 351.492C402.113 346.962 411.813 338.796 418.237 328.241C424.662 317.685 427.459 305.318 426.203 293.025C424.946 280.732 419.704 269.187 411.276 260.15C402.848 251.113 391.697 245.079 379.521 242.969C367.346 240.859 354.814 242.787 343.836 248.461C342.478 249.14 340.969 249.459 339.452 249.388C337.935 249.317 336.462 248.859 335.173 248.056C333.884 247.254 332.822 246.134 332.089 244.804C331.356 243.475 330.977 241.979 330.986 240.461V204.291C330.988 202.167 331.748 200.114 333.131 198.502C334.514 196.89 336.428 195.825 338.526 195.501L339.086 195.431C348.503 194.378 357.971 193.854 367.446 193.861C404.606 193.762 441.319 201.962 474.906 217.861C476.063 218.384 477.023 219.26 477.65 220.363C478.278 221.466 478.539 222.74 478.396 224.001V224.001ZM330.996 296.771C331.389 289.264 333.95 282.031 338.369 275.95C342.788 269.868 348.875 265.198 355.893 262.504C362.911 259.811 370.56 259.21 377.913 260.774C385.266 262.338 392.008 266 397.322 271.317C402.637 276.634 406.296 283.378 407.856 290.732C409.417 298.085 408.812 305.734 406.115 312.751C403.418 319.768 398.745 325.853 392.661 330.269C386.577 334.684 379.344 337.242 371.836 337.631C366.402 337.894 360.972 337.017 355.897 335.057C350.821 333.096 346.212 330.095 342.366 326.247C338.519 322.399 335.521 317.788 333.563 312.712C331.605 307.635 330.731 302.205 330.996 296.771V296.771Z" fill="url(#paint0_linear_12_26)"/>
<defs>
<linearGradient id="paint0_linear_12_26" x1="455.236" y1="401.931" x2="317.756" y2="163.801" gradientUnits="userSpaceOnUse">
<stop stop-color="#3A0CA3"/>
<stop offset="1" stop-color="#4CC9F0"/>
</linearGradient>
</defs>
</svg>
