<svg width="1375" height="1090" viewBox="0 0 1375 1090" fill="none" xmlns="http://www.w3.org/2000/svg">
<g opacity="0.5">
<path opacity="0.5" d="M1056.41 415.406C1056.41 415.406 1056.41 415.655 1056.41 415.406C1056.41 415.655 1056.41 415.655 1056.41 415.406C1056.16 415.655 1056.41 415.655 1056.41 415.406C1056.41 415.406 1056.16 415.655 1056.41 415.406Z" fill="#2A5C8E"/>
<path opacity="0.5" d="M1084.12 415.406C1084.37 415.406 1084.37 415.656 1084.37 415.656C1084.37 415.905 1084.12 415.905 1084.12 415.905C1083.87 415.905 1083.87 415.656 1083.87 415.656C1083.62 415.406 1083.87 415.406 1084.12 415.406Z" fill="#2A5C8E"/>
<path opacity="0.5" d="M1111.84 414.907C1112.09 414.907 1112.34 415.156 1112.34 415.406C1112.34 415.656 1112.09 415.905 1111.84 415.905C1111.59 415.905 1111.34 415.656 1111.34 415.406C1111.09 415.156 1111.34 414.907 1111.84 414.907Z" fill="#2A5C8E"/>
<path opacity="0.5" d="M1139.55 414.657C1140.05 414.657 1140.3 415.156 1140.3 415.406C1140.3 415.656 1139.8 416.155 1139.55 416.155C1139.05 416.155 1138.8 415.656 1138.8 415.406C1138.8 415.156 1139.05 414.657 1139.55 414.657Z" fill="#2A5C8E"/>
<path opacity="0.5" d="M1167.27 414.657C1167.77 414.657 1168.02 415.156 1168.02 415.406C1168.02 415.656 1167.52 416.155 1167.27 416.155C1166.77 416.155 1166.52 415.656 1166.52 415.406C1166.52 415.156 1166.77 414.657 1167.27 414.657Z" fill="#2A5C8E"/>
<path opacity="0.5" d="M1194.73 414.907C1195.15 414.907 1195.48 415.242 1195.48 415.656C1195.48 416.069 1195.15 416.405 1194.73 416.405C1194.32 416.405 1193.98 416.069 1193.98 415.656C1193.98 415.242 1194.32 414.907 1194.73 414.907Z" fill="#2A5C8E"/>
<path opacity="0.5" d="M1222.45 415.156C1222.7 415.156 1222.95 415.406 1222.95 415.656C1222.95 415.905 1222.7 416.155 1222.45 416.155C1222.2 416.155 1221.95 415.905 1221.95 415.656C1222.2 415.406 1222.45 415.156 1222.45 415.156Z" fill="#2A5C8E"/>
<path opacity="0.5" d="M1250.16 415.406C1250.41 415.406 1250.41 415.655 1250.16 415.406C1250.41 415.655 1250.41 415.655 1250.16 415.406C1250.16 415.655 1250.16 415.655 1250.16 415.406C1250.16 415.406 1250.16 415.655 1250.16 415.406Z" fill="#2A5C8E"/>
<path opacity="0.5" d="M1042.43 387.446C1042.68 387.446 1042.93 387.696 1042.93 387.945C1042.93 388.195 1042.68 388.445 1042.43 388.445C1042.18 388.445 1041.93 388.195 1041.93 387.945C1041.93 387.696 1042.18 387.446 1042.43 387.446Z" fill="#2A5C8E"/>
<path opacity="0.5" d="M1070.14 386.697C1070.89 386.697 1071.39 387.196 1071.39 387.945C1071.39 388.694 1070.89 389.193 1070.14 389.193C1069.39 389.193 1068.89 388.694 1068.89 387.945C1068.89 387.196 1069.39 386.697 1070.14 386.697Z" fill="#2A5C8E"/>
<path opacity="0.5" d="M1097.86 386.198C1098.85 386.198 1099.6 386.947 1099.6 387.945C1099.6 388.944 1098.85 389.693 1097.86 389.693C1096.86 389.693 1096.11 388.944 1096.11 387.945C1096.11 386.947 1096.86 386.198 1097.86 386.198Z" fill="#2A5C8E"/>
<path opacity="0.5" d="M1125.57 385.948C1126.67 385.948 1127.57 386.842 1127.57 387.945C1127.57 389.048 1126.67 389.942 1125.57 389.942C1124.47 389.942 1123.57 389.048 1123.57 387.945C1123.57 386.842 1124.47 385.948 1125.57 385.948Z" fill="#2A5C8E"/>
<path opacity="0.5" d="M1153.28 385.698C1154.53 385.698 1155.53 386.697 1155.53 387.945C1155.53 389.193 1154.53 390.192 1153.28 390.192C1152.04 390.192 1151.04 389.193 1151.04 387.945C1151.04 386.697 1152.04 385.698 1153.28 385.698Z" fill="#2A5C8E"/>
<path opacity="0.5" d="M1181 385.948C1182.1 385.948 1183 386.842 1183 387.945C1183 389.048 1182.1 389.942 1181 389.942C1179.9 389.942 1179 389.048 1179 387.945C1179 386.842 1179.9 385.948 1181 385.948Z" fill="#2A5C8E"/>
<path opacity="0.5" d="M1208.71 386.198C1209.68 386.198 1210.46 386.98 1210.46 387.945C1210.46 388.91 1209.68 389.693 1208.71 389.693C1207.75 389.693 1206.97 388.91 1206.97 387.945C1206.97 386.98 1207.75 386.198 1208.71 386.198Z" fill="#2A5C8E"/>
<path opacity="0.5" d="M1236.43 386.697C1237.18 386.697 1237.68 387.196 1237.68 387.945C1237.68 388.694 1237.18 389.193 1236.43 389.193C1235.68 389.193 1235.18 388.694 1235.18 387.945C1235.18 387.196 1235.68 386.697 1236.43 386.697Z" fill="#2A5C8E"/>
<path opacity="0.5" d="M1264.14 387.196C1264.39 387.196 1264.64 387.446 1264.64 387.696C1264.64 387.945 1264.39 388.195 1264.14 388.195C1263.89 388.195 1263.64 387.945 1263.64 387.696C1263.39 387.446 1263.64 387.196 1264.14 387.196Z" fill="#2A5C8E"/>
<path opacity="0.5" d="M1000.98 359.985C1001.12 359.985 1001.23 360.097 1001.23 360.235C1001.23 360.373 1001.12 360.484 1000.98 360.484C1000.84 360.484 1000.73 360.373 1000.73 360.235C1000.73 360.097 1000.84 359.985 1000.98 359.985Z" fill="#2A5C8E"/>
<path opacity="0.5" d="M1028.69 358.987C1029.38 358.987 1029.94 359.546 1029.94 360.235C1029.94 360.924 1029.38 361.483 1028.69 361.483C1028.01 361.483 1027.45 360.924 1027.45 360.235C1027.45 359.546 1028.01 358.987 1028.69 358.987Z" fill="#2A5C8E"/>
<path opacity="0.5" d="M1056.41 358.238C1057.51 358.238 1058.41 359.132 1058.41 360.235C1058.41 361.338 1057.51 362.232 1056.41 362.232C1055.31 362.232 1054.41 361.338 1054.41 360.235C1054.41 359.132 1055.31 358.238 1056.41 358.238Z" fill="#2A5C8E"/>
<path opacity="0.5" d="M1084.12 357.489C1085.62 357.489 1086.87 358.737 1086.87 360.235C1086.87 361.733 1085.62 362.981 1084.12 362.981C1082.63 362.981 1081.38 361.733 1081.38 360.235C1081.38 358.737 1082.63 357.489 1084.12 357.489Z" fill="#2A5C8E"/>
<path opacity="0.5" d="M1111.84 356.99C1113.63 356.99 1115.08 358.443 1115.08 360.235C1115.08 362.027 1113.63 363.48 1111.84 363.48C1110.05 363.48 1108.59 362.027 1108.59 360.235C1108.59 358.443 1110.05 356.99 1111.84 356.99Z" fill="#2A5C8E"/>
<path opacity="0.5" d="M1139.55 356.74C1141.48 356.74 1143.05 358.305 1143.05 360.235C1143.05 362.165 1141.48 363.73 1139.55 363.73C1137.62 363.73 1136.06 362.165 1136.06 360.235C1136.06 358.305 1137.62 356.74 1139.55 356.74Z" fill="#2A5C8E"/>
<path opacity="0.5" d="M1167.27 356.74C1169.2 356.74 1170.76 358.305 1170.76 360.235C1170.76 362.165 1169.2 363.73 1167.27 363.73C1165.34 363.73 1163.77 362.165 1163.77 360.235C1163.77 358.305 1165.34 356.74 1167.27 356.74Z" fill="#2A5C8E"/>
<path opacity="0.5" d="M1194.73 356.99C1196.52 356.99 1197.98 358.443 1197.98 360.235C1197.98 362.027 1196.52 363.48 1194.73 363.48C1192.94 363.48 1191.49 362.027 1191.49 360.235C1191.49 358.443 1192.94 356.99 1194.73 356.99Z" fill="#2A5C8E"/>
<path opacity="0.5" d="M1222.45 357.489C1223.96 357.489 1225.19 358.718 1225.19 360.235C1225.19 361.751 1223.96 362.981 1222.45 362.981C1220.93 362.981 1219.7 361.751 1219.7 360.235C1219.7 358.718 1220.93 357.489 1222.45 357.489Z" fill="#2A5C8E"/>
<path opacity="0.5" d="M1250.16 358.238C1251.41 358.238 1252.16 359.236 1252.16 360.235C1252.16 361.233 1251.16 362.232 1250.16 362.232C1248.91 362.232 1248.16 361.233 1248.16 360.235C1248.16 359.236 1249.16 358.238 1250.16 358.238Z" fill="#2A5C8E"/>
<path opacity="0.5" d="M1277.87 358.987C1278.62 358.987 1279.12 359.486 1279.12 360.235C1279.12 360.984 1278.62 361.483 1277.87 361.483C1277.13 361.483 1276.63 360.984 1276.63 360.235C1276.63 359.486 1277.38 358.987 1277.87 358.987Z" fill="#2A5C8E"/>
<path opacity="0.5" d="M1305.59 359.736C1305.87 359.736 1306.09 359.959 1306.09 360.235C1306.09 360.511 1305.87 360.734 1305.59 360.734C1305.31 360.734 1305.09 360.511 1305.09 360.235C1305.09 359.959 1305.31 359.736 1305.59 359.736Z" fill="#2A5C8E"/>
<path opacity="0.5" d="M986.998 332.025C987.248 332.025 987.498 332.275 987.498 332.524C987.498 332.774 987.248 333.024 986.998 333.024C986.749 333.024 986.499 332.774 986.499 332.524C986.499 332.275 986.749 332.025 986.998 332.025Z" fill="#2A5C8E"/>
<path opacity="0.5" d="M1014.71 331.027C1015.54 331.027 1016.21 331.697 1016.21 332.524C1016.21 333.352 1015.54 334.022 1014.71 334.022C1013.89 334.022 1013.21 333.352 1013.21 332.524C1013.21 331.697 1013.89 331.027 1014.71 331.027Z" fill="#2A5C8E"/>
<path opacity="0.5" d="M1042.43 330.028C1043.81 330.028 1044.92 331.146 1044.92 332.525C1044.92 333.903 1043.81 335.021 1042.43 335.021C1041.05 335.021 1039.93 333.903 1039.93 332.525C1039.93 331.146 1041.05 330.028 1042.43 330.028Z" fill="#2A5C8E"/>
<path opacity="0.5" d="M1070.14 329.03C1072.07 329.03 1073.64 330.594 1073.64 332.525C1073.64 334.455 1072.07 336.02 1070.14 336.02C1068.21 336.02 1066.65 334.455 1066.65 332.525C1066.65 330.594 1068.21 329.03 1070.14 329.03Z" fill="#2A5C8E"/>
<path opacity="0.5" d="M1097.86 328.53C1100.1 328.53 1101.85 330.278 1101.85 332.524C1101.85 334.771 1100.1 336.519 1097.86 336.519C1095.61 336.519 1093.86 334.771 1093.86 332.524C1093.86 330.278 1095.61 328.53 1097.86 328.53Z" fill="#2A5C8E"/>
<path opacity="0.5" d="M1125.57 328.031C1128.05 328.031 1130.06 330.043 1130.06 332.525C1130.06 335.006 1128.05 337.018 1125.57 337.018C1123.09 337.018 1121.08 335.006 1121.08 332.525C1121.08 330.043 1123.09 328.031 1125.57 328.031Z" fill="#2A5C8E"/>
<path opacity="0.5" d="M1153.28 327.781C1155.9 327.781 1158.03 329.905 1158.03 332.524C1158.03 335.144 1155.9 337.268 1153.28 337.268C1150.66 337.268 1148.54 335.144 1148.54 332.524C1148.54 329.905 1150.66 327.781 1153.28 327.781Z" fill="#2A5C8E"/>
<path opacity="0.5" d="M1181 327.781C1183.5 327.781 1185.49 329.778 1185.49 332.275C1185.49 334.771 1183.5 336.768 1181 336.768C1178.5 336.768 1176.5 335.021 1176.5 332.524C1176.5 330.028 1178.5 327.781 1181 327.781Z" fill="#2A5C8E"/>
<path opacity="0.5" d="M1208.71 328.281C1210.96 328.281 1212.96 330.028 1212.96 332.524C1212.96 334.771 1211.21 336.768 1208.71 336.768C1206.47 336.768 1204.47 335.021 1204.47 332.524C1204.47 330.278 1206.47 328.281 1208.71 328.281Z" fill="#2A5C8E"/>
<path opacity="0.5" d="M1236.43 329.03C1238.43 329.03 1239.92 330.527 1239.92 332.525C1239.92 334.522 1238.43 336.02 1236.43 336.02C1234.43 336.02 1232.93 334.522 1232.93 332.525C1232.93 330.527 1234.43 329.03 1236.43 329.03Z" fill="#2A5C8E"/>
<path opacity="0.5" d="M1264.14 329.778C1265.64 329.778 1266.64 331.027 1266.64 332.275C1266.64 333.523 1265.39 334.771 1264.14 334.771C1262.64 334.771 1261.65 333.523 1261.65 332.275C1261.65 331.027 1262.64 329.778 1264.14 329.778Z" fill="#2A5C8E"/>
<path opacity="0.5" d="M1291.86 330.777C1292.86 330.777 1293.6 331.526 1293.6 332.524C1293.6 333.523 1292.86 334.272 1291.86 334.272C1290.86 334.272 1290.11 333.523 1290.11 332.524C1290.11 331.526 1290.86 330.777 1291.86 330.777Z" fill="#2A5C8E"/>
<path opacity="0.5" d="M1319.57 331.776C1319.98 331.776 1320.32 332.111 1320.32 332.525C1320.32 332.938 1319.98 333.273 1319.57 333.273C1319.16 333.273 1318.82 332.938 1318.82 332.525C1318.82 332.111 1319.16 331.776 1319.57 331.776Z" fill="#2A5C8E"/>
<path opacity="0.5" d="M973.266 304.315C973.516 304.315 973.765 304.564 973.765 304.814C973.765 305.064 973.516 305.313 973.266 305.313C973.016 305.313 972.767 305.064 972.767 304.814C972.517 304.564 973.016 304.315 973.266 304.315Z" fill="#2A5C8E"/>
<path opacity="0.5" d="M1000.98 303.067C1001.98 303.067 1002.73 303.815 1002.73 304.814C1002.73 305.813 1001.98 306.562 1000.98 306.562C999.982 306.562 999.233 305.813 999.233 304.814C999.233 303.815 999.982 303.067 1000.98 303.067Z" fill="#2A5C8E"/>
<path opacity="0.5" d="M1028.69 301.818C1030.19 301.818 1031.69 303.067 1031.69 304.814C1031.69 306.312 1030.44 307.81 1028.69 307.81C1027.2 307.81 1025.7 306.562 1025.7 304.814C1025.7 303.316 1026.95 301.818 1028.69 301.818Z" fill="#2A5C8E"/>
<path opacity="0.5" d="M1056.41 300.82C1058.66 300.82 1060.4 302.567 1060.4 304.814C1060.4 307.061 1058.66 308.808 1056.41 308.808C1054.16 308.808 1052.41 307.061 1052.41 304.814C1052.41 302.567 1054.16 300.82 1056.41 300.82Z" fill="#2A5C8E"/>
<path opacity="0.5" d="M1084.12 300.071C1086.87 300.071 1088.87 302.318 1088.87 304.814C1088.87 307.56 1086.62 309.557 1084.12 309.557C1081.38 309.557 1079.38 307.311 1079.38 304.814C1079.13 302.068 1081.38 300.071 1084.12 300.071Z" fill="#2A5C8E"/>
<path opacity="0.5" d="M1111.84 299.322C1114.83 299.322 1117.33 301.818 1117.33 304.814C1117.33 307.81 1114.83 310.306 1111.84 310.306C1108.84 310.306 1106.35 307.81 1106.35 304.814C1106.1 301.818 1108.59 299.322 1111.84 299.322Z" fill="#2A5C8E"/>
<path opacity="0.5" d="M1139.55 298.823C1142.8 298.823 1145.54 301.569 1145.54 304.814C1145.54 308.059 1142.8 310.805 1139.55 310.805C1136.31 310.805 1133.56 308.059 1133.56 304.814C1133.56 301.569 1136.06 298.823 1139.55 298.823Z" fill="#2A5C8E"/>
<path opacity="0.5" d="M1167.27 298.823C1170.51 298.823 1173.26 301.569 1173.26 304.814C1173.26 308.059 1170.51 310.805 1167.27 310.805C1164.02 310.805 1161.27 308.059 1161.27 304.814C1161.27 301.569 1163.77 298.823 1167.27 298.823Z" fill="#2A5C8E"/>
<path opacity="0.5" d="M1194.73 299.322C1197.73 299.322 1200.22 301.818 1200.22 304.814C1200.22 307.81 1197.73 310.306 1194.73 310.306C1191.74 310.306 1189.24 307.81 1189.24 304.814C1189.24 301.818 1191.74 299.322 1194.73 299.322Z" fill="#2A5C8E"/>
<path opacity="0.5" d="M1222.45 299.821C1225.19 299.821 1227.44 302.068 1227.44 304.814C1227.44 307.56 1225.19 309.807 1222.45 309.807C1219.7 309.807 1217.45 307.56 1217.45 304.814C1217.7 302.068 1219.95 299.821 1222.45 299.821Z" fill="#2A5C8E"/>
<path opacity="0.5" d="M1250.16 300.82C1252.41 300.82 1254.16 302.567 1254.16 304.814C1254.16 307.061 1252.41 308.808 1250.16 308.808C1247.91 308.808 1246.17 307.061 1246.17 304.814C1246.17 302.567 1248.16 300.82 1250.16 300.82Z" fill="#2A5C8E"/>
<path opacity="0.5" d="M1277.88 301.818C1279.62 301.818 1280.87 303.067 1280.87 304.814C1280.87 306.562 1279.62 307.81 1277.88 307.81C1276.13 307.81 1274.88 306.562 1274.88 304.814C1274.88 303.067 1276.38 301.818 1277.88 301.818Z" fill="#2A5C8E"/>
<path opacity="0.5" d="M1305.59 303.067C1306.59 303.067 1307.34 303.815 1307.34 304.814C1307.34 305.813 1306.59 306.562 1305.59 306.562C1304.59 306.562 1303.84 305.813 1303.84 304.814C1303.84 303.815 1304.59 303.067 1305.59 303.067Z" fill="#2A5C8E"/>
<path opacity="0.5" d="M1333.3 304.065C1333.8 304.065 1334.05 304.315 1334.05 304.814C1334.05 305.313 1333.8 305.563 1333.3 305.563C1332.8 305.563 1332.55 305.313 1332.55 304.814C1332.55 304.315 1333.05 304.065 1333.3 304.065Z" fill="#2A5C8E"/>
<path opacity="0.5" d="M959.284 276.604C959.56 276.604 959.783 276.828 959.783 277.104C959.783 277.379 959.56 277.603 959.284 277.603C959.008 277.603 958.785 277.379 958.785 277.104C958.785 276.828 959.008 276.604 959.284 276.604Z" fill="#2A5C8E"/>
<path opacity="0.5" d="M986.999 275.356C987.998 275.356 988.747 276.105 988.747 277.104C988.747 278.102 987.998 278.851 986.999 278.851C986 278.851 985.251 278.102 985.251 277.104C985.501 276.105 986.25 275.356 986.999 275.356Z" fill="#2A5C8E"/>
<path opacity="0.5" d="M1014.71 274.108C1016.37 274.108 1017.71 275.449 1017.71 277.104C1017.71 278.758 1016.37 280.099 1014.71 280.099C1013.06 280.099 1011.72 278.758 1011.72 277.104C1011.72 275.449 1013.06 274.108 1014.71 274.108Z" fill="#2A5C8E"/>
<path opacity="0.5" d="M1042.43 273.109C1044.63 273.109 1046.42 274.898 1046.42 277.104C1046.42 279.31 1044.63 281.098 1042.43 281.098C1040.22 281.098 1038.43 279.31 1038.43 277.104C1038.43 274.898 1040.22 273.109 1042.43 273.109Z" fill="#2A5C8E"/>
<path opacity="0.5" d="M1070.14 271.861C1073.04 271.861 1075.39 274.208 1075.39 277.104C1075.39 279.999 1073.04 282.346 1070.14 282.346C1067.25 282.346 1064.9 279.999 1064.9 277.104C1064.9 274.208 1067.25 271.861 1070.14 271.861Z" fill="#2A5C8E"/>
<path opacity="0.5" d="M1097.86 270.863C1101.35 270.863 1104.1 273.609 1104.1 277.104C1104.1 280.599 1101.35 283.345 1097.86 283.345C1094.36 283.345 1091.61 280.599 1091.61 277.104C1091.61 273.609 1094.36 270.863 1097.86 270.863Z" fill="#2A5C8E"/>
<path opacity="0.5" d="M1125.57 270.114C1129.32 270.114 1132.56 273.359 1132.56 277.104C1132.56 280.848 1129.32 284.094 1125.57 284.094C1121.83 284.094 1118.58 280.848 1118.58 277.104C1118.58 273.359 1121.83 270.114 1125.57 270.114Z" fill="#2A5C8E"/>
<path opacity="0.5" d="M1153.28 269.864C1157.28 269.864 1160.53 273.109 1160.53 277.104C1160.53 281.098 1157.28 284.343 1153.28 284.343C1149.29 284.343 1146.04 281.098 1146.04 277.104C1146.04 273.109 1149.29 269.864 1153.28 269.864Z" fill="#2A5C8E"/>
<path opacity="0.5" d="M1181 270.114C1184.99 270.114 1187.99 273.359 1187.99 277.104C1187.99 281.098 1184.74 284.094 1181 284.094C1177.25 284.094 1174.01 280.848 1174.01 277.104C1174.01 273.109 1177 270.114 1181 270.114Z" fill="#2A5C8E"/>
<path opacity="0.5" d="M1208.71 270.863C1212.21 270.863 1214.96 273.609 1214.96 277.104C1214.96 280.599 1212.21 283.345 1208.71 283.345C1205.22 283.345 1202.47 280.599 1202.47 277.104C1202.47 273.609 1205.22 270.863 1208.71 270.863Z" fill="#2A5C8E"/>
<path opacity="0.5" d="M1236.43 271.861C1239.42 271.861 1241.67 274.358 1241.67 277.104C1241.67 280.099 1239.17 282.346 1236.43 282.346C1233.43 282.346 1231.18 279.85 1231.18 277.104C1231.18 274.108 1233.43 271.861 1236.43 271.861Z" fill="#2A5C8E"/>
<path opacity="0.5" d="M1264.14 272.86C1266.39 272.86 1268.39 274.857 1268.39 277.104C1268.39 279.35 1266.39 281.348 1264.14 281.348C1261.9 281.348 1259.9 279.35 1259.9 277.104C1259.9 274.857 1261.65 272.86 1264.14 272.86Z" fill="#2A5C8E"/>
<path opacity="0.5" d="M1291.86 274.108C1293.6 274.108 1294.85 275.356 1294.85 277.104C1294.85 278.851 1293.6 280.099 1291.86 280.099C1290.11 280.099 1288.86 278.851 1288.86 277.104C1288.86 275.356 1290.11 274.108 1291.86 274.108Z" fill="#2A5C8E"/>
<path opacity="0.5" d="M1319.57 275.356C1320.54 275.356 1321.32 276.139 1321.32 277.104C1321.32 278.069 1320.54 278.851 1319.57 278.851C1318.61 278.851 1317.82 278.069 1317.82 277.104C1317.82 276.139 1318.61 275.356 1319.57 275.356Z" fill="#2A5C8E"/>
<path opacity="0.5" d="M1347.29 276.604C1347.54 276.604 1347.79 276.854 1347.79 277.104C1347.79 277.353 1347.54 277.603 1347.29 277.603C1347.04 277.603 1346.79 277.353 1346.79 277.104C1346.54 276.854 1346.79 276.604 1347.29 276.604Z" fill="#2A5C8E"/>
<path opacity="0.5" d="M945.552 249.144C945.69 249.144 945.802 249.255 945.802 249.393C945.802 249.531 945.69 249.643 945.552 249.643C945.414 249.643 945.302 249.531 945.302 249.393C945.302 249.255 945.414 249.144 945.552 249.144Z" fill="#2A5C8E"/>
<path opacity="0.5" d="M973.266 247.895C974.094 247.895 974.764 248.566 974.764 249.393C974.764 250.221 974.094 250.891 973.266 250.891C972.439 250.891 971.768 250.221 971.768 249.393C971.768 248.566 972.439 247.895 973.266 247.895Z" fill="#2A5C8E"/>
<path opacity="0.5" d="M1000.98 246.647C1002.5 246.647 1003.73 247.877 1003.73 249.393C1003.73 250.91 1002.5 252.139 1000.98 252.139C999.464 252.139 998.234 250.91 998.234 249.393C998.234 247.877 999.464 246.647 1000.98 246.647Z" fill="#2A5C8E"/>
<path opacity="0.5" d="M1028.7 245.399C1030.9 245.399 1032.69 247.187 1032.69 249.393C1032.69 251.599 1030.9 253.388 1028.7 253.388C1026.49 253.388 1024.7 251.599 1024.7 249.393C1024.7 247.187 1026.49 245.399 1028.7 245.399Z" fill="#2A5C8E"/>
<path opacity="0.5" d="M1056.41 244.151C1059.16 244.151 1061.65 246.398 1061.65 249.393C1061.65 252.139 1059.41 254.636 1056.41 254.636C1053.66 254.636 1051.17 252.389 1051.17 249.393C1051.17 246.647 1053.41 244.151 1056.41 244.151Z" fill="#2A5C8E"/>
<path opacity="0.5" d="M1084.12 243.152C1087.62 243.152 1090.62 245.898 1090.62 249.643C1090.62 253.138 1087.87 256.134 1084.12 256.134C1080.63 256.134 1077.63 253.388 1077.63 249.643C1077.63 245.898 1080.63 243.152 1084.12 243.152Z" fill="#2A5C8E"/>
<path opacity="0.5" d="M1111.84 241.904C1116.08 241.904 1119.33 245.149 1119.33 249.393C1119.33 253.637 1116.08 256.883 1111.84 256.883C1107.59 256.883 1104.35 253.637 1104.35 249.393C1104.1 245.149 1107.59 241.904 1111.84 241.904Z" fill="#2A5C8E"/>
<path opacity="0.5" d="M1139.55 240.905C1144.24 240.905 1148.04 244.706 1148.04 249.393C1148.04 254.081 1144.24 257.881 1139.55 257.881C1134.86 257.881 1131.06 254.081 1131.06 249.393C1131.06 244.706 1134.86 240.905 1139.55 240.905Z" fill="#2A5C8E"/>
<path opacity="0.5" d="M1167.27 240.905C1171.96 240.905 1175.76 244.706 1175.76 249.393C1175.76 254.081 1171.96 257.881 1167.27 257.881C1162.58 257.881 1158.78 254.081 1158.78 249.393C1158.78 244.706 1162.58 240.905 1167.27 240.905Z" fill="#2A5C8E"/>
<path opacity="0.5" d="M1194.73 241.904C1198.98 241.904 1202.22 245.399 1202.22 249.393C1202.22 253.637 1198.73 256.883 1194.73 256.883C1190.49 256.883 1187.24 253.388 1187.24 249.393C1187.24 245.149 1190.74 241.904 1194.73 241.904Z" fill="#2A5C8E"/>
<path opacity="0.5" d="M1222.45 242.903C1225.94 242.903 1228.94 245.898 1228.94 249.393C1228.94 252.888 1225.94 255.884 1222.45 255.884C1218.95 255.884 1215.95 252.888 1215.95 249.393C1215.95 245.898 1218.95 242.903 1222.45 242.903Z" fill="#2A5C8E"/>
<path opacity="0.5" d="M1250.16 244.151C1253.16 244.151 1255.4 246.647 1255.4 249.393C1255.4 252.389 1252.91 254.636 1250.16 254.636C1247.16 254.636 1244.92 252.139 1244.92 249.393C1244.92 246.398 1247.41 244.151 1250.16 244.151Z" fill="#2A5C8E"/>
<path opacity="0.5" d="M1277.87 245.399C1280.08 245.399 1281.87 247.187 1281.87 249.393C1281.87 251.599 1280.08 253.388 1277.87 253.388C1275.67 253.388 1273.88 251.599 1273.88 249.393C1273.88 247.187 1275.67 245.399 1277.87 245.399Z" fill="#2A5C8E"/>
<path opacity="0.5" d="M1305.59 246.647C1307.11 246.647 1308.34 247.877 1308.34 249.393C1308.34 250.91 1307.11 252.139 1305.59 252.139C1304.07 252.139 1302.84 250.91 1302.84 249.393C1302.84 247.877 1304.07 246.647 1305.59 246.647Z" fill="#2A5C8E"/>
<path opacity="0.5" d="M1333.3 247.895C1334.13 247.895 1334.8 248.566 1334.8 249.393C1334.8 250.221 1334.13 250.891 1333.3 250.891C1332.48 250.891 1331.81 250.221 1331.81 249.393C1331.81 248.566 1332.48 247.895 1333.3 247.895Z" fill="#2A5C8E"/>
<path opacity="0.5" d="M1361.02 249.144C1361.27 249.144 1361.27 249.393 1361.27 249.393C1361.27 249.643 1361.02 249.643 1361.02 249.643C1360.77 249.643 1360.77 249.393 1360.77 249.393C1360.77 249.144 1360.77 249.144 1361.02 249.144Z" fill="#2A5C8E"/>
<path opacity="0.5" d="M959.284 220.934C959.784 220.934 960.033 221.433 960.033 221.683C960.033 222.182 959.534 222.432 959.284 222.432C959.034 222.432 958.535 221.933 958.535 221.683C958.535 221.184 959.034 220.934 959.284 220.934Z" fill="#2A5C8E"/>
<path opacity="0.5" d="M986.999 219.686C988.247 219.686 989.246 220.684 989.246 221.933C989.246 223.181 988.247 224.179 986.999 224.179C985.75 224.179 984.751 223.181 984.751 221.933C984.751 220.684 986 219.686 986.999 219.686Z" fill="#2A5C8E"/>
<path opacity="0.5" d="M1014.71 218.188C1016.64 218.188 1018.21 219.753 1018.21 221.683C1018.21 223.613 1016.64 225.178 1014.71 225.178C1012.78 225.178 1011.22 223.613 1011.22 221.683C1011.22 219.753 1012.78 218.188 1014.71 218.188Z" fill="#2A5C8E"/>
<path opacity="0.5" d="M1042.43 216.94C1045.05 216.94 1047.17 219.063 1047.17 221.683C1047.17 224.303 1045.05 226.426 1042.43 226.426C1039.81 226.426 1037.68 224.303 1037.68 221.683C1037.68 219.063 1039.81 216.94 1042.43 216.94Z" fill="#2A5C8E"/>
<path opacity="0.5" d="M1070.14 215.691C1073.39 215.691 1076.13 218.438 1076.13 221.683C1076.13 224.928 1073.39 227.674 1070.14 227.674C1066.9 227.674 1064.15 224.928 1064.15 221.683C1064.15 218.438 1066.9 215.691 1070.14 215.691Z" fill="#2A5C8E"/>
<path opacity="0.5" d="M1097.86 214.443C1101.85 214.443 1105.1 217.689 1105.1 221.683C1105.1 225.677 1101.85 228.923 1097.86 228.923C1093.86 228.923 1090.62 225.677 1090.62 221.683C1090.62 217.689 1093.86 214.443 1097.86 214.443Z" fill="#2A5C8E"/>
<path opacity="0.5" d="M1125.57 213.195C1130.26 213.195 1134.06 216.995 1134.06 221.683C1134.06 226.371 1130.26 230.171 1125.57 230.171C1120.88 230.171 1117.08 226.371 1117.08 221.683C1117.08 216.995 1120.88 213.195 1125.57 213.195Z" fill="#2A5C8E"/>
<path opacity="0.5" d="M1153.28 212.197C1158.52 212.197 1162.77 216.444 1162.77 221.683C1162.77 226.922 1158.52 231.169 1153.28 231.169C1148.04 231.169 1143.8 226.922 1143.8 221.683C1143.8 216.444 1148.04 212.197 1153.28 212.197Z" fill="#2A5C8E"/>
<path opacity="0.5" d="M1181 212.945C1185.83 212.945 1189.74 216.857 1189.74 221.683C1189.74 226.509 1185.83 230.421 1181 230.421C1176.17 230.421 1172.26 226.509 1172.26 221.683C1172.26 216.857 1176.17 212.945 1181 212.945Z" fill="#2A5C8E"/>
<path opacity="0.5" d="M1208.71 214.194C1212.85 214.194 1216.2 217.547 1216.2 221.683C1216.2 225.819 1212.85 229.172 1208.71 229.172C1204.58 229.172 1201.22 225.819 1201.22 221.683C1201.22 217.547 1204.58 214.194 1208.71 214.194Z" fill="#2A5C8E"/>
<path opacity="0.5" d="M1236.43 215.692C1239.92 215.692 1242.67 218.438 1242.67 221.933C1242.67 225.428 1239.92 228.174 1236.43 228.174C1232.93 228.174 1230.19 225.428 1230.19 221.933C1230.19 218.438 1232.93 215.692 1236.43 215.692Z" fill="#2A5C8E"/>
<path opacity="0.5" d="M1264.14 216.94C1266.89 216.94 1268.89 219.187 1268.89 221.683C1268.89 224.429 1266.64 226.426 1264.14 226.426C1261.4 226.426 1259.4 224.18 1259.4 221.683C1259.15 218.937 1261.4 216.94 1264.14 216.94Z" fill="#2A5C8E"/>
<path opacity="0.5" d="M1291.86 218.188C1293.85 218.188 1295.35 219.686 1295.35 221.683C1295.35 223.68 1293.85 225.178 1291.86 225.178C1289.86 225.178 1288.36 223.68 1288.36 221.683C1288.36 219.686 1289.86 218.188 1291.86 218.188Z" fill="#2A5C8E"/>
<path opacity="0.5" d="M1319.57 219.436C1320.81 219.436 1321.82 220.442 1321.82 221.683C1321.82 222.924 1320.81 223.93 1319.57 223.93C1318.33 223.93 1317.32 222.924 1317.32 221.683C1317.32 220.442 1318.33 219.436 1319.57 219.436Z" fill="#2A5C8E"/>
<path opacity="0.5" d="M1347.29 220.685C1347.79 220.685 1348.28 221.184 1348.28 221.683C1348.28 222.182 1347.79 222.682 1347.29 222.682C1346.79 222.682 1346.29 222.182 1346.29 221.683C1346.29 221.184 1346.54 220.685 1347.29 220.685Z" fill="#2A5C8E"/>
<path opacity="0.5" d="M945.552 193.723C945.69 193.723 945.802 193.835 945.802 193.973C945.802 194.11 945.69 194.222 945.552 194.222C945.414 194.222 945.302 194.11 945.302 193.973C945.302 193.835 945.414 193.723 945.552 193.723Z" fill="#2A5C8E"/>
<path opacity="0.5" d="M973.266 192.475C974.094 192.475 974.764 193.145 974.764 193.973C974.764 194.8 974.094 195.47 973.266 195.47C972.439 195.47 971.768 194.8 971.768 193.973C971.768 193.145 972.439 192.475 973.266 192.475Z" fill="#2A5C8E"/>
<path opacity="0.5" d="M1000.98 191.227C1002.5 191.227 1003.73 192.456 1003.73 193.973C1003.73 195.489 1002.5 196.719 1000.98 196.719C999.464 196.719 998.234 195.489 998.234 193.973C998.234 192.456 999.464 191.227 1000.98 191.227Z" fill="#2A5C8E"/>
<path opacity="0.5" d="M1028.7 189.978C1030.9 189.978 1032.69 191.767 1032.69 193.973C1032.69 196.179 1030.9 197.967 1028.7 197.967C1026.49 197.967 1024.7 196.179 1024.7 193.973C1024.7 191.767 1026.49 189.978 1028.7 189.978Z" fill="#2A5C8E"/>
<path opacity="0.5" d="M1056.41 188.73C1059.3 188.73 1061.65 191.077 1061.65 193.973C1061.65 196.868 1059.3 199.215 1056.41 199.215C1053.51 199.215 1051.17 196.868 1051.17 193.973C1051.17 191.077 1053.51 188.73 1056.41 188.73Z" fill="#2A5C8E"/>
<path opacity="0.5" d="M1084.12 187.482C1087.62 187.482 1090.62 190.478 1090.62 193.973C1090.62 197.468 1087.62 200.463 1084.12 200.463C1080.63 200.463 1077.63 197.468 1077.63 193.973C1077.63 190.478 1080.38 187.482 1084.12 187.482Z" fill="#2A5C8E"/>
<path opacity="0.5" d="M1111.84 186.483C1116.08 186.483 1119.33 189.978 1119.33 193.973C1119.33 198.217 1115.83 201.462 1111.84 201.462C1107.59 201.462 1104.35 197.967 1104.35 193.973C1104.1 189.729 1107.59 186.483 1111.84 186.483Z" fill="#2A5C8E"/>
<path opacity="0.5" d="M1139.55 185.485C1144.3 185.485 1148.04 189.229 1148.04 193.973C1148.04 198.716 1144.3 202.46 1139.55 202.46C1134.81 202.46 1131.06 198.716 1131.06 193.973C1130.81 189.229 1134.81 185.485 1139.55 185.485Z" fill="#2A5C8E"/>
<path opacity="0.5" d="M1167.27 185.485C1171.96 185.485 1175.76 189.285 1175.76 193.973C1175.76 198.66 1171.96 202.46 1167.27 202.46C1162.58 202.46 1158.78 198.66 1158.78 193.973C1158.78 189.285 1162.58 185.485 1167.27 185.485Z" fill="#2A5C8E"/>
<path opacity="0.5" d="M1194.73 186.234C1199.01 186.234 1202.47 189.698 1202.47 193.973C1202.47 198.247 1199.01 201.712 1194.73 201.712C1190.46 201.712 1186.99 198.247 1186.99 193.973C1186.99 189.698 1190.46 186.234 1194.73 186.234Z" fill="#2A5C8E"/>
<path opacity="0.5" d="M1222.45 187.482C1225.94 187.482 1228.94 190.478 1228.94 193.973C1228.94 197.468 1225.94 200.463 1222.45 200.463C1218.95 200.463 1215.95 197.468 1215.95 193.973C1215.95 190.478 1218.95 187.482 1222.45 187.482Z" fill="#2A5C8E"/>
<path opacity="0.5" d="M1250.16 188.73C1253.16 188.73 1255.4 191.227 1255.4 193.973C1255.4 196.968 1252.91 199.215 1250.16 199.215C1247.16 199.215 1244.92 196.719 1244.92 193.973C1244.92 190.977 1247.41 188.73 1250.16 188.73Z" fill="#2A5C8E"/>
<path opacity="0.5" d="M1277.87 189.978C1280.08 189.978 1281.87 191.767 1281.87 193.973C1281.87 196.179 1280.08 197.967 1277.87 197.967C1275.67 197.967 1273.88 196.179 1273.88 193.973C1273.88 191.767 1275.67 189.978 1277.87 189.978Z" fill="#2A5C8E"/>
<path opacity="0.5" d="M1305.59 191.227C1307.11 191.227 1308.34 192.456 1308.34 193.973C1308.34 195.489 1307.11 196.719 1305.59 196.719C1304.07 196.719 1302.84 195.489 1302.84 193.973C1302.84 192.456 1304.07 191.227 1305.59 191.227Z" fill="#2A5C8E"/>
<path opacity="0.5" d="M1333.3 192.475C1334.13 192.475 1334.8 193.145 1334.8 193.973C1334.8 194.8 1334.13 195.47 1333.3 195.47C1332.48 195.47 1331.81 194.8 1331.81 193.973C1331.81 193.145 1332.48 192.475 1333.3 192.475Z" fill="#2A5C8E"/>
<path opacity="0.5" d="M1361.02 193.723C1361.27 193.723 1361.27 193.973 1361.27 193.973C1361.27 194.222 1361.02 194.222 1361.02 194.222C1360.77 194.222 1360.77 193.973 1360.77 193.973C1360.77 193.723 1360.77 193.723 1361.02 193.723Z" fill="#2A5C8E"/>
<path opacity="0.5" d="M959.284 165.763C959.534 165.763 959.783 166.012 959.783 166.262C959.783 166.512 959.534 166.761 959.284 166.761C959.034 166.761 958.785 166.512 958.785 166.262C958.785 166.012 959.034 165.763 959.284 165.763Z" fill="#2A5C8E"/>
<path opacity="0.5" d="M986.999 164.515C987.998 164.515 988.747 165.264 988.747 166.262C988.747 167.261 987.998 168.01 986.999 168.01C986 168.01 985.251 167.261 985.251 166.262C985.251 165.264 986 164.515 986.999 164.515Z" fill="#2A5C8E"/>
<path opacity="0.5" d="M1014.71 163.267C1016.37 163.267 1017.71 164.608 1017.71 166.262C1017.71 167.917 1016.37 169.258 1014.71 169.258C1013.06 169.258 1011.72 167.917 1011.72 166.262C1011.72 164.608 1013.06 163.267 1014.71 163.267Z" fill="#2A5C8E"/>
<path opacity="0.5" d="M1042.43 162.268C1044.67 162.268 1046.67 164.015 1046.67 166.512C1046.67 168.759 1044.92 170.756 1042.43 170.756C1040.18 170.756 1038.18 169.008 1038.18 166.512C1038.43 164.015 1040.18 162.268 1042.43 162.268Z" fill="#2A5C8E"/>
<path opacity="0.5" d="M1070.14 161.02C1073.14 161.02 1075.39 163.516 1075.39 166.262C1075.39 169.258 1072.89 171.505 1070.14 171.505C1067.15 171.505 1064.9 169.008 1064.9 166.262C1064.9 163.266 1067.15 161.02 1070.14 161.02Z" fill="#2A5C8E"/>
<path opacity="0.5" d="M1097.86 160.021C1101.35 160.021 1104.1 162.767 1104.1 166.262C1104.1 169.757 1101.35 172.503 1097.86 172.503C1094.36 172.503 1091.61 169.757 1091.61 166.262C1091.61 162.767 1094.36 160.021 1097.86 160.021Z" fill="#2A5C8E"/>
<path opacity="0.5" d="M1125.57 159.272C1129.57 159.272 1132.56 162.518 1132.56 166.262C1132.56 170.256 1129.32 173.252 1125.57 173.252C1121.58 173.252 1118.58 170.007 1118.58 166.262C1118.58 162.518 1121.58 159.272 1125.57 159.272Z" fill="#2A5C8E"/>
<path opacity="0.5" d="M1153.28 158.773C1157.28 158.773 1160.78 162.018 1160.78 166.262C1160.78 170.256 1157.53 173.751 1153.28 173.751C1149.04 173.751 1145.79 170.506 1145.79 166.262C1145.79 162.268 1149.29 158.773 1153.28 158.773Z" fill="#2A5C8E"/>
<path opacity="0.5" d="M1181 159.272C1184.99 159.272 1188.24 162.518 1188.24 166.512C1188.24 170.506 1184.99 173.751 1181 173.751C1177 173.751 1173.76 170.506 1173.76 166.512C1173.76 162.268 1177 159.272 1181 159.272Z" fill="#2A5C8E"/>
<path opacity="0.5" d="M1208.71 159.771C1212.3 159.771 1215.21 162.677 1215.21 166.262C1215.21 169.847 1212.3 172.753 1208.71 172.753C1205.13 172.753 1202.22 169.847 1202.22 166.262C1202.22 162.677 1205.13 159.771 1208.71 159.771Z" fill="#2A5C8E"/>
<path opacity="0.5" d="M1236.43 161.02C1239.42 161.02 1241.92 163.516 1241.92 166.512C1241.92 169.508 1239.42 172.004 1236.43 172.004C1233.43 172.004 1230.94 169.508 1230.94 166.512C1230.94 163.267 1233.43 161.02 1236.43 161.02Z" fill="#2A5C8E"/>
<path opacity="0.5" d="M1264.14 162.018C1266.39 162.018 1268.39 164.015 1268.39 166.262C1268.39 168.509 1266.39 170.506 1264.14 170.506C1261.9 170.506 1259.9 168.509 1259.9 166.262C1259.9 164.015 1261.65 162.018 1264.14 162.018Z" fill="#2A5C8E"/>
<path opacity="0.5" d="M1291.86 163.267C1293.6 163.267 1294.85 164.764 1294.85 166.262C1294.85 168.01 1293.36 169.258 1291.86 169.258C1290.11 169.258 1288.86 167.76 1288.86 166.262C1288.61 164.515 1290.11 163.267 1291.86 163.267Z" fill="#2A5C8E"/>
<path opacity="0.5" d="M1319.57 164.515C1320.54 164.515 1321.32 165.297 1321.32 166.262C1321.32 167.227 1320.54 168.01 1319.57 168.01C1318.61 168.01 1317.82 167.227 1317.82 166.262C1317.82 165.297 1318.61 164.515 1319.57 164.515Z" fill="#2A5C8E"/>
<path opacity="0.5" d="M1347.29 165.763C1347.54 165.763 1347.79 166.012 1347.79 166.262C1347.79 166.512 1347.54 166.761 1347.29 166.761C1347.04 166.761 1346.79 166.512 1346.79 166.262C1346.54 166.012 1346.79 165.763 1347.29 165.763Z" fill="#2A5C8E"/>
<path opacity="0.5" d="M973.266 138.053C973.766 138.053 974.015 138.302 974.015 138.802C974.015 139.301 973.766 139.551 973.266 139.551C972.767 139.551 972.517 139.301 972.517 138.802C972.517 138.302 972.767 138.053 973.266 138.053Z" fill="#2A5C8E"/>
<path opacity="0.5" d="M1000.98 136.804C1001.98 136.804 1002.73 137.553 1002.73 138.552C1002.73 139.55 1001.98 140.299 1000.98 140.299C999.982 140.299 999.233 139.55 999.233 138.552C998.983 137.553 999.982 136.804 1000.98 136.804Z" fill="#2A5C8E"/>
<path opacity="0.5" d="M1028.69 135.806C1030.19 135.806 1031.69 137.054 1031.69 138.801C1031.69 140.299 1030.44 141.797 1028.69 141.797C1027.2 141.797 1025.7 140.549 1025.7 138.801C1025.7 137.054 1026.95 135.806 1028.69 135.806Z" fill="#2A5C8E"/>
<path opacity="0.5" d="M1056.41 134.558C1058.66 134.558 1060.4 136.305 1060.4 138.552C1060.4 140.799 1058.66 142.546 1056.41 142.546C1054.16 142.546 1052.41 140.799 1052.41 138.552C1052.41 136.305 1054.16 134.558 1056.41 134.558Z" fill="#2A5C8E"/>
<path opacity="0.5" d="M1084.12 133.809C1086.87 133.809 1089.12 136.056 1089.12 138.802C1089.12 141.548 1086.87 143.794 1084.12 143.794C1081.38 143.794 1079.13 141.548 1079.13 138.802C1079.13 135.806 1081.38 133.809 1084.12 133.809Z" fill="#2A5C8E"/>
<path opacity="0.5" d="M1111.84 133.06C1114.83 133.06 1117.33 135.556 1117.33 138.552C1117.33 141.547 1114.83 144.044 1111.84 144.044C1108.84 144.044 1106.35 141.547 1106.35 138.552C1106.1 135.556 1108.59 133.06 1111.84 133.06Z" fill="#2A5C8E"/>
<path opacity="0.5" d="M1139.55 132.56C1142.8 132.56 1145.54 135.306 1145.54 138.552C1145.54 141.797 1142.8 144.543 1139.55 144.543C1136.31 144.543 1133.56 141.797 1133.56 138.552C1133.31 135.306 1136.06 132.56 1139.55 132.56Z" fill="#2A5C8E"/>
<path opacity="0.5" d="M1167.27 132.56C1170.51 132.56 1173.26 135.306 1173.26 138.552C1173.26 141.797 1170.51 144.543 1167.27 144.543C1164.02 144.543 1161.27 141.797 1161.27 138.552C1161.02 135.306 1163.77 132.56 1167.27 132.56Z" fill="#2A5C8E"/>
<path opacity="0.5" d="M1194.73 133.06C1197.98 133.06 1200.47 135.556 1200.47 138.801C1200.47 142.047 1197.98 144.543 1194.73 144.543C1191.49 144.543 1188.99 142.047 1188.99 138.801C1189.24 135.556 1191.74 133.06 1194.73 133.06Z" fill="#2A5C8E"/>
<path opacity="0.5" d="M1222.45 133.559C1225.2 133.559 1227.44 135.794 1227.44 138.552C1227.44 141.309 1225.2 143.545 1222.45 143.545C1219.69 143.545 1217.45 141.309 1217.45 138.552C1217.45 135.794 1219.69 133.559 1222.45 133.559Z" fill="#2A5C8E"/>
<path opacity="0.5" d="M1250.16 134.558C1252.41 134.558 1254.16 136.305 1254.16 138.552C1254.16 140.799 1252.41 142.546 1250.16 142.546C1247.91 142.546 1246.17 140.799 1246.17 138.552C1246.17 136.305 1247.91 134.558 1250.16 134.558Z" fill="#2A5C8E"/>
<path opacity="0.5" d="M1277.88 135.556C1279.62 135.556 1280.87 137.054 1280.87 138.552C1280.87 140.299 1279.37 141.548 1277.88 141.548C1276.13 141.548 1274.88 140.05 1274.88 138.552C1274.88 136.804 1276.38 135.556 1277.88 135.556Z" fill="#2A5C8E"/>
<path opacity="0.5" d="M1305.59 136.804C1306.59 136.804 1307.59 137.553 1307.59 138.801C1307.59 139.8 1306.84 140.799 1305.59 140.799C1304.34 140.799 1303.59 140.05 1303.59 138.801C1303.84 137.553 1304.59 136.804 1305.59 136.804Z" fill="#2A5C8E"/>
<path opacity="0.5" d="M1333.3 137.803C1333.8 137.803 1334.05 138.053 1334.05 138.552C1334.05 139.051 1333.8 139.301 1333.3 139.301C1332.8 139.301 1332.55 139.051 1332.55 138.552C1332.55 138.302 1333.05 137.803 1333.3 137.803Z" fill="#2A5C8E"/>
<path opacity="0.5" d="M986.998 110.342C987.248 110.342 987.498 110.592 987.498 110.842C987.498 111.091 987.248 111.341 986.998 111.341C986.749 111.341 986.499 111.091 986.499 110.842C986.499 110.592 986.749 110.342 986.998 110.342Z" fill="#2A5C8E"/>
<path opacity="0.5" d="M1014.71 109.344C1015.71 109.344 1016.46 110.093 1016.46 111.091C1016.46 112.09 1015.71 112.839 1014.71 112.839C1013.71 112.839 1012.96 112.09 1012.96 111.091C1013.21 110.093 1013.96 109.344 1014.71 109.344Z" fill="#2A5C8E"/>
<path opacity="0.5" d="M1042.43 108.345C1043.93 108.345 1044.92 109.593 1044.92 110.841C1044.92 112.339 1043.68 113.338 1042.43 113.338C1041.18 113.338 1039.93 112.09 1039.93 110.841C1039.93 109.593 1040.93 108.345 1042.43 108.345Z" fill="#2A5C8E"/>
<path opacity="0.5" d="M1070.14 107.346C1072.14 107.346 1073.64 108.844 1073.64 110.841C1073.64 112.839 1072.14 114.336 1070.14 114.336C1068.14 114.336 1066.65 112.839 1066.65 110.841C1066.65 109.094 1068.14 107.346 1070.14 107.346Z" fill="#2A5C8E"/>
<path opacity="0.5" d="M1097.86 106.598C1100.1 106.598 1102.1 108.595 1102.1 110.842C1102.1 113.088 1100.1 115.085 1097.86 115.085C1095.61 115.085 1093.61 113.088 1093.61 110.842C1093.61 108.595 1095.61 106.598 1097.86 106.598Z" fill="#2A5C8E"/>
<path opacity="0.5" d="M1125.57 106.348C1128.07 106.348 1130.31 108.345 1130.31 111.091C1130.31 113.837 1128.32 115.834 1125.57 115.834C1122.82 115.834 1120.83 113.837 1120.83 111.091C1120.83 108.345 1123.07 106.348 1125.57 106.348Z" fill="#2A5C8E"/>
<path opacity="0.5" d="M1153.28 106.098C1156.03 106.098 1158.03 108.345 1158.03 110.841C1158.03 113.588 1155.78 115.585 1153.28 115.585C1150.79 115.585 1148.54 113.338 1148.54 110.841C1148.54 108.345 1150.54 106.098 1153.28 106.098Z" fill="#2A5C8E"/>
<path opacity="0.5" d="M1181 106.348C1183.5 106.348 1185.74 108.345 1185.74 111.091C1185.74 113.837 1183.75 115.834 1181 115.834C1178.25 115.834 1176.26 113.837 1176.26 111.091C1176.26 108.345 1178.5 106.348 1181 106.348Z" fill="#2A5C8E"/>
<path opacity="0.5" d="M1208.71 106.598C1210.96 106.598 1212.96 108.595 1212.96 110.842C1212.96 113.088 1210.96 115.085 1208.71 115.085C1206.47 115.085 1204.47 113.088 1204.47 110.842C1204.47 108.595 1206.47 106.598 1208.71 106.598Z" fill="#2A5C8E"/>
<path opacity="0.5" d="M1236.43 107.346C1238.43 107.346 1239.92 108.844 1239.92 110.841C1239.92 112.839 1238.43 114.336 1236.43 114.336C1234.43 114.336 1232.93 112.839 1232.93 110.841C1232.68 108.844 1234.43 107.346 1236.43 107.346Z" fill="#2A5C8E"/>
<path opacity="0.5" d="M1264.14 108.345C1265.64 108.345 1266.89 109.593 1266.89 111.091C1266.89 112.589 1265.64 113.837 1264.14 113.837C1262.64 113.837 1261.4 112.589 1261.4 111.091C1261.4 109.343 1262.64 108.345 1264.14 108.345Z" fill="#2A5C8E"/>
<path opacity="0.5" d="M1291.86 109.094C1292.82 109.094 1293.6 109.876 1293.6 110.841C1293.6 111.807 1292.82 112.589 1291.86 112.589C1290.89 112.589 1290.11 111.807 1290.11 110.841C1290.11 109.876 1290.89 109.094 1291.86 109.094Z" fill="#2A5C8E"/>
<path opacity="0.5" d="M1319.57 110.092C1319.98 110.092 1320.32 110.428 1320.32 110.841C1320.32 111.255 1319.98 111.59 1319.57 111.59C1319.16 111.59 1318.82 111.255 1318.82 110.841C1318.82 110.428 1319.16 110.092 1319.57 110.092Z" fill="#2A5C8E"/>
<path opacity="0.5" d="M1000.98 82.6318C1001.26 82.6318 1001.48 82.8554 1001.48 83.1311C1001.48 83.4069 1001.26 83.6304 1000.98 83.6304C1000.71 83.6304 1000.48 83.4069 1000.48 83.1311C1000.48 82.8554 1000.71 82.6318 1000.98 82.6318Z" fill="#2A5C8E"/>
<path opacity="0.5" d="M1028.69 81.8831C1029.44 81.8831 1029.94 82.3823 1029.94 83.1312C1029.94 83.8801 1029.44 84.3794 1028.69 84.3794C1027.95 84.3794 1027.45 83.8801 1027.45 83.1312C1027.45 82.632 1027.95 81.8831 1028.69 81.8831Z" fill="#2A5C8E"/>
<path opacity="0.5" d="M1056.41 81.1339C1057.51 81.1339 1058.41 82.0281 1058.41 83.1311C1058.41 84.234 1057.51 85.1282 1056.41 85.1282C1055.31 85.1282 1054.41 84.234 1054.41 83.1311C1054.41 82.0281 1055.31 81.1339 1056.41 81.1339Z" fill="#2A5C8E"/>
<path opacity="0.5" d="M1084.12 80.385C1085.62 80.385 1086.87 81.6332 1086.87 83.1311C1086.87 84.629 1085.62 85.8772 1084.12 85.8772C1082.63 85.8772 1081.38 84.629 1081.38 83.1311C1081.38 81.6332 1082.63 80.385 1084.12 80.385Z" fill="#2A5C8E"/>
<path opacity="0.5" d="M1111.84 79.8858C1113.59 79.8858 1115.08 81.3837 1115.08 83.1312C1115.08 84.8787 1113.59 86.3765 1111.84 86.3765C1110.09 86.3765 1108.59 84.8787 1108.59 83.1312C1108.59 81.3837 1109.84 79.8858 1111.84 79.8858Z" fill="#2A5C8E"/>
<path opacity="0.5" d="M1139.55 79.6362C1141.55 79.6362 1143.05 81.1341 1143.05 83.1312C1143.05 85.1284 1141.55 86.6262 1139.55 86.6262C1137.56 86.6262 1136.06 85.1284 1136.06 83.1312C1135.81 81.3837 1137.56 79.6362 1139.55 79.6362Z" fill="#2A5C8E"/>
<path opacity="0.5" d="M1167.27 79.6362C1169.26 79.6362 1170.76 81.1341 1170.76 83.1312C1170.76 85.1284 1169.26 86.6262 1167.27 86.6262C1165.27 86.6262 1163.77 85.1284 1163.77 83.1312C1163.52 81.3837 1165.27 79.6362 1167.27 79.6362Z" fill="#2A5C8E"/>
<path opacity="0.5" d="M1194.73 79.8858C1196.48 79.8858 1197.98 81.3837 1197.98 83.1312C1197.98 84.8787 1196.48 86.3765 1194.73 86.3765C1192.98 86.3765 1191.49 84.8787 1191.49 83.1312C1191.49 81.3837 1192.98 79.8858 1194.73 79.8858Z" fill="#2A5C8E"/>
<path opacity="0.5" d="M1222.45 80.385C1223.94 80.385 1225.19 81.6332 1225.19 83.1311C1225.19 84.629 1223.94 85.8772 1222.45 85.8772C1220.95 85.8772 1219.7 84.629 1219.7 83.1311C1219.7 81.6332 1220.95 80.385 1222.45 80.385Z" fill="#2A5C8E"/>
<path opacity="0.5" d="M1250.16 81.134C1251.41 81.134 1252.41 82.1327 1252.41 83.3809C1252.41 84.6291 1251.41 85.6277 1250.16 85.6277C1248.91 85.6277 1247.91 84.6291 1247.91 83.3809C1248.16 82.1327 1249.16 81.134 1250.16 81.134Z" fill="#2A5C8E"/>
<path opacity="0.5" d="M1277.87 81.8831C1278.62 81.8831 1279.12 82.3823 1279.12 83.1312C1279.12 83.8801 1278.62 84.3794 1277.87 84.3794C1277.13 84.3794 1276.63 83.8801 1276.63 83.1312C1276.63 82.3823 1277.13 81.8831 1277.87 81.8831Z" fill="#2A5C8E"/>
<path opacity="0.5" d="M1305.59 82.6318C1305.87 82.6318 1306.09 82.8554 1306.09 83.1311C1306.09 83.4069 1305.87 83.6304 1305.59 83.6304C1305.31 83.6304 1305.09 83.4069 1305.09 83.1311C1305.09 82.8554 1305.31 82.6318 1305.59 82.6318Z" fill="#2A5C8E"/>
<path opacity="0.5" d="M1042.43 54.6719C1042.84 54.6719 1043.18 55.0072 1043.18 55.4208C1043.18 55.8344 1042.84 56.1697 1042.43 56.1697C1042.01 56.1697 1041.68 55.8344 1041.68 55.4208C1041.68 55.0072 1042.01 54.6719 1042.43 54.6719Z" fill="#2A5C8E"/>
<path opacity="0.5" d="M1070.14 54.1726C1070.89 54.1726 1071.39 54.6719 1071.39 55.4208C1071.39 56.1697 1070.89 56.6689 1070.14 56.6689C1069.39 56.6689 1068.89 56.1697 1068.89 55.4208C1068.89 54.9215 1069.39 54.1726 1070.14 54.1726Z" fill="#2A5C8E"/>
<path opacity="0.5" d="M1097.86 53.6732C1098.85 53.6732 1099.6 54.4222 1099.6 55.4207C1099.6 56.4193 1098.85 57.1682 1097.86 57.1682C1096.86 57.1682 1096.11 56.4193 1096.11 55.4207C1096.11 54.4222 1096.86 53.6732 1097.86 53.6732Z" fill="#2A5C8E"/>
<path opacity="0.5" d="M1125.57 53.4236C1126.82 53.4236 1127.82 54.4222 1127.82 55.6704C1127.82 56.9187 1126.82 57.9172 1125.57 57.9172C1124.32 57.9172 1123.32 56.9187 1123.32 55.6704C1123.32 54.4222 1124.32 53.4236 1125.57 53.4236Z" fill="#2A5C8E"/>
<path opacity="0.5" d="M1153.28 53.174C1154.53 53.174 1155.53 54.1799 1155.53 55.4207C1155.53 56.6616 1154.53 57.6675 1153.28 57.6675C1152.04 57.6675 1151.04 56.6616 1151.04 55.4207C1151.04 54.1799 1152.04 53.174 1153.28 53.174Z" fill="#2A5C8E"/>
<path opacity="0.5" d="M1181 53.4236C1182.25 53.4236 1183.25 54.4222 1183.25 55.6704C1183.25 56.9187 1182.25 57.9172 1181 57.9172C1179.75 57.9172 1178.75 56.9187 1178.75 55.6704C1178.75 54.4222 1179.75 53.4236 1181 53.4236Z" fill="#2A5C8E"/>
<path opacity="0.5" d="M1208.71 53.6732C1209.68 53.6732 1210.46 54.4556 1210.46 55.4207C1210.46 56.3858 1209.68 57.1682 1208.71 57.1682C1207.75 57.1682 1206.97 56.3858 1206.97 55.4207C1206.97 54.4556 1207.75 53.6732 1208.71 53.6732Z" fill="#2A5C8E"/>
<path opacity="0.5" d="M1236.43 54.1725C1237.18 54.1725 1237.93 54.6718 1237.93 55.6704C1237.93 56.4193 1237.43 57.1682 1236.43 57.1682C1235.68 57.1682 1234.93 56.6689 1234.93 55.6704C1234.93 54.6718 1235.68 54.1725 1236.43 54.1725Z" fill="#2A5C8E"/>
<path opacity="0.5" d="M1264.14 54.6719C1264.56 54.6719 1264.89 55.0072 1264.89 55.4208C1264.89 55.8344 1264.56 56.1697 1264.14 56.1697C1263.73 56.1697 1263.39 55.8344 1263.39 55.4208C1263.39 55.0072 1263.73 54.6719 1264.14 54.6719Z" fill="#2A5C8E"/>
<path opacity="0.5" d="M1291.86 55.4214C1292.11 55.6704 1291.86 55.6704 1291.86 55.6704C1291.86 55.6704 1291.61 55.6704 1291.86 55.4214C1291.61 55.4214 1291.61 55.4214 1291.86 55.4214Z" fill="#2A5C8E"/>
<path opacity="0.5" d="M1056.41 27.7111C1056.41 27.9599 1056.41 27.9599 1056.41 27.7111C1056.41 27.9599 1056.16 27.9599 1056.41 27.7111C1056.41 27.7111 1056.16 27.7111 1056.41 27.7111Z" fill="#2A5C8E"/>
<path opacity="0.5" d="M1084.12 27.4606C1084.37 27.4606 1084.62 27.7103 1084.62 27.9599C1084.62 28.2096 1084.37 28.4592 1084.12 28.4592C1083.87 28.4592 1083.62 28.2096 1083.62 27.9599C1083.62 27.7103 1083.87 27.4606 1084.12 27.4606Z" fill="#2A5C8E"/>
<path opacity="0.5" d="M1111.84 26.9614C1112.34 26.9614 1112.59 27.211 1112.59 27.7103C1112.59 28.2096 1112.34 28.4592 1111.84 28.4592C1111.34 28.4592 1111.09 28.2096 1111.09 27.7103C1111.09 27.4607 1111.34 26.9614 1111.84 26.9614Z" fill="#2A5C8E"/>
<path opacity="0.5" d="M1139.55 26.7119C1140.1 26.7119 1140.55 27.159 1140.55 27.7104C1140.55 28.2619 1140.1 28.709 1139.55 28.709C1139 28.709 1138.55 28.2619 1138.55 27.7104C1138.55 27.159 1139 26.7119 1139.55 26.7119Z" fill="#2A5C8E"/>
<path opacity="0.5" d="M1167.27 26.7119C1167.82 26.7119 1168.27 27.159 1168.27 27.7104C1168.27 28.2619 1167.82 28.709 1167.27 28.709C1166.72 28.709 1166.27 28.2619 1166.27 27.7104C1166.27 27.159 1166.72 26.7119 1167.27 26.7119Z" fill="#2A5C8E"/>
<path opacity="0.5" d="M1194.73 26.9614C1195.23 26.9614 1195.48 27.211 1195.48 27.7103C1195.48 28.2096 1195.23 28.4592 1194.73 28.4592C1194.23 28.4592 1193.98 28.2096 1193.98 27.7103C1193.98 27.4607 1194.48 26.9614 1194.73 26.9614Z" fill="#2A5C8E"/>
<path opacity="0.5" d="M1222.45 27.2111C1222.72 27.2111 1222.95 27.4346 1222.95 27.7104C1222.95 27.9861 1222.72 28.2097 1222.45 28.2097C1222.17 28.2097 1221.95 27.9861 1221.95 27.7104C1221.95 27.4346 1222.17 27.2111 1222.45 27.2111Z" fill="#2A5C8E"/>
<path opacity="0.5" d="M1250.16 27.7111C1250.41 27.7111 1250.41 27.7111 1250.16 27.7111C1250.41 27.9599 1250.16 27.96 1250.16 27.96C1250.16 27.96 1250.16 27.9599 1250.16 27.7111Z" fill="#2A5C8E"/>
</g>
<g opacity="0.5">
<path opacity="0.5" d="M111.107 1088.41C111.107 1088.66 111.107 1088.66 111.107 1088.41C111.107 1088.66 110.858 1088.66 111.107 1088.41C111.107 1088.41 110.858 1088.41 111.107 1088.41Z" fill="#2A5C8E"/>
<path opacity="0.5" d="M138.822 1088.16C139.072 1088.16 139.072 1088.41 139.072 1088.41C139.072 1088.66 138.822 1088.66 138.822 1088.66C138.572 1088.66 138.572 1088.41 138.572 1088.41C138.322 1088.41 138.572 1088.16 138.822 1088.16Z" fill="#2A5C8E"/>
<path opacity="0.5" d="M166.536 1087.91C166.785 1087.91 167.035 1088.16 167.035 1088.41C167.035 1088.66 166.785 1088.9 166.536 1088.9C166.286 1088.9 166.036 1088.66 166.036 1088.41C165.787 1088.16 166.036 1087.91 166.536 1087.91Z" fill="#2A5C8E"/>
<path opacity="0.5" d="M194.251 1087.66C194.75 1087.66 195 1088.16 195 1088.41C195 1088.66 194.5 1089.4 194.251 1089.4C193.751 1089.4 193.501 1088.9 193.501 1088.66C193.501 1088.41 193.751 1087.66 194.251 1087.66Z" fill="#2A5C8E"/>
<path opacity="0.5" d="M221.965 1087.66C222.464 1087.66 222.714 1088.16 222.714 1088.41C222.714 1088.66 222.215 1089.4 221.965 1089.4C221.715 1089.4 221.216 1088.9 221.216 1088.66C221.216 1088.41 221.466 1087.66 221.965 1087.66Z" fill="#2A5C8E"/>
<path opacity="0.5" d="M249.43 1087.91C249.843 1087.91 250.179 1088.24 250.179 1088.66C250.179 1089.07 249.843 1089.4 249.43 1089.4C249.016 1089.4 248.681 1089.07 248.681 1088.66C248.681 1088.24 249.016 1087.91 249.43 1087.91Z" fill="#2A5C8E"/>
<path opacity="0.5" d="M277.144 1088.16C277.394 1088.16 277.643 1088.41 277.643 1088.66C277.643 1088.9 277.394 1089.15 277.144 1089.15C276.894 1089.15 276.645 1088.9 276.645 1088.66C276.894 1088.41 277.144 1088.16 277.144 1088.16Z" fill="#2A5C8E"/>
<path opacity="0.5" d="M304.858 1088.41C305.107 1088.41 305.107 1088.41 304.858 1088.41C305.107 1088.66 305.107 1088.66 304.858 1088.41C304.858 1088.66 304.858 1088.66 304.858 1088.41Z" fill="#2A5C8E"/>
<path opacity="0.5" d="M69.4106 1060.7C69.4106 1060.7 69.6596 1060.7 69.4106 1060.7C69.6596 1060.94 69.4106 1060.94 69.4106 1060.7C69.4106 1060.94 69.4106 1060.94 69.4106 1060.7Z" fill="#2A5C8E"/>
<path opacity="0.5" d="M97.1253 1060.45C97.375 1060.45 97.6247 1060.7 97.6247 1060.94C97.6247 1061.19 97.375 1061.44 97.1253 1061.44C96.8757 1061.44 96.626 1061.19 96.626 1060.94C96.626 1060.45 96.8757 1060.45 97.1253 1060.45Z" fill="#2A5C8E"/>
<path opacity="0.5" d="M124.84 1059.7C125.589 1059.7 126.088 1060.2 126.088 1060.94C126.088 1061.69 125.589 1062.19 124.84 1062.19C124.091 1062.19 123.591 1061.69 123.591 1060.94C123.591 1060.2 124.091 1059.7 124.84 1059.7Z" fill="#2A5C8E"/>
<path opacity="0.5" d="M152.554 1059.2C153.553 1059.2 154.302 1059.95 154.302 1060.94C154.302 1061.94 153.553 1062.69 152.554 1062.69C151.555 1062.69 150.806 1061.94 150.806 1060.94C150.806 1059.95 151.555 1059.2 152.554 1059.2Z" fill="#2A5C8E"/>
<path opacity="0.5" d="M180.268 1058.95C181.267 1058.95 182.266 1059.95 182.266 1060.94C182.266 1061.94 181.267 1062.94 180.268 1062.94C179.27 1062.94 178.271 1061.94 178.271 1060.94C178.271 1059.95 179.27 1058.95 180.268 1058.95Z" fill="#2A5C8E"/>
<path opacity="0.5" d="M207.983 1058.7C209.231 1058.7 210.23 1059.7 210.23 1060.94C210.23 1062.19 209.231 1063.19 207.983 1063.19C206.735 1063.19 205.736 1062.19 205.736 1060.94C205.736 1059.7 206.735 1058.7 207.983 1058.7Z" fill="#2A5C8E"/>
<path opacity="0.5" d="M235.697 1058.95C236.8 1058.95 237.695 1059.84 237.695 1060.94C237.695 1062.05 236.8 1062.94 235.697 1062.94C234.594 1062.94 233.7 1062.05 233.7 1060.94C233.7 1059.84 234.594 1058.95 235.697 1058.95Z" fill="#2A5C8E"/>
<path opacity="0.5" d="M263.412 1059.2C264.377 1059.2 265.16 1059.98 265.16 1060.94C265.16 1061.91 264.377 1062.69 263.412 1062.69C262.447 1062.69 261.664 1061.91 261.664 1060.94C261.664 1059.98 262.447 1059.2 263.412 1059.2Z" fill="#2A5C8E"/>
<path opacity="0.5" d="M291.126 1059.7C291.875 1059.7 292.374 1060.2 292.374 1060.94C292.374 1061.69 291.875 1062.19 291.126 1062.19C290.377 1062.19 289.877 1061.69 289.877 1060.94C289.877 1060.2 290.377 1059.7 291.126 1059.7Z" fill="#2A5C8E"/>
<path opacity="0.5" d="M318.84 1060.2C319.09 1060.2 319.34 1060.45 319.34 1060.7C319.34 1060.94 319.09 1061.19 318.84 1061.19C318.591 1061.19 318.341 1060.94 318.341 1060.7C318.091 1060.45 318.341 1060.2 318.84 1060.2Z" fill="#2A5C8E"/>
<path opacity="0.5" d="M346.554 1060.7C346.554 1060.94 346.554 1060.94 346.554 1060.7C346.554 1060.94 346.306 1060.94 346.554 1060.7C346.554 1060.7 346.306 1060.7 346.554 1060.7Z" fill="#2A5C8E"/>
<path opacity="0.5" d="M55.6784 1032.74C55.9281 1032.74 55.9281 1032.98 55.9281 1032.98C55.9281 1033.23 55.6784 1033.23 55.6784 1033.23C55.4287 1033.23 55.4287 1032.98 55.4287 1032.98C55.4287 1032.98 55.4287 1032.74 55.6784 1032.74Z" fill="#2A5C8E"/>
<path opacity="0.5" d="M83.3929 1031.99C84.0824 1031.99 84.6413 1032.55 84.6413 1033.23C84.6413 1033.92 84.0824 1034.48 83.3929 1034.48C82.7035 1034.48 82.1445 1033.92 82.1445 1033.23C82.1445 1032.55 82.7035 1031.99 83.3929 1031.99Z" fill="#2A5C8E"/>
<path opacity="0.5" d="M111.107 1031.24C112.21 1031.24 113.105 1032.13 113.105 1033.23C113.105 1034.34 112.21 1035.23 111.107 1035.23C110.004 1035.23 109.11 1034.34 109.11 1033.23C109.11 1032.13 110.004 1031.24 111.107 1031.24Z" fill="#2A5C8E"/>
<path opacity="0.5" d="M138.822 1030.49C140.338 1030.49 141.568 1031.72 141.568 1033.23C141.568 1034.75 140.338 1035.98 138.822 1035.98C137.305 1035.98 136.075 1034.75 136.075 1033.23C136.075 1031.72 137.305 1030.49 138.822 1030.49Z" fill="#2A5C8E"/>
<path opacity="0.5" d="M166.536 1029.99C168.328 1029.99 169.782 1031.44 169.782 1033.23C169.782 1035.03 168.328 1036.48 166.536 1036.48C164.743 1036.48 163.29 1035.03 163.29 1033.23C163.29 1031.44 164.743 1029.99 166.536 1029.99Z" fill="#2A5C8E"/>
<path opacity="0.5" d="M194.25 1029.74C195.998 1029.74 197.746 1031.24 197.746 1033.23C197.746 1035.23 196.248 1036.73 194.25 1036.73C192.503 1036.73 190.755 1035.23 190.755 1033.23C190.755 1031.24 192.253 1029.74 194.25 1029.74Z" fill="#2A5C8E"/>
<path opacity="0.5" d="M221.965 1029.74C223.895 1029.74 225.46 1031.3 225.46 1033.23C225.46 1035.16 223.895 1036.73 221.965 1036.73C220.034 1036.73 218.469 1035.16 218.469 1033.23C218.469 1031.3 220.034 1029.74 221.965 1029.74Z" fill="#2A5C8E"/>
<path opacity="0.5" d="M249.429 1029.99C251.222 1029.99 252.675 1031.44 252.675 1033.23C252.675 1035.03 251.222 1036.48 249.429 1036.48C247.637 1036.48 246.184 1035.03 246.184 1033.23C246.184 1031.44 247.637 1029.99 249.429 1029.99Z" fill="#2A5C8E"/>
<path opacity="0.5" d="M277.144 1030.49C278.661 1030.49 279.89 1031.72 279.89 1033.23C279.89 1034.75 278.661 1035.98 277.144 1035.98C275.627 1035.98 274.397 1034.75 274.397 1033.23C274.397 1031.72 275.627 1030.49 277.144 1030.49Z" fill="#2A5C8E"/>
<path opacity="0.5" d="M304.858 1031.24C305.961 1031.24 306.856 1032.13 306.856 1033.23C306.856 1034.34 305.961 1035.23 304.858 1035.23C303.755 1035.23 302.861 1034.34 302.861 1033.23C302.861 1032.13 303.755 1031.24 304.858 1031.24Z" fill="#2A5C8E"/>
<path opacity="0.5" d="M332.573 1031.99C333.322 1031.99 333.821 1032.49 333.821 1033.23C333.821 1033.98 333.322 1034.48 332.573 1034.48C331.824 1034.48 331.324 1033.98 331.324 1033.23C331.324 1032.49 332.073 1031.99 332.573 1031.99Z" fill="#2A5C8E"/>
<path opacity="0.5" d="M360.287 1032.74C360.537 1032.74 360.786 1032.98 360.786 1033.23C360.786 1033.48 360.537 1033.73 360.287 1033.73C360.037 1033.73 359.788 1033.48 359.788 1033.23C360.037 1032.98 360.037 1032.74 360.287 1032.74Z" fill="#2A5C8E"/>
<path opacity="0.5" d="M41.6966 1005.02C41.9463 1005.02 42.196 1005.27 42.196 1005.52C42.196 1005.77 41.9463 1006.02 41.6966 1006.02C41.4469 1006.02 41.1973 1005.77 41.1973 1005.52C41.1973 1005.27 41.4469 1005.02 41.6966 1005.02Z" fill="#2A5C8E"/>
<path opacity="0.5" d="M69.4107 1004.03C70.238 1004.03 70.9087 1004.7 70.9087 1005.52C70.9087 1006.35 70.238 1007.02 69.4107 1007.02C68.5833 1007.02 67.9126 1006.35 67.9126 1005.52C67.9126 1004.7 68.5833 1004.03 69.4107 1004.03Z" fill="#2A5C8E"/>
<path opacity="0.5" d="M97.1252 1003.03C98.5042 1003.03 99.622 1004.15 99.622 1005.52C99.622 1006.9 98.5042 1008.02 97.1252 1008.02C95.7463 1008.02 94.6284 1006.9 94.6284 1005.52C94.6284 1004.15 95.7463 1003.03 97.1252 1003.03Z" fill="#2A5C8E"/>
<path opacity="0.5" d="M124.84 1002.03C126.77 1002.03 128.335 1003.59 128.335 1005.52C128.335 1007.45 126.77 1009.02 124.84 1009.02C122.909 1009.02 121.344 1007.45 121.344 1005.52C121.344 1003.59 122.909 1002.03 124.84 1002.03Z" fill="#2A5C8E"/>
<path opacity="0.5" d="M152.554 1001.53C154.76 1001.53 156.549 1003.32 156.549 1005.52C156.549 1007.73 154.76 1009.52 152.554 1009.52C150.348 1009.52 148.559 1007.73 148.559 1005.52C148.559 1003.32 150.348 1001.53 152.554 1001.53Z" fill="#2A5C8E"/>
<path opacity="0.5" d="M180.268 1001.03C182.75 1001.03 184.762 1003.04 184.762 1005.52C184.762 1008.01 182.75 1010.02 180.268 1010.02C177.786 1010.02 175.774 1008.01 175.774 1005.52C175.774 1003.04 177.786 1001.03 180.268 1001.03Z" fill="#2A5C8E"/>
<path opacity="0.5" d="M207.983 1000.78C210.603 1000.78 212.727 1002.9 212.727 1005.52C212.727 1008.14 210.603 1010.27 207.983 1010.27C205.363 1010.27 203.239 1008.14 203.239 1005.52C203.239 1002.9 205.363 1000.78 207.983 1000.78Z" fill="#2A5C8E"/>
<path opacity="0.5" d="M235.697 1000.78C238.194 1000.78 240.192 1002.78 240.192 1005.27C240.192 1007.77 238.194 1009.77 235.697 1009.77C233.201 1009.77 231.203 1007.77 231.203 1005.27C231.203 1002.78 233.201 1000.78 235.697 1000.78Z" fill="#2A5C8E"/>
<path opacity="0.5" d="M263.412 1001.28C265.756 1001.28 267.656 1003.18 267.656 1005.52C267.656 1007.87 265.756 1009.77 263.412 1009.77C261.067 1009.77 259.167 1007.87 259.167 1005.52C259.167 1003.18 261.067 1001.28 263.412 1001.28Z" fill="#2A5C8E"/>
<path opacity="0.5" d="M291.126 1002.03C293.056 1002.03 294.621 1003.59 294.621 1005.52C294.621 1007.45 293.056 1009.02 291.126 1009.02C289.195 1009.02 287.63 1007.45 287.63 1005.52C287.63 1003.59 289.195 1002.03 291.126 1002.03Z" fill="#2A5C8E"/>
<path opacity="0.5" d="M318.84 1002.78C320.338 1002.78 321.337 1004.03 321.337 1005.27C321.337 1006.77 320.089 1007.77 318.84 1007.77C317.342 1007.77 316.343 1006.52 316.343 1005.27C316.094 1004.03 317.342 1002.78 318.84 1002.78Z" fill="#2A5C8E"/>
<path opacity="0.5" d="M346.555 1003.78C347.554 1003.78 348.303 1004.53 348.303 1005.52C348.303 1006.52 347.554 1007.27 346.555 1007.27C345.556 1007.27 344.807 1006.52 344.807 1005.52C344.807 1004.53 345.556 1003.78 346.555 1003.78Z" fill="#2A5C8E"/>
<path opacity="0.5" d="M374.269 1004.78C374.683 1004.78 375.018 1005.11 375.018 1005.52C375.018 1005.94 374.683 1006.27 374.269 1006.27C373.855 1006.27 373.52 1005.94 373.52 1005.52C373.52 1005.11 373.855 1004.78 374.269 1004.78Z" fill="#2A5C8E"/>
<path opacity="0.5" d="M27.9639 977.065C28.2136 977.065 28.4632 977.314 28.4632 977.564C28.4632 977.814 28.2136 978.063 27.9639 978.063C27.7142 978.063 27.4645 977.814 27.4645 977.564C27.2149 977.314 27.7142 977.065 27.9639 977.065Z" fill="#2A5C8E"/>
<path opacity="0.5" d="M55.6784 976.066C56.6771 976.066 57.4262 976.815 57.4262 977.814C57.4262 978.812 56.6771 979.561 55.6784 979.561C54.6797 979.561 53.9307 978.812 53.9307 977.814C53.9307 976.815 54.6797 976.066 55.6784 976.066Z" fill="#2A5C8E"/>
<path opacity="0.5" d="M83.3926 974.818C85.0474 974.818 86.3888 976.159 86.3888 977.814C86.3888 979.468 85.0474 980.809 83.3926 980.809C81.7379 980.809 80.3965 979.468 80.3965 977.814C80.3965 976.159 81.7379 974.818 83.3926 974.818Z" fill="#2A5C8E"/>
<path opacity="0.5" d="M111.107 973.819C113.354 973.819 115.102 975.567 115.102 977.814C115.102 980.06 113.354 981.808 111.107 981.808C108.86 981.808 107.112 980.06 107.112 977.814C107.112 975.567 108.86 973.819 111.107 973.819Z" fill="#2A5C8E"/>
<path opacity="0.5" d="M138.821 972.821C141.568 972.821 143.565 975.068 143.565 977.564C143.565 980.31 141.318 982.307 138.821 982.307C136.075 982.307 134.078 980.06 134.078 977.564C133.828 975.068 136.075 972.821 138.821 972.821Z" fill="#2A5C8E"/>
<path opacity="0.5" d="M166.536 972.321C169.532 972.321 172.029 974.818 172.029 977.814C172.029 980.809 169.532 983.306 166.536 983.306C163.54 983.306 161.043 980.809 161.043 977.814C161.043 974.818 163.29 972.321 166.536 972.321Z" fill="#2A5C8E"/>
<path opacity="0.5" d="M194.251 971.822C197.496 971.822 200.243 974.568 200.243 977.814C200.243 981.059 197.496 983.805 194.251 983.805C191.005 983.805 188.258 981.059 188.258 977.814C188.258 974.568 190.755 971.822 194.251 971.822Z" fill="#2A5C8E"/>
<path opacity="0.5" d="M221.965 971.822C225.211 971.822 227.957 974.568 227.957 977.814C227.957 981.059 225.211 983.805 221.965 983.805C218.719 983.805 215.973 981.059 215.973 977.814C215.973 974.568 218.469 971.822 221.965 971.822Z" fill="#2A5C8E"/>
<path opacity="0.5" d="M249.429 972.072C252.426 972.072 254.922 974.568 254.922 977.564C254.922 980.56 252.426 983.056 249.429 983.056C246.433 983.056 243.937 980.56 243.937 977.564C243.937 974.568 246.433 972.072 249.429 972.072Z" fill="#2A5C8E"/>
<path opacity="0.5" d="M277.144 972.821C279.89 972.821 282.138 975.068 282.138 977.814C282.138 980.56 279.89 982.807 277.144 982.807C274.397 982.807 272.15 980.56 272.15 977.814C272.4 975.068 274.647 972.821 277.144 972.821Z" fill="#2A5C8E"/>
<path opacity="0.5" d="M304.858 973.819C307.105 973.819 308.853 975.567 308.853 977.814C308.853 980.06 307.105 981.808 304.858 981.808C302.611 981.808 300.863 980.06 300.863 977.814C300.863 975.567 302.861 973.819 304.858 973.819Z" fill="#2A5C8E"/>
<path opacity="0.5" d="M332.573 974.818C334.321 974.818 335.569 976.066 335.569 977.814C335.569 979.561 334.321 980.809 332.573 980.809C330.825 980.809 329.577 979.561 329.577 977.814C329.577 976.066 331.075 974.818 332.573 974.818Z" fill="#2A5C8E"/>
<path opacity="0.5" d="M360.287 976.066C361.253 976.066 362.035 976.849 362.035 977.814C362.035 978.779 361.253 979.561 360.287 979.561C359.322 979.561 358.54 978.779 358.54 977.814C358.54 976.849 359.322 976.066 360.287 976.066Z" fill="#2A5C8E"/>
<path opacity="0.5" d="M388.001 977.065C388.501 977.065 388.75 977.314 388.75 977.814C388.75 978.313 388.501 978.562 388.001 978.562C387.502 978.562 387.252 978.313 387.252 977.814C387.252 977.314 387.752 977.065 388.001 977.065Z" fill="#2A5C8E"/>
<path opacity="0.5" d="M13.9823 949.604C14.2319 949.604 14.4816 949.854 14.4816 950.103C14.4816 950.353 14.2319 950.603 13.9823 950.603C13.7326 950.603 13.4829 950.353 13.4829 950.103C13.7326 949.854 13.7326 949.604 13.9823 949.604Z" fill="#2A5C8E"/>
<path opacity="0.5" d="M41.6965 948.356C42.6952 948.356 43.4442 949.105 43.4442 950.103C43.4442 951.102 42.6952 951.851 41.6965 951.851C40.6978 951.851 39.9487 951.102 39.9487 950.103C40.1984 949.105 40.9474 948.356 41.6965 948.356Z" fill="#2A5C8E"/>
<path opacity="0.5" d="M69.4107 947.108C70.9088 947.108 72.4069 948.356 72.4069 950.103C72.4069 951.601 71.1585 953.099 69.4107 953.099C67.9126 953.099 66.4146 951.851 66.4146 950.103C66.6642 948.356 67.9126 947.108 69.4107 947.108Z" fill="#2A5C8E"/>
<path opacity="0.5" d="M97.1252 946.109C99.3724 946.109 101.12 947.856 101.12 950.103C101.12 952.35 99.3724 954.097 97.1252 954.097C94.8781 954.097 93.1304 952.35 93.1304 950.103C93.1304 947.856 94.8781 946.109 97.1252 946.109Z" fill="#2A5C8E"/>
<path opacity="0.5" d="M124.839 944.861C127.836 944.861 130.083 947.107 130.083 950.103C130.083 953.099 127.836 955.346 124.839 955.346C121.843 955.346 119.596 953.099 119.596 950.103C119.596 947.107 122.093 944.861 124.839 944.861Z" fill="#2A5C8E"/>
<path opacity="0.5" d="M152.554 943.862C156.05 943.862 158.796 946.608 158.796 950.103C158.796 953.598 156.05 956.344 152.554 956.344C149.058 956.344 146.312 953.598 146.312 950.103C146.312 946.608 149.058 943.862 152.554 943.862Z" fill="#2A5C8E"/>
<path opacity="0.5" d="M180.268 943.113C184.014 943.113 187.259 946.359 187.259 950.103C187.259 953.848 184.014 957.093 180.268 957.093C176.523 957.093 173.277 953.848 173.277 950.103C173.277 946.109 176.523 943.113 180.268 943.113Z" fill="#2A5C8E"/>
<path opacity="0.5" d="M207.983 942.864C211.978 942.864 215.224 946.109 215.224 950.103C215.224 954.098 211.978 957.343 207.983 957.343C203.988 957.343 200.742 954.098 200.742 950.103C200.742 946.109 203.988 942.864 207.983 942.864Z" fill="#2A5C8E"/>
<path opacity="0.5" d="M235.697 943.113C239.692 943.113 242.688 946.359 242.688 950.103C242.688 954.098 239.442 957.093 235.697 957.093C231.702 957.093 228.706 953.848 228.706 950.103C228.706 946.109 231.702 943.113 235.697 943.113Z" fill="#2A5C8E"/>
<path opacity="0.5" d="M263.411 943.862C266.907 943.862 269.653 946.608 269.653 950.103C269.653 953.598 266.907 956.344 263.411 956.344C259.916 956.344 257.169 953.598 257.169 950.103C257.169 946.608 259.916 943.862 263.411 943.862Z" fill="#2A5C8E"/>
<path opacity="0.5" d="M291.126 944.861C294.122 944.861 296.369 947.357 296.369 950.103C296.369 953.099 293.873 955.346 291.126 955.346C288.13 955.346 285.883 952.849 285.883 950.103C285.883 947.107 288.13 944.861 291.126 944.861Z" fill="#2A5C8E"/>
<path opacity="0.5" d="M318.84 945.859C321.087 945.859 323.085 947.856 323.085 950.103C323.085 952.35 321.087 954.347 318.84 954.347C316.593 954.347 314.596 952.35 314.596 950.103C314.596 947.856 316.593 945.859 318.84 945.859Z" fill="#2A5C8E"/>
<path opacity="0.5" d="M346.555 947.108C348.302 947.108 349.551 948.356 349.551 950.103C349.551 951.851 348.302 953.099 346.555 953.099C344.807 953.099 343.559 951.851 343.559 950.103C343.559 948.356 344.807 947.108 346.555 947.108Z" fill="#2A5C8E"/>
<path opacity="0.5" d="M374.269 948.106C375.268 948.106 376.017 948.855 376.017 949.854C376.017 950.852 375.268 951.601 374.269 951.601C373.271 951.601 372.521 950.852 372.521 949.854C372.521 948.855 373.271 948.106 374.269 948.106Z" fill="#2A5C8E"/>
<path opacity="0.5" d="M401.984 949.354C402.233 949.354 402.483 949.604 402.483 949.853C402.483 950.103 402.233 950.353 401.984 950.353C401.734 950.353 401.484 950.103 401.484 949.853C401.234 949.853 401.484 949.354 401.984 949.354Z" fill="#2A5C8E"/>
<path opacity="0.5" d="M0.249679 922.143C0.387573 922.143 0.499358 922.255 0.499358 922.393C0.499358 922.531 0.387573 922.642 0.249679 922.642C0.111785 922.642 0 922.531 0 922.393C0 922.255 0.111785 922.143 0.249679 922.143Z" fill="#2A5C8E"/>
<path opacity="0.5" d="M27.9639 920.895C28.7129 920.895 29.462 921.394 29.462 922.393C29.462 923.142 28.9626 923.891 27.9639 923.891C27.2149 923.891 26.4658 923.391 26.4658 922.393C26.4658 921.644 27.2149 920.895 27.9639 920.895Z" fill="#2A5C8E"/>
<path opacity="0.5" d="M55.6786 919.647C57.1954 919.647 58.4251 920.876 58.4251 922.393C58.4251 923.909 57.1954 925.139 55.6786 925.139C54.1618 925.139 52.9321 923.909 52.9321 922.393C52.9321 920.876 54.1618 919.647 55.6786 919.647Z" fill="#2A5C8E"/>
<path opacity="0.5" d="M83.3928 918.399C85.6399 918.399 87.3877 920.146 87.3877 922.393C87.3877 924.64 85.6399 926.387 83.3928 926.387C81.1457 926.387 79.3979 924.64 79.3979 922.393C79.3979 920.146 81.1457 918.399 83.3928 918.399Z" fill="#2A5C8E"/>
<path opacity="0.5" d="M111.107 917.15C113.854 917.15 116.35 919.397 116.35 922.393C116.35 925.139 114.103 927.635 111.107 927.635C108.111 927.635 105.864 925.389 105.864 922.393C105.864 919.647 108.111 917.15 111.107 917.15Z" fill="#2A5C8E"/>
<path opacity="0.5" d="M138.822 915.902C142.407 915.902 145.313 918.808 145.313 922.393C145.313 925.978 142.407 928.884 138.822 928.884C135.236 928.884 132.33 925.978 132.33 922.393C132.33 918.808 135.236 915.902 138.822 915.902Z" fill="#2A5C8E"/>
<path opacity="0.5" d="M166.536 914.904C170.781 914.904 174.027 918.149 174.027 922.393C174.027 926.637 170.781 929.882 166.536 929.882C162.292 929.882 159.046 926.637 159.046 922.393C159.046 918.149 162.292 914.904 166.536 914.904Z" fill="#2A5C8E"/>
<path opacity="0.5" d="M194.25 913.905C198.994 913.905 202.739 917.65 202.739 922.393C202.739 927.136 198.994 930.881 194.25 930.881C189.506 930.881 185.761 927.136 185.761 922.393C185.761 917.65 189.506 913.905 194.25 913.905Z" fill="#2A5C8E"/>
<path opacity="0.5" d="M221.965 913.905C226.709 913.905 230.454 917.65 230.454 922.393C230.454 927.136 226.709 930.881 221.965 930.881C217.221 930.881 213.476 927.136 213.476 922.393C213.476 917.65 217.221 913.905 221.965 913.905Z" fill="#2A5C8E"/>
<path opacity="0.5" d="M249.429 914.654C253.674 914.654 256.92 918.149 256.92 922.143C256.92 926.387 253.424 929.633 249.429 929.633C245.185 929.633 241.939 926.138 241.939 922.143C241.939 918.149 245.434 914.654 249.429 914.654Z" fill="#2A5C8E"/>
<path opacity="0.5" d="M277.144 915.902C280.64 915.902 283.636 918.898 283.636 922.393C283.636 925.888 280.64 928.884 277.144 928.884C273.648 928.884 270.652 925.888 270.652 922.393C270.652 918.898 273.648 915.902 277.144 915.902Z" fill="#2A5C8E"/>
<path opacity="0.5" d="M304.859 917.15C307.855 917.15 310.102 919.647 310.102 922.393C310.102 925.389 307.605 927.635 304.859 927.635C301.862 927.635 299.615 925.139 299.615 922.393C299.615 919.397 302.112 917.15 304.859 917.15Z" fill="#2A5C8E"/>
<path opacity="0.5" d="M332.572 918.399C334.779 918.399 336.567 920.187 336.567 922.393C336.567 924.599 334.779 926.387 332.572 926.387C330.366 926.387 328.578 924.599 328.578 922.393C328.578 920.187 330.366 918.399 332.572 918.399Z" fill="#2A5C8E"/>
<path opacity="0.5" d="M360.287 919.647C361.785 919.647 363.033 920.895 363.033 922.393C363.033 923.891 361.785 925.139 360.287 925.139C358.789 925.139 357.541 923.891 357.541 922.393C357.541 920.895 358.789 919.647 360.287 919.647Z" fill="#2A5C8E"/>
<path opacity="0.5" d="M388.001 920.895C388.75 920.895 389.5 921.644 389.5 922.393C389.5 923.142 388.75 923.891 388.001 923.891C387.252 923.891 386.503 923.142 386.503 922.393C386.503 921.644 387.252 920.895 388.001 920.895Z" fill="#2A5C8E"/>
<path opacity="0.5" d="M415.716 922.143C415.966 922.143 415.966 922.393 415.966 922.393C415.966 922.642 415.716 922.642 415.716 922.642C415.466 922.642 415.466 922.393 415.466 922.393C415.466 922.143 415.466 922.143 415.716 922.143Z" fill="#2A5C8E"/>
<path opacity="0.5" d="M13.9819 893.934C14.4813 893.934 14.9807 894.183 14.9807 894.682C14.9807 895.182 14.4813 895.431 14.2316 895.431C13.9819 895.431 13.2329 895.182 13.2329 894.682C13.2329 894.183 13.7323 893.934 13.9819 893.934Z" fill="#2A5C8E"/>
<path opacity="0.5" d="M41.6963 892.436C42.9447 892.436 43.9434 893.434 43.9434 894.683C43.9434 895.931 42.9447 896.929 41.6963 896.929C40.4479 896.929 39.4492 895.931 39.4492 894.683C39.4492 893.434 40.6976 892.436 41.6963 892.436Z" fill="#2A5C8E"/>
<path opacity="0.5" d="M69.411 891.187C71.4085 891.187 72.9065 892.685 72.9065 894.682C72.9065 896.68 71.4085 898.177 69.411 898.177C67.4136 898.177 65.9155 896.68 65.9155 894.682C65.9155 892.685 67.6633 891.187 69.411 891.187Z" fill="#2A5C8E"/>
<path opacity="0.5" d="M97.1253 889.939C99.7452 889.939 101.869 892.063 101.869 894.683C101.869 897.302 99.7452 899.426 97.1253 899.426C94.5053 899.426 92.3813 897.302 92.3813 894.683C92.3813 892.063 94.5053 889.939 97.1253 889.939Z" fill="#2A5C8E"/>
<path opacity="0.5" d="M124.839 888.691C128.085 888.691 130.832 891.437 130.832 894.683C130.832 897.928 128.085 900.674 124.839 900.674C121.594 900.674 118.847 897.928 118.847 894.683C118.847 891.437 121.594 888.691 124.839 888.691Z" fill="#2A5C8E"/>
<path opacity="0.5" d="M152.554 887.443C156.553 887.443 159.795 890.684 159.795 894.682C159.795 898.681 156.553 901.922 152.554 901.922C148.555 901.922 145.313 898.681 145.313 894.682C145.313 890.684 148.555 887.443 152.554 887.443Z" fill="#2A5C8E"/>
<path opacity="0.5" d="M180.268 886.195C185.012 886.195 188.757 889.939 188.757 894.683C188.757 899.426 185.012 903.17 180.268 903.17C175.524 903.17 171.779 899.426 171.779 894.683C171.779 889.939 175.524 886.195 180.268 886.195Z" fill="#2A5C8E"/>
<path opacity="0.5" d="M207.983 885.196C213.226 885.196 217.471 889.44 217.471 894.683C217.471 899.925 213.226 904.169 207.983 904.169C202.74 904.169 198.495 899.925 198.495 894.683C198.495 889.44 202.74 885.196 207.983 885.196Z" fill="#2A5C8E"/>
<path opacity="0.5" d="M235.697 885.945C240.524 885.945 244.436 889.857 244.436 894.683C244.436 899.508 240.524 903.42 235.697 903.42C230.871 903.42 226.958 899.508 226.958 894.683C226.958 889.857 230.871 885.945 235.697 885.945Z" fill="#2A5C8E"/>
<path opacity="0.5" d="M263.412 887.193C267.549 887.193 270.902 890.546 270.902 894.682C270.902 898.819 267.549 902.172 263.412 902.172C259.275 902.172 255.921 898.819 255.921 894.682C255.921 890.546 259.275 887.193 263.412 887.193Z" fill="#2A5C8E"/>
<path opacity="0.5" d="M291.126 888.441C294.573 888.441 297.368 891.236 297.368 894.683C297.368 898.129 294.573 900.924 291.126 900.924C287.678 900.924 284.884 898.129 284.884 894.683C284.884 891.236 287.678 888.441 291.126 888.441Z" fill="#2A5C8E"/>
<path opacity="0.5" d="M318.841 889.939C321.587 889.939 323.584 892.186 323.584 894.683C323.584 897.429 321.337 899.426 318.841 899.426C316.094 899.426 314.097 897.179 314.097 894.683C313.847 891.936 316.094 889.939 318.841 889.939Z" fill="#2A5C8E"/>
<path opacity="0.5" d="M346.555 891.187C348.552 891.187 350.05 892.685 350.05 894.682C350.05 896.68 348.552 898.177 346.555 898.177C344.557 898.177 343.059 896.68 343.059 894.682C343.059 892.685 344.557 891.187 346.555 891.187Z" fill="#2A5C8E"/>
<path opacity="0.5" d="M374.269 892.436C375.51 892.436 376.516 893.442 376.516 894.683C376.516 895.923 375.51 896.929 374.269 896.929C373.028 896.929 372.022 895.923 372.022 894.683C372.022 893.442 373.028 892.436 374.269 892.436Z" fill="#2A5C8E"/>
<path opacity="0.5" d="M401.984 893.684C402.483 893.684 402.982 894.183 402.982 894.682C402.982 895.182 402.483 895.681 401.984 895.681C401.484 895.681 400.985 895.182 400.985 894.682C400.985 894.183 401.235 893.684 401.984 893.684Z" fill="#2A5C8E"/>
<path opacity="0.5" d="M0.249679 866.723C0.387573 866.723 0.499358 866.834 0.499358 866.972C0.499358 867.11 0.387573 867.222 0.249679 867.222C0.111785 867.222 0 867.11 0 866.972C0 866.834 0.111785 866.723 0.249679 866.723Z" fill="#2A5C8E"/>
<path opacity="0.5" d="M27.9639 865.474C28.7129 865.474 29.462 865.974 29.462 866.972C29.462 867.721 28.9626 868.47 27.9639 868.47C27.2149 868.47 26.4658 867.971 26.4658 866.972C26.4658 866.223 27.2149 865.474 27.9639 865.474Z" fill="#2A5C8E"/>
<path opacity="0.5" d="M55.6786 864.226C57.1954 864.226 58.4251 865.456 58.4251 866.972C58.4251 868.489 57.1954 869.718 55.6786 869.718C54.1618 869.718 52.9321 868.489 52.9321 866.972C52.9321 865.456 54.1618 864.226 55.6786 864.226Z" fill="#2A5C8E"/>
<path opacity="0.5" d="M83.3928 862.978C85.5991 862.978 87.3877 864.766 87.3877 866.972C87.3877 869.178 85.5991 870.966 83.3928 870.966C81.1865 870.966 79.3979 869.178 79.3979 866.972C79.3979 864.766 81.1865 862.978 83.3928 862.978Z" fill="#2A5C8E"/>
<path opacity="0.5" d="M111.107 861.73C114.003 861.73 116.35 864.077 116.35 866.972C116.35 869.867 114.003 872.215 111.107 872.215C108.211 872.215 105.864 869.867 105.864 866.972C105.864 864.077 108.211 861.73 111.107 861.73Z" fill="#2A5C8E"/>
<path opacity="0.5" d="M138.822 860.481C142.317 860.481 145.313 863.477 145.313 866.972C145.313 870.467 142.317 873.463 138.822 873.463C135.326 873.463 132.33 870.467 132.33 866.972C132.33 863.477 135.077 860.481 138.822 860.481Z" fill="#2A5C8E"/>
<path opacity="0.5" d="M166.536 859.483C170.781 859.483 174.027 862.978 174.027 866.972C174.027 871.216 170.531 874.461 166.536 874.461C162.292 874.461 159.046 870.966 159.046 866.972C158.796 862.728 162.292 859.483 166.536 859.483Z" fill="#2A5C8E"/>
<path opacity="0.5" d="M194.25 858.484C198.994 858.484 202.739 862.229 202.739 866.972C202.739 871.715 198.994 875.46 194.25 875.46C189.506 875.46 185.761 871.715 185.761 866.972C185.761 862.229 189.506 858.484 194.25 858.484Z" fill="#2A5C8E"/>
<path opacity="0.5" d="M221.965 858.484C226.653 858.484 230.454 862.284 230.454 866.972C230.454 871.66 226.653 875.46 221.965 875.46C217.276 875.46 213.476 871.66 213.476 866.972C213.476 862.284 217.276 858.484 221.965 858.484Z" fill="#2A5C8E"/>
<path opacity="0.5" d="M249.43 859.233C253.704 859.233 257.17 862.698 257.17 866.972C257.17 871.246 253.704 874.711 249.43 874.711C245.155 874.711 241.689 871.246 241.689 866.972C241.689 862.698 245.155 859.233 249.43 859.233Z" fill="#2A5C8E"/>
<path opacity="0.5" d="M277.144 860.481C280.729 860.481 283.636 863.387 283.636 866.972C283.636 870.557 280.729 873.463 277.144 873.463C273.559 873.463 270.652 870.557 270.652 866.972C270.652 863.387 273.559 860.481 277.144 860.481Z" fill="#2A5C8E"/>
<path opacity="0.5" d="M304.859 861.73C307.855 861.73 310.102 864.226 310.102 866.972C310.102 869.718 307.605 872.215 304.859 872.215C301.862 872.215 299.615 869.718 299.615 866.972C299.615 864.226 302.112 861.73 304.859 861.73Z" fill="#2A5C8E"/>
<path opacity="0.5" d="M332.572 862.978C334.779 862.978 336.567 864.766 336.567 866.972C336.567 869.178 334.779 870.966 332.572 870.966C330.366 870.966 328.578 869.178 328.578 866.972C328.578 864.766 330.366 862.978 332.572 862.978Z" fill="#2A5C8E"/>
<path opacity="0.5" d="M360.287 864.226C361.785 864.226 363.033 865.474 363.033 866.972C363.033 868.47 361.785 869.718 360.287 869.718C358.789 869.718 357.541 868.47 357.541 866.972C357.541 865.474 358.789 864.226 360.287 864.226Z" fill="#2A5C8E"/>
<path opacity="0.5" d="M388.001 865.474C388.829 865.474 389.5 866.145 389.5 866.972C389.5 867.799 388.829 868.47 388.001 868.47C387.174 868.47 386.503 867.799 386.503 866.972C386.503 866.145 387.174 865.474 388.001 865.474Z" fill="#2A5C8E"/>
<path opacity="0.5" d="M415.716 866.723C415.854 866.723 415.966 866.834 415.966 866.972C415.966 867.11 415.854 867.222 415.716 867.222C415.578 867.222 415.466 867.11 415.466 866.972C415.466 866.834 415.578 866.723 415.716 866.723Z" fill="#2A5C8E"/>
<path opacity="0.5" d="M13.9823 838.762C14.2319 838.762 14.4816 839.012 14.4816 839.262C14.4816 839.511 14.2319 839.761 13.9823 839.761C13.7326 839.761 13.4829 839.511 13.4829 839.262C13.4829 839.012 13.7326 838.762 13.9823 838.762Z" fill="#2A5C8E"/>
<path opacity="0.5" d="M41.6965 837.514C42.6952 837.514 43.4442 838.263 43.4442 839.262C43.4442 840.26 42.6952 841.009 41.6965 841.009C40.6978 841.009 39.9487 840.26 39.9487 839.262C39.9487 838.263 40.6978 837.514 41.6965 837.514Z" fill="#2A5C8E"/>
<path opacity="0.5" d="M69.4107 836.266C71.0654 836.266 72.4069 837.607 72.4069 839.262C72.4069 840.916 71.0654 842.257 69.4107 842.257C67.756 842.257 66.4146 840.916 66.4146 839.262C66.4146 837.607 67.756 836.266 69.4107 836.266Z" fill="#2A5C8E"/>
<path opacity="0.5" d="M97.1254 835.018C99.3725 835.018 101.37 836.765 101.37 839.262C101.37 841.508 99.6222 843.506 97.1254 843.506C94.8783 843.506 92.8809 841.758 92.8809 839.262C93.1305 837.015 94.8783 835.018 97.1254 835.018Z" fill="#2A5C8E"/>
<path opacity="0.5" d="M124.839 834.019C127.836 834.019 130.083 836.516 130.083 839.262C130.083 842.257 127.586 844.504 124.839 844.504C121.843 844.504 119.596 842.008 119.596 839.262C119.596 836.266 121.843 834.019 124.839 834.019Z" fill="#2A5C8E"/>
<path opacity="0.5" d="M152.554 833.021C156.05 833.021 158.796 835.767 158.796 839.262C158.796 842.757 156.05 845.503 152.554 845.503C149.058 845.503 146.312 842.757 146.312 839.262C146.312 835.767 149.058 833.021 152.554 833.021Z" fill="#2A5C8E"/>
<path opacity="0.5" d="M180.268 832.272C184.263 832.272 187.259 835.517 187.259 839.262C187.259 843.256 184.014 846.252 180.268 846.252C176.273 846.252 173.277 843.006 173.277 839.262C173.277 835.267 176.273 832.272 180.268 832.272Z" fill="#2A5C8E"/>
<path opacity="0.5" d="M207.983 831.773C211.977 831.773 215.473 835.018 215.473 839.262C215.473 843.256 212.227 846.751 207.983 846.751C203.738 846.751 200.492 843.506 200.492 839.262C200.492 835.268 203.988 831.773 207.983 831.773Z" fill="#2A5C8E"/>
<path opacity="0.5" d="M235.697 832.022C239.692 832.022 242.938 835.267 242.938 839.262C242.938 843.256 239.692 846.501 235.697 846.501C231.702 846.501 228.457 843.256 228.457 839.262C228.457 835.267 231.702 832.022 235.697 832.022Z" fill="#2A5C8E"/>
<path opacity="0.5" d="M263.412 832.771C266.997 832.771 269.903 835.677 269.903 839.262C269.903 842.846 266.997 845.752 263.412 845.752C259.826 845.752 256.92 842.846 256.92 839.262C256.92 835.677 259.826 832.771 263.412 832.771Z" fill="#2A5C8E"/>
<path opacity="0.5" d="M291.126 834.019C294.122 834.019 296.619 836.516 296.619 839.511C296.619 842.507 294.122 845.004 291.126 845.004C288.13 845.004 285.633 842.507 285.633 839.511C285.633 836.516 288.13 834.019 291.126 834.019Z" fill="#2A5C8E"/>
<path opacity="0.5" d="M318.84 835.018C321.087 835.018 323.085 837.015 323.085 839.262C323.085 841.508 321.087 843.506 318.84 843.506C316.593 843.506 314.596 841.508 314.596 839.262C314.596 837.015 316.593 835.018 318.84 835.018Z" fill="#2A5C8E"/>
<path opacity="0.5" d="M346.555 836.266C348.302 836.266 349.551 837.764 349.551 839.262C349.551 841.009 348.053 842.257 346.555 842.257C344.807 842.257 343.559 840.76 343.559 839.262C343.309 837.514 344.807 836.266 346.555 836.266Z" fill="#2A5C8E"/>
<path opacity="0.5" d="M374.269 837.514C375.234 837.514 376.017 838.297 376.017 839.262C376.017 840.227 375.234 841.009 374.269 841.009C373.304 841.009 372.521 840.227 372.521 839.262C372.521 838.297 373.304 837.514 374.269 837.514Z" fill="#2A5C8E"/>
<path opacity="0.5" d="M401.984 838.762C402.233 838.762 402.483 839.012 402.483 839.262C402.483 839.511 402.233 839.761 401.984 839.761C401.734 839.761 401.484 839.511 401.484 839.262C401.234 839.012 401.484 838.762 401.984 838.762Z" fill="#2A5C8E"/>
<path opacity="0.5" d="M27.9639 810.802C28.4632 810.802 28.7129 811.052 28.7129 811.551C28.7129 812.051 28.4632 812.3 27.9639 812.3C27.4645 812.3 27.2148 812.051 27.2148 811.551C27.2148 811.302 27.4645 810.802 27.9639 810.802Z" fill="#2A5C8E"/>
<path opacity="0.5" d="M55.6786 809.804C56.6774 809.804 57.4264 810.553 57.4264 811.551C57.4264 812.55 56.6774 813.299 55.6786 813.299C54.6799 813.299 53.9309 812.55 53.9309 811.551C53.6812 810.553 54.6799 809.804 55.6786 809.804Z" fill="#2A5C8E"/>
<path opacity="0.5" d="M83.3926 808.556C84.8907 808.556 86.3888 809.804 86.3888 811.551C86.3888 813.049 85.1404 814.547 83.3926 814.547C81.8946 814.547 80.3965 813.299 80.3965 811.551C80.3965 810.054 81.6449 808.556 83.3926 808.556Z" fill="#2A5C8E"/>
<path opacity="0.5" d="M111.107 807.557C113.354 807.557 115.102 809.305 115.102 811.551C115.102 813.798 113.354 815.546 111.107 815.546C108.86 815.546 107.112 813.798 107.112 811.551C107.112 809.305 108.86 807.557 111.107 807.557Z" fill="#2A5C8E"/>
<path opacity="0.5" d="M138.822 806.558C141.568 806.558 143.815 808.805 143.815 811.551C143.815 814.297 141.568 816.544 138.822 816.544C136.075 816.544 133.828 814.297 133.828 811.551C133.828 808.805 136.075 806.558 138.822 806.558Z" fill="#2A5C8E"/>
<path opacity="0.5" d="M166.536 806.059C169.532 806.059 172.029 808.556 172.029 811.551C172.029 814.547 169.532 817.043 166.536 817.043C163.54 817.043 161.043 814.547 161.043 811.551C160.793 808.556 163.29 806.059 166.536 806.059Z" fill="#2A5C8E"/>
<path opacity="0.5" d="M194.25 805.56C197.496 805.56 200.243 808.306 200.243 811.551C200.243 814.797 197.496 817.543 194.25 817.543C191.004 817.543 188.258 814.797 188.258 811.551C188.008 808.306 190.755 805.56 194.25 805.56Z" fill="#2A5C8E"/>
<path opacity="0.5" d="M221.965 805.56C225.21 805.56 227.957 808.306 227.957 811.551C227.957 814.797 225.21 817.543 221.965 817.543C218.719 817.543 215.972 814.797 215.972 811.551C215.723 808.306 218.469 805.56 221.965 805.56Z" fill="#2A5C8E"/>
<path opacity="0.5" d="M249.43 805.81C252.601 805.81 255.172 808.38 255.172 811.551C255.172 814.723 252.601 817.293 249.43 817.293C246.258 817.293 243.687 814.723 243.687 811.551C243.687 808.38 246.258 805.81 249.43 805.81Z" fill="#2A5C8E"/>
<path opacity="0.5" d="M277.144 806.558C279.902 806.558 282.138 808.794 282.138 811.551C282.138 814.309 279.902 816.544 277.144 816.544C274.386 816.544 272.15 814.309 272.15 811.551C272.15 808.794 274.386 806.558 277.144 806.558Z" fill="#2A5C8E"/>
<path opacity="0.5" d="M304.858 807.557C307.064 807.557 308.853 809.345 308.853 811.551C308.853 813.757 307.064 815.546 304.858 815.546C302.652 815.546 300.863 813.757 300.863 811.551C300.863 809.345 302.652 807.557 304.858 807.557Z" fill="#2A5C8E"/>
<path opacity="0.5" d="M332.573 808.556C334.321 808.556 335.569 810.054 335.569 811.551C335.569 813.299 334.071 814.547 332.573 814.547C330.825 814.547 329.577 813.049 329.577 811.551C329.577 809.804 331.075 808.556 332.573 808.556Z" fill="#2A5C8E"/>
<path opacity="0.5" d="M360.287 809.554C361.286 809.554 362.284 810.303 362.284 811.551C362.284 812.55 361.535 813.549 360.287 813.549C359.288 813.549 358.29 812.8 358.29 811.551C358.539 810.553 359.288 809.554 360.287 809.554Z" fill="#2A5C8E"/>
<path opacity="0.5" d="M388.001 810.802C388.501 810.802 388.75 811.052 388.75 811.551C388.75 812.051 388.501 812.3 388.001 812.3C387.502 812.3 387.252 812.051 387.252 811.551C387.252 811.052 387.752 810.802 388.001 810.802Z" fill="#2A5C8E"/>
<path opacity="0.5" d="M41.6966 783.342C41.9463 783.342 42.196 783.591 42.196 783.841C42.196 784.091 41.9463 784.34 41.6966 784.34C41.4469 784.34 41.1973 784.091 41.1973 783.841C41.1973 783.591 41.4469 783.342 41.6966 783.342Z" fill="#2A5C8E"/>
<path opacity="0.5" d="M69.4108 782.094C70.4096 782.094 71.1586 782.842 71.1586 783.841C71.1586 784.84 70.4096 785.589 69.4108 785.589C68.4121 785.589 67.6631 784.84 67.6631 783.841C67.9128 782.842 68.6618 782.094 69.4108 782.094Z" fill="#2A5C8E"/>
<path opacity="0.5" d="M97.1252 781.345C98.6233 781.345 99.622 782.593 99.622 783.841C99.622 785.339 98.3736 786.337 97.1252 786.337C95.8768 786.337 94.6284 785.089 94.6284 783.841C94.6284 782.343 95.6271 781.345 97.1252 781.345Z" fill="#2A5C8E"/>
<path opacity="0.5" d="M124.84 780.346C126.837 780.346 128.335 781.844 128.335 783.841C128.335 785.838 126.837 787.336 124.84 787.336C122.842 787.336 121.344 785.838 121.344 783.841C121.344 781.844 122.842 780.346 124.84 780.346Z" fill="#2A5C8E"/>
<path opacity="0.5" d="M152.554 779.597C154.801 779.597 156.799 781.594 156.799 783.841C156.799 786.088 154.801 788.085 152.554 788.085C150.307 788.085 148.31 786.088 148.31 783.841C148.31 781.594 150.307 779.597 152.554 779.597Z" fill="#2A5C8E"/>
<path opacity="0.5" d="M180.268 779.098C182.765 779.098 185.012 781.095 185.012 783.841C185.012 786.337 183.015 788.584 180.268 788.584C177.772 788.584 175.524 786.587 175.524 783.841C175.524 781.345 177.772 779.098 180.268 779.098Z" fill="#2A5C8E"/>
<path opacity="0.5" d="M207.983 779.098C210.729 779.098 212.727 781.345 212.727 783.841C212.727 786.587 210.479 788.584 207.983 788.584C205.236 788.584 203.239 786.337 203.239 783.841C203.239 781.095 205.236 779.098 207.983 779.098Z" fill="#2A5C8E"/>
<path opacity="0.5" d="M235.697 779.098C238.194 779.098 240.441 781.095 240.441 783.841C240.441 786.337 238.443 788.584 235.697 788.584C232.951 788.584 230.953 786.587 230.953 783.841C230.953 781.345 233.2 779.098 235.697 779.098Z" fill="#2A5C8E"/>
<path opacity="0.5" d="M263.412 779.597C265.659 779.597 267.656 781.594 267.656 783.841C267.656 786.088 265.659 788.085 263.412 788.085C261.164 788.085 259.167 786.088 259.167 783.841C259.167 781.594 261.164 779.597 263.412 779.597Z" fill="#2A5C8E"/>
<path opacity="0.5" d="M291.126 780.346C293.056 780.346 294.621 781.911 294.621 783.841C294.621 785.771 293.056 787.336 291.126 787.336C289.195 787.336 287.63 785.771 287.63 783.841C287.63 781.911 289.195 780.346 291.126 780.346Z" fill="#2A5C8E"/>
<path opacity="0.5" d="M318.84 781.095C320.338 781.095 321.587 782.343 321.587 783.841C321.587 785.339 320.338 786.587 318.84 786.587C317.342 786.587 316.094 785.339 316.094 783.841C316.094 782.343 317.342 781.095 318.84 781.095Z" fill="#2A5C8E"/>
<path opacity="0.5" d="M346.555 782.094C347.554 782.094 348.303 782.842 348.303 783.841C348.303 784.84 347.554 785.589 346.555 785.589C345.556 785.589 344.807 784.84 344.807 783.841C344.807 782.842 345.556 782.094 346.555 782.094Z" fill="#2A5C8E"/>
<path opacity="0.5" d="M374.269 783.092C374.683 783.092 375.018 783.427 375.018 783.841C375.018 784.255 374.683 784.59 374.269 784.59C373.855 784.59 373.52 784.255 373.52 783.841C373.52 783.427 373.855 783.092 374.269 783.092Z" fill="#2A5C8E"/>
<path opacity="0.5" d="M55.6786 755.881C55.9282 755.881 56.1779 756.131 56.1779 756.38C56.1779 756.63 55.9282 756.88 55.6786 756.88C55.4289 756.88 55.1792 756.63 55.1792 756.38C55.1792 755.881 55.4289 755.881 55.6786 755.881Z" fill="#2A5C8E"/>
<path opacity="0.5" d="M83.3929 754.882C84.142 754.882 84.6413 755.382 84.6413 756.131C84.6413 756.88 84.142 757.379 83.3929 757.379C82.6439 757.379 82.1445 756.88 82.1445 756.131C82.1445 755.382 82.6439 754.882 83.3929 754.882Z" fill="#2A5C8E"/>
<path opacity="0.5" d="M111.107 754.134C112.21 754.134 113.105 755.028 113.105 756.131C113.105 757.234 112.21 758.128 111.107 758.128C110.004 758.128 109.11 757.234 109.11 756.131C109.11 755.028 110.004 754.134 111.107 754.134Z" fill="#2A5C8E"/>
<path opacity="0.5" d="M138.822 753.385C140.338 753.385 141.568 754.614 141.568 756.131C141.568 757.647 140.338 758.877 138.822 758.877C137.305 758.877 136.075 757.647 136.075 756.131C136.075 754.614 137.305 753.385 138.822 753.385Z" fill="#2A5C8E"/>
<path opacity="0.5" d="M166.536 752.885C168.284 752.885 169.782 754.383 169.782 756.131C169.782 757.878 168.284 759.376 166.536 759.376C164.788 759.376 163.29 757.878 163.29 756.131C163.29 754.383 164.538 752.885 166.536 752.885Z" fill="#2A5C8E"/>
<path opacity="0.5" d="M194.25 752.636C196.248 752.636 197.746 754.133 197.746 756.131C197.746 758.128 196.248 759.626 194.25 759.626C192.253 759.626 190.755 758.128 190.755 756.131C190.755 754.133 192.253 752.636 194.25 752.636Z" fill="#2A5C8E"/>
<path opacity="0.5" d="M221.965 752.636C223.962 752.636 225.46 754.133 225.46 756.131C225.46 758.128 223.962 759.626 221.965 759.626C219.967 759.626 218.469 758.128 218.469 756.131C218.469 754.133 219.967 752.636 221.965 752.636Z" fill="#2A5C8E"/>
<path opacity="0.5" d="M249.429 752.885C251.177 752.885 252.675 754.383 252.675 756.131C252.675 757.878 251.177 759.376 249.429 759.376C247.682 759.376 246.184 757.878 246.184 756.131C246.184 754.383 247.682 752.885 249.429 752.885Z" fill="#2A5C8E"/>
<path opacity="0.5" d="M277.144 753.385C278.642 753.385 279.89 754.633 279.89 756.131C279.89 757.628 278.642 758.877 277.144 758.877C275.646 758.877 274.397 757.628 274.397 756.131C274.397 754.633 275.646 753.385 277.144 753.385Z" fill="#2A5C8E"/>
<path opacity="0.5" d="M304.858 754.134C306.107 754.134 307.106 755.132 307.106 756.38C307.106 757.629 306.107 758.627 304.858 758.627C303.61 758.627 302.611 757.629 302.611 756.38C302.861 754.882 303.86 754.134 304.858 754.134Z" fill="#2A5C8E"/>
<path opacity="0.5" d="M332.573 754.882C333.322 754.882 333.821 755.382 333.821 756.131C333.821 756.88 333.322 757.379 332.573 757.379C331.824 757.379 331.324 756.88 331.324 756.131C331.324 755.382 331.824 754.882 332.573 754.882Z" fill="#2A5C8E"/>
<path opacity="0.5" d="M360.287 755.631C360.563 755.631 360.786 755.855 360.786 756.131C360.786 756.406 360.563 756.63 360.287 756.63C360.011 756.63 359.788 756.406 359.788 756.131C359.788 755.855 360.011 755.631 360.287 755.631Z" fill="#2A5C8E"/>
<path opacity="0.5" d="M69.4106 728.42C69.4106 728.42 69.6603 728.42 69.4106 728.42C69.6603 728.42 69.4106 728.67 69.4106 728.42C69.4106 728.42 69.4106 728.67 69.4106 728.42Z" fill="#2A5C8E"/>
<path opacity="0.5" d="M97.125 727.671C97.5387 727.671 97.8741 728.007 97.8741 728.42C97.8741 728.834 97.5387 729.169 97.125 729.169C96.7113 729.169 96.376 728.834 96.376 728.42C96.376 728.007 96.7113 727.671 97.125 727.671Z" fill="#2A5C8E"/>
<path opacity="0.5" d="M124.84 727.172C125.529 727.172 126.088 727.731 126.088 728.42C126.088 729.11 125.529 729.668 124.84 729.668C124.15 729.668 123.591 729.11 123.591 728.42C123.591 727.731 124.15 727.172 124.84 727.172Z" fill="#2A5C8E"/>
<path opacity="0.5" d="M152.554 726.673C153.519 726.673 154.302 727.455 154.302 728.42C154.302 729.385 153.519 730.168 152.554 730.168C151.589 730.168 150.806 729.385 150.806 728.42C150.806 727.455 151.589 726.673 152.554 726.673Z" fill="#2A5C8E"/>
<path opacity="0.5" d="M180.269 726.423C181.517 726.423 182.516 727.422 182.516 728.67C182.516 729.918 181.517 730.917 180.269 730.917C179.02 730.917 178.021 729.918 178.021 728.67C178.021 727.422 179.02 726.423 180.269 726.423Z" fill="#2A5C8E"/>
<path opacity="0.5" d="M207.983 726.173C209.231 726.173 210.23 727.172 210.23 728.42C210.23 729.668 209.231 730.667 207.983 730.667C206.735 730.667 205.736 729.668 205.736 728.42C205.736 727.172 206.735 726.173 207.983 726.173Z" fill="#2A5C8E"/>
<path opacity="0.5" d="M235.697 726.423C236.946 726.423 237.944 727.422 237.944 728.67C237.944 729.918 236.946 730.917 235.697 730.917C234.449 730.917 233.45 729.918 233.45 728.67C233.45 727.422 234.449 726.423 235.697 726.423Z" fill="#2A5C8E"/>
<path opacity="0.5" d="M263.412 726.673C264.377 726.673 265.16 727.455 265.16 728.42C265.16 729.385 264.377 730.168 263.412 730.168C262.447 730.168 261.664 729.385 261.664 728.42C261.664 727.455 262.447 726.673 263.412 726.673Z" fill="#2A5C8E"/>
<path opacity="0.5" d="M291.126 726.922C291.953 726.922 292.624 727.593 292.624 728.42C292.624 729.247 291.953 729.918 291.126 729.918C290.299 729.918 289.628 729.247 289.628 728.42C289.628 727.593 290.299 726.922 291.126 726.922Z" fill="#2A5C8E"/>
<path opacity="0.5" d="M318.84 727.671C319.254 727.671 319.589 728.007 319.589 728.42C319.589 728.834 319.254 729.169 318.84 729.169C318.427 729.169 318.091 728.834 318.091 728.42C318.091 728.007 318.427 727.671 318.84 727.671Z" fill="#2A5C8E"/>
<path opacity="0.5" d="M346.554 728.421C346.803 728.67 346.554 728.67 346.554 728.67C346.305 728.67 346.305 728.67 346.554 728.421C346.305 728.421 346.305 728.421 346.554 728.421Z" fill="#2A5C8E"/>
<path opacity="0.5" d="M138.822 700.211C139.097 700.211 139.321 700.434 139.321 700.71C139.321 700.986 139.097 701.209 138.822 701.209C138.546 701.209 138.322 700.986 138.322 700.71C138.322 700.434 138.546 700.211 138.822 700.211Z" fill="#2A5C8E"/>
<path opacity="0.5" d="M166.536 699.961C167.035 699.961 167.285 700.211 167.285 700.71C167.285 701.209 167.035 701.459 166.536 701.459C166.037 701.459 165.787 701.209 165.787 700.71C165.787 700.46 166.037 699.961 166.536 699.961Z" fill="#2A5C8E"/>
<path opacity="0.5" d="M194.251 699.961C194.75 699.961 195.249 700.46 195.249 700.96C195.249 701.459 194.75 701.958 194.251 701.958C193.751 701.958 193.252 701.459 193.252 700.96C193.252 700.46 193.751 699.961 194.251 699.961Z" fill="#2A5C8E"/>
<path opacity="0.5" d="M221.965 699.711C222.517 699.711 222.964 700.158 222.964 700.71C222.964 701.261 222.517 701.708 221.965 701.708C221.413 701.708 220.966 701.261 220.966 700.71C220.966 700.158 221.413 699.711 221.965 699.711Z" fill="#2A5C8E"/>
<path opacity="0.5" d="M249.43 699.961C249.929 699.961 250.179 700.211 250.179 700.71C250.179 701.209 249.929 701.459 249.43 701.459C248.93 701.459 248.681 701.209 248.681 700.71C248.681 700.46 249.18 699.961 249.43 699.961Z" fill="#2A5C8E"/>
<path opacity="0.5" d="M277.144 700.211C277.42 700.211 277.643 700.434 277.643 700.71C277.643 700.986 277.42 701.209 277.144 701.209C276.868 701.209 276.645 700.986 276.645 700.71C276.645 700.434 276.868 700.211 277.144 700.211Z" fill="#2A5C8E"/>
<path opacity="0.5" d="M304.858 700.711C305.107 700.711 305.107 700.711 304.858 700.711C305.107 700.959 304.858 700.959 304.858 700.959C304.858 700.959 304.858 700.959 304.858 700.711Z" fill="#2A5C8E"/>
</g>
</svg>
