<svg width="1193" height="406" viewBox="0 0 1193 406" fill="none" xmlns="http://www.w3.org/2000/svg">
<path d="M1109.61 3.20954C1110.5 3.20954 1111.22 2.49106 1111.22 1.60477C1111.22 0.71848 1110.5 0 1109.61 0C1108.72 0 1108 0.71848 1108 1.60477C1108 2.49106 1108.72 3.20954 1109.61 3.20954Z" fill="#2364A6"/>
<path d="M1126.01 3.20954C1126.9 3.20954 1127.62 2.49106 1127.62 1.60477C1127.62 0.71848 1126.9 0 1126.01 0C1125.12 0 1124.4 0.71848 1124.4 1.60477C1124.4 2.49106 1125.12 3.20954 1126.01 3.20954Z" fill="#2364A6"/>
<path d="M1142.41 3.20954C1143.3 3.20954 1144.02 2.49106 1144.02 1.60477C1144.02 0.71848 1143.3 0 1142.41 0C1141.52 0 1140.8 0.71848 1140.8 1.60477C1140.8 2.49106 1141.52 3.20954 1142.41 3.20954Z" fill="#2364A6"/>
<path d="M1158.81 3.20954C1159.7 3.20954 1160.42 2.49106 1160.42 1.60477C1160.42 0.71848 1159.7 0 1158.81 0C1157.92 0 1157.2 0.71848 1157.2 1.60477C1157.2 2.49106 1157.92 3.20954 1158.81 3.20954Z" fill="#2364A6"/>
<path d="M1175.21 3.20954C1176.1 3.20954 1176.82 2.49106 1176.82 1.60477C1176.82 0.71848 1176.1 0 1175.21 0C1174.32 0 1173.6 0.71848 1173.6 1.60477C1173.6 2.49106 1174.32 3.20954 1175.21 3.20954Z" fill="#2364A6"/>
<path d="M1191.29 3.20954C1192.18 3.20954 1192.9 2.49106 1192.9 1.60477C1192.9 0.71848 1192.18 0 1191.29 0C1190.4 0 1189.68 0.71848 1189.68 1.60477C1189.68 2.49106 1190.4 3.20954 1191.29 3.20954Z" fill="#2364A6"/>
<path d="M1109.61 19.5782C1110.5 19.5782 1111.22 18.8597 1111.22 17.9734C1111.22 17.0871 1110.5 16.3687 1109.61 16.3687C1108.72 16.3687 1108 17.0871 1108 17.9734C1108 18.8597 1108.72 19.5782 1109.61 19.5782Z" fill="#2364A6"/>
<path d="M1126.01 19.5782C1126.9 19.5782 1127.62 18.8597 1127.62 17.9734C1127.62 17.0871 1126.9 16.3687 1126.01 16.3687C1125.12 16.3687 1124.4 17.0871 1124.4 17.9734C1124.4 18.8597 1125.12 19.5782 1126.01 19.5782Z" fill="#2364A6"/>
<path d="M1142.41 19.5782C1143.3 19.5782 1144.02 18.8597 1144.02 17.9734C1144.02 17.0871 1143.3 16.3687 1142.41 16.3687C1141.52 16.3687 1140.8 17.0871 1140.8 17.9734C1140.8 18.8597 1141.52 19.5782 1142.41 19.5782Z" fill="#2364A6"/>
<path d="M1158.81 19.5782C1159.7 19.5782 1160.42 18.8597 1160.42 17.9734C1160.42 17.0871 1159.7 16.3687 1158.81 16.3687C1157.92 16.3687 1157.2 17.0871 1157.2 17.9734C1157.2 18.8597 1157.92 19.5782 1158.81 19.5782Z" fill="#2364A6"/>
<path d="M1175.21 19.5782C1176.1 19.5782 1176.82 18.8597 1176.82 17.9734C1176.82 17.0871 1176.1 16.3687 1175.21 16.3687C1174.32 16.3687 1173.6 17.0871 1173.6 17.9734C1173.6 18.8597 1174.32 19.5782 1175.21 19.5782Z" fill="#2364A6"/>
<path d="M1191.29 19.5782C1192.18 19.5782 1192.9 18.8597 1192.9 17.9734C1192.9 17.0871 1192.18 16.3687 1191.29 16.3687C1190.4 16.3687 1189.68 17.0871 1189.68 17.9734C1189.68 18.8597 1190.4 19.5782 1191.29 19.5782Z" fill="#2364A6"/>
<path d="M1109.61 35.6261C1110.5 35.6261 1111.22 34.9076 1111.22 34.0213C1111.22 33.135 1110.5 32.4165 1109.61 32.4165C1108.72 32.4165 1108 33.135 1108 34.0213C1108 34.9076 1108.72 35.6261 1109.61 35.6261Z" fill="#2364A6"/>
<path d="M1126.01 35.6261C1126.9 35.6261 1127.62 34.9076 1127.62 34.0213C1127.62 33.135 1126.9 32.4165 1126.01 32.4165C1125.12 32.4165 1124.4 33.135 1124.4 34.0213C1124.4 34.9076 1125.12 35.6261 1126.01 35.6261Z" fill="#2364A6"/>
<path d="M1142.41 35.6261C1143.3 35.6261 1144.02 34.9076 1144.02 34.0213C1144.02 33.135 1143.3 32.4165 1142.41 32.4165C1141.52 32.4165 1140.8 33.135 1140.8 34.0213C1140.8 34.9076 1141.52 35.6261 1142.41 35.6261Z" fill="#2364A6"/>
<path d="M1158.81 35.6261C1159.7 35.6261 1160.42 34.9076 1160.42 34.0213C1160.42 33.135 1159.7 32.4165 1158.81 32.4165C1157.92 32.4165 1157.2 33.135 1157.2 34.0213C1157.2 34.9076 1157.92 35.6261 1158.81 35.6261Z" fill="#2364A6"/>
<path d="M1175.21 35.6261C1176.1 35.6261 1176.82 34.9076 1176.82 34.0213C1176.82 33.135 1176.1 32.4165 1175.21 32.4165C1174.32 32.4165 1173.6 33.135 1173.6 34.0213C1173.6 34.9076 1174.32 35.6261 1175.21 35.6261Z" fill="#2364A6"/>
<path d="M1191.29 35.6261C1192.18 35.6261 1192.9 34.9076 1192.9 34.0213C1192.9 33.135 1192.18 32.4165 1191.29 32.4165C1190.4 32.4165 1189.68 33.135 1189.68 34.0213C1189.68 34.9076 1190.4 35.6261 1191.29 35.6261Z" fill="#2364A6"/>
<path d="M1109.61 51.9947C1110.5 51.9947 1111.22 51.2762 1111.22 50.3899C1111.22 49.5036 1110.5 48.7852 1109.61 48.7852C1108.72 48.7852 1108 49.5036 1108 50.3899C1108 51.2762 1108.72 51.9947 1109.61 51.9947Z" fill="#2364A6"/>
<path d="M1126.01 51.9947C1126.9 51.9947 1127.62 51.2762 1127.62 50.3899C1127.62 49.5036 1126.9 48.7852 1126.01 48.7852C1125.12 48.7852 1124.4 49.5036 1124.4 50.3899C1124.4 51.2762 1125.12 51.9947 1126.01 51.9947Z" fill="#2364A6"/>
<path d="M1142.41 51.9947C1143.3 51.9947 1144.02 51.2762 1144.02 50.3899C1144.02 49.5036 1143.3 48.7852 1142.41 48.7852C1141.52 48.7852 1140.8 49.5036 1140.8 50.3899C1140.8 51.2762 1141.52 51.9947 1142.41 51.9947Z" fill="#2364A6"/>
<path d="M1158.81 51.9947C1159.7 51.9947 1160.42 51.2762 1160.42 50.3899C1160.42 49.5036 1159.7 48.7852 1158.81 48.7852C1157.92 48.7852 1157.2 49.5036 1157.2 50.3899C1157.2 51.2762 1157.92 51.9947 1158.81 51.9947Z" fill="#2364A6"/>
<path d="M1175.21 51.9947C1176.1 51.9947 1176.82 51.2762 1176.82 50.3899C1176.82 49.5036 1176.1 48.7852 1175.21 48.7852C1174.32 48.7852 1173.6 49.5036 1173.6 50.3899C1173.6 51.2762 1174.32 51.9947 1175.21 51.9947Z" fill="#2364A6"/>
<path d="M1191.29 51.9947C1192.18 51.9947 1192.9 51.2762 1192.9 50.3899C1192.9 49.5036 1192.18 48.7852 1191.29 48.7852C1190.4 48.7852 1189.68 49.5036 1189.68 50.3899C1189.68 51.2762 1190.4 51.9947 1191.29 51.9947Z" fill="#2364A6"/>
<path d="M1109.61 68.3634C1110.5 68.3634 1111.22 67.6449 1111.22 66.7586C1111.22 65.8723 1110.5 65.1538 1109.61 65.1538C1108.72 65.1538 1108 65.8723 1108 66.7586C1108 67.6449 1108.72 68.3634 1109.61 68.3634Z" fill="#2364A6"/>
<path d="M1126.01 68.3634C1126.9 68.3634 1127.62 67.6449 1127.62 66.7586C1127.62 65.8723 1126.9 65.1538 1126.01 65.1538C1125.12 65.1538 1124.4 65.8723 1124.4 66.7586C1124.4 67.6449 1125.12 68.3634 1126.01 68.3634Z" fill="#2364A6"/>
<path d="M1142.41 68.3634C1143.3 68.3634 1144.02 67.6449 1144.02 66.7586C1144.02 65.8723 1143.3 65.1538 1142.41 65.1538C1141.52 65.1538 1140.8 65.8723 1140.8 66.7586C1140.8 67.6449 1141.52 68.3634 1142.41 68.3634Z" fill="#2364A6"/>
<path d="M1158.81 68.3634C1159.7 68.3634 1160.42 67.6449 1160.42 66.7586C1160.42 65.8723 1159.7 65.1538 1158.81 65.1538C1157.92 65.1538 1157.2 65.8723 1157.2 66.7586C1157.2 67.6449 1157.92 68.3634 1158.81 68.3634Z" fill="#2364A6"/>
<path d="M1175.21 68.3634C1176.1 68.3634 1176.82 67.6449 1176.82 66.7586C1176.82 65.8723 1176.1 65.1538 1175.21 65.1538C1174.32 65.1538 1173.6 65.8723 1173.6 66.7586C1173.6 67.6449 1174.32 68.3634 1175.21 68.3634Z" fill="#2364A6"/>
<path d="M1191.29 68.3634C1192.18 68.3634 1192.9 67.6449 1192.9 66.7586C1192.9 65.8723 1192.18 65.1538 1191.29 65.1538C1190.4 65.1538 1189.68 65.8723 1189.68 66.7586C1189.68 67.6449 1190.4 68.3634 1191.29 68.3634Z" fill="#2364A6"/>
<path d="M1109.61 84.7321C1110.5 84.7321 1111.22 84.0136 1111.22 83.1274C1111.22 82.2411 1110.5 81.5226 1109.61 81.5226C1108.72 81.5226 1108 82.2411 1108 83.1274C1108 84.0136 1108.72 84.7321 1109.61 84.7321Z" fill="#2364A6"/>
<path d="M1126.01 84.7321C1126.9 84.7321 1127.62 84.0136 1127.62 83.1274C1127.62 82.2411 1126.9 81.5226 1126.01 81.5226C1125.12 81.5226 1124.4 82.2411 1124.4 83.1274C1124.4 84.0136 1125.12 84.7321 1126.01 84.7321Z" fill="#2364A6"/>
<path d="M1142.41 84.7321C1143.3 84.7321 1144.02 84.0136 1144.02 83.1274C1144.02 82.2411 1143.3 81.5226 1142.41 81.5226C1141.52 81.5226 1140.8 82.2411 1140.8 83.1274C1140.8 84.0136 1141.52 84.7321 1142.41 84.7321Z" fill="#2364A6"/>
<path d="M1158.81 84.7321C1159.7 84.7321 1160.42 84.0136 1160.42 83.1274C1160.42 82.2411 1159.7 81.5226 1158.81 81.5226C1157.92 81.5226 1157.2 82.2411 1157.2 83.1274C1157.2 84.0136 1157.92 84.7321 1158.81 84.7321Z" fill="#2364A6"/>
<path d="M1175.21 84.7321C1176.1 84.7321 1176.82 84.0136 1176.82 83.1274C1176.82 82.2411 1176.1 81.5226 1175.21 81.5226C1174.32 81.5226 1173.6 82.2411 1173.6 83.1274C1173.6 84.0136 1174.32 84.7321 1175.21 84.7321Z" fill="#2364A6"/>
<path d="M1191.29 84.7321C1192.18 84.7321 1192.9 84.0136 1192.9 83.1274C1192.9 82.2411 1192.18 81.5226 1191.29 81.5226C1190.4 81.5226 1189.68 82.2411 1189.68 83.1274C1189.68 84.0136 1190.4 84.7321 1191.29 84.7321Z" fill="#2364A6"/>
<path d="M1109.61 101.101C1110.5 101.101 1111.22 100.382 1111.22 99.496C1111.22 98.6097 1110.5 97.8912 1109.61 97.8912C1108.72 97.8912 1108 98.6097 1108 99.496C1108 100.382 1108.72 101.101 1109.61 101.101Z" fill="#2364A6"/>
<path d="M1126.01 101.101C1126.9 101.101 1127.62 100.382 1127.62 99.496C1127.62 98.6097 1126.9 97.8912 1126.01 97.8912C1125.12 97.8912 1124.4 98.6097 1124.4 99.496C1124.4 100.382 1125.12 101.101 1126.01 101.101Z" fill="#2364A6"/>
<path d="M1142.41 101.101C1143.3 101.101 1144.02 100.382 1144.02 99.496C1144.02 98.6097 1143.3 97.8912 1142.41 97.8912C1141.52 97.8912 1140.8 98.6097 1140.8 99.496C1140.8 100.382 1141.52 101.101 1142.41 101.101Z" fill="#2364A6"/>
<path d="M1158.81 101.101C1159.7 101.101 1160.42 100.382 1160.42 99.496C1160.42 98.6097 1159.7 97.8912 1158.81 97.8912C1157.92 97.8912 1157.2 98.6097 1157.2 99.496C1157.2 100.382 1157.92 101.101 1158.81 101.101Z" fill="#2364A6"/>
<path d="M1175.21 101.101C1176.1 101.101 1176.82 100.382 1176.82 99.496C1176.82 98.6097 1176.1 97.8912 1175.21 97.8912C1174.32 97.8912 1173.6 98.6097 1173.6 99.496C1173.6 100.382 1174.32 101.101 1175.21 101.101Z" fill="#2364A6"/>
<path d="M1191.29 101.101C1192.18 101.101 1192.9 100.382 1192.9 99.496C1192.9 98.6097 1192.18 97.8912 1191.29 97.8912C1190.4 97.8912 1189.68 98.6097 1189.68 99.496C1189.68 100.382 1190.4 101.101 1191.29 101.101Z" fill="#2364A6"/>
<path d="M1109.61 117.47C1110.5 117.47 1111.22 116.751 1111.22 115.865C1111.22 114.978 1110.5 114.26 1109.61 114.26C1108.72 114.26 1108 114.978 1108 115.865C1108 116.751 1108.72 117.47 1109.61 117.47Z" fill="#2364A6"/>
<path d="M1126.01 117.47C1126.9 117.47 1127.62 116.751 1127.62 115.865C1127.62 114.978 1126.9 114.26 1126.01 114.26C1125.12 114.26 1124.4 114.978 1124.4 115.865C1124.4 116.751 1125.12 117.47 1126.01 117.47Z" fill="#2364A6"/>
<path d="M1142.41 117.47C1143.3 117.47 1144.02 116.751 1144.02 115.865C1144.02 114.978 1143.3 114.26 1142.41 114.26C1141.52 114.26 1140.8 114.978 1140.8 115.865C1140.8 116.751 1141.52 117.47 1142.41 117.47Z" fill="#2364A6"/>
<path d="M1158.81 117.47C1159.7 117.47 1160.42 116.751 1160.42 115.865C1160.42 114.978 1159.7 114.26 1158.81 114.26C1157.92 114.26 1157.2 114.978 1157.2 115.865C1157.2 116.751 1157.92 117.47 1158.81 117.47Z" fill="#2364A6"/>
<path d="M1175.21 117.47C1176.1 117.47 1176.82 116.751 1176.82 115.865C1176.82 114.978 1176.1 114.26 1175.21 114.26C1174.32 114.26 1173.6 114.978 1173.6 115.865C1173.6 116.751 1174.32 117.47 1175.21 117.47Z" fill="#2364A6"/>
<path d="M1191.29 117.47C1192.18 117.47 1192.9 116.751 1192.9 115.865C1192.9 114.978 1192.18 114.26 1191.29 114.26C1190.4 114.26 1189.68 114.978 1189.68 115.865C1189.68 116.751 1190.4 117.47 1191.29 117.47Z" fill="#2364A6"/>
<path d="M1109.61 133.517C1110.5 133.517 1111.22 132.799 1111.22 131.912C1111.22 131.026 1110.5 130.308 1109.61 130.308C1108.72 130.308 1108 131.026 1108 131.912C1108 132.799 1108.72 133.517 1109.61 133.517Z" fill="#2364A6"/>
<path d="M1126.01 133.517C1126.9 133.517 1127.62 132.799 1127.62 131.912C1127.62 131.026 1126.9 130.308 1126.01 130.308C1125.12 130.308 1124.4 131.026 1124.4 131.912C1124.4 132.799 1125.12 133.517 1126.01 133.517Z" fill="#2364A6"/>
<path d="M1142.41 133.517C1143.3 133.517 1144.02 132.799 1144.02 131.912C1144.02 131.026 1143.3 130.308 1142.41 130.308C1141.52 130.308 1140.8 131.026 1140.8 131.912C1140.8 132.799 1141.52 133.517 1142.41 133.517Z" fill="#2364A6"/>
<path d="M1158.81 133.517C1159.7 133.517 1160.42 132.799 1160.42 131.912C1160.42 131.026 1159.7 130.308 1158.81 130.308C1157.92 130.308 1157.2 131.026 1157.2 131.912C1157.2 132.799 1157.92 133.517 1158.81 133.517Z" fill="#2364A6"/>
<path d="M1175.21 133.517C1176.1 133.517 1176.82 132.799 1176.82 131.912C1176.82 131.026 1176.1 130.308 1175.21 130.308C1174.32 130.308 1173.6 131.026 1173.6 131.912C1173.6 132.799 1174.32 133.517 1175.21 133.517Z" fill="#2364A6"/>
<path d="M1191.29 133.517C1192.18 133.517 1192.9 132.799 1192.9 131.912C1192.9 131.026 1192.18 130.308 1191.29 130.308C1190.4 130.308 1189.68 131.026 1189.68 131.912C1189.68 132.799 1190.4 133.517 1191.29 133.517Z" fill="#2364A6"/>
<path d="M1109.61 149.886C1110.5 149.886 1111.22 149.167 1111.22 148.281C1111.22 147.395 1110.5 146.676 1109.61 146.676C1108.72 146.676 1108 147.395 1108 148.281C1108 149.167 1108.72 149.886 1109.61 149.886Z" fill="#2364A6"/>
<path d="M1126.01 149.886C1126.9 149.886 1127.62 149.167 1127.62 148.281C1127.62 147.395 1126.9 146.676 1126.01 146.676C1125.12 146.676 1124.4 147.395 1124.4 148.281C1124.4 149.167 1125.12 149.886 1126.01 149.886Z" fill="#2364A6"/>
<path d="M1142.41 149.886C1143.3 149.886 1144.02 149.167 1144.02 148.281C1144.02 147.395 1143.3 146.676 1142.41 146.676C1141.52 146.676 1140.8 147.395 1140.8 148.281C1140.8 149.167 1141.52 149.886 1142.41 149.886Z" fill="#2364A6"/>
<path d="M1158.81 149.886C1159.7 149.886 1160.42 149.167 1160.42 148.281C1160.42 147.395 1159.7 146.676 1158.81 146.676C1157.92 146.676 1157.2 147.395 1157.2 148.281C1157.2 149.167 1157.92 149.886 1158.81 149.886Z" fill="#2364A6"/>
<path d="M1175.21 149.886C1176.1 149.886 1176.82 149.167 1176.82 148.281C1176.82 147.395 1176.1 146.676 1175.21 146.676C1174.32 146.676 1173.6 147.395 1173.6 148.281C1173.6 149.167 1174.32 149.886 1175.21 149.886Z" fill="#2364A6"/>
<path d="M1191.29 149.886C1192.18 149.886 1192.9 149.167 1192.9 148.281C1192.9 147.395 1192.18 146.676 1191.29 146.676C1190.4 146.676 1189.68 147.395 1189.68 148.281C1189.68 149.167 1190.4 149.886 1191.29 149.886Z" fill="#2364A6"/>
<path d="M1109.61 166.255C1110.5 166.255 1111.22 165.536 1111.22 164.65C1111.22 163.764 1110.5 163.045 1109.61 163.045C1108.72 163.045 1108 163.764 1108 164.65C1108 165.536 1108.72 166.255 1109.61 166.255Z" fill="#2364A6"/>
<path d="M1126.01 166.255C1126.9 166.255 1127.62 165.536 1127.62 164.65C1127.62 163.764 1126.9 163.045 1126.01 163.045C1125.12 163.045 1124.4 163.764 1124.4 164.65C1124.4 165.536 1125.12 166.255 1126.01 166.255Z" fill="#2364A6"/>
<path d="M1142.41 166.255C1143.3 166.255 1144.02 165.536 1144.02 164.65C1144.02 163.764 1143.3 163.045 1142.41 163.045C1141.52 163.045 1140.8 163.764 1140.8 164.65C1140.8 165.536 1141.52 166.255 1142.41 166.255Z" fill="#2364A6"/>
<path d="M1158.81 166.255C1159.7 166.255 1160.42 165.536 1160.42 164.65C1160.42 163.764 1159.7 163.045 1158.81 163.045C1157.92 163.045 1157.2 163.764 1157.2 164.65C1157.2 165.536 1157.92 166.255 1158.81 166.255Z" fill="#2364A6"/>
<path d="M1175.21 166.255C1176.1 166.255 1176.82 165.536 1176.82 164.65C1176.82 163.764 1176.1 163.045 1175.21 163.045C1174.32 163.045 1173.6 163.764 1173.6 164.65C1173.6 165.536 1174.32 166.255 1175.21 166.255Z" fill="#2364A6"/>
<path d="M1191.29 166.255C1192.18 166.255 1192.9 165.536 1192.9 164.65C1192.9 163.764 1192.18 163.045 1191.29 163.045C1190.4 163.045 1189.68 163.764 1189.68 164.65C1189.68 165.536 1190.4 166.255 1191.29 166.255Z" fill="#2364A6"/>
<path d="M1109.61 182.623C1110.5 182.623 1111.22 181.905 1111.22 181.019C1111.22 180.132 1110.5 179.414 1109.61 179.414C1108.72 179.414 1108 180.132 1108 181.019C1108 181.905 1108.72 182.623 1109.61 182.623Z" fill="#2364A6"/>
<path d="M1126.01 182.623C1126.9 182.623 1127.62 181.905 1127.62 181.019C1127.62 180.132 1126.9 179.414 1126.01 179.414C1125.12 179.414 1124.4 180.132 1124.4 181.019C1124.4 181.905 1125.12 182.623 1126.01 182.623Z" fill="#2364A6"/>
<path d="M1142.41 182.623C1143.3 182.623 1144.02 181.905 1144.02 181.019C1144.02 180.132 1143.3 179.414 1142.41 179.414C1141.52 179.414 1140.8 180.132 1140.8 181.019C1140.8 181.905 1141.52 182.623 1142.41 182.623Z" fill="#2364A6"/>
<path d="M1158.81 182.623C1159.7 182.623 1160.42 181.905 1160.42 181.019C1160.42 180.132 1159.7 179.414 1158.81 179.414C1157.92 179.414 1157.2 180.132 1157.2 181.019C1157.2 181.905 1157.92 182.623 1158.81 182.623Z" fill="#2364A6"/>
<path d="M1175.21 182.623C1176.1 182.623 1176.82 181.905 1176.82 181.019C1176.82 180.132 1176.1 179.414 1175.21 179.414C1174.32 179.414 1173.6 180.132 1173.6 181.019C1173.6 181.905 1174.32 182.623 1175.21 182.623Z" fill="#2364A6"/>
<path d="M1191.29 182.623C1192.18 182.623 1192.9 181.905 1192.9 181.019C1192.9 180.132 1192.18 179.414 1191.29 179.414C1190.4 179.414 1189.68 180.132 1189.68 181.019C1189.68 181.905 1190.4 182.623 1191.29 182.623Z" fill="#2364A6"/>
<path d="M459.416 346.112L499 306.782L478.084 286L438.5 325.106L398.916 286L378 306.782L417.584 346.112L378 385.218L398.916 406L438.5 366.894L478.084 406L499 385.218L459.416 346.112Z" fill="url(#paint0_linear_737_46)"/>
<path d="M1.6079 169.21C2.49592 169.21 3.21581 168.491 3.21581 167.605C3.21581 166.718 2.49592 166 1.6079 166C0.719883 166 0 166.718 0 167.605C0 168.491 0.719883 169.21 1.6079 169.21Z" fill="#2364A6"/>
<path d="M18.0085 169.21C18.8965 169.21 19.6164 168.491 19.6164 167.605C19.6164 166.718 18.8965 166 18.0085 166C17.1205 166 16.4006 166.718 16.4006 167.605C16.4006 168.491 17.1205 169.21 18.0085 169.21Z" fill="#2364A6"/>
<path d="M34.4091 169.21C35.2972 169.21 36.017 168.491 36.017 167.605C36.017 166.718 35.2972 166 34.4091 166C33.5211 166 32.8012 166.718 32.8012 167.605C32.8012 168.491 33.5211 169.21 34.4091 169.21Z" fill="#2364A6"/>
<path d="M50.8097 169.21C51.6978 169.21 52.4176 168.491 52.4176 167.605C52.4176 166.718 51.6978 166 50.8097 166C49.9217 166 49.2018 166.718 49.2018 167.605C49.2018 168.491 49.9217 169.21 50.8097 169.21Z" fill="#2364A6"/>
<path d="M67.2104 169.21C68.0984 169.21 68.8183 168.491 68.8183 167.605C68.8183 166.718 68.0984 166 67.2104 166C66.3223 166 65.6024 166.718 65.6024 167.605C65.6024 168.491 66.3223 169.21 67.2104 169.21Z" fill="#2364A6"/>
<path d="M83.2894 169.21C84.1774 169.21 84.8973 168.491 84.8973 167.605C84.8973 166.718 84.1774 166 83.2894 166C82.4014 166 81.6815 166.718 81.6815 167.605C81.6815 168.491 82.4014 169.21 83.2894 169.21Z" fill="#2364A6"/>
<path d="M1.6079 185.578C2.49592 185.578 3.21581 184.86 3.21581 183.973C3.21581 183.087 2.49592 182.369 1.6079 182.369C0.719883 182.369 0 183.087 0 183.973C0 184.86 0.719883 185.578 1.6079 185.578Z" fill="#2364A6"/>
<path d="M18.0085 185.578C18.8965 185.578 19.6164 184.86 19.6164 183.973C19.6164 183.087 18.8965 182.369 18.0085 182.369C17.1205 182.369 16.4006 183.087 16.4006 183.973C16.4006 184.86 17.1205 185.578 18.0085 185.578Z" fill="#2364A6"/>
<path d="M34.4091 185.578C35.2972 185.578 36.017 184.86 36.017 183.973C36.017 183.087 35.2972 182.369 34.4091 182.369C33.5211 182.369 32.8012 183.087 32.8012 183.973C32.8012 184.86 33.5211 185.578 34.4091 185.578Z" fill="#2364A6"/>
<path d="M50.8097 185.578C51.6978 185.578 52.4176 184.86 52.4176 183.973C52.4176 183.087 51.6978 182.369 50.8097 182.369C49.9217 182.369 49.2018 183.087 49.2018 183.973C49.2018 184.86 49.9217 185.578 50.8097 185.578Z" fill="#2364A6"/>
<path d="M67.2104 185.578C68.0984 185.578 68.8183 184.86 68.8183 183.973C68.8183 183.087 68.0984 182.369 67.2104 182.369C66.3223 182.369 65.6024 183.087 65.6024 183.973C65.6024 184.86 66.3223 185.578 67.2104 185.578Z" fill="#2364A6"/>
<path d="M83.2894 185.578C84.1774 185.578 84.8973 184.86 84.8973 183.973C84.8973 183.087 84.1774 182.369 83.2894 182.369C82.4014 182.369 81.6815 183.087 81.6815 183.973C81.6815 184.86 82.4014 185.578 83.2894 185.578Z" fill="#2364A6"/>
<path d="M1.6079 201.947C2.49592 201.947 3.21581 201.228 3.21581 200.342C3.21581 199.456 2.49592 198.737 1.6079 198.737C0.719883 198.737 0 199.456 0 200.342C0 201.228 0.719883 201.947 1.6079 201.947Z" fill="#2364A6"/>
<path d="M18.0085 201.947C18.8965 201.947 19.6164 201.228 19.6164 200.342C19.6164 199.456 18.8965 198.737 18.0085 198.737C17.1205 198.737 16.4006 199.456 16.4006 200.342C16.4006 201.228 17.1205 201.947 18.0085 201.947Z" fill="#2364A6"/>
<path d="M34.4091 201.947C35.2972 201.947 36.017 201.228 36.017 200.342C36.017 199.456 35.2972 198.737 34.4091 198.737C33.5211 198.737 32.8012 199.456 32.8012 200.342C32.8012 201.228 33.5211 201.947 34.4091 201.947Z" fill="#2364A6"/>
<path d="M50.8097 201.947C51.6978 201.947 52.4176 201.228 52.4176 200.342C52.4176 199.456 51.6978 198.737 50.8097 198.737C49.9217 198.737 49.2018 199.456 49.2018 200.342C49.2018 201.228 49.9217 201.947 50.8097 201.947Z" fill="#2364A6"/>
<path d="M67.2104 201.947C68.0984 201.947 68.8183 201.228 68.8183 200.342C68.8183 199.456 68.0984 198.737 67.2104 198.737C66.3223 198.737 65.6024 199.456 65.6024 200.342C65.6024 201.228 66.3223 201.947 67.2104 201.947Z" fill="#2364A6"/>
<path d="M83.2894 201.947C84.1774 201.947 84.8973 201.228 84.8973 200.342C84.8973 199.456 84.1774 198.737 83.2894 198.737C82.4014 198.737 81.6815 199.456 81.6815 200.342C81.6815 201.228 82.4014 201.947 83.2894 201.947Z" fill="#2364A6"/>
<path d="M1.6079 218.316C2.49592 218.316 3.21581 217.597 3.21581 216.711C3.21581 215.825 2.49592 215.106 1.6079 215.106C0.719883 215.106 0 215.825 0 216.711C0 217.597 0.719883 218.316 1.6079 218.316Z" fill="#2364A6"/>
<path d="M18.0085 218.316C18.8965 218.316 19.6164 217.597 19.6164 216.711C19.6164 215.825 18.8965 215.106 18.0085 215.106C17.1205 215.106 16.4006 215.825 16.4006 216.711C16.4006 217.597 17.1205 218.316 18.0085 218.316Z" fill="#2364A6"/>
<path d="M34.4091 218.316C35.2972 218.316 36.017 217.597 36.017 216.711C36.017 215.825 35.2972 215.106 34.4091 215.106C33.5211 215.106 32.8012 215.825 32.8012 216.711C32.8012 217.597 33.5211 218.316 34.4091 218.316Z" fill="#2364A6"/>
<path d="M50.8097 218.316C51.6978 218.316 52.4176 217.597 52.4176 216.711C52.4176 215.825 51.6978 215.106 50.8097 215.106C49.9217 215.106 49.2018 215.825 49.2018 216.711C49.2018 217.597 49.9217 218.316 50.8097 218.316Z" fill="#2364A6"/>
<path d="M67.2104 218.316C68.0984 218.316 68.8183 217.597 68.8183 216.711C68.8183 215.825 68.0984 215.106 67.2104 215.106C66.3223 215.106 65.6024 215.825 65.6024 216.711C65.6024 217.597 66.3223 218.316 67.2104 218.316Z" fill="#2364A6"/>
<path d="M83.2894 218.316C84.1774 218.316 84.8973 217.597 84.8973 216.711C84.8973 215.825 84.1774 215.106 83.2894 215.106C82.4014 215.106 81.6815 215.825 81.6815 216.711C81.6815 217.597 82.4014 218.316 83.2894 218.316Z" fill="#2364A6"/>
<path d="M1.6079 234.684C2.49592 234.684 3.21581 233.966 3.21581 233.08C3.21581 232.193 2.49592 231.475 1.6079 231.475C0.719883 231.475 0 232.193 0 233.08C0 233.966 0.719883 234.684 1.6079 234.684Z" fill="#2364A6"/>
<path d="M18.0085 234.684C18.8965 234.684 19.6164 233.966 19.6164 233.08C19.6164 232.193 18.8965 231.475 18.0085 231.475C17.1205 231.475 16.4006 232.193 16.4006 233.08C16.4006 233.966 17.1205 234.684 18.0085 234.684Z" fill="#2364A6"/>
<path d="M34.4091 234.684C35.2972 234.684 36.017 233.966 36.017 233.08C36.017 232.193 35.2972 231.475 34.4091 231.475C33.5211 231.475 32.8012 232.193 32.8012 233.08C32.8012 233.966 33.5211 234.684 34.4091 234.684Z" fill="#2364A6"/>
<path d="M50.8097 234.684C51.6978 234.684 52.4176 233.966 52.4176 233.08C52.4176 232.193 51.6978 231.475 50.8097 231.475C49.9217 231.475 49.2018 232.193 49.2018 233.08C49.2018 233.966 49.9217 234.684 50.8097 234.684Z" fill="#2364A6"/>
<path d="M67.2104 234.684C68.0984 234.684 68.8183 233.966 68.8183 233.08C68.8183 232.193 68.0984 231.475 67.2104 231.475C66.3223 231.475 65.6024 232.193 65.6024 233.08C65.6024 233.966 66.3223 234.684 67.2104 234.684Z" fill="#2364A6"/>
<path d="M83.2894 234.684C84.1774 234.684 84.8973 233.966 84.8973 233.08C84.8973 232.193 84.1774 231.475 83.2894 231.475C82.4014 231.475 81.6815 232.193 81.6815 233.08C81.6815 233.966 82.4014 234.684 83.2894 234.684Z" fill="#2364A6"/>
<path d="M1.6079 250.732C2.49592 250.732 3.21581 250.014 3.21581 249.127C3.21581 248.241 2.49592 247.523 1.6079 247.523C0.719883 247.523 0 248.241 0 249.127C0 250.014 0.719883 250.732 1.6079 250.732Z" fill="#2364A6"/>
<path d="M18.0085 250.732C18.8965 250.732 19.6164 250.014 19.6164 249.127C19.6164 248.241 18.8965 247.523 18.0085 247.523C17.1205 247.523 16.4006 248.241 16.4006 249.127C16.4006 250.014 17.1205 250.732 18.0085 250.732Z" fill="#2364A6"/>
<path d="M34.4091 250.732C35.2972 250.732 36.017 250.014 36.017 249.127C36.017 248.241 35.2972 247.523 34.4091 247.523C33.5211 247.523 32.8012 248.241 32.8012 249.127C32.8012 250.014 33.5211 250.732 34.4091 250.732Z" fill="#2364A6"/>
<path d="M50.8097 250.732C51.6978 250.732 52.4176 250.014 52.4176 249.127C52.4176 248.241 51.6978 247.523 50.8097 247.523C49.9217 247.523 49.2018 248.241 49.2018 249.127C49.2018 250.014 49.9217 250.732 50.8097 250.732Z" fill="#2364A6"/>
<path d="M67.2104 250.732C68.0984 250.732 68.8183 250.014 68.8183 249.127C68.8183 248.241 68.0984 247.523 67.2104 247.523C66.3223 247.523 65.6024 248.241 65.6024 249.127C65.6024 250.014 66.3223 250.732 67.2104 250.732Z" fill="#2364A6"/>
<path d="M83.2894 250.732C84.1774 250.732 84.8973 250.014 84.8973 249.127C84.8973 248.241 84.1774 247.523 83.2894 247.523C82.4014 247.523 81.6815 248.241 81.6815 249.127C81.6815 250.014 82.4014 250.732 83.2894 250.732Z" fill="#2364A6"/>
<path d="M1.6079 267.101C2.49592 267.101 3.21581 266.382 3.21581 265.496C3.21581 264.61 2.49592 263.891 1.6079 263.891C0.719883 263.891 0 264.61 0 265.496C0 266.382 0.719883 267.101 1.6079 267.101Z" fill="#2364A6"/>
<path d="M18.0085 267.101C18.8965 267.101 19.6164 266.382 19.6164 265.496C19.6164 264.61 18.8965 263.891 18.0085 263.891C17.1205 263.891 16.4006 264.61 16.4006 265.496C16.4006 266.382 17.1205 267.101 18.0085 267.101Z" fill="#2364A6"/>
<path d="M34.4091 267.101C35.2972 267.101 36.017 266.382 36.017 265.496C36.017 264.61 35.2972 263.891 34.4091 263.891C33.5211 263.891 32.8012 264.61 32.8012 265.496C32.8012 266.382 33.5211 267.101 34.4091 267.101Z" fill="#2364A6"/>
<path d="M50.8097 267.101C51.6978 267.101 52.4176 266.382 52.4176 265.496C52.4176 264.61 51.6978 263.891 50.8097 263.891C49.9217 263.891 49.2018 264.61 49.2018 265.496C49.2018 266.382 49.9217 267.101 50.8097 267.101Z" fill="#2364A6"/>
<path d="M67.2104 267.101C68.0984 267.101 68.8183 266.382 68.8183 265.496C68.8183 264.61 68.0984 263.891 67.2104 263.891C66.3223 263.891 65.6024 264.61 65.6024 265.496C65.6024 266.382 66.3223 267.101 67.2104 267.101Z" fill="#2364A6"/>
<path d="M83.2894 267.101C84.1774 267.101 84.8973 266.382 84.8973 265.496C84.8973 264.61 84.1774 263.891 83.2894 263.891C82.4014 263.891 81.6815 264.61 81.6815 265.496C81.6815 266.382 82.4014 267.101 83.2894 267.101Z" fill="#2364A6"/>
<path d="M1.6079 283.469C2.49592 283.469 3.21581 282.751 3.21581 281.865C3.21581 280.978 2.49592 280.26 1.6079 280.26C0.719883 280.26 0 280.978 0 281.865C0 282.751 0.719883 283.469 1.6079 283.469Z" fill="#2364A6"/>
<path d="M18.0085 283.469C18.8965 283.469 19.6164 282.751 19.6164 281.865C19.6164 280.978 18.8965 280.26 18.0085 280.26C17.1205 280.26 16.4006 280.978 16.4006 281.865C16.4006 282.751 17.1205 283.469 18.0085 283.469Z" fill="#2364A6"/>
<path d="M34.4091 283.469C35.2972 283.469 36.017 282.751 36.017 281.865C36.017 280.978 35.2972 280.26 34.4091 280.26C33.5211 280.26 32.8012 280.978 32.8012 281.865C32.8012 282.751 33.5211 283.469 34.4091 283.469Z" fill="#2364A6"/>
<path d="M50.8097 283.469C51.6978 283.469 52.4176 282.751 52.4176 281.865C52.4176 280.978 51.6978 280.26 50.8097 280.26C49.9217 280.26 49.2018 280.978 49.2018 281.865C49.2018 282.751 49.9217 283.469 50.8097 283.469Z" fill="#2364A6"/>
<path d="M67.2104 283.469C68.0984 283.469 68.8183 282.751 68.8183 281.865C68.8183 280.978 68.0984 280.26 67.2104 280.26C66.3223 280.26 65.6024 280.978 65.6024 281.865C65.6024 282.751 66.3223 283.469 67.2104 283.469Z" fill="#2364A6"/>
<path d="M83.2894 283.469C84.1774 283.469 84.8973 282.751 84.8973 281.865C84.8973 280.978 84.1774 280.26 83.2894 280.26C82.4014 280.26 81.6815 280.978 81.6815 281.865C81.6815 282.751 82.4014 283.469 83.2894 283.469Z" fill="#2364A6"/>
<path d="M1.6079 299.838C2.49592 299.838 3.21581 299.12 3.21581 298.233C3.21581 297.347 2.49592 296.629 1.6079 296.629C0.719883 296.629 0 297.347 0 298.233C0 299.12 0.719883 299.838 1.6079 299.838Z" fill="#2364A6"/>
<path d="M18.0085 299.838C18.8965 299.838 19.6164 299.12 19.6164 298.233C19.6164 297.347 18.8965 296.629 18.0085 296.629C17.1205 296.629 16.4006 297.347 16.4006 298.233C16.4006 299.12 17.1205 299.838 18.0085 299.838Z" fill="#2364A6"/>
<path d="M34.4091 299.838C35.2972 299.838 36.017 299.12 36.017 298.233C36.017 297.347 35.2972 296.629 34.4091 296.629C33.5211 296.629 32.8012 297.347 32.8012 298.233C32.8012 299.12 33.5211 299.838 34.4091 299.838Z" fill="#2364A6"/>
<path d="M50.8097 299.838C51.6978 299.838 52.4176 299.12 52.4176 298.233C52.4176 297.347 51.6978 296.629 50.8097 296.629C49.9217 296.629 49.2018 297.347 49.2018 298.233C49.2018 299.12 49.9217 299.838 50.8097 299.838Z" fill="#2364A6"/>
<path d="M67.2104 299.838C68.0984 299.838 68.8183 299.12 68.8183 298.233C68.8183 297.347 68.0984 296.629 67.2104 296.629C66.3223 296.629 65.6024 297.347 65.6024 298.233C65.6024 299.12 66.3223 299.838 67.2104 299.838Z" fill="#2364A6"/>
<path d="M83.2894 299.838C84.1774 299.838 84.8973 299.12 84.8973 298.233C84.8973 297.347 84.1774 296.629 83.2894 296.629C82.4014 296.629 81.6815 297.347 81.6815 298.233C81.6815 299.12 82.4014 299.838 83.2894 299.838Z" fill="#2364A6"/>
<path d="M1.6079 316.207C2.49592 316.207 3.21581 315.488 3.21581 314.602C3.21581 313.716 2.49592 312.997 1.6079 312.997C0.719883 312.997 0 313.716 0 314.602C0 315.488 0.719883 316.207 1.6079 316.207Z" fill="#2364A6"/>
<path d="M18.0085 316.207C18.8965 316.207 19.6164 315.488 19.6164 314.602C19.6164 313.716 18.8965 312.997 18.0085 312.997C17.1205 312.997 16.4006 313.716 16.4006 314.602C16.4006 315.488 17.1205 316.207 18.0085 316.207Z" fill="#2364A6"/>
<path d="M34.4091 316.207C35.2972 316.207 36.017 315.488 36.017 314.602C36.017 313.716 35.2972 312.997 34.4091 312.997C33.5211 312.997 32.8012 313.716 32.8012 314.602C32.8012 315.488 33.5211 316.207 34.4091 316.207Z" fill="#2364A6"/>
<path d="M50.8097 316.207C51.6978 316.207 52.4176 315.488 52.4176 314.602C52.4176 313.716 51.6978 312.997 50.8097 312.997C49.9217 312.997 49.2018 313.716 49.2018 314.602C49.2018 315.488 49.9217 316.207 50.8097 316.207Z" fill="#2364A6"/>
<path d="M67.2104 316.207C68.0984 316.207 68.8183 315.488 68.8183 314.602C68.8183 313.716 68.0984 312.997 67.2104 312.997C66.3223 312.997 65.6024 313.716 65.6024 314.602C65.6024 315.488 66.3223 316.207 67.2104 316.207Z" fill="#2364A6"/>
<path d="M83.2894 316.207C84.1774 316.207 84.8973 315.488 84.8973 314.602C84.8973 313.716 84.1774 312.997 83.2894 312.997C82.4014 312.997 81.6815 313.716 81.6815 314.602C81.6815 315.488 82.4014 316.207 83.2894 316.207Z" fill="#2364A6"/>
<path d="M1.6079 332.255C2.49592 332.255 3.21581 331.536 3.21581 330.65C3.21581 329.764 2.49592 329.045 1.6079 329.045C0.719883 329.045 0 329.764 0 330.65C0 331.536 0.719883 332.255 1.6079 332.255Z" fill="#2364A6"/>
<path d="M18.0085 332.255C18.8965 332.255 19.6164 331.536 19.6164 330.65C19.6164 329.764 18.8965 329.045 18.0085 329.045C17.1205 329.045 16.4006 329.764 16.4006 330.65C16.4006 331.536 17.1205 332.255 18.0085 332.255Z" fill="#2364A6"/>
<path d="M34.4091 332.255C35.2972 332.255 36.017 331.536 36.017 330.65C36.017 329.764 35.2972 329.045 34.4091 329.045C33.5211 329.045 32.8012 329.764 32.8012 330.65C32.8012 331.536 33.5211 332.255 34.4091 332.255Z" fill="#2364A6"/>
<path d="M50.8097 332.255C51.6978 332.255 52.4176 331.536 52.4176 330.65C52.4176 329.764 51.6978 329.045 50.8097 329.045C49.9217 329.045 49.2018 329.764 49.2018 330.65C49.2018 331.536 49.9217 332.255 50.8097 332.255Z" fill="#2364A6"/>
<path d="M67.2104 332.255C68.0984 332.255 68.8183 331.536 68.8183 330.65C68.8183 329.764 68.0984 329.045 67.2104 329.045C66.3223 329.045 65.6024 329.764 65.6024 330.65C65.6024 331.536 66.3223 332.255 67.2104 332.255Z" fill="#2364A6"/>
<path d="M83.2894 332.255C84.1774 332.255 84.8973 331.536 84.8973 330.65C84.8973 329.764 84.1774 329.045 83.2894 329.045C82.4014 329.045 81.6815 329.764 81.6815 330.65C81.6815 331.536 82.4014 332.255 83.2894 332.255Z" fill="#2364A6"/>
<path d="M1.6079 348.623C2.49592 348.623 3.21581 347.905 3.21581 347.019C3.21581 346.132 2.49592 345.414 1.6079 345.414C0.719883 345.414 0 346.132 0 347.019C0 347.905 0.719883 348.623 1.6079 348.623Z" fill="#2364A6"/>
<path d="M18.0085 348.623C18.8965 348.623 19.6164 347.905 19.6164 347.019C19.6164 346.132 18.8965 345.414 18.0085 345.414C17.1205 345.414 16.4006 346.132 16.4006 347.019C16.4006 347.905 17.1205 348.623 18.0085 348.623Z" fill="#2364A6"/>
<path d="M34.4091 348.623C35.2972 348.623 36.017 347.905 36.017 347.019C36.017 346.132 35.2972 345.414 34.4091 345.414C33.5211 345.414 32.8012 346.132 32.8012 347.019C32.8012 347.905 33.5211 348.623 34.4091 348.623Z" fill="#2364A6"/>
<path d="M50.8097 348.623C51.6978 348.623 52.4176 347.905 52.4176 347.019C52.4176 346.132 51.6978 345.414 50.8097 345.414C49.9217 345.414 49.2018 346.132 49.2018 347.019C49.2018 347.905 49.9217 348.623 50.8097 348.623Z" fill="#2364A6"/>
<path d="M67.2104 348.623C68.0984 348.623 68.8183 347.905 68.8183 347.019C68.8183 346.132 68.0984 345.414 67.2104 345.414C66.3223 345.414 65.6024 346.132 65.6024 347.019C65.6024 347.905 66.3223 348.623 67.2104 348.623Z" fill="#2364A6"/>
<path d="M83.2894 348.623C84.1774 348.623 84.8973 347.905 84.8973 347.019C84.8973 346.132 84.1774 345.414 83.2894 345.414C82.4014 345.414 81.6815 346.132 81.6815 347.019C81.6815 347.905 82.4014 348.623 83.2894 348.623Z" fill="#2364A6"/>
<defs>
<linearGradient id="paint0_linear_737_46" x1="466.63" y1="285.232" x2="366.519" y2="505.066" gradientUnits="userSpaceOnUse">
<stop stop-color="#0C1A3B"/>
<stop offset="1"/>
</linearGradient>
</defs>
</svg>
