<svg width="22" height="27" viewBox="0 0 22 27" fill="none" xmlns="http://www.w3.org/2000/svg">
<path d="M10.7549 14.4128C12.7752 14.4128 14.4129 12.775 14.4129 10.7547C14.4129 8.73445 12.7752 7.09668 10.7549 7.09668C8.73457 7.09668 7.0968 8.73445 7.0968 10.7547C7.0968 12.775 8.73457 14.4128 10.7549 14.4128Z" stroke="url(#paint0_linear_431_419)" stroke-width="2" stroke-linecap="round" stroke-linejoin="round"/>
<path d="M10.7548 1C8.16769 1 5.68651 2.02774 3.85713 3.85713C2.02774 5.68651 1 8.16769 1 10.7548C1 13.0619 1.49018 14.5714 2.82903 16.2419L10.7548 25.3871L18.6806 16.2419C20.0195 14.5714 20.5097 13.0619 20.5097 10.7548C20.5097 8.16769 19.4819 5.68651 17.6526 3.85713C15.8232 2.02774 13.342 1 10.7548 1V1Z" stroke="url(#paint1_linear_431_419)" stroke-width="2" stroke-linecap="round" stroke-linejoin="round"/>
<defs>
<linearGradient id="paint0_linear_431_419" x1="13.2498" y1="13.1494" x2="9.6719" y2="6.59726" gradientUnits="userSpaceOnUse">
<stop stop-color="#3A0CA3"/>
<stop offset="1" stop-color="#4CC9F0"/>
</linearGradient>
<linearGradient id="paint1_linear_431_419" x1="17.408" y1="21.1757" x2="4.20585" y2="1.83427" gradientUnits="userSpaceOnUse">
<stop stop-color="#3A0CA3"/>
<stop offset="1" stop-color="#4CC9F0"/>
</linearGradient>
</defs>
</svg>
