<svg width="1877" height="185" viewBox="0 0 1877 185" fill="none" xmlns="http://www.w3.org/2000/svg">
<path d="M49.7 141.72C40.34 141.72 31.9399 139.56 24.5 135.24C17.0599 130.8 11.18 124.8 6.85995 117.24C2.53995 109.68 0.319951 101.16 0.199951 91.6799V9.59992C0.199951 6.83992 1.03995 4.61992 2.71995 2.93992C4.51995 1.25992 6.73995 0.419922 9.37995 0.419922C12.14 0.419922 14.36 1.25992 16.04 2.93992C17.72 4.61992 18.56 6.83992 18.56 9.59992V58.1999C22.76 53.1599 27.8 49.1999 33.68 46.3199C39.68 43.3199 46.22 41.8199 53.3 41.8199C62.06 41.8199 69.92 44.0399 76.88 48.4799C83.84 52.7999 89.3 58.7399 93.26 66.2999C97.34 73.7399 99.38 82.1999 99.38 91.6799C99.38 101.16 97.16 109.68 92.72 117.24C88.4 124.8 82.52 130.8 75.08 135.24C67.64 139.56 59.18 141.72 49.7 141.72ZM49.7 125.52C55.82 125.52 61.28 124.08 66.08 121.2C70.88 118.2 74.66 114.12 77.42 108.96C80.3 103.8 81.74 98.0399 81.74 91.6799C81.74 85.1999 80.3 79.4399 77.42 74.3999C74.66 69.3599 70.88 65.3999 66.08 62.5199C61.28 59.5199 55.82 58.0199 49.7 58.0199C43.7 58.0199 38.24 59.5199 33.32 62.5199C28.52 65.3999 24.74 69.3599 21.98 74.3999C19.22 79.4399 17.84 85.1999 17.84 91.6799C17.84 98.0399 19.22 103.8 21.98 108.96C24.74 114.12 28.52 118.2 33.32 121.2C38.24 124.08 43.7 125.52 49.7 125.52Z" fill="#FAFAFA"/>
<path d="M142.782 79.4399C142.782 72.2399 144.522 65.8199 148.002 60.1799C151.602 54.4199 156.402 49.8599 162.402 46.4999C168.402 43.1399 175.002 41.4599 182.202 41.4599C189.402 41.4599 194.742 42.6599 198.222 45.0599C201.822 47.3399 203.202 50.0999 202.362 53.3399C202.002 55.0199 201.282 56.3399 200.202 57.2999C199.242 58.1399 198.102 58.6799 196.782 58.9199C195.462 59.1599 194.022 59.0999 192.462 58.7399C184.782 57.1799 177.882 57.0599 171.762 58.3799C165.642 59.6999 160.782 62.1599 157.182 65.7599C153.702 69.3599 151.962 73.9199 151.962 79.4399H142.782ZM142.962 141C140.082 141 137.862 140.28 136.302 138.84C134.742 137.28 133.962 135 133.962 132V51.5399C133.962 48.6599 134.742 46.4399 136.302 44.8799C137.862 43.3199 140.082 42.5399 142.962 42.5399C145.962 42.5399 148.182 43.3199 149.622 44.8799C151.182 46.3199 151.962 48.5399 151.962 51.5399V132C151.962 134.88 151.182 137.1 149.622 138.66C148.182 140.22 145.962 141 142.962 141Z" fill="#FAFAFA"/>
<path d="M246.342 184.2C245.142 184.2 243.701 183.84 242.021 183.12C236.741 180.72 235.302 176.94 237.702 171.78L292.602 47.7599C295.002 42.7199 298.781 41.2799 303.941 43.4399C309.341 45.7199 310.841 49.4999 308.441 54.7799L253.362 178.62C251.922 182.34 249.582 184.2 246.342 184.2ZM267.582 137.04C265.302 138 263.142 138.12 261.102 137.4C259.182 136.56 257.622 135 256.422 132.72L215.202 54.4199C214.002 52.1399 213.822 49.9799 214.662 47.9399C215.622 45.7799 217.242 44.2199 219.522 43.2599C221.802 42.2999 223.962 42.2399 226.002 43.0799C228.042 43.7999 229.602 45.2999 230.682 47.5799L270.102 125.88C271.302 128.16 271.722 130.38 271.362 132.54C271.122 134.58 269.862 136.08 267.582 137.04Z" fill="#FAFAFA"/>
<path d="M368.753 141C362.753 141 357.353 139.5 352.553 136.5C347.753 133.38 343.973 129.18 341.213 123.9C338.453 118.62 337.073 112.68 337.073 106.08V20.2199C337.073 17.5799 337.913 15.4199 339.593 13.7399C341.273 12.0599 343.433 11.2199 346.073 11.2199C348.713 11.2199 350.873 12.0599 352.553 13.7399C354.233 15.4199 355.073 17.5799 355.073 20.2199V106.08C355.073 110.88 356.393 114.9 359.033 118.14C361.673 121.38 364.913 123 368.753 123H374.873C377.033 123 378.833 123.84 380.273 125.52C381.833 127.2 382.613 129.36 382.613 132C382.613 134.64 381.593 136.8 379.553 138.48C377.633 140.16 375.113 141 371.993 141H368.753ZM328.793 61.6199C326.273 61.6199 324.233 60.8999 322.673 59.4599C321.113 58.0199 320.333 56.2199 320.333 54.0599C320.333 51.6599 321.113 49.7399 322.673 48.2999C324.233 46.8599 326.273 46.1399 328.793 46.1399H370.373C372.893 46.1399 374.933 46.8599 376.493 48.2999C378.053 49.7399 378.833 51.6599 378.833 54.0599C378.833 56.2199 378.053 58.0199 376.493 59.4599C374.933 60.8999 372.893 61.6199 370.373 61.6199H328.793Z" fill="#FAFAFA"/>
<path d="M421.559 105.18C418.919 105.18 416.699 104.34 414.899 102.66C413.219 100.86 412.379 98.6399 412.379 95.9999V9.59992C412.379 6.83992 413.219 4.61992 414.899 2.93992C416.699 1.25992 418.919 0.419922 421.559 0.419922C424.319 0.419922 426.539 1.25992 428.219 2.93992C429.899 4.61992 430.739 6.83992 430.739 9.59992V95.9999C430.739 98.6399 429.899 100.86 428.219 102.66C426.539 104.34 424.319 105.18 421.559 105.18ZM495.539 141.18C492.899 141.18 490.679 140.34 488.879 138.66C487.199 136.86 486.359 134.64 486.359 132V87.7199C486.359 80.8799 485.099 75.2999 482.579 70.9799C480.059 66.6599 476.639 63.4799 472.319 61.4399C468.119 59.2799 463.259 58.1999 457.739 58.1999C452.699 58.1999 448.139 59.2199 444.059 61.2599C439.979 63.2999 436.739 66.0599 434.339 69.5399C431.939 72.8999 430.739 76.7999 430.739 81.2399H419.399C419.399 73.6799 421.199 66.9599 424.799 61.0799C428.519 55.0799 433.559 50.3399 439.919 46.8599C446.279 43.3799 453.419 41.6399 461.339 41.6399C469.619 41.6399 476.999 43.4399 483.479 47.0399C490.079 50.5199 495.239 55.6799 498.959 62.5199C502.799 69.3599 504.719 77.7599 504.719 87.7199V132C504.719 134.64 503.819 136.86 502.019 138.66C500.339 140.34 498.179 141.18 495.539 141.18ZM421.559 141.18C418.919 141.18 416.699 140.34 414.899 138.66C413.219 136.86 412.379 134.64 412.379 132V51.7199C412.379 48.9599 413.219 46.7399 414.899 45.0599C416.699 43.3799 418.919 42.5399 421.559 42.5399C424.319 42.5399 426.539 43.3799 428.219 45.0599C429.899 46.7399 430.739 48.9599 430.739 51.7199V132C430.739 134.64 429.899 136.86 428.219 138.66C426.539 140.34 424.319 141.18 421.559 141.18Z" fill="#FAFAFA"/>
<path d="M587.09 141.72C577.37 141.72 568.79 139.62 561.35 135.42C553.91 131.1 548.03 125.22 543.71 117.78C539.51 110.22 537.41 101.58 537.41 91.8599C537.41 82.0199 539.51 73.3799 543.71 65.9399C548.03 58.3799 553.91 52.4999 561.35 48.2999C568.79 43.9799 577.37 41.8199 587.09 41.8199C596.69 41.8199 605.21 43.9799 612.65 48.2999C620.09 52.4999 625.91 58.3799 630.11 65.9399C634.43 73.3799 636.59 82.0199 636.59 91.8599C636.59 101.58 634.49 110.22 630.29 117.78C626.09 125.22 620.27 131.1 612.83 135.42C605.39 139.62 596.81 141.72 587.09 141.72ZM587.09 125.52C593.33 125.52 598.85 124.08 603.65 121.2C608.45 118.32 612.17 114.36 614.81 109.32C617.57 104.28 618.95 98.4599 618.95 91.8599C618.95 85.2599 617.57 79.4399 614.81 74.3999C612.17 69.2399 608.45 65.2199 603.65 62.3399C598.85 59.4599 593.33 58.0199 587.09 58.0199C580.85 58.0199 575.33 59.4599 570.53 62.3399C565.73 65.2199 561.95 69.2399 559.19 74.3999C556.43 79.4399 555.05 85.2599 555.05 91.8599C555.05 98.4599 556.43 104.28 559.19 109.32C561.95 114.36 565.73 118.32 570.53 121.2C575.33 124.08 580.85 125.52 587.09 125.52Z" fill="#FAFAFA"/>
<path d="M754.275 141.18C751.635 141.18 749.415 140.34 747.615 138.66C745.935 136.86 745.095 134.64 745.095 132V87.7199C745.095 80.8799 743.835 75.2999 741.315 70.9799C738.795 66.6599 735.375 63.4799 731.055 61.4399C726.855 59.2799 721.995 58.1999 716.475 58.1999C711.435 58.1999 706.875 59.2199 702.795 61.2599C698.715 63.2999 695.475 66.0599 693.075 69.5399C690.675 72.8999 689.475 76.7999 689.475 81.2399H678.135C678.135 73.6799 679.935 66.9599 683.535 61.0799C687.255 55.0799 692.295 50.3399 698.655 46.8599C705.015 43.3799 712.155 41.6399 720.075 41.6399C728.355 41.6399 735.735 43.4399 742.215 47.0399C748.815 50.5199 753.975 55.6799 757.695 62.5199C761.535 69.3599 763.455 77.7599 763.455 87.7199V132C763.455 134.64 762.555 136.86 760.755 138.66C759.075 140.34 756.915 141.18 754.275 141.18ZM680.295 141.18C677.655 141.18 675.435 140.34 673.635 138.66C671.955 136.86 671.115 134.64 671.115 132V51.7199C671.115 48.9599 671.955 46.7399 673.635 45.0599C675.435 43.3799 677.655 42.5399 680.295 42.5399C683.055 42.5399 685.275 43.3799 686.955 45.0599C688.635 46.7399 689.475 48.9599 689.475 51.7199V132C689.475 134.64 688.635 136.86 686.955 138.66C685.275 140.34 683.055 141.18 680.295 141.18Z" fill="#FAFAFA"/>
<path d="M811.99 141C809.35 141 807.13 140.16 805.33 138.48C803.65 136.68 802.81 134.46 802.81 131.82V51.7199C802.81 48.9599 803.65 46.7399 805.33 45.0599C807.13 43.3799 809.35 42.5399 811.99 42.5399C814.75 42.5399 816.97 43.3799 818.65 45.0599C820.33 46.7399 821.17 48.9599 821.17 51.7199V131.82C821.17 134.46 820.33 136.68 818.65 138.48C816.97 140.16 814.75 141 811.99 141ZM811.99 26.5199C808.75 26.5199 805.93 25.3799 803.53 23.0999C801.25 20.6999 800.11 17.8799 800.11 14.6399C800.11 11.3999 801.25 8.63992 803.53 6.35992C805.93 3.95992 808.75 2.75992 811.99 2.75992C815.23 2.75992 817.99 3.95992 820.27 6.35992C822.67 8.63992 823.87 11.3999 823.87 14.6399C823.87 17.8799 822.67 20.6999 820.27 23.0999C817.99 25.3799 815.23 26.5199 811.99 26.5199Z" fill="#FAFAFA"/>
<path d="M907.167 141.72C897.567 141.72 888.986 139.56 881.426 135.24C873.986 130.8 868.106 124.86 863.786 117.42C859.586 109.86 857.486 101.34 857.486 91.8599C857.486 82.1399 859.586 73.4999 863.786 65.9399C867.986 58.3799 873.746 52.4999 881.066 48.2999C888.386 43.9799 896.786 41.8199 906.266 41.8199C913.346 41.8199 919.826 43.1999 925.706 45.9599C931.586 48.5999 936.867 52.6199 941.547 58.0199C943.227 59.9399 943.826 61.9199 943.346 63.9599C942.866 65.9999 941.546 67.7999 939.386 69.3599C937.706 70.5599 935.846 70.9799 933.806 70.6199C931.766 70.1399 929.907 69.0599 928.227 67.3799C922.347 61.1399 915.026 58.0199 906.266 58.0199C900.146 58.0199 894.746 59.4599 890.066 62.3399C885.386 65.0999 881.726 68.9999 879.086 74.0399C876.446 79.0799 875.126 85.0199 875.126 91.8599C875.126 98.3399 876.446 104.1 879.086 109.14C881.846 114.18 885.626 118.2 890.426 121.2C895.226 124.08 900.807 125.52 907.167 125.52C911.367 125.52 915.026 125.04 918.146 124.08C921.386 123 924.326 121.38 926.966 119.22C928.886 117.66 930.866 116.82 932.906 116.7C934.946 116.46 936.746 117 938.306 118.32C940.346 120 941.486 121.92 941.727 124.08C941.966 126.12 941.246 127.98 939.566 129.66C930.926 137.7 920.127 141.72 907.167 141.72Z" fill="#FAFAFA"/>
<path d="M1078.81 141.72C1070.05 141.72 1062.19 139.56 1055.23 135.24C1048.27 130.8 1042.75 124.86 1038.67 117.42C1034.71 109.86 1032.73 101.34 1032.73 91.8599C1032.73 82.3799 1034.89 73.8599 1039.21 66.2999C1043.65 58.7399 1049.59 52.7999 1057.03 48.4799C1064.59 44.0399 1073.05 41.8199 1082.41 41.8199C1091.77 41.8199 1100.17 44.0399 1107.61 48.4799C1115.05 52.7999 1120.93 58.7399 1125.25 66.2999C1129.69 73.8599 1131.91 82.3799 1131.91 91.8599H1124.89C1124.89 101.34 1122.85 109.86 1118.77 117.42C1114.81 124.86 1109.35 130.8 1102.39 135.24C1095.43 139.56 1087.57 141.72 1078.81 141.72ZM1082.41 125.52C1088.53 125.52 1093.99 124.08 1098.79 121.2C1103.59 118.2 1107.37 114.18 1110.13 109.14C1112.89 103.98 1114.27 98.2199 1114.27 91.8599C1114.27 85.3799 1112.89 79.6199 1110.13 74.5799C1107.37 69.4199 1103.59 65.3999 1098.79 62.5199C1093.99 59.5199 1088.53 58.0199 1082.41 58.0199C1076.41 58.0199 1070.95 59.5199 1066.03 62.5199C1061.23 65.3999 1057.39 69.4199 1054.51 74.5799C1051.75 79.6199 1050.37 85.3799 1050.37 91.8599C1050.37 98.2199 1051.75 103.98 1054.51 109.14C1057.39 114.18 1061.23 118.2 1066.03 121.2C1070.95 124.08 1076.41 125.52 1082.41 125.52ZM1122.73 141.18C1120.09 141.18 1117.87 140.34 1116.07 138.66C1114.39 136.86 1113.55 134.64 1113.55 132V104.46L1116.97 85.3799L1131.91 91.8599V132C1131.91 134.64 1131.01 136.86 1129.21 138.66C1127.53 140.34 1125.37 141.18 1122.73 141.18Z" fill="#FAFAFA"/>
<path d="M1203.87 141.72C1194.27 141.72 1185.69 139.56 1178.13 135.24C1170.69 130.8 1164.81 124.86 1160.49 117.42C1156.29 109.86 1154.19 101.34 1154.19 91.8599C1154.19 82.1399 1156.29 73.4999 1160.49 65.9399C1164.69 58.3799 1170.45 52.4999 1177.77 48.2999C1185.09 43.9799 1193.49 41.8199 1202.97 41.8199C1210.05 41.8199 1216.53 43.1999 1222.41 45.9599C1228.29 48.5999 1233.57 52.6199 1238.25 58.0199C1239.93 59.9399 1240.53 61.9199 1240.05 63.9599C1239.57 65.9999 1238.25 67.7999 1236.09 69.3599C1234.41 70.5599 1232.55 70.9799 1230.51 70.6199C1228.47 70.1399 1226.61 69.0599 1224.93 67.3799C1219.05 61.1399 1211.73 58.0199 1202.97 58.0199C1196.85 58.0199 1191.45 59.4599 1186.77 62.3399C1182.09 65.0999 1178.43 68.9999 1175.79 74.0399C1173.15 79.0799 1171.83 85.0199 1171.83 91.8599C1171.83 98.3399 1173.15 104.1 1175.79 109.14C1178.55 114.18 1182.33 118.2 1187.13 121.2C1191.93 124.08 1197.51 125.52 1203.87 125.52C1208.07 125.52 1211.73 125.04 1214.85 124.08C1218.09 123 1221.03 121.38 1223.67 119.22C1225.59 117.66 1227.57 116.82 1229.61 116.7C1231.65 116.46 1233.45 117 1235.01 118.32C1237.05 120 1238.19 121.92 1238.43 124.08C1238.67 126.12 1237.95 127.98 1236.27 129.66C1227.63 137.7 1216.83 141.72 1203.87 141.72Z" fill="#FAFAFA"/>
<path d="M1308.38 141.72C1299.62 141.72 1291.76 139.56 1284.8 135.24C1277.84 130.8 1272.32 124.86 1268.24 117.42C1264.28 109.86 1262.3 101.34 1262.3 91.8599C1262.3 82.3799 1264.46 73.8599 1268.78 66.2999C1273.22 58.7399 1279.16 52.7999 1286.6 48.4799C1294.16 44.0399 1302.62 41.8199 1311.98 41.8199C1321.34 41.8199 1329.74 44.0399 1337.18 48.4799C1344.62 52.7999 1350.5 58.7399 1354.82 66.2999C1359.26 73.8599 1361.48 82.3799 1361.48 91.8599H1354.46C1354.46 101.34 1352.42 109.86 1348.34 117.42C1344.38 124.86 1338.92 130.8 1331.96 135.24C1325 139.56 1317.14 141.72 1308.38 141.72ZM1311.98 125.52C1318.1 125.52 1323.56 124.08 1328.36 121.2C1333.16 118.2 1336.94 114.18 1339.7 109.14C1342.46 103.98 1343.84 98.2199 1343.84 91.8599C1343.84 85.3799 1342.46 79.6199 1339.7 74.5799C1336.94 69.4199 1333.16 65.3999 1328.36 62.5199C1323.56 59.5199 1318.1 58.0199 1311.98 58.0199C1305.98 58.0199 1300.52 59.5199 1295.6 62.5199C1290.8 65.3999 1286.96 69.4199 1284.08 74.5799C1281.32 79.6199 1279.94 85.3799 1279.94 91.8599C1279.94 98.2199 1281.32 103.98 1284.08 109.14C1286.96 114.18 1290.8 118.2 1295.6 121.2C1300.52 124.08 1305.98 125.52 1311.98 125.52ZM1352.3 141.18C1349.66 141.18 1347.44 140.34 1345.64 138.66C1343.96 136.86 1343.12 134.64 1343.12 132V104.46L1346.54 85.3799L1361.48 91.8599V132C1361.48 134.64 1360.58 136.86 1358.78 138.66C1357.1 140.34 1354.94 141.18 1352.3 141.18Z" fill="#FAFAFA"/>
<path d="M1433.44 141.72C1424.08 141.72 1415.62 139.56 1408.06 135.24C1400.62 130.8 1394.68 124.8 1390.24 117.24C1385.92 109.68 1383.76 101.16 1383.76 91.6799C1383.76 82.1999 1385.74 73.7399 1389.7 66.2999C1393.78 58.7399 1399.3 52.7999 1406.26 48.4799C1413.22 44.0399 1421.08 41.8199 1429.84 41.8199C1436.92 41.8199 1443.46 43.3199 1449.46 46.3199C1455.46 49.1999 1460.5 53.1599 1464.58 58.1999V9.59992C1464.58 6.83992 1465.42 4.61992 1467.1 2.93992C1468.9 1.25992 1471.12 0.419922 1473.76 0.419922C1476.52 0.419922 1478.74 1.25992 1480.42 2.93992C1482.1 4.61992 1482.94 6.83992 1482.94 9.59992V91.6799C1482.94 101.16 1480.72 109.68 1476.28 117.24C1471.96 124.8 1466.08 130.8 1458.64 135.24C1451.2 139.56 1442.8 141.72 1433.44 141.72ZM1433.44 125.52C1439.56 125.52 1445.02 124.08 1449.82 121.2C1454.62 118.2 1458.4 114.12 1461.16 108.96C1463.92 103.8 1465.3 98.0399 1465.3 91.6799C1465.3 85.1999 1463.92 79.4399 1461.16 74.3999C1458.4 69.3599 1454.62 65.3999 1449.82 62.5199C1445.02 59.5199 1439.56 58.0199 1433.44 58.0199C1427.44 58.0199 1421.98 59.5199 1417.06 62.5199C1412.26 65.3999 1408.42 69.3599 1405.54 74.3999C1402.78 79.4399 1401.4 85.1999 1401.4 91.6799C1401.4 98.0399 1402.78 103.8 1405.54 108.96C1408.42 114.12 1412.26 118.2 1417.06 121.2C1421.98 124.08 1427.44 125.52 1433.44 125.52Z" fill="#FAFAFA"/>
<path d="M1561.62 141.72C1551.66 141.72 1542.78 139.62 1534.98 135.42C1527.3 131.1 1521.24 125.22 1516.8 117.78C1512.48 110.22 1510.32 101.58 1510.32 91.8599C1510.32 82.0199 1512.36 73.3799 1516.44 65.9399C1520.64 58.3799 1526.4 52.4999 1533.72 48.2999C1541.04 43.9799 1549.44 41.8199 1558.92 41.8199C1568.28 41.8199 1576.32 43.9199 1583.04 48.1199C1589.76 52.1999 1594.86 57.8999 1598.34 65.2199C1601.94 72.4199 1603.74 80.7599 1603.74 90.2399C1603.74 92.5199 1602.96 94.4399 1601.4 95.9999C1599.84 97.4399 1597.86 98.1599 1595.46 98.1599H1522.92V83.7599H1594.92L1587.54 88.7999C1587.42 82.7999 1586.22 77.4599 1583.94 72.7799C1581.66 67.9799 1578.42 64.1999 1574.22 61.4399C1570.02 58.6799 1564.92 57.2999 1558.92 57.2999C1552.08 57.2999 1546.2 58.7999 1541.28 61.7999C1536.48 64.7999 1532.82 68.9399 1530.3 74.2199C1527.78 79.3799 1526.52 85.2599 1526.52 91.8599C1526.52 98.4599 1528.02 104.34 1531.02 109.5C1534.02 114.66 1538.16 118.74 1543.44 121.74C1548.72 124.74 1554.78 126.24 1561.62 126.24C1565.34 126.24 1569.12 125.58 1572.96 124.26C1576.92 122.82 1580.1 121.2 1582.5 119.4C1584.3 118.08 1586.22 117.42 1588.26 117.42C1590.42 117.3 1592.28 117.9 1593.84 119.22C1595.88 121.02 1596.96 123 1597.08 125.16C1597.2 127.32 1596.24 129.18 1594.2 130.74C1590.12 133.98 1585.02 136.62 1578.9 138.66C1572.9 140.7 1567.14 141.72 1561.62 141.72Z" fill="#FAFAFA"/>
<path d="M1756.4 141.18C1753.76 141.18 1751.54 140.34 1749.74 138.66C1748.06 136.86 1747.22 134.64 1747.22 132V80.5199C1747.22 72.9599 1745.36 67.3799 1741.64 63.7799C1737.92 60.0599 1733.06 58.1999 1727.06 58.1999C1720.82 58.1999 1715.66 60.3599 1711.58 64.6799C1707.62 68.9999 1705.64 74.5199 1705.64 81.2399H1690.7C1690.7 73.4399 1692.38 66.5999 1695.74 60.7199C1699.1 54.7199 1703.78 50.0399 1709.78 46.6799C1715.9 43.3199 1722.86 41.6399 1730.66 41.6399C1737.5 41.6399 1743.56 43.1399 1748.84 46.1399C1754.12 49.1399 1758.2 53.5799 1761.08 59.4599C1764.08 65.2199 1765.58 72.2399 1765.58 80.5199V132C1765.58 134.64 1764.74 136.86 1763.06 138.66C1761.38 140.34 1759.16 141.18 1756.4 141.18ZM1636.34 141.18C1633.7 141.18 1631.48 140.34 1629.68 138.66C1628 136.86 1627.16 134.64 1627.16 132V51.8999C1627.16 49.1399 1628 46.9199 1629.68 45.2399C1631.48 43.5599 1633.7 42.7199 1636.34 42.7199C1639.1 42.7199 1641.32 43.5599 1643 45.2399C1644.68 46.9199 1645.52 49.1399 1645.52 51.8999V132C1645.52 134.64 1644.68 136.86 1643 138.66C1641.32 140.34 1639.1 141.18 1636.34 141.18ZM1696.46 141.18C1693.82 141.18 1691.6 140.34 1689.8 138.66C1688.12 136.86 1687.28 134.64 1687.28 132V80.5199C1687.28 72.9599 1685.42 67.3799 1681.7 63.7799C1677.98 60.0599 1673.12 58.1999 1667.12 58.1999C1660.88 58.1999 1655.72 60.3599 1651.64 64.6799C1647.56 68.9999 1645.52 74.5199 1645.52 81.2399H1634.18C1634.18 73.4399 1635.74 66.5999 1638.86 60.7199C1641.98 54.7199 1646.3 50.0399 1651.82 46.6799C1657.34 43.3199 1663.64 41.6399 1670.72 41.6399C1677.56 41.6399 1683.62 43.1399 1688.9 46.1399C1694.18 49.1399 1698.26 53.5799 1701.14 59.4599C1704.14 65.2199 1705.64 72.2399 1705.64 80.5199V132C1705.64 134.64 1704.8 136.86 1703.12 138.66C1701.44 140.34 1699.22 141.18 1696.46 141.18Z" fill="#FAFAFA"/>
<path d="M1813.73 184.2C1812.53 184.2 1811.09 183.84 1809.41 183.12C1804.13 180.72 1802.69 176.94 1805.09 171.78L1859.99 47.7599C1862.39 42.7199 1866.17 41.2799 1871.33 43.4399C1876.73 45.7199 1878.23 49.4999 1875.83 54.7799L1820.75 178.62C1819.31 182.34 1816.97 184.2 1813.73 184.2ZM1834.97 137.04C1832.69 138 1830.53 138.12 1828.49 137.4C1826.57 136.56 1825.01 135 1823.81 132.72L1782.59 54.4199C1781.39 52.1399 1781.21 49.9799 1782.05 47.9399C1783.01 45.7799 1784.63 44.2199 1786.91 43.2599C1789.19 42.2999 1791.35 42.2399 1793.39 43.0799C1795.43 43.7999 1796.99 45.2999 1798.07 47.5799L1837.49 125.88C1838.69 128.16 1839.11 130.38 1838.75 132.54C1838.51 134.58 1837.25 136.08 1834.97 137.04Z" fill="#FAFAFA"/>
</svg>
