<svg width="189" height="21" viewBox="0 0 189 21" fill="none" xmlns="http://www.w3.org/2000/svg">
<path d="M5.25699 16.0892C4.26294 16.0892 3.37084 15.8555 2.5807 15.3881C1.79056 14.9076 1.1661 14.2584 0.707304 13.4404C0.248512 12.6224 0.0127442 11.7005 0 10.6747V1.79331C0 1.49467 0.0892095 1.25446 0.267628 1.07268C0.458792 0.890894 0.69456 0.800003 0.974932 0.800003C1.26805 0.800003 1.50382 0.890894 1.68224 1.07268C1.86065 1.25446 1.94986 1.49467 1.94986 1.79331V7.05202C2.39591 6.50668 2.93117 6.07819 3.55564 5.76656C4.19285 5.44195 4.88741 5.27964 5.63931 5.27964C6.56964 5.27964 7.40439 5.51986 8.14355 6.00028C8.88272 6.46772 9.46258 7.11045 9.88314 7.92848C10.3164 8.73351 10.5331 9.64892 10.5331 10.6747C10.5331 11.7005 10.2973 12.6224 9.82579 13.4404C9.367 14.2584 8.74253 14.9076 7.95239 15.3881C7.16225 15.8555 6.26378 16.0892 5.25699 16.0892ZM5.25699 14.3363C5.90694 14.3363 6.4868 14.1805 6.99657 13.8689C7.50634 13.5443 7.90778 13.1028 8.2009 12.5445C8.50676 11.9861 8.65969 11.3629 8.65969 10.6747C8.65969 9.97353 8.50676 9.35028 8.2009 8.80493C7.90778 8.25958 7.50634 7.83109 6.99657 7.51947C6.4868 7.19485 5.90694 7.03255 5.25699 7.03255C4.61978 7.03255 4.03992 7.19485 3.5174 7.51947C3.00763 7.83109 2.60619 8.25958 2.31307 8.80493C2.01996 9.35028 1.8734 9.97353 1.8734 10.6747C1.8734 11.3629 2.01996 11.9861 2.31307 12.5445C2.60619 13.1028 3.00763 13.5443 3.5174 13.8689C4.03992 14.1805 4.61978 14.3363 5.25699 14.3363Z" fill="#FAFAFA"/>
<path d="M15.1425 9.35028C15.1425 8.57121 15.3273 7.87654 15.6969 7.26627C16.0792 6.64301 16.589 6.1496 17.2262 5.78604C17.8634 5.42247 18.5643 5.24069 19.329 5.24069C20.0936 5.24069 20.6608 5.37054 21.0303 5.63022C21.4127 5.87693 21.5592 6.17557 21.47 6.52615C21.4318 6.70794 21.3553 6.85077 21.2406 6.95464C21.1387 7.04553 21.0176 7.10396 20.8774 7.12993C20.7372 7.1559 20.5843 7.14941 20.4186 7.11045C19.603 6.94166 18.8702 6.92867 18.2202 7.0715C17.5703 7.21433 17.0541 7.48051 16.6718 7.87005C16.3022 8.25958 16.1174 8.75299 16.1174 9.35028H15.1425ZM15.1616 16.0113C14.8558 16.0113 14.62 15.9334 14.4543 15.7776C14.2887 15.6088 14.2058 15.3621 14.2058 15.0375V6.33139C14.2058 6.01976 14.2887 5.77955 14.4543 5.61075C14.62 5.44195 14.8558 5.35755 15.1616 5.35755C15.4802 5.35755 15.716 5.44195 15.8689 5.61075C16.0346 5.76656 16.1174 6.00677 16.1174 6.33139V15.0375C16.1174 15.3491 16.0346 15.5893 15.8689 15.7581C15.716 15.9269 15.4802 16.0113 15.1616 16.0113Z" fill="#FAFAFA"/>
<path d="M25.4334 16.0113C25.153 16.0113 24.9172 15.9204 24.7261 15.7386C24.5476 15.5439 24.4584 15.3037 24.4584 15.018V6.35086C24.4584 6.05222 24.5476 5.81201 24.7261 5.63022C24.9172 5.44844 25.153 5.35755 25.4334 5.35755C25.7265 5.35755 25.9622 5.44844 26.1407 5.63022C26.3191 5.81201 26.4083 6.05222 26.4083 6.35086V15.018C26.4083 15.3037 26.3191 15.5439 26.1407 15.7386C25.9622 15.9204 25.7265 16.0113 25.4334 16.0113ZM25.4334 3.62412C25.0893 3.62412 24.7898 3.50077 24.5349 3.25407C24.2928 2.99438 24.1717 2.68924 24.1717 2.33866C24.1717 1.98808 24.2928 1.68944 24.5349 1.44273C24.7898 1.18304 25.0893 1.0532 25.4334 1.0532C25.7775 1.0532 26.0706 1.18304 26.3127 1.44273C26.5676 1.68944 26.695 1.98808 26.695 2.33866C26.695 2.68924 26.5676 2.99438 26.3127 3.25407C26.0706 3.50077 25.7775 3.62412 25.4334 3.62412Z" fill="#FAFAFA"/>
<path d="M34.6046 16.0113C33.9674 16.0113 33.3939 15.849 32.8841 15.5244C32.3743 15.1868 31.9729 14.7323 31.6798 14.161C31.3867 13.5897 31.2401 12.947 31.2401 12.2328V2.94244C31.2401 2.65678 31.3293 2.42306 31.5077 2.24128C31.6861 2.0595 31.9155 1.96861 32.1959 1.96861C32.4763 1.96861 32.7057 2.0595 32.8841 2.24128C33.0625 2.42306 33.1517 2.65678 33.1517 2.94244V12.2328C33.1517 12.7522 33.2919 13.1872 33.5723 13.5378C33.8527 13.8883 34.1968 14.0636 34.6046 14.0636H35.2545C35.4839 14.0636 35.6751 14.1545 35.828 14.3363C35.9937 14.5181 36.0765 14.7518 36.0765 15.0375C36.0765 15.3231 35.9682 15.5569 35.7515 15.7386C35.5476 15.9204 35.28 16.0113 34.9487 16.0113H34.6046ZM30.3607 7.42208C30.0931 7.42208 29.8765 7.34418 29.7108 7.18836C29.5451 7.03255 29.4623 6.83778 29.4623 6.60406C29.4623 6.34437 29.5451 6.13662 29.7108 5.98081C29.8765 5.82499 30.0931 5.74709 30.3607 5.74709H34.7766C35.0442 5.74709 35.2609 5.82499 35.4266 5.98081C35.5922 6.13662 35.6751 6.34437 35.6751 6.60406C35.6751 6.83778 35.5922 7.03255 35.4266 7.18836C35.2609 7.34418 35.0442 7.42208 34.7766 7.42208H30.3607Z" fill="#FAFAFA"/>
<path d="M40.4038 16.0113C40.1235 16.0113 39.8877 15.9204 39.6965 15.7386C39.5181 15.5439 39.4289 15.3037 39.4289 15.018V6.35086C39.4289 6.05222 39.5181 5.81201 39.6965 5.63022C39.8877 5.44844 40.1235 5.35755 40.4038 5.35755C40.6969 5.35755 40.9327 5.44844 41.1111 5.63022C41.2896 5.81201 41.3788 6.05222 41.3788 6.35086V15.018C41.3788 15.3037 41.2896 15.5439 41.1111 15.7386C40.9327 15.9204 40.6969 16.0113 40.4038 16.0113ZM40.4038 3.62412C40.0597 3.62412 39.7602 3.50077 39.5054 3.25407C39.2632 2.99438 39.1422 2.68924 39.1422 2.33866C39.1422 1.98808 39.2632 1.68944 39.5054 1.44273C39.7602 1.18304 40.0597 1.0532 40.4038 1.0532C40.7479 1.0532 41.041 1.18304 41.2832 1.44273C41.5381 1.68944 41.6655 1.98808 41.6655 2.33866C41.6655 2.68924 41.5381 2.99438 41.2832 3.25407C41.041 3.50077 40.7479 3.62412 40.4038 3.62412Z" fill="#FAFAFA"/>
<path d="M49.575 16.0892C48.6829 16.0892 47.8546 15.9529 47.0899 15.6802C46.338 15.3945 45.7518 15.0375 45.3312 14.609C45.14 14.4012 45.0572 14.1675 45.0827 13.9078C45.1209 13.6351 45.2484 13.4144 45.465 13.2456C45.7199 13.0379 45.9684 12.9535 46.2106 12.9924C46.4654 13.0184 46.6821 13.1288 46.8605 13.3235C47.0772 13.5702 47.4213 13.8039 47.8928 14.0247C48.3771 14.2324 48.9123 14.3363 49.4986 14.3363C50.2377 14.3363 50.7985 14.213 51.1808 13.9663C51.5759 13.7195 51.7798 13.4014 51.7925 13.0119C51.8053 12.6224 51.6205 12.2848 51.2382 11.9991C50.8686 11.7134 50.1868 11.4797 49.1927 11.2979C47.9055 11.0383 46.9688 10.6487 46.3826 10.1293C45.8091 9.60997 45.5224 8.97373 45.5224 8.22063C45.5224 7.55842 45.7135 7.01307 46.0959 6.58458C46.4782 6.14311 46.9688 5.8185 47.5678 5.61075C48.1668 5.39001 48.7913 5.27964 49.4412 5.27964C50.2823 5.27964 51.0279 5.41598 51.6778 5.68865C52.3278 5.96133 52.8439 6.33788 53.2263 6.8183C53.4047 7.02606 53.4875 7.24679 53.4748 7.48051C53.462 7.70125 53.3537 7.88952 53.1498 8.04534C52.9459 8.18817 52.7037 8.23361 52.4234 8.18167C52.143 8.12974 51.9072 8.01287 51.7161 7.83109C51.3975 7.51946 51.0534 7.30522 50.6838 7.18836C50.3142 7.0715 49.8873 7.01307 49.403 7.01307C48.8422 7.01307 48.3643 7.11045 47.9693 7.30522C47.5869 7.49999 47.3958 7.78565 47.3958 8.1622C47.3958 8.39592 47.4531 8.61016 47.5678 8.80493C47.6953 8.98671 47.9374 9.15551 48.2942 9.31132C48.6511 9.45415 49.1736 9.59698 49.8618 9.73981C50.8176 9.93458 51.5695 10.1813 52.1175 10.4799C52.6782 10.7786 53.0797 11.1291 53.3218 11.5317C53.564 11.9212 53.685 12.3757 53.685 12.895C53.685 13.4923 53.5257 14.0312 53.2071 14.5116C52.9013 14.992 52.4425 15.3751 51.8308 15.6607C51.2318 15.9464 50.4799 16.0892 49.575 16.0892Z" fill="#FAFAFA"/>
<path d="M65.7468 16.0308C65.4665 16.0308 65.2307 15.9399 65.0395 15.7581C64.8611 15.5633 64.7719 15.3231 64.7719 15.0375V10.2462C64.7719 9.50609 64.6381 8.90231 64.3705 8.43487C64.1028 7.96743 63.7396 7.62334 63.2808 7.40261C62.8348 7.16888 62.3186 7.05202 61.7324 7.05202C61.1972 7.05202 60.7129 7.16239 60.2796 7.38313C59.8463 7.60386 59.5022 7.90251 59.2473 8.27906C58.9924 8.64262 58.865 9.06462 58.865 9.54504H57.6606C57.6606 8.72702 57.8518 7.99989 58.2341 7.36365C58.6292 6.71443 59.1645 6.20154 59.8399 5.82499C60.5153 5.44844 61.2736 5.26017 62.1147 5.26017C62.9941 5.26017 63.7779 5.45493 64.466 5.84447C65.167 6.22102 65.715 6.77935 66.1101 7.51947C66.5179 8.25958 66.7218 9.16849 66.7218 10.2462V15.0375C66.7218 15.3231 66.6262 15.5633 66.435 15.7581C66.2566 15.9399 66.0272 16.0308 65.7468 16.0308ZM57.89 16.0308C57.6097 16.0308 57.3739 15.9399 57.1827 15.7581C57.0043 15.5633 56.9151 15.3231 56.9151 15.0375V6.35086C56.9151 6.05222 57.0043 5.81201 57.1827 5.63022C57.3739 5.44844 57.6097 5.35755 57.89 5.35755C58.1832 5.35755 58.4189 5.44844 58.5973 5.63022C58.7758 5.81201 58.865 6.05222 58.865 6.35086V15.0375C58.865 15.3231 58.7758 15.5633 58.5973 15.7581C58.4189 15.9399 58.1832 16.0308 57.89 16.0308ZM57.89 12.1354C57.6097 12.1354 57.3739 12.0446 57.1827 11.8628C57.0043 11.668 56.9151 11.4278 56.9151 11.1421V1.79331C56.9151 1.49467 57.0043 1.25446 57.1827 1.07268C57.3739 0.890894 57.6097 0.800003 57.89 0.800003C58.1832 0.800003 58.4189 0.890894 58.5973 1.07268C58.7758 1.25446 58.865 1.49467 58.865 1.79331V11.1421C58.865 11.4278 58.7758 11.668 58.5973 11.8628C58.4189 12.0446 58.1832 12.1354 57.89 12.1354Z" fill="#FAFAFA"/>
<path d="M75.6418 16.0892C74.584 16.0892 73.6409 15.862 72.8126 15.4075C71.9969 14.9401 71.3534 14.3039 70.8818 13.4988C70.423 12.6808 70.1936 11.7459 70.1936 10.6942C70.1936 9.62944 70.4103 8.69456 70.8436 7.88952C71.2896 7.0715 71.9014 6.43526 72.6787 5.98081C73.4561 5.51336 74.3482 5.27964 75.355 5.27964C76.3491 5.27964 77.2029 5.50687 77.9166 5.96133C78.6303 6.4028 79.1719 7.01956 79.5415 7.81162C79.9238 8.59068 80.115 9.4931 80.115 10.5189C80.115 10.7656 80.0322 10.9733 79.8665 11.1421C79.7008 11.2979 79.4905 11.3759 79.2356 11.3759H71.5318V9.81772H79.1783L78.3945 10.3631C78.3818 9.71384 78.2543 9.13603 78.0122 8.62964C77.7701 8.11026 77.426 7.70125 76.9799 7.40261C76.5339 7.10396 75.9922 6.95464 75.355 6.95464C74.6286 6.95464 74.0042 7.11695 73.4816 7.44156C72.9719 7.76617 72.5832 8.21413 72.3155 8.78545C72.0479 9.34378 71.9141 9.98002 71.9141 10.6942C71.9141 11.4083 72.0734 12.0446 72.392 12.6029C72.7106 13.1612 73.1503 13.6027 73.711 13.9273C74.2718 14.2519 74.9154 14.4142 75.6418 14.4142C76.0368 14.4142 76.4383 14.3428 76.8461 14.2C77.2667 14.0442 77.6044 13.8689 77.8593 13.6741C78.0504 13.5313 78.2543 13.4599 78.471 13.4599C78.7004 13.4469 78.8979 13.5118 79.0636 13.6546C79.2803 13.8494 79.395 14.0636 79.4077 14.2974C79.4204 14.5311 79.3185 14.7323 79.1018 14.9011C78.6685 15.2517 78.1269 15.5374 77.4769 15.7581C76.8397 15.9788 76.228 16.0892 75.6418 16.0892Z" fill="#FAFAFA"/>
<path d="M84.3033 9.35028C84.3033 8.57121 84.488 7.87654 84.8576 7.26627C85.24 6.64301 85.7497 6.1496 86.3869 5.78604C87.0241 5.42247 87.7251 5.24069 88.4897 5.24069C89.2544 5.24069 89.8215 5.37054 90.1911 5.63022C90.5734 5.87693 90.72 6.17557 90.6308 6.52615C90.5925 6.70794 90.5161 6.85077 90.4014 6.95464C90.2994 7.04553 90.1783 7.10396 90.0382 7.12993C89.898 7.1559 89.745 7.14941 89.5794 7.11045C88.7637 6.94166 88.0309 6.92867 87.381 7.0715C86.731 7.21433 86.2149 7.48051 85.8326 7.87005C85.463 8.25958 85.2782 8.75299 85.2782 9.35028H84.3033ZM84.3224 16.0113C84.0165 16.0113 83.7807 15.9334 83.6151 15.7776C83.4494 15.6088 83.3666 15.3621 83.3666 15.0375V6.33139C83.3666 6.01976 83.4494 5.77955 83.6151 5.61075C83.7807 5.44195 84.0165 5.35755 84.3224 5.35755C84.641 5.35755 84.8767 5.44195 85.0297 5.61075C85.1954 5.76656 85.2782 6.00677 85.2782 6.33139V15.0375C85.2782 15.3491 85.1954 15.5893 85.0297 15.7581C84.8767 15.9269 84.641 16.0113 84.3224 16.0113Z" fill="#FAFAFA"/>
<path d="M104.152 16.0892C103.221 16.0892 102.387 15.8555 101.647 15.3881C100.908 14.9076 100.322 14.2649 99.8887 13.4599C99.4682 12.6418 99.2579 11.7199 99.2579 10.6942C99.2579 9.6684 99.4873 8.7465 99.9461 7.92848C100.418 7.11045 101.048 6.46772 101.839 6.00028C102.641 5.51986 103.54 5.27964 104.534 5.27964C105.528 5.27964 106.42 5.51986 107.21 6.00028C108 6.46772 108.625 7.11045 109.084 7.92848C109.555 8.7465 109.791 9.6684 109.791 10.6942H109.045C109.045 11.7199 108.829 12.6418 108.395 13.4599C107.975 14.2649 107.395 14.9076 106.656 15.3881C105.917 15.8555 105.082 16.0892 104.152 16.0892ZM104.534 14.3363C105.184 14.3363 105.764 14.1805 106.274 13.8689C106.783 13.5443 107.185 13.1093 107.478 12.5639C107.771 12.0056 107.918 11.3823 107.918 10.6942C107.918 9.99301 107.771 9.36975 107.478 8.8244C107.185 8.26607 106.783 7.83109 106.274 7.51947C105.764 7.19485 105.184 7.03255 104.534 7.03255C103.897 7.03255 103.317 7.19485 102.794 7.51947C102.285 7.83109 101.877 8.26607 101.571 8.8244C101.278 9.36975 101.131 9.99301 101.131 10.6942C101.131 11.3823 101.278 12.0056 101.571 12.5639C101.877 13.1093 102.285 13.5443 102.794 13.8689C103.317 14.1805 103.897 14.3363 104.534 14.3363ZM108.816 16.0308C108.536 16.0308 108.3 15.9399 108.109 15.7581C107.93 15.5633 107.841 15.3231 107.841 15.0375V12.0575L108.204 9.99301L109.791 10.6942V15.0375C109.791 15.3231 109.695 15.5633 109.504 15.7581C109.326 15.9399 109.096 16.0308 108.816 16.0308Z" fill="#FAFAFA"/>
<path d="M117.434 16.0892C116.414 16.0892 115.503 15.8555 114.7 15.3881C113.91 14.9076 113.286 14.2649 112.827 13.4599C112.381 12.6418 112.158 11.7199 112.158 10.6942C112.158 9.64243 112.381 8.70754 112.827 7.88952C113.273 7.0715 113.885 6.43526 114.662 5.98081C115.439 5.51336 116.331 5.27964 117.338 5.27964C118.09 5.27964 118.778 5.42897 119.403 5.72761C120.027 6.01327 120.588 6.44825 121.085 7.03255C121.263 7.2403 121.327 7.45454 121.276 7.67528C121.225 7.89601 121.085 8.09078 120.856 8.25958C120.677 8.38942 120.48 8.43487 120.263 8.39592C120.046 8.34398 119.849 8.22712 119.67 8.04534C119.046 7.37014 118.269 7.03255 117.338 7.03255C116.688 7.03255 116.115 7.18836 115.618 7.49999C115.121 7.79863 114.732 8.22063 114.452 8.76597C114.171 9.31132 114.031 9.95405 114.031 10.6942C114.031 11.3953 114.171 12.0186 114.452 12.5639C114.745 13.1093 115.146 13.5443 115.656 13.8689C116.166 14.1805 116.758 14.3363 117.434 14.3363C117.88 14.3363 118.269 14.2844 118.6 14.1805C118.944 14.0636 119.256 13.8883 119.537 13.6546C119.74 13.4858 119.951 13.3949 120.167 13.382C120.384 13.356 120.575 13.4144 120.741 13.5572C120.958 13.739 121.079 13.9468 121.104 14.1805C121.13 14.4012 121.053 14.6025 120.875 14.7843C119.957 15.6542 118.81 16.0892 117.434 16.0892Z" fill="#FAFAFA"/>
<path d="M128.532 16.0892C127.602 16.0892 126.767 15.8555 126.028 15.3881C125.289 14.9076 124.703 14.2649 124.27 13.4599C123.849 12.6418 123.639 11.7199 123.639 10.6942C123.639 9.6684 123.868 8.7465 124.327 7.92848C124.798 7.11045 125.429 6.46772 126.219 6.00028C127.022 5.51986 127.921 5.27964 128.915 5.27964C129.909 5.27964 130.801 5.51986 131.591 6.00028C132.381 6.46772 133.006 7.11045 133.464 7.92848C133.936 8.7465 134.172 9.6684 134.172 10.6942H133.426C133.426 11.7199 133.21 12.6418 132.776 13.4599C132.356 14.2649 131.776 14.9076 131.037 15.3881C130.298 15.8555 129.463 16.0892 128.532 16.0892ZM128.915 14.3363C129.565 14.3363 130.145 14.1805 130.654 13.8689C131.164 13.5443 131.566 13.1093 131.859 12.5639C132.152 12.0056 132.298 11.3823 132.298 10.6942C132.298 9.99301 132.152 9.36975 131.859 8.8244C131.566 8.26607 131.164 7.83109 130.654 7.51947C130.145 7.19485 129.565 7.03255 128.915 7.03255C128.278 7.03255 127.698 7.19485 127.175 7.51947C126.665 7.83109 126.258 8.26607 125.952 8.8244C125.659 9.36975 125.512 9.99301 125.512 10.6942C125.512 11.3823 125.659 12.0056 125.952 12.5639C126.258 13.1093 126.665 13.5443 127.175 13.8689C127.698 14.1805 128.278 14.3363 128.915 14.3363ZM133.197 16.0308C132.916 16.0308 132.681 15.9399 132.49 15.7581C132.311 15.5633 132.222 15.3231 132.222 15.0375V12.0575L132.585 9.99301L134.172 10.6942V15.0375C134.172 15.3231 134.076 15.5633 133.885 15.7581C133.707 15.9399 133.477 16.0308 133.197 16.0308Z" fill="#FAFAFA"/>
<path d="M141.815 16.0892C140.821 16.0892 139.922 15.8555 139.119 15.3881C138.329 14.9076 137.698 14.2584 137.227 13.4404C136.768 12.6224 136.538 11.7005 136.538 10.6747C136.538 9.64892 136.749 8.73351 137.169 7.92848C137.603 7.11045 138.189 6.46772 138.928 6.00028C139.667 5.51986 140.502 5.27964 141.432 5.27964C142.184 5.27964 142.879 5.44195 143.516 5.76656C144.153 6.07819 144.688 6.50668 145.122 7.05202V1.79331C145.122 1.49467 145.211 1.25446 145.389 1.07268C145.58 0.890894 145.816 0.800003 146.097 0.800003C146.39 0.800003 146.625 0.890894 146.804 1.07268C146.982 1.25446 147.072 1.49467 147.072 1.79331V10.6747C147.072 11.7005 146.836 12.6224 146.364 13.4404C145.905 14.2584 145.281 14.9076 144.491 15.3881C143.701 15.8555 142.809 16.0892 141.815 16.0892ZM141.815 14.3363C142.465 14.3363 143.044 14.1805 143.554 13.8689C144.064 13.5443 144.465 13.1028 144.758 12.5445C145.052 11.9861 145.198 11.3629 145.198 10.6747C145.198 9.97353 145.052 9.35028 144.758 8.80493C144.465 8.25958 144.064 7.83109 143.554 7.51947C143.044 7.19485 142.465 7.03255 141.815 7.03255C141.177 7.03255 140.597 7.19485 140.075 7.51947C139.565 7.83109 139.157 8.25958 138.852 8.80493C138.558 9.35028 138.412 9.97353 138.412 10.6747C138.412 11.3629 138.558 11.9861 138.852 12.5445C139.157 13.1028 139.565 13.5443 140.075 13.8689C140.597 14.1805 141.177 14.3363 141.815 14.3363Z" fill="#FAFAFA"/>
<path d="M155.428 16.0892C154.37 16.0892 153.427 15.862 152.599 15.4075C151.783 14.9401 151.139 14.3039 150.668 13.4988C150.209 12.6808 149.98 11.7459 149.98 10.6942C149.98 9.62944 150.196 8.69456 150.63 7.88952C151.076 7.0715 151.687 6.43526 152.465 5.98081C153.242 5.51336 154.134 5.27964 155.141 5.27964C156.135 5.27964 156.989 5.50687 157.703 5.96133C158.416 6.4028 158.958 7.01956 159.327 7.81162C159.71 8.59068 159.901 9.4931 159.901 10.5189C159.901 10.7656 159.818 10.9733 159.652 11.1421C159.487 11.2979 159.277 11.3759 159.022 11.3759H151.318V9.81772H158.964L158.181 10.3631C158.168 9.71384 158.04 9.13603 157.798 8.62964C157.556 8.11026 157.212 7.70125 156.766 7.40261C156.32 7.10396 155.778 6.95464 155.141 6.95464C154.415 6.95464 153.79 7.11695 153.268 7.44156C152.758 7.76617 152.369 8.21413 152.102 8.78545C151.834 9.34378 151.7 9.98002 151.7 10.6942C151.7 11.4083 151.859 12.0446 152.178 12.6029C152.497 13.1612 152.936 13.6027 153.497 13.9273C154.058 14.2519 154.701 14.4142 155.428 14.4142C155.823 14.4142 156.224 14.3428 156.632 14.2C157.053 14.0442 157.39 13.8689 157.645 13.6741C157.836 13.5313 158.04 13.4599 158.257 13.4599C158.486 13.4469 158.684 13.5118 158.85 13.6546C159.066 13.8494 159.181 14.0636 159.194 14.2974C159.206 14.5311 159.104 14.7323 158.888 14.9011C158.455 15.2517 157.913 15.5374 157.263 15.7581C156.626 15.9788 156.014 16.0892 155.428 16.0892Z" fill="#FAFAFA"/>
<path d="M176.113 16.0308C175.833 16.0308 175.597 15.9399 175.406 15.7581C175.228 15.5633 175.138 15.3231 175.138 15.0375V9.46714C175.138 8.64911 174.941 8.04534 174.546 7.6558C174.151 7.25328 173.635 7.05202 172.997 7.05202C172.335 7.05202 171.787 7.28574 171.353 7.75319C170.933 8.22063 170.723 8.81791 170.723 9.54504H169.136C169.136 8.70105 169.314 7.96094 169.671 7.3247C170.028 6.67547 170.525 6.16908 171.162 5.80551C171.812 5.44195 172.551 5.26017 173.38 5.26017C174.106 5.26017 174.75 5.42247 175.311 5.74709C175.871 6.0717 176.305 6.55212 176.61 7.18836C176.929 7.81162 177.088 8.57121 177.088 9.46714V15.0375C177.088 15.3231 176.999 15.5633 176.821 15.7581C176.642 15.9399 176.407 16.0308 176.113 16.0308ZM163.363 16.0308C163.082 16.0308 162.847 15.9399 162.656 15.7581C162.477 15.5633 162.388 15.3231 162.388 15.0375V6.37034C162.388 6.0717 162.477 5.83148 162.656 5.6497C162.847 5.46792 163.082 5.37703 163.363 5.37703C163.656 5.37703 163.892 5.46792 164.07 5.6497C164.249 5.83148 164.338 6.0717 164.338 6.37034V15.0375C164.338 15.3231 164.249 15.5633 164.07 15.7581C163.892 15.9399 163.656 16.0308 163.363 16.0308ZM169.748 16.0308C169.467 16.0308 169.232 15.9399 169.04 15.7581C168.862 15.5633 168.773 15.3231 168.773 15.0375V9.46714C168.773 8.64911 168.575 8.04534 168.18 7.6558C167.785 7.25328 167.269 7.05202 166.632 7.05202C165.969 7.05202 165.421 7.28574 164.988 7.75319C164.554 8.22063 164.338 8.81791 164.338 9.54504H163.133C163.133 8.70105 163.299 7.96094 163.63 7.3247C163.962 6.67547 164.421 6.16908 165.007 5.80551C165.593 5.44195 166.262 5.26017 167.014 5.26017C167.74 5.26017 168.384 5.42247 168.945 5.74709C169.506 6.0717 169.939 6.55212 170.245 7.18836C170.563 7.81162 170.723 8.57121 170.723 9.46714V15.0375C170.723 15.3231 170.633 15.5633 170.455 15.7581C170.277 15.9399 170.041 16.0308 169.748 16.0308Z" fill="#FAFAFA"/>
<path d="M182.202 20.6857C182.074 20.6857 181.921 20.6468 181.743 20.5689C181.182 20.3092 181.029 19.9002 181.284 19.3418L187.114 5.92238C187.369 5.37703 187.771 5.22121 188.319 5.45493C188.892 5.70164 189.052 6.11065 188.797 6.68197L182.947 20.0819C182.794 20.4845 182.546 20.6857 182.202 20.6857ZM184.457 15.5828C184.215 15.6867 183.986 15.6997 183.769 15.6218C183.565 15.5309 183.399 15.3621 183.272 15.1154L178.894 6.64301C178.767 6.39631 178.748 6.16259 178.837 5.94185C178.939 5.70813 179.111 5.53933 179.353 5.43546C179.595 5.33158 179.825 5.32509 180.041 5.41598C180.258 5.49389 180.424 5.65619 180.538 5.9029L184.725 14.3753C184.852 14.622 184.897 14.8622 184.859 15.0959C184.833 15.3166 184.699 15.4789 184.457 15.5828Z" fill="#FAFAFA"/>
</svg>
