<svg width="1247" height="453" viewBox="0 0 1247 453" fill="none" xmlns="http://www.w3.org/2000/svg">
<path d="M549.69 205.892C542.629 205.892 536.292 204.263 530.679 201.004C525.066 197.654 520.63 193.128 517.371 187.424C514.112 181.721 512.437 175.293 512.346 168.141V106.219C512.346 104.136 512.98 102.462 514.248 101.194C515.606 99.9267 517.28 99.293 519.272 99.293C521.354 99.293 523.029 99.9267 524.296 101.194C525.564 102.462 526.198 104.136 526.198 106.219V142.883C529.366 139.081 533.168 136.094 537.604 133.921C542.131 131.658 547.065 130.526 552.406 130.526C559.015 130.526 564.945 132.201 570.195 135.55C575.446 138.809 579.565 143.291 582.553 148.994C585.631 154.607 587.17 160.989 587.17 168.141C587.17 175.293 585.495 181.721 582.145 187.424C578.886 193.128 574.45 197.654 568.837 201.004C563.225 204.263 556.842 205.892 549.69 205.892ZM549.69 193.671C554.307 193.671 558.426 192.584 562.048 190.412C565.669 188.148 568.521 185.07 570.603 181.178C572.775 177.285 573.862 172.939 573.862 168.141C573.862 163.253 572.775 158.907 570.603 155.105C568.521 151.303 565.669 148.315 562.048 146.142C558.426 143.879 554.307 142.748 549.69 142.748C545.164 142.748 541.045 143.879 537.333 146.142C533.712 148.315 530.86 151.303 528.778 155.105C526.696 158.907 525.654 163.253 525.654 168.141C525.654 172.939 526.696 177.285 528.778 181.178C530.86 185.07 533.712 188.148 537.333 190.412C541.045 192.584 545.164 193.671 549.69 193.671Z" fill="#FAFAFA"/>
<path d="M614.482 158.907C614.482 153.475 615.794 148.632 618.42 144.377C621.136 140.032 624.757 136.591 629.283 134.057C633.81 131.522 638.789 130.254 644.221 130.254C649.653 130.254 653.681 131.16 656.307 132.97C659.023 134.69 660.064 136.773 659.43 139.217C659.158 140.484 658.615 141.48 657.8 142.204C657.076 142.838 656.216 143.245 655.22 143.426C654.224 143.608 653.138 143.562 651.961 143.291C646.167 142.114 640.962 142.023 636.345 143.019C631.728 144.015 628.061 145.871 625.345 148.587C622.72 151.303 621.407 154.743 621.407 158.907H614.482ZM614.617 205.349C612.445 205.349 610.77 204.806 609.593 203.72C608.416 202.543 607.828 200.823 607.828 198.559V137.859C607.828 135.686 608.416 134.011 609.593 132.834C610.77 131.658 612.445 131.069 614.617 131.069C616.881 131.069 618.556 131.658 619.642 132.834C620.819 133.921 621.407 135.596 621.407 137.859V198.559C621.407 200.732 620.819 202.407 619.642 203.584C618.556 204.761 616.881 205.349 614.617 205.349Z" fill="#FAFAFA"/>
<path d="M687.177 237.94C686.271 237.94 685.185 237.669 683.918 237.125C679.934 235.315 678.848 232.463 680.659 228.57L722.076 135.007C723.887 131.205 726.739 130.119 730.631 131.748C734.705 133.468 735.837 136.32 734.026 140.303L692.473 233.73C691.386 236.537 689.621 237.94 687.177 237.94ZM703.201 202.362C701.481 203.086 699.851 203.177 698.312 202.633C696.864 202 695.687 200.823 694.781 199.103L663.684 140.032C662.779 138.312 662.643 136.682 663.277 135.143C664.001 133.513 665.223 132.337 666.943 131.612C668.663 130.888 670.293 130.843 671.832 131.476C673.371 132.02 674.548 133.151 675.363 134.871L705.102 193.942C706.007 195.662 706.324 197.337 706.052 198.967C705.871 200.506 704.921 201.637 703.201 202.362Z" fill="#FAFAFA"/>
<path d="M774.094 205.349C769.568 205.349 765.494 204.218 761.873 201.954C758.252 199.601 755.4 196.432 753.318 192.449C751.235 188.465 750.194 183.984 750.194 179.005V114.23C750.194 112.239 750.828 110.609 752.096 109.342C753.363 108.074 754.992 107.441 756.984 107.441C758.976 107.441 760.605 108.074 761.873 109.342C763.14 110.609 763.774 112.239 763.774 114.23V179.005C763.774 182.626 764.77 185.659 766.761 188.103C768.753 190.548 771.197 191.77 774.094 191.77H778.711C780.341 191.77 781.699 192.403 782.785 193.671C783.962 194.938 784.551 196.568 784.551 198.559C784.551 200.551 783.781 202.181 782.242 203.448C780.794 204.716 778.892 205.349 776.539 205.349H774.094ZM743.948 145.463C742.047 145.463 740.508 144.92 739.331 143.834C738.154 142.748 737.565 141.39 737.565 139.76C737.565 137.949 738.154 136.501 739.331 135.415C740.508 134.328 742.047 133.785 743.948 133.785H775.317C777.218 133.785 778.757 134.328 779.934 135.415C781.11 136.501 781.699 137.949 781.699 139.76C781.699 141.39 781.11 142.748 779.934 143.834C778.757 144.92 777.218 145.463 775.317 145.463H743.948Z" fill="#FAFAFA"/>
<path d="M808.5 178.326C806.509 178.326 804.834 177.692 803.476 176.425C802.209 175.067 801.575 173.392 801.575 171.4V106.219C801.575 104.136 802.209 102.462 803.476 101.194C804.834 99.9267 806.509 99.293 808.5 99.293C810.583 99.293 812.257 99.9267 813.525 101.194C814.792 102.462 815.426 104.136 815.426 106.219V171.4C815.426 173.392 814.792 175.067 813.525 176.425C812.257 177.692 810.583 178.326 808.5 178.326ZM864.312 205.485C862.321 205.485 860.646 204.851 859.288 203.584C858.021 202.226 857.387 200.551 857.387 198.559V165.154C857.387 159.994 856.436 155.784 854.535 152.525C852.634 149.266 850.054 146.867 846.795 145.328C843.626 143.698 839.96 142.883 835.795 142.883C831.993 142.883 828.553 143.653 825.475 145.192C822.397 146.731 819.953 148.813 818.142 151.438C816.331 153.973 815.426 156.916 815.426 160.265H806.871C806.871 154.562 808.229 149.492 810.945 145.056C813.751 140.53 817.554 136.954 822.352 134.328C827.15 131.703 832.536 130.39 838.511 130.39C844.758 130.39 850.326 131.748 855.214 134.464C860.193 137.089 864.086 140.982 866.893 146.142C869.79 151.303 871.238 157.64 871.238 165.154V198.559C871.238 200.551 870.559 202.226 869.201 203.584C867.934 204.851 866.304 205.485 864.312 205.485ZM808.5 205.485C806.509 205.485 804.834 204.851 803.476 203.584C802.209 202.226 801.575 200.551 801.575 198.559V137.995C801.575 135.912 802.209 134.238 803.476 132.97C804.834 131.703 806.509 131.069 808.5 131.069C810.583 131.069 812.257 131.703 813.525 132.97C814.792 134.238 815.426 135.912 815.426 137.995V198.559C815.426 200.551 814.792 202.226 813.525 203.584C812.257 204.851 810.583 205.485 808.5 205.485Z" fill="#FAFAFA"/>
<path d="M927.949 205.892C920.616 205.892 914.143 204.308 908.53 201.14C902.917 197.88 898.481 193.445 895.222 187.832C892.053 182.128 890.469 175.61 890.469 168.277C890.469 160.854 892.053 154.335 895.222 148.723C898.481 143.019 902.917 138.583 908.53 135.415C914.143 132.155 920.616 130.526 927.949 130.526C935.191 130.526 941.619 132.155 947.231 135.415C952.844 138.583 957.235 143.019 960.404 148.723C963.663 154.335 965.292 160.854 965.292 168.277C965.292 175.61 963.708 182.128 960.539 187.832C957.371 193.445 952.98 197.88 947.367 201.14C941.754 204.308 935.281 205.892 927.949 205.892ZM927.949 193.671C932.656 193.671 936.82 192.584 940.442 190.412C944.063 188.239 946.869 185.252 948.861 181.449C950.943 177.647 951.984 173.256 951.984 168.277C951.984 163.298 950.943 158.907 948.861 155.105C946.869 151.212 944.063 148.179 940.442 146.007C936.82 143.834 932.656 142.748 927.949 142.748C923.241 142.748 919.077 143.834 915.455 146.007C911.834 148.179 908.982 151.212 906.9 155.105C904.818 158.907 903.777 163.298 903.777 168.277C903.777 173.256 904.818 177.647 906.9 181.449C908.982 185.252 911.834 188.239 915.455 190.412C919.077 192.584 923.241 193.671 927.949 193.671Z" fill="#FAFAFA"/>
<path d="M1048.64 205.485C1046.65 205.485 1044.98 204.851 1043.62 203.584C1042.35 202.226 1041.72 200.551 1041.72 198.559V165.154C1041.72 159.994 1040.77 155.784 1038.87 152.525C1036.97 149.266 1034.39 146.867 1031.13 145.328C1027.96 143.698 1024.29 142.883 1020.13 142.883C1016.32 142.883 1012.88 143.653 1009.81 145.192C1006.73 146.731 1004.28 148.813 1002.47 151.438C1000.66 153.973 999.758 156.916 999.758 160.265H991.203C991.203 154.562 992.561 149.492 995.277 145.056C998.083 140.53 1001.89 136.954 1006.68 134.328C1011.48 131.703 1016.87 130.39 1022.84 130.39C1029.09 130.39 1034.66 131.748 1039.55 134.464C1044.53 137.089 1048.42 140.982 1051.22 146.142C1054.12 151.303 1055.57 157.64 1055.57 165.154V198.559C1055.57 200.551 1054.89 202.226 1053.53 203.584C1052.27 204.851 1050.64 205.485 1048.64 205.485ZM992.832 205.485C990.841 205.485 989.166 204.851 987.808 203.584C986.54 202.226 985.907 200.551 985.907 198.559V137.995C985.907 135.912 986.54 134.238 987.808 132.97C989.166 131.703 990.841 131.069 992.832 131.069C994.914 131.069 996.589 131.703 997.857 132.97C999.124 134.238 999.758 135.912 999.758 137.995V198.559C999.758 200.551 999.124 202.226 997.857 203.584C996.589 204.851 994.914 205.485 992.832 205.485Z" fill="#FAFAFA"/>
<path d="M1086.75 205.349C1084.76 205.349 1083.09 204.716 1081.73 203.448C1080.46 202.09 1079.83 200.415 1079.83 198.424V137.995C1079.83 135.912 1080.46 134.238 1081.73 132.97C1083.09 131.703 1084.76 131.069 1086.75 131.069C1088.84 131.069 1090.51 131.703 1091.78 132.97C1093.05 134.238 1093.68 135.912 1093.68 137.995V198.424C1093.68 200.415 1093.05 202.09 1091.78 203.448C1090.51 204.716 1088.84 205.349 1086.75 205.349ZM1086.75 118.983C1084.31 118.983 1082.18 118.123 1080.37 116.403C1078.65 114.593 1077.79 112.465 1077.79 110.021C1077.79 107.576 1078.65 105.494 1080.37 103.774C1082.18 101.964 1084.31 101.058 1086.75 101.058C1089.2 101.058 1091.28 101.964 1093 103.774C1094.81 105.494 1095.72 107.576 1095.72 110.021C1095.72 112.465 1094.81 114.593 1093 116.403C1091.28 118.123 1089.2 118.983 1086.75 118.983Z" fill="#FAFAFA"/>
<path d="M1153.13 205.892C1145.88 205.892 1139.41 204.263 1133.71 201.004C1128.09 197.654 1123.66 193.173 1120.4 187.56C1117.23 181.857 1115.65 175.429 1115.65 168.277C1115.65 160.944 1117.23 154.426 1120.4 148.723C1123.57 143.019 1127.91 138.583 1133.43 135.415C1138.96 132.155 1145.29 130.526 1152.45 130.526C1157.79 130.526 1162.68 131.567 1167.11 133.649C1171.55 135.641 1175.53 138.674 1179.06 142.748C1180.33 144.196 1180.78 145.69 1180.42 147.229C1180.06 148.768 1179.06 150.126 1177.43 151.303C1176.16 152.208 1174.76 152.525 1173.22 152.253C1171.68 151.891 1170.28 151.076 1169.01 149.809C1164.58 145.101 1159.05 142.748 1152.45 142.748C1147.83 142.748 1143.76 143.834 1140.22 146.007C1136.69 148.089 1133.93 151.031 1131.94 154.833C1129.95 158.636 1128.95 163.117 1128.95 168.277C1128.95 173.166 1129.95 177.511 1131.94 181.313C1134.02 185.116 1136.87 188.148 1140.5 190.412C1144.12 192.584 1148.33 193.671 1153.13 193.671C1156.29 193.671 1159.05 193.309 1161.41 192.584C1163.85 191.77 1166.07 190.548 1168.06 188.918C1169.51 187.741 1171 187.107 1172.54 187.017C1174.08 186.836 1175.44 187.243 1176.62 188.239C1178.16 189.506 1179.02 190.955 1179.2 192.584C1179.38 194.123 1178.84 195.527 1177.57 196.794C1171.05 202.86 1162.9 205.892 1153.13 205.892Z" fill="#FAFAFA"/>
<path d="M543.308 338.376C536.699 338.376 530.769 336.746 525.519 333.487C520.268 330.138 516.103 325.656 513.025 320.043C510.038 314.34 508.544 307.912 508.544 300.76C508.544 293.609 510.174 287.181 513.433 281.478C516.782 275.774 521.264 271.293 526.877 268.034C532.58 264.684 538.962 263.009 546.024 263.009C553.085 263.009 559.422 264.684 565.035 268.034C570.648 271.293 575.084 275.774 578.343 281.478C581.693 287.181 583.368 293.609 583.368 300.76H578.071C578.071 307.912 576.532 314.34 573.454 320.043C570.467 325.656 566.348 330.138 561.097 333.487C555.846 336.746 549.917 338.376 543.308 338.376ZM546.024 326.154C550.641 326.154 554.76 325.068 558.381 322.895C562.002 320.632 564.854 317.599 566.936 313.797C569.018 309.904 570.06 305.559 570.06 300.76C570.06 295.872 569.018 291.526 566.936 287.724C564.854 283.831 562.002 280.799 558.381 278.626C554.76 276.363 550.641 275.231 546.024 275.231C541.497 275.231 537.378 276.363 533.666 278.626C530.045 280.799 527.148 283.831 524.975 287.724C522.893 291.526 521.852 295.872 521.852 300.76C521.852 305.559 522.893 309.904 524.975 313.797C527.148 317.599 530.045 320.632 533.666 322.895C537.378 325.068 541.497 326.154 546.024 326.154ZM576.442 337.968C574.45 337.968 572.775 337.335 571.418 336.067C570.15 334.709 569.516 333.035 569.516 331.043V310.266L572.096 295.872L583.368 300.76V331.043C583.368 333.035 582.689 334.709 581.331 336.067C580.063 337.335 578.434 337.968 576.442 337.968Z" fill="#FAFAFA"/>
<path d="M643.091 338.376C635.849 338.376 629.376 336.746 623.672 333.487C618.059 330.138 613.623 325.656 610.364 320.043C607.196 314.34 605.611 307.912 605.611 300.76C605.611 293.428 607.196 286.909 610.364 281.206C613.533 275.503 617.878 271.067 623.401 267.898C628.923 264.639 635.26 263.009 642.412 263.009C647.753 263.009 652.642 264.05 657.078 266.133C661.514 268.124 665.497 271.157 669.028 275.231C670.295 276.679 670.748 278.173 670.386 279.712C670.024 281.251 669.028 282.609 667.398 283.786C666.131 284.691 664.728 285.008 663.189 284.737C661.65 284.374 660.246 283.56 658.979 282.292C654.543 277.585 649.021 275.231 642.412 275.231C637.795 275.231 633.721 276.317 630.19 278.49C626.66 280.572 623.899 283.514 621.907 287.317C619.915 291.119 618.919 295.6 618.919 300.76C618.919 305.649 619.915 309.995 621.907 313.797C623.989 317.599 626.841 320.632 630.462 322.895C634.083 325.068 638.293 326.154 643.091 326.154C646.26 326.154 649.021 325.792 651.375 325.068C653.819 324.253 656.037 323.031 658.028 321.401C659.477 320.225 660.971 319.591 662.51 319.5C664.049 319.319 665.407 319.727 666.584 320.722C668.123 321.99 668.983 323.438 669.164 325.068C669.345 326.607 668.802 328.01 667.534 329.278C661.016 335.343 652.868 338.376 643.091 338.376Z" fill="#FAFAFA"/>
<path d="M727.364 338.376C720.755 338.376 714.825 336.746 709.575 333.487C704.324 330.138 700.159 325.656 697.081 320.043C694.094 314.34 692.6 307.912 692.6 300.76C692.6 293.609 694.23 287.181 697.489 281.478C700.838 275.774 705.32 271.293 710.932 268.034C716.636 264.684 723.018 263.009 730.08 263.009C737.141 263.009 743.478 264.684 749.091 268.034C754.704 271.293 759.14 275.774 762.399 281.478C765.749 287.181 767.423 293.609 767.423 300.76H762.127C762.127 307.912 760.588 314.34 757.51 320.043C754.523 325.656 750.404 330.138 745.153 333.487C739.902 336.746 733.972 338.376 727.364 338.376ZM730.08 326.154C734.697 326.154 738.816 325.068 742.437 322.895C746.058 320.632 748.91 317.599 750.992 313.797C753.074 309.904 754.115 305.559 754.115 300.76C754.115 295.872 753.074 291.526 750.992 287.724C748.91 283.831 746.058 280.799 742.437 278.626C738.816 276.363 734.697 275.231 730.08 275.231C725.553 275.231 721.434 276.363 717.722 278.626C714.101 280.799 711.204 283.831 709.031 287.724C706.949 291.526 705.908 295.872 705.908 300.76C705.908 305.559 706.949 309.904 709.031 313.797C711.204 317.599 714.101 320.632 717.722 322.895C721.434 325.068 725.553 326.154 730.08 326.154ZM760.498 337.968C758.506 337.968 756.831 337.335 755.473 336.067C754.206 334.709 753.572 333.035 753.572 331.043V310.266L756.152 295.872L767.423 300.76V331.043C767.423 333.035 766.744 334.709 765.387 336.067C764.119 337.335 762.49 337.968 760.498 337.968Z" fill="#FAFAFA"/>
<path d="M827.147 338.376C820.086 338.376 813.703 336.746 808 333.487C802.387 330.138 797.906 325.611 794.556 319.908C791.297 314.204 789.667 307.777 789.667 300.625C789.667 293.473 791.161 287.09 794.149 281.478C797.227 275.774 801.391 271.293 806.642 268.034C811.893 264.684 817.822 263.009 824.431 263.009C829.772 263.009 834.706 264.141 839.233 266.404C843.759 268.577 847.562 271.564 850.64 275.367V238.702C850.64 236.62 851.273 234.945 852.541 233.677C853.899 232.41 855.573 231.776 857.565 231.776C859.647 231.776 861.322 232.41 862.59 233.677C863.857 234.945 864.491 236.62 864.491 238.702V300.625C864.491 307.777 862.816 314.204 859.466 319.908C856.207 325.611 851.771 330.138 846.158 333.487C840.545 336.746 834.208 338.376 827.147 338.376ZM827.147 326.154C831.764 326.154 835.883 325.068 839.504 322.895C843.126 320.632 845.977 317.554 848.059 313.661C850.142 309.768 851.183 305.423 851.183 300.625C851.183 295.736 850.142 291.391 848.059 287.588C845.977 283.786 843.126 280.799 839.504 278.626C835.883 276.363 831.764 275.231 827.147 275.231C822.62 275.231 818.501 276.363 814.79 278.626C811.168 280.799 808.271 283.786 806.099 287.588C804.016 291.391 802.975 295.736 802.975 300.625C802.975 305.423 804.016 309.768 806.099 313.661C808.271 317.554 811.168 320.632 814.79 322.895C818.501 325.068 822.62 326.154 827.147 326.154Z" fill="#FAFAFA"/>
<path d="M929.282 338.376C921.768 338.376 915.069 336.792 909.184 333.623C903.39 330.364 898.819 325.928 895.469 320.315C892.21 314.612 890.58 308.093 890.58 300.76C890.58 293.337 892.119 286.819 895.197 281.206C898.366 275.503 902.711 271.067 908.234 267.898C913.756 264.639 920.093 263.009 927.245 263.009C934.307 263.009 940.372 264.594 945.442 267.762C950.511 270.84 954.359 275.14 956.984 280.663C959.7 286.095 961.058 292.386 961.058 299.538C961.058 301.258 960.47 302.707 959.293 303.884C958.116 304.97 956.622 305.513 954.812 305.513H900.086V294.65H954.404L948.837 298.452C948.746 293.925 947.841 289.897 946.121 286.366C944.401 282.745 941.956 279.893 938.788 277.811C935.619 275.729 931.772 274.688 927.245 274.688C922.085 274.688 917.649 275.819 913.937 278.083C910.316 280.346 907.555 283.469 905.654 287.453C903.753 291.345 902.802 295.781 902.802 300.76C902.802 305.74 903.934 310.176 906.197 314.068C908.46 317.961 911.583 321.039 915.567 323.303C919.55 325.566 924.122 326.697 929.282 326.697C932.089 326.697 934.94 326.199 937.837 325.204C940.825 324.117 943.224 322.895 945.034 321.537C946.392 320.541 947.841 320.043 949.38 320.043C951.009 319.953 952.413 320.406 953.589 321.401C955.128 322.759 955.943 324.253 956.034 325.883C956.124 327.512 955.4 328.915 953.861 330.092C950.783 332.537 946.935 334.528 942.318 336.067C937.792 337.606 933.446 338.376 929.282 338.376Z" fill="#FAFAFA"/>
<path d="M1081.66 337.968C1079.67 337.968 1077.99 337.335 1076.63 336.067C1075.37 334.709 1074.73 333.035 1074.73 331.043V292.205C1074.73 286.502 1073.33 282.292 1070.52 279.576C1067.72 276.77 1064.05 275.367 1059.52 275.367C1054.82 275.367 1050.92 276.996 1047.84 280.255C1044.86 283.514 1043.36 287.679 1043.36 292.749H1032.09C1032.09 286.864 1033.36 281.704 1035.89 277.268C1038.43 272.741 1041.96 269.211 1046.49 266.676C1051.1 264.141 1056.35 262.874 1062.24 262.874C1067.4 262.874 1071.97 264.005 1075.95 266.268C1079.94 268.532 1083.02 271.881 1085.19 276.317C1087.45 280.663 1088.58 285.959 1088.58 292.205V331.043C1088.58 333.035 1087.95 334.709 1086.68 336.067C1085.41 337.335 1083.74 337.968 1081.66 337.968ZM991.082 337.968C989.09 337.968 987.415 337.335 986.057 336.067C984.79 334.709 984.156 333.035 984.156 331.043V270.614C984.156 268.532 984.79 266.857 986.057 265.589C987.415 264.322 989.09 263.688 991.082 263.688C993.164 263.688 994.839 264.322 996.106 265.589C997.374 266.857 998.007 268.532 998.007 270.614V331.043C998.007 333.035 997.374 334.709 996.106 336.067C994.839 337.335 993.164 337.968 991.082 337.968ZM1036.44 337.968C1034.45 337.968 1032.77 337.335 1031.41 336.067C1030.15 334.709 1029.51 333.035 1029.51 331.043V292.205C1029.51 286.502 1028.11 282.292 1025.3 279.576C1022.5 276.77 1018.83 275.367 1014.3 275.367C1009.6 275.367 1005.7 276.996 1002.62 280.255C999.546 283.514 998.007 287.679 998.007 292.749H989.452C989.452 286.864 990.629 281.704 992.983 277.268C995.337 272.741 998.596 269.211 1002.76 266.676C1006.92 264.141 1011.68 262.874 1017.02 262.874C1022.18 262.874 1026.75 264.005 1030.73 266.268C1034.72 268.532 1037.8 271.881 1039.97 276.317C1042.23 280.663 1043.36 285.959 1043.36 292.205V331.043C1043.36 333.035 1042.73 334.709 1041.46 336.067C1040.19 337.335 1038.52 337.968 1036.44 337.968Z" fill="#FAFAFA"/>
<path d="M1130.34 370.424C1129.43 370.424 1128.35 370.152 1127.08 369.609C1123.09 367.798 1122.01 364.946 1123.82 361.054L1165.24 267.491C1167.05 263.688 1169.9 262.602 1173.79 264.231C1177.87 265.952 1179 268.803 1177.19 272.787L1135.63 366.214C1134.55 369.02 1132.78 370.424 1130.34 370.424ZM1146.36 334.845C1144.64 335.569 1143.01 335.66 1141.47 335.117C1140.02 334.483 1138.85 333.306 1137.94 331.586L1106.84 272.515C1105.94 270.795 1105.8 269.165 1106.44 267.626C1107.16 265.997 1108.38 264.82 1110.1 264.096C1111.82 263.371 1113.45 263.326 1114.99 263.96C1116.53 264.503 1117.71 265.635 1118.52 267.355L1148.26 326.426C1149.17 328.146 1149.48 329.821 1149.21 331.45C1149.03 332.989 1148.08 334.121 1146.36 334.845Z" fill="#FAFAFA"/>
<path d="M1194.19 115.923C1193.57 115.923 1193.04 115.711 1192.62 115.286C1192.19 114.862 1191.98 114.339 1191.98 113.717V82.8018H1196.4V113.717C1196.4 114.339 1196.19 114.862 1195.77 115.286C1195.34 115.711 1194.82 115.923 1194.19 115.923ZM1182.8 86.8729C1182.2 86.8729 1181.71 86.6892 1181.31 86.3216C1180.94 85.9258 1180.76 85.4311 1180.76 84.8374C1180.76 84.2436 1180.94 83.763 1181.31 83.3955C1181.71 82.9997 1182.2 82.8018 1182.8 82.8018H1205.54C1206.14 82.8018 1206.62 82.9997 1206.99 83.3955C1207.39 83.763 1207.58 84.2436 1207.58 84.8374C1207.58 85.4311 1207.39 85.9258 1206.99 86.3216C1206.62 86.6892 1206.14 86.8729 1205.54 86.8729H1182.8Z" fill="#FAFAFA"/>
<path d="M1215.97 115.923C1215.34 115.923 1214.82 115.711 1214.39 115.286C1213.97 114.862 1213.75 114.339 1213.75 113.717V85.007C1213.75 84.3567 1213.97 83.8337 1214.39 83.4379C1214.82 83.0138 1215.34 82.8018 1215.97 82.8018C1216.82 82.8018 1217.47 83.1976 1217.92 83.9892L1231.23 110.579H1229.87L1242.83 83.9892C1243.29 83.1976 1243.94 82.8018 1244.79 82.8018C1245.41 82.8018 1245.94 83.0138 1246.36 83.4379C1246.79 83.8337 1247 84.3567 1247 85.007V113.717C1247 114.339 1246.77 114.862 1246.32 115.286C1245.89 115.711 1245.38 115.923 1244.79 115.923C1244.17 115.923 1243.64 115.711 1243.22 115.286C1242.79 114.862 1242.58 114.339 1242.58 113.717V91.1138L1243.43 90.9017L1232.29 113.548C1231.81 114.283 1231.17 114.65 1230.38 114.65C1229.44 114.65 1228.76 114.212 1228.34 113.336L1217.33 91.3258L1218.18 91.1138V113.717C1218.18 114.339 1217.96 114.862 1217.54 115.286C1217.11 115.711 1216.59 115.923 1215.97 115.923Z" fill="#FAFAFA"/>
<path d="M405.029 42.5949C345.455 14.384 280.334 -0.167901 214.418 0.00146155C148.066 -0.162174 82.5236 14.5807 22.6321 43.1414C15.1411 46.6932 8.95385 52.5067 4.94282 59.7622C0.93179 67.0177 -0.700706 75.3492 0.275513 83.5819C16.9135 221.914 83.4659 349.419 187.441 442.165C194.704 448.659 204.105 452.249 213.847 452.249C223.59 452.249 232.99 448.659 240.253 442.165C344.365 349.296 410.952 221.582 427.485 83.052C428.459 74.8052 426.815 66.4608 422.785 59.2001C418.755 51.9394 412.543 46.1302 405.029 42.5949V42.5949ZM398.107 79.4915C382.448 210.895 319.292 332.042 220.529 420.123C218.7 421.785 216.318 422.705 213.847 422.705C211.376 422.705 208.994 421.785 207.165 420.123C108.553 332.174 45.4276 211.259 29.6371 80.0711C29.4006 77.9843 29.8246 75.8759 30.8496 74.0429C31.8746 72.2098 33.4488 70.7445 35.3505 69.8533C60.5312 57.8392 86.8642 48.4068 113.946 41.7006C115.203 41.3955 116.512 41.3789 117.775 41.652C119.039 41.9252 120.225 42.4809 121.243 43.2777C122.261 44.0744 123.086 45.0914 123.655 46.2523C124.224 47.4132 124.522 48.688 124.528 49.9808V203.363C124.533 223.827 131.23 243.728 143.596 260.033C155.962 276.338 173.321 288.152 193.025 293.674C212.73 299.197 233.7 298.125 252.739 290.622C271.778 283.12 287.841 269.597 298.481 252.117C309.121 234.636 313.753 214.157 311.672 193.799C309.59 173.441 300.91 154.322 286.953 139.356C272.996 124.39 254.528 114.399 234.365 110.904C214.202 107.409 193.449 110.603 175.27 119.998C173.02 121.123 170.52 121.651 168.009 121.534C165.497 121.417 163.057 120.657 160.923 119.328C158.788 117.999 157.03 116.145 155.816 113.943C154.602 111.741 153.973 109.264 153.989 106.75V46.8509C153.992 43.3338 155.251 39.9334 157.541 37.2639C159.831 34.5944 163 32.8317 166.476 32.2943L167.403 32.1784C182.998 30.4356 198.677 29.5675 214.369 29.5784C275.907 29.415 336.706 42.9937 392.327 69.3234C394.242 70.1893 395.833 71.64 396.871 73.467C397.91 75.294 398.342 77.4032 398.107 79.4915V79.4915ZM154.006 200.002C154.657 187.569 158.898 175.592 166.215 165.521C173.533 155.449 183.613 147.715 195.236 143.255C206.859 138.794 219.525 137.799 231.702 140.389C243.879 142.98 255.044 149.045 263.844 157.85C272.645 166.655 278.705 177.823 281.289 190.001C283.874 202.179 282.872 214.845 278.406 226.465C273.94 238.086 266.201 248.163 256.126 255.475C246.05 262.788 234.071 267.023 221.639 267.668C212.639 268.103 203.647 266.651 195.242 263.405C186.837 260.158 179.204 255.188 172.834 248.815C166.465 242.442 161.499 234.807 158.256 226.4C155.013 217.994 153.566 209.001 154.006 200.002V200.002Z" fill="url(#paint0_linear_737_38)"/>
<defs>
<linearGradient id="paint0_linear_737_38" x1="359.753" y1="374.151" x2="132.08" y2="-20.2022" gradientUnits="userSpaceOnUse">
<stop stop-color="#3A0CA3"/>
<stop offset="1" stop-color="#4CC9F0"/>
</linearGradient>
</defs>
</svg>
