<svg width="2188" height="274" viewBox="0 0 2188 274" fill="none" xmlns="http://www.w3.org/2000/svg">
<path d="M357.7 199.72C348.34 199.72 339.94 197.56 332.5 193.24C325.06 188.8 319.18 182.8 314.86 175.24C310.54 167.68 308.32 159.16 308.2 149.68V67.6C308.2 64.84 309.04 62.62 310.72 60.94C312.52 59.26 314.74 58.42 317.38 58.42C320.14 58.42 322.36 59.26 324.04 60.94C325.72 62.62 326.56 64.84 326.56 67.6V116.2C330.76 111.16 335.8 107.2 341.68 104.32C347.68 101.32 354.22 99.82 361.3 99.82C370.06 99.82 377.92 102.04 384.88 106.48C391.84 110.8 397.3 116.74 401.26 124.3C405.34 131.74 407.38 140.2 407.38 149.68C407.38 159.16 405.16 167.68 400.72 175.24C396.4 182.8 390.52 188.8 383.08 193.24C375.64 197.56 367.18 199.72 357.7 199.72ZM357.7 183.52C363.82 183.52 369.28 182.08 374.08 179.2C378.88 176.2 382.66 172.12 385.42 166.96C388.3 161.8 389.74 156.04 389.74 149.68C389.74 143.2 388.3 137.44 385.42 132.4C382.66 127.36 378.88 123.4 374.08 120.52C369.28 117.52 363.82 116.02 357.7 116.02C351.7 116.02 346.24 117.52 341.32 120.52C336.52 123.4 332.74 127.36 329.98 132.4C327.22 137.44 325.84 143.2 325.84 149.68C325.84 156.04 327.22 161.8 329.98 166.96C332.74 172.12 336.52 176.2 341.32 179.2C346.24 182.08 351.7 183.52 357.7 183.52ZM450.782 137.44C450.782 130.24 452.522 123.82 456.002 118.18C459.602 112.42 464.402 107.86 470.402 104.5C476.402 101.14 483.002 99.46 490.202 99.46C497.402 99.46 502.743 100.66 506.223 103.06C509.823 105.34 511.203 108.1 510.363 111.34C510.002 113.02 509.282 114.34 508.203 115.3C507.243 116.14 506.102 116.68 504.782 116.92C503.463 117.16 502.023 117.1 500.463 116.74C492.782 115.18 485.882 115.06 479.762 116.38C473.642 117.7 468.782 120.16 465.182 123.76C461.702 127.36 459.962 131.92 459.962 137.44H450.782ZM450.962 199C448.082 199 445.862 198.28 444.302 196.84C442.742 195.28 441.962 193 441.962 190V109.54C441.962 106.66 442.742 104.44 444.302 102.88C445.862 101.32 448.082 100.54 450.962 100.54C453.962 100.54 456.182 101.32 457.622 102.88C459.182 104.32 459.962 106.54 459.962 109.54V190C459.962 192.88 459.182 195.1 457.622 196.66C456.182 198.22 453.962 199 450.962 199ZM554.342 242.2C553.142 242.2 551.702 241.84 550.022 241.12C544.742 238.72 543.302 234.94 545.702 229.78L600.602 105.76C603.002 100.72 606.782 99.28 611.942 101.44C617.342 103.72 618.842 107.5 616.442 112.78L561.362 236.62C559.922 240.34 557.582 242.2 554.342 242.2ZM575.582 195.04C573.302 196 571.142 196.12 569.102 195.4C567.182 194.56 565.622 193 564.422 190.72L523.202 112.42C522.002 110.14 521.822 107.98 522.662 105.94C523.622 103.78 525.242 102.22 527.522 101.26C529.802 100.3 531.962 100.24 534.002 101.08C536.042 101.8 537.602 103.3 538.682 105.58L578.102 183.88C579.302 186.16 579.722 188.38 579.362 190.54C579.122 192.58 577.862 194.08 575.582 195.04ZM676.753 199C670.753 199 665.353 197.5 660.553 194.5C655.753 191.38 651.973 187.18 649.213 181.9C646.453 176.62 645.073 170.68 645.073 164.08V78.22C645.073 75.58 645.913 73.42 647.593 71.74C649.273 70.06 651.433 69.22 654.073 69.22C656.713 69.22 658.873 70.06 660.553 71.74C662.233 73.42 663.073 75.58 663.073 78.22V164.08C663.073 168.88 664.393 172.9 667.033 176.14C669.673 179.38 672.913 181 676.753 181H682.873C685.033 181 686.833 181.84 688.273 183.52C689.833 185.2 690.613 187.36 690.613 190C690.613 192.64 689.593 194.8 687.553 196.48C685.633 198.16 683.113 199 679.993 199H676.753ZM636.793 119.62C634.273 119.62 632.233 118.9 630.673 117.46C629.113 116.02 628.333 114.22 628.333 112.06C628.333 109.66 629.113 107.74 630.673 106.3C632.233 104.86 634.273 104.14 636.793 104.14H678.373C680.893 104.14 682.933 104.86 684.493 106.3C686.053 107.74 686.833 109.66 686.833 112.06C686.833 114.22 686.053 116.02 684.493 117.46C682.933 118.9 680.893 119.62 678.373 119.62H636.793ZM729.559 163.18C726.919 163.18 724.699 162.34 722.899 160.66C721.219 158.86 720.379 156.64 720.379 154V67.6C720.379 64.84 721.219 62.62 722.899 60.94C724.699 59.26 726.919 58.42 729.559 58.42C732.319 58.42 734.539 59.26 736.219 60.94C737.899 62.62 738.739 64.84 738.739 67.6V154C738.739 156.64 737.899 158.86 736.219 160.66C734.539 162.34 732.319 163.18 729.559 163.18ZM803.539 199.18C800.899 199.18 798.679 198.34 796.879 196.66C795.199 194.86 794.359 192.64 794.359 190V145.72C794.359 138.88 793.099 133.3 790.579 128.98C788.059 124.66 784.639 121.48 780.319 119.44C776.119 117.28 771.259 116.2 765.739 116.2C760.699 116.2 756.139 117.22 752.059 119.26C747.979 121.3 744.739 124.06 742.339 127.54C739.939 130.9 738.739 134.8 738.739 139.24H727.399C727.399 131.68 729.199 124.96 732.799 119.08C736.519 113.08 741.559 108.34 747.919 104.86C754.279 101.38 761.419 99.64 769.339 99.64C777.619 99.64 784.999 101.44 791.479 105.04C798.079 108.52 803.239 113.68 806.959 120.52C810.799 127.36 812.719 135.76 812.719 145.72V190C812.719 192.64 811.819 194.86 810.019 196.66C808.339 198.34 806.179 199.18 803.539 199.18ZM729.559 199.18C726.919 199.18 724.699 198.34 722.899 196.66C721.219 194.86 720.379 192.64 720.379 190V109.72C720.379 106.96 721.219 104.74 722.899 103.06C724.699 101.38 726.919 100.54 729.559 100.54C732.319 100.54 734.539 101.38 736.219 103.06C737.899 104.74 738.739 106.96 738.739 109.72V190C738.739 192.64 737.899 194.86 736.219 196.66C734.539 198.34 732.319 199.18 729.559 199.18ZM895.09 199.72C885.37 199.72 876.79 197.62 869.35 193.42C861.91 189.1 856.03 183.22 851.71 175.78C847.51 168.22 845.41 159.58 845.41 149.86C845.41 140.02 847.51 131.38 851.71 123.94C856.03 116.38 861.91 110.5 869.35 106.3C876.79 101.98 885.37 99.82 895.09 99.82C904.69 99.82 913.21 101.98 920.65 106.3C928.09 110.5 933.91 116.38 938.11 123.94C942.43 131.38 944.59 140.02 944.59 149.86C944.59 159.58 942.49 168.22 938.29 175.78C934.09 183.22 928.27 189.1 920.83 193.42C913.39 197.62 904.81 199.72 895.09 199.72ZM895.09 183.52C901.33 183.52 906.85 182.08 911.65 179.2C916.45 176.32 920.17 172.36 922.81 167.32C925.57 162.28 926.95 156.46 926.95 149.86C926.95 143.26 925.57 137.44 922.81 132.4C920.17 127.24 916.45 123.22 911.65 120.34C906.85 117.46 901.33 116.02 895.09 116.02C888.85 116.02 883.33 117.46 878.53 120.34C873.73 123.22 869.95 127.24 867.19 132.4C864.43 137.44 863.05 143.26 863.05 149.86C863.05 156.46 864.43 162.28 867.19 167.32C869.95 172.36 873.73 176.32 878.53 179.2C883.33 182.08 888.85 183.52 895.09 183.52ZM1062.27 199.18C1059.63 199.18 1057.41 198.34 1055.61 196.66C1053.93 194.86 1053.09 192.64 1053.09 190V145.72C1053.09 138.88 1051.83 133.3 1049.31 128.98C1046.79 124.66 1043.37 121.48 1039.05 119.44C1034.85 117.28 1029.99 116.2 1024.47 116.2C1019.43 116.2 1014.87 117.22 1010.79 119.26C1006.71 121.3 1003.47 124.06 1001.07 127.54C998.675 130.9 997.475 134.8 997.475 139.24H986.135C986.135 131.68 987.935 124.96 991.535 119.08C995.255 113.08 1000.29 108.34 1006.65 104.86C1013.01 101.38 1020.15 99.64 1028.07 99.64C1036.35 99.64 1043.73 101.44 1050.21 105.04C1056.81 108.52 1061.97 113.68 1065.69 120.52C1069.53 127.36 1071.45 135.76 1071.45 145.72V190C1071.45 192.64 1070.55 194.86 1068.75 196.66C1067.07 198.34 1064.91 199.18 1062.27 199.18ZM988.295 199.18C985.655 199.18 983.435 198.34 981.635 196.66C979.955 194.86 979.115 192.64 979.115 190V109.72C979.115 106.96 979.955 104.74 981.635 103.06C983.435 101.38 985.655 100.54 988.295 100.54C991.055 100.54 993.275 101.38 994.955 103.06C996.635 104.74 997.475 106.96 997.475 109.72V190C997.475 192.64 996.635 194.86 994.955 196.66C993.275 198.34 991.055 199.18 988.295 199.18ZM1119.99 199C1117.35 199 1115.13 198.16 1113.33 196.48C1111.65 194.68 1110.81 192.46 1110.81 189.82V109.72C1110.81 106.96 1111.65 104.74 1113.33 103.06C1115.13 101.38 1117.35 100.54 1119.99 100.54C1122.75 100.54 1124.97 101.38 1126.65 103.06C1128.33 104.74 1129.17 106.96 1129.17 109.72V189.82C1129.17 192.46 1128.33 194.68 1126.65 196.48C1124.97 198.16 1122.75 199 1119.99 199ZM1119.99 84.52C1116.75 84.52 1113.93 83.38 1111.53 81.1C1109.25 78.7 1108.11 75.88 1108.11 72.64C1108.11 69.4 1109.25 66.64 1111.53 64.36C1113.93 61.96 1116.75 60.76 1119.99 60.76C1123.23 60.76 1125.99 61.96 1128.27 64.36C1130.67 66.64 1131.87 69.4 1131.87 72.64C1131.87 75.88 1130.67 78.7 1128.27 81.1C1125.99 83.38 1123.23 84.52 1119.99 84.52ZM1215.17 199.72C1205.57 199.72 1196.99 197.56 1189.43 193.24C1181.99 188.8 1176.11 182.86 1171.79 175.42C1167.59 167.86 1165.49 159.34 1165.49 149.86C1165.49 140.14 1167.59 131.5 1171.79 123.94C1175.99 116.38 1181.75 110.5 1189.07 106.3C1196.39 101.98 1204.79 99.82 1214.27 99.82C1221.35 99.82 1227.83 101.2 1233.71 103.96C1239.59 106.6 1244.87 110.62 1249.55 116.02C1251.23 117.94 1251.83 119.92 1251.35 121.96C1250.87 124 1249.55 125.8 1247.39 127.36C1245.71 128.56 1243.85 128.98 1241.81 128.62C1239.77 128.14 1237.91 127.06 1236.23 125.38C1230.35 119.14 1223.03 116.02 1214.27 116.02C1208.15 116.02 1202.75 117.46 1198.07 120.34C1193.39 123.1 1189.73 127 1187.09 132.04C1184.45 137.08 1183.13 143.02 1183.13 149.86C1183.13 156.34 1184.45 162.1 1187.09 167.14C1189.85 172.18 1193.63 176.2 1198.43 179.2C1203.23 182.08 1208.81 183.52 1215.17 183.52C1219.37 183.52 1223.03 183.04 1226.15 182.08C1229.39 181 1232.33 179.38 1234.97 177.22C1236.89 175.66 1238.87 174.82 1240.91 174.7C1242.95 174.46 1244.75 175 1246.31 176.32C1248.35 178 1249.49 179.92 1249.73 182.08C1249.97 184.12 1249.25 185.98 1247.57 187.66C1238.93 195.7 1228.13 199.72 1215.17 199.72ZM1386.81 199.72C1378.05 199.72 1370.19 197.56 1363.23 193.24C1356.27 188.8 1350.75 182.86 1346.67 175.42C1342.71 167.86 1340.73 159.34 1340.73 149.86C1340.73 140.38 1342.89 131.86 1347.21 124.3C1351.65 116.74 1357.59 110.8 1365.03 106.48C1372.59 102.04 1381.05 99.82 1390.41 99.82C1399.77 99.82 1408.17 102.04 1415.61 106.48C1423.05 110.8 1428.93 116.74 1433.25 124.3C1437.69 131.86 1439.91 140.38 1439.91 149.86H1432.89C1432.89 159.34 1430.85 167.86 1426.77 175.42C1422.81 182.86 1417.35 188.8 1410.39 193.24C1403.43 197.56 1395.57 199.72 1386.81 199.72ZM1390.41 183.52C1396.53 183.52 1401.99 182.08 1406.79 179.2C1411.59 176.2 1415.37 172.18 1418.13 167.14C1420.89 161.98 1422.27 156.22 1422.27 149.86C1422.27 143.38 1420.89 137.62 1418.13 132.58C1415.37 127.42 1411.59 123.4 1406.79 120.52C1401.99 117.52 1396.53 116.02 1390.41 116.02C1384.41 116.02 1378.95 117.52 1374.03 120.52C1369.23 123.4 1365.39 127.42 1362.51 132.58C1359.75 137.62 1358.37 143.38 1358.37 149.86C1358.37 156.22 1359.75 161.98 1362.51 167.14C1365.39 172.18 1369.23 176.2 1374.03 179.2C1378.95 182.08 1384.41 183.52 1390.41 183.52ZM1430.73 199.18C1428.09 199.18 1425.87 198.34 1424.07 196.66C1422.39 194.86 1421.55 192.64 1421.55 190V162.46L1424.97 143.38L1439.91 149.86V190C1439.91 192.64 1439.01 194.86 1437.21 196.66C1435.53 198.34 1433.37 199.18 1430.73 199.18ZM1511.87 199.72C1502.27 199.72 1493.69 197.56 1486.13 193.24C1478.69 188.8 1472.81 182.86 1468.49 175.42C1464.29 167.86 1462.19 159.34 1462.19 149.86C1462.19 140.14 1464.29 131.5 1468.49 123.94C1472.69 116.38 1478.45 110.5 1485.77 106.3C1493.09 101.98 1501.49 99.82 1510.97 99.82C1518.05 99.82 1524.53 101.2 1530.41 103.96C1536.29 106.6 1541.57 110.62 1546.25 116.02C1547.93 117.94 1548.53 119.92 1548.05 121.96C1547.57 124 1546.25 125.8 1544.09 127.36C1542.41 128.56 1540.55 128.98 1538.51 128.62C1536.47 128.14 1534.61 127.06 1532.93 125.38C1527.05 119.14 1519.73 116.02 1510.97 116.02C1504.85 116.02 1499.45 117.46 1494.77 120.34C1490.09 123.1 1486.43 127 1483.79 132.04C1481.15 137.08 1479.83 143.02 1479.83 149.86C1479.83 156.34 1481.15 162.1 1483.79 167.14C1486.55 172.18 1490.33 176.2 1495.13 179.2C1499.93 182.08 1505.51 183.52 1511.87 183.52C1516.07 183.52 1519.73 183.04 1522.85 182.08C1526.09 181 1529.03 179.38 1531.67 177.22C1533.59 175.66 1535.57 174.82 1537.61 174.7C1539.65 174.46 1541.45 175 1543.01 176.32C1545.05 178 1546.19 179.92 1546.43 182.08C1546.67 184.12 1545.95 185.98 1544.27 187.66C1535.63 195.7 1524.83 199.72 1511.87 199.72ZM1616.38 199.72C1607.62 199.72 1599.76 197.56 1592.8 193.24C1585.84 188.8 1580.32 182.86 1576.24 175.42C1572.28 167.86 1570.3 159.34 1570.3 149.86C1570.3 140.38 1572.46 131.86 1576.78 124.3C1581.22 116.74 1587.16 110.8 1594.6 106.48C1602.16 102.04 1610.62 99.82 1619.98 99.82C1629.34 99.82 1637.74 102.04 1645.18 106.48C1652.62 110.8 1658.5 116.74 1662.82 124.3C1667.26 131.86 1669.48 140.38 1669.48 149.86H1662.46C1662.46 159.34 1660.42 167.86 1656.34 175.42C1652.38 182.86 1646.92 188.8 1639.96 193.24C1633 197.56 1625.14 199.72 1616.38 199.72ZM1619.98 183.52C1626.1 183.52 1631.56 182.08 1636.36 179.2C1641.16 176.2 1644.94 172.18 1647.7 167.14C1650.46 161.98 1651.84 156.22 1651.84 149.86C1651.84 143.38 1650.46 137.62 1647.7 132.58C1644.94 127.42 1641.16 123.4 1636.36 120.52C1631.56 117.52 1626.1 116.02 1619.98 116.02C1613.98 116.02 1608.52 117.52 1603.6 120.52C1598.8 123.4 1594.96 127.42 1592.08 132.58C1589.32 137.62 1587.94 143.38 1587.94 149.86C1587.94 156.22 1589.32 161.98 1592.08 167.14C1594.96 172.18 1598.8 176.2 1603.6 179.2C1608.52 182.08 1613.98 183.52 1619.98 183.52ZM1660.3 199.18C1657.66 199.18 1655.44 198.34 1653.64 196.66C1651.96 194.86 1651.12 192.64 1651.12 190V162.46L1654.54 143.38L1669.48 149.86V190C1669.48 192.64 1668.58 194.86 1666.78 196.66C1665.1 198.34 1662.94 199.18 1660.3 199.18ZM1741.44 199.72C1732.08 199.72 1723.62 197.56 1716.06 193.24C1708.62 188.8 1702.68 182.8 1698.24 175.24C1693.92 167.68 1691.76 159.16 1691.76 149.68C1691.76 140.2 1693.74 131.74 1697.7 124.3C1701.78 116.74 1707.3 110.8 1714.26 106.48C1721.22 102.04 1729.08 99.82 1737.84 99.82C1744.92 99.82 1751.46 101.32 1757.46 104.32C1763.46 107.2 1768.5 111.16 1772.58 116.2V67.6C1772.58 64.84 1773.42 62.62 1775.1 60.94C1776.9 59.26 1779.12 58.42 1781.76 58.42C1784.52 58.42 1786.74 59.26 1788.42 60.94C1790.1 62.62 1790.94 64.84 1790.94 67.6V149.68C1790.94 159.16 1788.72 167.68 1784.28 175.24C1779.96 182.8 1774.08 188.8 1766.64 193.24C1759.2 197.56 1750.8 199.72 1741.44 199.72ZM1741.44 183.52C1747.56 183.52 1753.02 182.08 1757.82 179.2C1762.62 176.2 1766.4 172.12 1769.16 166.96C1771.92 161.8 1773.3 156.04 1773.3 149.68C1773.3 143.2 1771.92 137.44 1769.16 132.4C1766.4 127.36 1762.62 123.4 1757.82 120.52C1753.02 117.52 1747.56 116.02 1741.44 116.02C1735.44 116.02 1729.98 117.52 1725.06 120.52C1720.26 123.4 1716.42 127.36 1713.54 132.4C1710.78 137.44 1709.4 143.2 1709.4 149.68C1709.4 156.04 1710.78 161.8 1713.54 166.96C1716.42 172.12 1720.26 176.2 1725.06 179.2C1729.98 182.08 1735.44 183.52 1741.44 183.52ZM1869.62 199.72C1859.66 199.72 1850.78 197.62 1842.98 193.42C1835.3 189.1 1829.24 183.22 1824.8 175.78C1820.48 168.22 1818.32 159.58 1818.32 149.86C1818.32 140.02 1820.36 131.38 1824.44 123.94C1828.64 116.38 1834.4 110.5 1841.72 106.3C1849.04 101.98 1857.44 99.82 1866.92 99.82C1876.28 99.82 1884.32 101.92 1891.04 106.12C1897.76 110.2 1902.86 115.9 1906.34 123.22C1909.94 130.42 1911.74 138.76 1911.74 148.24C1911.74 150.52 1910.96 152.44 1909.4 154C1907.84 155.44 1905.86 156.16 1903.46 156.16H1830.92V141.76H1902.92L1895.54 146.8C1895.42 140.8 1894.22 135.46 1891.94 130.78C1889.66 125.98 1886.42 122.2 1882.22 119.44C1878.02 116.68 1872.92 115.3 1866.92 115.3C1860.08 115.3 1854.2 116.8 1849.28 119.8C1844.48 122.8 1840.82 126.94 1838.3 132.22C1835.78 137.38 1834.52 143.26 1834.52 149.86C1834.52 156.46 1836.02 162.34 1839.02 167.5C1842.02 172.66 1846.16 176.74 1851.44 179.74C1856.72 182.74 1862.78 184.24 1869.62 184.24C1873.34 184.24 1877.12 183.58 1880.96 182.26C1884.92 180.82 1888.1 179.2 1890.5 177.4C1892.3 176.08 1894.22 175.42 1896.26 175.42C1898.42 175.3 1900.28 175.9 1901.84 177.22C1903.88 179.02 1904.96 181 1905.08 183.16C1905.2 185.32 1904.24 187.18 1902.2 188.74C1898.12 191.98 1893.02 194.62 1886.9 196.66C1880.9 198.7 1875.14 199.72 1869.62 199.72ZM2064.4 199.18C2061.76 199.18 2059.54 198.34 2057.74 196.66C2056.06 194.86 2055.22 192.64 2055.22 190V138.52C2055.22 130.96 2053.36 125.38 2049.64 121.78C2045.92 118.06 2041.06 116.2 2035.06 116.2C2028.82 116.2 2023.66 118.36 2019.58 122.68C2015.62 127 2013.64 132.52 2013.64 139.24H1998.7C1998.7 131.44 2000.38 124.6 2003.74 118.72C2007.1 112.72 2011.78 108.04 2017.78 104.68C2023.9 101.32 2030.86 99.64 2038.66 99.64C2045.5 99.64 2051.56 101.14 2056.84 104.14C2062.12 107.14 2066.2 111.58 2069.08 117.46C2072.08 123.22 2073.58 130.24 2073.58 138.52V190C2073.58 192.64 2072.74 194.86 2071.06 196.66C2069.38 198.34 2067.16 199.18 2064.4 199.18ZM1944.34 199.18C1941.7 199.18 1939.48 198.34 1937.68 196.66C1936 194.86 1935.16 192.64 1935.16 190V109.9C1935.16 107.14 1936 104.92 1937.68 103.24C1939.48 101.56 1941.7 100.72 1944.34 100.72C1947.1 100.72 1949.32 101.56 1951 103.24C1952.68 104.92 1953.52 107.14 1953.52 109.9V190C1953.52 192.64 1952.68 194.86 1951 196.66C1949.32 198.34 1947.1 199.18 1944.34 199.18ZM2004.46 199.18C2001.82 199.18 1999.6 198.34 1997.8 196.66C1996.12 194.86 1995.28 192.64 1995.28 190V138.52C1995.28 130.96 1993.42 125.38 1989.7 121.78C1985.98 118.06 1981.12 116.2 1975.12 116.2C1968.88 116.2 1963.72 118.36 1959.64 122.68C1955.56 127 1953.52 132.52 1953.52 139.24H1942.18C1942.18 131.44 1943.74 124.6 1946.86 118.72C1949.98 112.72 1954.3 108.04 1959.82 104.68C1965.34 101.32 1971.64 99.64 1978.72 99.64C1985.56 99.64 1991.62 101.14 1996.9 104.14C2002.18 107.14 2006.26 111.58 2009.14 117.46C2012.14 123.22 2013.64 130.24 2013.64 138.52V190C2013.64 192.64 2012.8 194.86 2011.12 196.66C2009.44 198.34 2007.22 199.18 2004.46 199.18ZM2121.73 242.2C2120.53 242.2 2119.09 241.84 2117.41 241.12C2112.13 238.72 2110.69 234.94 2113.09 229.78L2167.99 105.76C2170.39 100.72 2174.17 99.28 2179.33 101.44C2184.73 103.72 2186.23 107.5 2183.83 112.78L2128.75 236.62C2127.31 240.34 2124.97 242.2 2121.73 242.2ZM2142.97 195.04C2140.69 196 2138.53 196.12 2136.49 195.4C2134.57 194.56 2133.01 193 2131.81 190.72L2090.59 112.42C2089.39 110.14 2089.21 107.98 2090.05 105.94C2091.01 103.78 2092.63 102.22 2094.91 101.26C2097.19 100.3 2099.35 100.24 2101.39 101.08C2103.43 101.8 2104.99 103.3 2106.07 105.58L2145.49 183.88C2146.69 186.16 2147.11 188.38 2146.75 190.54C2146.51 192.58 2145.25 194.08 2142.97 195.04Z" fill="#FAFAFA"/>
<path d="M244.576 25.7209C208.603 8.68576 169.279 -0.101387 129.476 0.000882555C89.4093 -0.0979284 49.8318 8.80453 13.6664 26.0509C9.14292 28.1956 5.40678 31.7061 2.98472 36.0874C0.56266 40.4686 -0.423121 45.4996 0.166369 50.4709C10.2132 134.003 50.4008 210.996 113.186 267.001C117.572 270.922 123.248 273.09 129.131 273.09C135.014 273.09 140.691 270.922 145.076 267.001C207.945 210.922 248.153 133.802 258.136 50.1509C258.725 45.171 257.732 40.1323 255.298 35.7479C252.865 31.3636 249.114 27.8557 244.576 25.7209V25.7209ZM240.396 48.0009C230.941 127.349 192.804 200.503 133.166 253.691C132.062 254.694 130.623 255.25 129.131 255.25C127.639 255.25 126.201 254.694 125.096 253.691C65.5494 200.583 27.4314 127.568 17.8964 48.3509C17.7535 47.0908 18.0096 45.8176 18.6285 44.7107C19.2474 43.6038 20.198 42.719 21.3464 42.1809C36.5517 34.9261 52.4529 29.2304 68.8064 25.1809C69.565 24.9966 70.3556 24.9866 71.1186 25.1515C71.8817 25.3165 72.5975 25.6521 73.2124 26.1332C73.8272 26.6143 74.3252 27.2284 74.6688 27.9294C75.0124 28.6304 75.1927 29.4002 75.1964 30.1809V122.801C75.1994 135.158 79.2428 147.175 86.7103 157.021C94.1777 166.866 104.66 174 116.558 177.335C128.457 180.67 141.12 180.023 152.616 175.492C164.113 170.962 173.813 162.796 180.237 152.241C186.662 141.685 189.459 129.318 188.203 117.025C186.946 104.732 181.704 93.1873 173.276 84.1502C164.848 75.1131 153.697 69.0795 141.521 66.9691C129.346 64.8587 116.814 66.7873 105.836 72.4609C104.478 73.1397 102.969 73.459 101.452 73.3882C99.9352 73.3173 98.462 72.8588 97.173 72.0563C95.884 71.2538 94.8223 70.1342 94.0893 68.8045C93.3564 67.4747 92.9766 65.9792 92.9864 64.4609V28.2909C92.9877 26.1671 93.7484 24.1138 95.1312 22.5018C96.5139 20.8898 98.4275 19.8254 100.526 19.5009L101.086 19.4309C110.503 18.3785 119.971 17.8543 129.446 17.8609C166.606 17.7622 203.319 25.9617 236.906 41.8609C238.063 42.3837 239.023 43.2597 239.65 44.363C240.278 45.4662 240.539 46.7399 240.396 48.0009V48.0009ZM92.9964 120.771C93.3893 113.264 95.9501 106.031 100.369 99.9496C104.788 93.8679 110.875 89.1976 117.893 86.5042C124.911 83.8108 132.56 83.2098 139.913 84.774C147.266 86.3382 154.008 90.0005 159.322 95.3175C164.637 100.634 168.296 107.378 169.856 114.732C171.417 122.085 170.812 129.734 168.115 136.751C165.418 143.768 160.745 149.853 154.661 154.269C148.577 158.684 141.344 161.242 133.836 161.631C128.402 161.894 122.972 161.017 117.897 159.057C112.821 157.096 108.212 154.095 104.366 150.247C100.519 146.399 97.5209 141.788 95.5628 136.712C93.6047 131.635 92.7305 126.205 92.9964 120.771V120.771Z" fill="url(#paint0_linear_737_11)"/>
<defs>
<linearGradient id="paint0_linear_737_11" x1="217.236" y1="225.931" x2="79.7564" y2="-12.1991" gradientUnits="userSpaceOnUse">
<stop stop-color="#3A0CA3"/>
<stop offset="1" stop-color="#4CC9F0"/>
</linearGradient>
</defs>
</svg>
