<svg width="24" height="20" viewBox="0 0 24 20" fill="none" xmlns="http://www.w3.org/2000/svg">
<path d="M23.1429 0H0.857143C0.383036 0 0 0.40625 0 0.909091V19.0909C0 19.5938 0.383036 20 0.857143 20H23.1429C23.617 20 24 19.5938 24 19.0909V0.909091C24 0.40625 23.617 0 23.1429 0ZM22.0714 3.14773V17.9545H1.92857V3.14773L1.18929 2.53693L2.24196 1.10227L3.38839 2.0483H20.6143L21.7607 1.10227L22.8134 2.53693L22.0714 3.14773V3.14773ZM20.6143 2.04545L12 9.14773L3.38571 2.04545L2.23929 1.09943L1.18661 2.53409L1.92589 3.14489L11.0759 10.6903C11.339 10.9072 11.6628 11.0249 11.996 11.0249C12.3292 11.0249 12.6529 10.9072 12.9161 10.6903L22.0714 3.14773L22.8107 2.53693L21.758 1.10227L20.6143 2.04545Z" fill="url(#paint0_linear_431_413)"/>
<defs>
<linearGradient id="paint0_linear_431_413" x1="20.1844" y1="16.5462" x2="11.4185" y2="-2.71725" gradientUnits="userSpaceOnUse">
<stop stop-color="#3A0CA3"/>
<stop offset="1" stop-color="#4CC9F0"/>
</linearGradient>
</defs>
</svg>
