<svg width="259" height="274" viewBox="0 0 259 274" fill="none" xmlns="http://www.w3.org/2000/svg">
<path d="M244.576 25.7209C208.603 8.68576 169.279 -0.101387 129.476 0.000882555C89.4093 -0.0979284 49.8318 8.80453 13.6664 26.0509C9.14292 28.1956 5.40678 31.7061 2.98472 36.0874C0.56266 40.4686 -0.423121 45.4996 0.166369 50.4709C10.2132 134.003 50.4008 210.996 113.186 267.001C117.572 270.922 123.248 273.09 129.131 273.09C135.014 273.09 140.691 270.922 145.076 267.001C207.945 210.922 248.153 133.802 258.136 50.1509C258.725 45.171 257.732 40.1323 255.298 35.7479C252.865 31.3636 249.114 27.8557 244.576 25.7209ZM240.396 48.0009C230.941 127.349 192.804 200.503 133.166 253.691C132.062 254.694 130.623 255.25 129.131 255.25C127.639 255.25 126.201 254.694 125.096 253.691C65.5494 200.583 27.4314 127.568 17.8964 48.3509C17.7535 47.0908 18.0096 45.8176 18.6285 44.7107C19.2474 43.6038 20.198 42.719 21.3464 42.1809C36.5517 34.9261 52.4529 29.2304 68.8064 25.1809C69.565 24.9966 70.3556 24.9866 71.1186 25.1515C71.8817 25.3165 72.5975 25.6521 73.2124 26.1332C73.8272 26.6143 74.3252 27.2284 74.6688 27.9294C75.0124 28.6304 75.1927 29.4002 75.1964 30.1809V122.801C75.1994 135.158 79.2428 147.175 86.7103 157.021C94.1777 166.866 104.66 174 116.558 177.335C128.457 180.67 141.12 180.023 152.616 175.492C164.113 170.962 173.813 162.796 180.237 152.241C186.662 141.685 189.459 129.318 188.203 117.025C186.946 104.732 181.704 93.1873 173.276 84.1502C164.848 75.1131 153.697 69.0795 141.521 66.9691C129.346 64.8587 116.814 66.7873 105.836 72.4609C104.478 73.1397 102.969 73.459 101.452 73.3882C99.9352 73.3173 98.462 72.8588 97.173 72.0563C95.884 71.2538 94.8223 70.1342 94.0893 68.8045C93.3564 67.4747 92.9766 65.9792 92.9864 64.4609V28.2909C92.9877 26.1671 93.7484 24.1138 95.1312 22.5018C96.5139 20.8898 98.4275 19.8254 100.526 19.5009L101.086 19.4309C110.503 18.3785 119.971 17.8543 129.446 17.8609C166.606 17.7622 203.319 25.9617 236.906 41.8609C238.063 42.3837 239.023 43.2597 239.65 44.363C240.278 45.4662 240.539 46.7399 240.396 48.0009ZM92.9964 120.771C93.3893 113.264 95.9501 106.031 100.369 99.9496C104.788 93.8679 110.875 89.1976 117.893 86.5042C124.911 83.8108 132.56 83.2098 139.913 84.774C147.266 86.3382 154.008 90.0005 159.322 95.3175C164.637 100.634 168.296 107.378 169.856 114.732C171.417 122.085 170.812 129.734 168.115 136.751C165.418 143.768 160.745 149.853 154.661 154.269C148.577 158.684 141.344 161.242 133.836 161.631C128.402 161.894 122.972 161.017 117.897 159.057C112.821 157.096 108.212 154.095 104.366 150.247C100.519 146.399 97.5209 141.788 95.5628 136.712C93.6047 131.635 92.7305 126.205 92.9964 120.771Z" fill="url(#paint0_linear_12_28)"/>
<defs>
<linearGradient id="paint0_linear_12_28" x1="217.236" y1="225.931" x2="79.7564" y2="-12.1991" gradientUnits="userSpaceOnUse">
<stop stop-color="#3A0CA3"/>
<stop offset="1" stop-color="#4CC9F0"/>
</linearGradient>
</defs>
</svg>
